G04 #@! TF.GenerationSoftware,KiCad,Pcbnew,(5.0.0-3-g5ebb6b6)*
G04 #@! TF.CreationDate,2019-09-09T21:31:56-07:00*
G04 #@! TF.ProjectId,panelizedpetr002,70616E656C697A656470657472303032,rev?*
G04 #@! TF.SameCoordinates,Original*
G04 #@! TF.FileFunction,Soldermask,Top*
G04 #@! TF.FilePolarity,Negative*
%FSLAX46Y46*%
G04 Gerber Fmt 4.6, Leading zero omitted, Abs format (unit mm)*
G04 Created by KiCad (PCBNEW (5.0.0-3-g5ebb6b6)) date Monday, September 09, 2019 at 09:31:56 PM*
%MOMM*%
%LPD*%
G01*
G04 APERTURE LIST*
%ADD10R,2.750000X2.750000*%
%ADD11R,0.600000X1.200000*%
%ADD12R,1.200000X0.600000*%
%ADD13C,3.600000*%
G04 APERTURE END LIST*
D10*
G04 #@! TO.C,REF\002A\002A*
X74803000Y-72402700D03*
D11*
X73603000Y-70402700D03*
X74003000Y-70402700D03*
X74403000Y-70402700D03*
X74803000Y-70402700D03*
X75203000Y-70402700D03*
X75603000Y-70402700D03*
X76003000Y-70402700D03*
D12*
X76803000Y-71202700D03*
X76803000Y-71602700D03*
X76803000Y-72002700D03*
X76803000Y-72402700D03*
X76803000Y-72802700D03*
X76803000Y-73202700D03*
X76803000Y-73602700D03*
D11*
X76003000Y-74402700D03*
X75603000Y-74402700D03*
X75203000Y-74402700D03*
X74803000Y-74402700D03*
X74403000Y-74402700D03*
X74003000Y-74402700D03*
X73603000Y-74402700D03*
D12*
X72803000Y-73602700D03*
X72803000Y-73202700D03*
X72803000Y-72802700D03*
X72803000Y-72402700D03*
X72803000Y-72002700D03*
X72803000Y-71602700D03*
X72803000Y-71202700D03*
G04 #@! TD*
D13*
G04 #@! TO.C,REF\002A\002A*
X74752200Y-40170100D03*
G04 #@! TD*
D10*
G04 #@! TO.C,REF\002A\002A*
X115150900Y-74358500D03*
D11*
X113950900Y-72358500D03*
X114350900Y-72358500D03*
X114750900Y-72358500D03*
X115150900Y-72358500D03*
X115550900Y-72358500D03*
X115950900Y-72358500D03*
X116350900Y-72358500D03*
D12*
X117150900Y-73158500D03*
X117150900Y-73558500D03*
X117150900Y-73958500D03*
X117150900Y-74358500D03*
X117150900Y-74758500D03*
X117150900Y-75158500D03*
X117150900Y-75558500D03*
D11*
X116350900Y-76358500D03*
X115950900Y-76358500D03*
X115550900Y-76358500D03*
X115150900Y-76358500D03*
X114750900Y-76358500D03*
X114350900Y-76358500D03*
X113950900Y-76358500D03*
D12*
X113150900Y-75558500D03*
X113150900Y-75158500D03*
X113150900Y-74758500D03*
X113150900Y-74358500D03*
X113150900Y-73958500D03*
X113150900Y-73558500D03*
X113150900Y-73158500D03*
G04 #@! TD*
D13*
G04 #@! TO.C,REF\002A\002A*
X115100100Y-42125900D03*
G04 #@! TD*
D10*
G04 #@! TO.C,REF\002A\002A*
X83375500Y-110553500D03*
D12*
X85375500Y-109353500D03*
X85375500Y-109753500D03*
X85375500Y-110153500D03*
X85375500Y-110553500D03*
X85375500Y-110953500D03*
X85375500Y-111353500D03*
X85375500Y-111753500D03*
D11*
X84575500Y-112553500D03*
X84175500Y-112553500D03*
X83775500Y-112553500D03*
X83375500Y-112553500D03*
X82975500Y-112553500D03*
X82575500Y-112553500D03*
X82175500Y-112553500D03*
D12*
X81375500Y-111753500D03*
X81375500Y-111353500D03*
X81375500Y-110953500D03*
X81375500Y-110553500D03*
X81375500Y-110153500D03*
X81375500Y-109753500D03*
X81375500Y-109353500D03*
D11*
X82175500Y-108553500D03*
X82575500Y-108553500D03*
X82975500Y-108553500D03*
X83375500Y-108553500D03*
X83775500Y-108553500D03*
X84175500Y-108553500D03*
X84575500Y-108553500D03*
G04 #@! TD*
D13*
G04 #@! TO.C,REF\002A\002A*
X115608100Y-110502700D03*
G04 #@! TD*
M02*
