G04 #@! TF.GenerationSoftware,KiCad,Pcbnew,(5.0.0-3-g5ebb6b6)*
G04 #@! TF.CreationDate,2019-09-09T21:31:56-07:00*
G04 #@! TF.ProjectId,panelizedpetr002,70616E656C697A656470657472303032,rev?*
G04 #@! TF.SameCoordinates,Original*
G04 #@! TF.FileFunction,Paste,Bot*
G04 #@! TF.FilePolarity,Positive*
%FSLAX46Y46*%
G04 Gerber Fmt 4.6, Leading zero omitted, Abs format (unit mm)*
G04 Created by KiCad (PCBNEW (5.0.0-3-g5ebb6b6)) date Monday, September 09, 2019 at 09:31:56 PM*
%MOMM*%
%LPD*%
G01*
G04 APERTURE LIST*
%ADD10R,0.800000X0.200000*%
%ADD11R,0.200000X0.800000*%
%ADD12R,0.950000X0.950000*%
%ADD13R,2.350000X2.350000*%
G04 APERTURE END LIST*
D10*
G04 #@! TO.C,REF\002A\002A*
X72803000Y-73602700D03*
X72803000Y-73202700D03*
X72803000Y-72802700D03*
X72803000Y-72402700D03*
X72803000Y-72002700D03*
X72803000Y-71602700D03*
X72803000Y-71202700D03*
D11*
X73603000Y-70402700D03*
X74003000Y-70402700D03*
X74403000Y-70402700D03*
X74803000Y-70402700D03*
X75203000Y-70402700D03*
X75603000Y-70402700D03*
X76003000Y-70402700D03*
D10*
X76803000Y-71202700D03*
X76803000Y-71602700D03*
X76803000Y-72002700D03*
X76803000Y-72402700D03*
X76803000Y-72802700D03*
X76803000Y-73202700D03*
X76803000Y-73602700D03*
D11*
X76003000Y-74402700D03*
X75603000Y-74402700D03*
X75203000Y-74402700D03*
X74803000Y-74402700D03*
X74403000Y-74402700D03*
X74003000Y-74402700D03*
X73603000Y-74402700D03*
D12*
X75390500Y-71815200D03*
D13*
X74803000Y-72402700D03*
D12*
X74215500Y-71815200D03*
X74215500Y-72990200D03*
X75390500Y-72990200D03*
G04 #@! TD*
D10*
G04 #@! TO.C,REF\002A\002A*
X113150900Y-75558500D03*
X113150900Y-75158500D03*
X113150900Y-74758500D03*
X113150900Y-74358500D03*
X113150900Y-73958500D03*
X113150900Y-73558500D03*
X113150900Y-73158500D03*
D11*
X113950900Y-72358500D03*
X114350900Y-72358500D03*
X114750900Y-72358500D03*
X115150900Y-72358500D03*
X115550900Y-72358500D03*
X115950900Y-72358500D03*
X116350900Y-72358500D03*
D10*
X117150900Y-73158500D03*
X117150900Y-73558500D03*
X117150900Y-73958500D03*
X117150900Y-74358500D03*
X117150900Y-74758500D03*
X117150900Y-75158500D03*
X117150900Y-75558500D03*
D11*
X116350900Y-76358500D03*
X115950900Y-76358500D03*
X115550900Y-76358500D03*
X115150900Y-76358500D03*
X114750900Y-76358500D03*
X114350900Y-76358500D03*
X113950900Y-76358500D03*
D12*
X115738400Y-73771000D03*
D13*
X115150900Y-74358500D03*
D12*
X114563400Y-73771000D03*
X114563400Y-74946000D03*
X115738400Y-74946000D03*
G04 #@! TD*
D11*
G04 #@! TO.C,REF\002A\002A*
X82175500Y-108553500D03*
X82575500Y-108553500D03*
X82975500Y-108553500D03*
X83375500Y-108553500D03*
X83775500Y-108553500D03*
X84175500Y-108553500D03*
X84575500Y-108553500D03*
D10*
X85375500Y-109353500D03*
X85375500Y-109753500D03*
X85375500Y-110153500D03*
X85375500Y-110553500D03*
X85375500Y-110953500D03*
X85375500Y-111353500D03*
X85375500Y-111753500D03*
D11*
X84575500Y-112553500D03*
X84175500Y-112553500D03*
X83775500Y-112553500D03*
X83375500Y-112553500D03*
X82975500Y-112553500D03*
X82575500Y-112553500D03*
X82175500Y-112553500D03*
D10*
X81375500Y-111753500D03*
X81375500Y-111353500D03*
X81375500Y-110953500D03*
X81375500Y-110553500D03*
X81375500Y-110153500D03*
X81375500Y-109753500D03*
X81375500Y-109353500D03*
D12*
X83963000Y-111141000D03*
D13*
X83375500Y-110553500D03*
D12*
X83963000Y-109966000D03*
X82788000Y-109966000D03*
X82788000Y-111141000D03*
G04 #@! TD*
M02*
