G04 #@! TF.GenerationSoftware,KiCad,Pcbnew,(5.0.0-3-g5ebb6b6)*
G04 #@! TF.CreationDate,2019-09-09T21:19:02-07:00*
G04 #@! TF.ProjectId,panelized001,70616E656C697A65643030312E6B6963,rev?*
G04 #@! TF.SameCoordinates,Original*
G04 #@! TF.FileFunction,Copper,L2,Bot,Signal*
G04 #@! TF.FilePolarity,Positive*
%FSLAX46Y46*%
G04 Gerber Fmt 4.6, Leading zero omitted, Abs format (unit mm)*
G04 Created by KiCad (PCBNEW (5.0.0-3-g5ebb6b6)) date Monday, September 09, 2019 at 09:19:02 PM*
%MOMM*%
%LPD*%
G01*
G04 APERTURE LIST*
G04 #@! TA.AperFunction,EtchedComponent*
%ADD10C,0.010000*%
G04 #@! TD*
G04 APERTURE END LIST*
D10*
G04 #@! TO.C,G\002A\002A\002A*
G36*
X175220404Y-130112198D02*
X176496899Y-130183508D01*
X177230632Y-130302752D01*
X177584139Y-130536932D01*
X177719955Y-130953053D01*
X177746057Y-131153361D01*
X177573281Y-132139146D01*
X177078000Y-132921500D01*
X175578000Y-133321500D01*
X174028000Y-133321500D01*
X172878000Y-133321500D01*
X171978000Y-133221500D01*
X171552305Y-132982306D01*
X171151959Y-132504839D01*
X171158779Y-131745451D01*
X171529140Y-130964990D01*
X171957210Y-130561303D01*
X172781820Y-130226908D01*
X174012101Y-130095166D01*
X175220404Y-130112198D01*
X175220404Y-130112198D01*
G37*
X175220404Y-130112198D02*
X176496899Y-130183508D01*
X177230632Y-130302752D01*
X177584139Y-130536932D01*
X177719955Y-130953053D01*
X177746057Y-131153361D01*
X177573281Y-132139146D01*
X177078000Y-132921500D01*
X175578000Y-133321500D01*
X174028000Y-133321500D01*
X172878000Y-133321500D01*
X171978000Y-133221500D01*
X171552305Y-132982306D01*
X171151959Y-132504839D01*
X171158779Y-131745451D01*
X171529140Y-130964990D01*
X171957210Y-130561303D01*
X172781820Y-130226908D01*
X174012101Y-130095166D01*
X175220404Y-130112198D01*
G36*
X189122538Y-130153595D02*
X190437085Y-130230569D01*
X191429098Y-130301882D01*
X193024699Y-130433966D01*
X194049416Y-130561943D01*
X194636485Y-130726745D01*
X194919138Y-130969307D01*
X195030611Y-131330562D01*
X195042893Y-131412159D01*
X194959645Y-132178018D01*
X194690115Y-132553285D01*
X193978000Y-132821500D01*
X192856418Y-133023622D01*
X191612827Y-132993071D01*
X190270707Y-132703789D01*
X189328000Y-132721500D01*
X188451393Y-132536156D01*
X187993355Y-131293399D01*
X187829765Y-130530751D01*
X187823525Y-130144583D01*
X187824791Y-130143226D01*
X188199918Y-130122198D01*
X189122538Y-130153595D01*
X189122538Y-130153595D01*
G37*
X189122538Y-130153595D02*
X190437085Y-130230569D01*
X191429098Y-130301882D01*
X193024699Y-130433966D01*
X194049416Y-130561943D01*
X194636485Y-130726745D01*
X194919138Y-130969307D01*
X195030611Y-131330562D01*
X195042893Y-131412159D01*
X194959645Y-132178018D01*
X194690115Y-132553285D01*
X193978000Y-132821500D01*
X192856418Y-133023622D01*
X191612827Y-132993071D01*
X190270707Y-132703789D01*
X189328000Y-132721500D01*
X188451393Y-132536156D01*
X187993355Y-131293399D01*
X187829765Y-130530751D01*
X187823525Y-130144583D01*
X187824791Y-130143226D01*
X188199918Y-130122198D01*
X189122538Y-130153595D01*
G36*
X171705522Y-112204267D02*
X172062412Y-112687143D01*
X171956679Y-113252164D01*
X171450069Y-113686791D01*
X170720812Y-113813166D01*
X169981990Y-113709711D01*
X169719739Y-113276138D01*
X169700222Y-112931222D01*
X169817274Y-112296466D01*
X170311019Y-112068009D01*
X170737735Y-112049277D01*
X171705522Y-112204267D01*
X171705522Y-112204267D01*
G37*
X171705522Y-112204267D02*
X172062412Y-112687143D01*
X171956679Y-113252164D01*
X171450069Y-113686791D01*
X170720812Y-113813166D01*
X169981990Y-113709711D01*
X169719739Y-113276138D01*
X169700222Y-112931222D01*
X169817274Y-112296466D01*
X170311019Y-112068009D01*
X170737735Y-112049277D01*
X171705522Y-112204267D01*
G36*
X200834009Y-112051887D02*
X201577699Y-112585405D01*
X201797598Y-113195805D01*
X201487004Y-113338823D01*
X200728000Y-113521500D01*
X199662990Y-113539845D01*
X198478000Y-113521500D01*
X197947589Y-113404022D01*
X197386529Y-112934438D01*
X197406527Y-112540339D01*
X198007039Y-112136613D01*
X198474598Y-111975677D01*
X199738998Y-111826377D01*
X200834009Y-112051887D01*
X200834009Y-112051887D01*
G37*
X200834009Y-112051887D02*
X201577699Y-112585405D01*
X201797598Y-113195805D01*
X201487004Y-113338823D01*
X200728000Y-113521500D01*
X199662990Y-113539845D01*
X198478000Y-113521500D01*
X197947589Y-113404022D01*
X197386529Y-112934438D01*
X197406527Y-112540339D01*
X198007039Y-112136613D01*
X198474598Y-111975677D01*
X199738998Y-111826377D01*
X200834009Y-112051887D01*
G36*
X185146334Y-106348702D02*
X186996344Y-106397883D01*
X188648495Y-106490236D01*
X190428000Y-106421500D01*
X191078000Y-106471500D01*
X191428000Y-106871500D01*
X191468544Y-107513510D01*
X191371882Y-108098012D01*
X190752691Y-108737373D01*
X189561057Y-109482542D01*
X187747063Y-110384468D01*
X187680995Y-110415182D01*
X185758385Y-111271237D01*
X184365269Y-111797576D01*
X183419094Y-112015493D01*
X182837308Y-111946278D01*
X182595381Y-111726870D01*
X182189978Y-111449816D01*
X181302984Y-111015135D01*
X180114531Y-110509998D01*
X179928728Y-110436414D01*
X178742782Y-109912467D01*
X177868622Y-109414480D01*
X177470033Y-109038139D01*
X177461333Y-108994932D01*
X177502388Y-108697849D01*
X177707988Y-108571265D01*
X178201785Y-108631091D01*
X179107431Y-108893235D01*
X180548577Y-109373607D01*
X180636333Y-109403444D01*
X182039881Y-109834527D01*
X183322359Y-110148721D01*
X184227180Y-110284073D01*
X184289049Y-110285388D01*
X185259233Y-110182303D01*
X186298519Y-109924261D01*
X187175394Y-109588090D01*
X187658346Y-109250614D01*
X187691888Y-109156186D01*
X187978615Y-108905807D01*
X188221055Y-108874277D01*
X188690814Y-108704104D01*
X188750222Y-108559744D01*
X189049198Y-108249181D01*
X189632166Y-108023856D01*
X190293388Y-107722025D01*
X190514111Y-107402925D01*
X190300216Y-107260714D01*
X189620270Y-107174200D01*
X188416883Y-107142074D01*
X186632663Y-107163029D01*
X184210218Y-107235757D01*
X183811333Y-107250200D01*
X181463355Y-107331083D01*
X179729747Y-107373253D01*
X178520176Y-107372679D01*
X177744310Y-107325327D01*
X177311816Y-107227164D01*
X177132361Y-107074156D01*
X177108555Y-106950943D01*
X177439227Y-106744575D01*
X178345322Y-106580384D01*
X179697961Y-106458534D01*
X181368263Y-106379194D01*
X183227347Y-106342527D01*
X185146334Y-106348702D01*
X185146334Y-106348702D01*
G37*
X185146334Y-106348702D02*
X186996344Y-106397883D01*
X188648495Y-106490236D01*
X190428000Y-106421500D01*
X191078000Y-106471500D01*
X191428000Y-106871500D01*
X191468544Y-107513510D01*
X191371882Y-108098012D01*
X190752691Y-108737373D01*
X189561057Y-109482542D01*
X187747063Y-110384468D01*
X187680995Y-110415182D01*
X185758385Y-111271237D01*
X184365269Y-111797576D01*
X183419094Y-112015493D01*
X182837308Y-111946278D01*
X182595381Y-111726870D01*
X182189978Y-111449816D01*
X181302984Y-111015135D01*
X180114531Y-110509998D01*
X179928728Y-110436414D01*
X178742782Y-109912467D01*
X177868622Y-109414480D01*
X177470033Y-109038139D01*
X177461333Y-108994932D01*
X177502388Y-108697849D01*
X177707988Y-108571265D01*
X178201785Y-108631091D01*
X179107431Y-108893235D01*
X180548577Y-109373607D01*
X180636333Y-109403444D01*
X182039881Y-109834527D01*
X183322359Y-110148721D01*
X184227180Y-110284073D01*
X184289049Y-110285388D01*
X185259233Y-110182303D01*
X186298519Y-109924261D01*
X187175394Y-109588090D01*
X187658346Y-109250614D01*
X187691888Y-109156186D01*
X187978615Y-108905807D01*
X188221055Y-108874277D01*
X188690814Y-108704104D01*
X188750222Y-108559744D01*
X189049198Y-108249181D01*
X189632166Y-108023856D01*
X190293388Y-107722025D01*
X190514111Y-107402925D01*
X190300216Y-107260714D01*
X189620270Y-107174200D01*
X188416883Y-107142074D01*
X186632663Y-107163029D01*
X184210218Y-107235757D01*
X183811333Y-107250200D01*
X181463355Y-107331083D01*
X179729747Y-107373253D01*
X178520176Y-107372679D01*
X177744310Y-107325327D01*
X177311816Y-107227164D01*
X177132361Y-107074156D01*
X177108555Y-106950943D01*
X177439227Y-106744575D01*
X178345322Y-106580384D01*
X179697961Y-106458534D01*
X181368263Y-106379194D01*
X183227347Y-106342527D01*
X185146334Y-106348702D01*
G36*
X179196343Y-93222807D02*
X180059598Y-93587553D01*
X180351671Y-94125357D01*
X180137400Y-94703841D01*
X179481618Y-95190628D01*
X178449164Y-95453342D01*
X178096333Y-95468722D01*
X177215796Y-95413832D01*
X176836139Y-95162002D01*
X176755777Y-94599189D01*
X177049755Y-93719477D01*
X177852434Y-93229221D01*
X179044933Y-93195464D01*
X179196343Y-93222807D01*
X179196343Y-93222807D01*
G37*
X179196343Y-93222807D02*
X180059598Y-93587553D01*
X180351671Y-94125357D01*
X180137400Y-94703841D01*
X179481618Y-95190628D01*
X178449164Y-95453342D01*
X178096333Y-95468722D01*
X177215796Y-95413832D01*
X176836139Y-95162002D01*
X176755777Y-94599189D01*
X177049755Y-93719477D01*
X177852434Y-93229221D01*
X179044933Y-93195464D01*
X179196343Y-93222807D01*
G36*
X185478000Y-92621500D02*
X185828000Y-92621500D01*
X186128000Y-92621500D01*
X186960502Y-93050494D01*
X187269449Y-93589912D01*
X187267290Y-94042563D01*
X187033922Y-94714854D01*
X186401862Y-94991836D01*
X186104388Y-95025921D01*
X185124375Y-94969706D01*
X184428694Y-94743809D01*
X183976223Y-94159983D01*
X183928000Y-93371500D01*
X184128000Y-93121500D01*
X184528000Y-92821500D01*
X184978000Y-92671500D01*
X185478000Y-92621500D01*
G37*
X185478000Y-92621500D02*
X185828000Y-92621500D01*
X186128000Y-92621500D01*
X186960502Y-93050494D01*
X187269449Y-93589912D01*
X187267290Y-94042563D01*
X187033922Y-94714854D01*
X186401862Y-94991836D01*
X186104388Y-95025921D01*
X185124375Y-94969706D01*
X184428694Y-94743809D01*
X183976223Y-94159983D01*
X183928000Y-93371500D01*
X184128000Y-93121500D01*
X184528000Y-92821500D01*
X184978000Y-92671500D01*
X185478000Y-92621500D01*
G36*
X216558904Y-131890198D02*
X217835399Y-131961508D01*
X218569132Y-132080752D01*
X218922639Y-132314932D01*
X219058455Y-132731053D01*
X219084557Y-132931361D01*
X218911781Y-133917146D01*
X218416500Y-134699500D01*
X216916500Y-135099500D01*
X215366500Y-135099500D01*
X214216500Y-135099500D01*
X213316500Y-134999500D01*
X212890805Y-134760306D01*
X212490459Y-134282839D01*
X212497279Y-133523451D01*
X212867640Y-132742990D01*
X213295710Y-132339303D01*
X214120320Y-132004908D01*
X215350601Y-131873166D01*
X216558904Y-131890198D01*
X216558904Y-131890198D01*
G37*
X216558904Y-131890198D02*
X217835399Y-131961508D01*
X218569132Y-132080752D01*
X218922639Y-132314932D01*
X219058455Y-132731053D01*
X219084557Y-132931361D01*
X218911781Y-133917146D01*
X218416500Y-134699500D01*
X216916500Y-135099500D01*
X215366500Y-135099500D01*
X214216500Y-135099500D01*
X213316500Y-134999500D01*
X212890805Y-134760306D01*
X212490459Y-134282839D01*
X212497279Y-133523451D01*
X212867640Y-132742990D01*
X213295710Y-132339303D01*
X214120320Y-132004908D01*
X215350601Y-131873166D01*
X216558904Y-131890198D01*
G36*
X230461038Y-131931595D02*
X231775585Y-132008569D01*
X232767598Y-132079882D01*
X234363199Y-132211966D01*
X235387916Y-132339943D01*
X235974985Y-132504745D01*
X236257638Y-132747307D01*
X236369111Y-133108562D01*
X236381393Y-133190159D01*
X236298145Y-133956018D01*
X236028615Y-134331285D01*
X235316500Y-134599500D01*
X234194918Y-134801622D01*
X232951327Y-134771071D01*
X231609207Y-134481789D01*
X230666500Y-134499500D01*
X229789893Y-134314156D01*
X229331855Y-133071399D01*
X229168265Y-132308751D01*
X229162025Y-131922583D01*
X229163291Y-131921226D01*
X229538418Y-131900198D01*
X230461038Y-131931595D01*
X230461038Y-131931595D01*
G37*
X230461038Y-131931595D02*
X231775585Y-132008569D01*
X232767598Y-132079882D01*
X234363199Y-132211966D01*
X235387916Y-132339943D01*
X235974985Y-132504745D01*
X236257638Y-132747307D01*
X236369111Y-133108562D01*
X236381393Y-133190159D01*
X236298145Y-133956018D01*
X236028615Y-134331285D01*
X235316500Y-134599500D01*
X234194918Y-134801622D01*
X232951327Y-134771071D01*
X231609207Y-134481789D01*
X230666500Y-134499500D01*
X229789893Y-134314156D01*
X229331855Y-133071399D01*
X229168265Y-132308751D01*
X229162025Y-131922583D01*
X229163291Y-131921226D01*
X229538418Y-131900198D01*
X230461038Y-131931595D01*
G36*
X213044022Y-113982267D02*
X213400912Y-114465143D01*
X213295179Y-115030164D01*
X212788569Y-115464791D01*
X212059312Y-115591166D01*
X211320490Y-115487711D01*
X211058239Y-115054138D01*
X211038722Y-114709222D01*
X211155774Y-114074466D01*
X211649519Y-113846009D01*
X212076235Y-113827277D01*
X213044022Y-113982267D01*
X213044022Y-113982267D01*
G37*
X213044022Y-113982267D02*
X213400912Y-114465143D01*
X213295179Y-115030164D01*
X212788569Y-115464791D01*
X212059312Y-115591166D01*
X211320490Y-115487711D01*
X211058239Y-115054138D01*
X211038722Y-114709222D01*
X211155774Y-114074466D01*
X211649519Y-113846009D01*
X212076235Y-113827277D01*
X213044022Y-113982267D01*
G36*
X242172509Y-113829887D02*
X242916199Y-114363405D01*
X243136098Y-114973805D01*
X242825504Y-115116823D01*
X242066500Y-115299500D01*
X241001490Y-115317845D01*
X239816500Y-115299500D01*
X239286089Y-115182022D01*
X238725029Y-114712438D01*
X238745027Y-114318339D01*
X239345539Y-113914613D01*
X239813098Y-113753677D01*
X241077498Y-113604377D01*
X242172509Y-113829887D01*
X242172509Y-113829887D01*
G37*
X242172509Y-113829887D02*
X242916199Y-114363405D01*
X243136098Y-114973805D01*
X242825504Y-115116823D01*
X242066500Y-115299500D01*
X241001490Y-115317845D01*
X239816500Y-115299500D01*
X239286089Y-115182022D01*
X238725029Y-114712438D01*
X238745027Y-114318339D01*
X239345539Y-113914613D01*
X239813098Y-113753677D01*
X241077498Y-113604377D01*
X242172509Y-113829887D01*
G36*
X226484834Y-108126702D02*
X228334844Y-108175883D01*
X229986995Y-108268236D01*
X231766500Y-108199500D01*
X232416500Y-108249500D01*
X232766500Y-108649500D01*
X232807044Y-109291510D01*
X232710382Y-109876012D01*
X232091191Y-110515373D01*
X230899557Y-111260542D01*
X229085563Y-112162468D01*
X229019495Y-112193182D01*
X227096885Y-113049237D01*
X225703769Y-113575576D01*
X224757594Y-113793493D01*
X224175808Y-113724278D01*
X223933881Y-113504870D01*
X223528478Y-113227816D01*
X222641484Y-112793135D01*
X221453031Y-112287998D01*
X221267228Y-112214414D01*
X220081282Y-111690467D01*
X219207122Y-111192480D01*
X218808533Y-110816139D01*
X218799833Y-110772932D01*
X218840888Y-110475849D01*
X219046488Y-110349265D01*
X219540285Y-110409091D01*
X220445931Y-110671235D01*
X221887077Y-111151607D01*
X221974833Y-111181444D01*
X223378381Y-111612527D01*
X224660859Y-111926721D01*
X225565680Y-112062073D01*
X225627549Y-112063388D01*
X226597733Y-111960303D01*
X227637019Y-111702261D01*
X228513894Y-111366090D01*
X228996846Y-111028614D01*
X229030388Y-110934186D01*
X229317115Y-110683807D01*
X229559555Y-110652277D01*
X230029314Y-110482104D01*
X230088722Y-110337744D01*
X230387698Y-110027181D01*
X230970666Y-109801856D01*
X231631888Y-109500025D01*
X231852611Y-109180925D01*
X231638716Y-109038714D01*
X230958770Y-108952200D01*
X229755383Y-108920074D01*
X227971163Y-108941029D01*
X225548718Y-109013757D01*
X225149833Y-109028200D01*
X222801855Y-109109083D01*
X221068247Y-109151253D01*
X219858676Y-109150679D01*
X219082810Y-109103327D01*
X218650316Y-109005164D01*
X218470861Y-108852156D01*
X218447055Y-108728943D01*
X218777727Y-108522575D01*
X219683822Y-108358384D01*
X221036461Y-108236534D01*
X222706763Y-108157194D01*
X224565847Y-108120527D01*
X226484834Y-108126702D01*
X226484834Y-108126702D01*
G37*
X226484834Y-108126702D02*
X228334844Y-108175883D01*
X229986995Y-108268236D01*
X231766500Y-108199500D01*
X232416500Y-108249500D01*
X232766500Y-108649500D01*
X232807044Y-109291510D01*
X232710382Y-109876012D01*
X232091191Y-110515373D01*
X230899557Y-111260542D01*
X229085563Y-112162468D01*
X229019495Y-112193182D01*
X227096885Y-113049237D01*
X225703769Y-113575576D01*
X224757594Y-113793493D01*
X224175808Y-113724278D01*
X223933881Y-113504870D01*
X223528478Y-113227816D01*
X222641484Y-112793135D01*
X221453031Y-112287998D01*
X221267228Y-112214414D01*
X220081282Y-111690467D01*
X219207122Y-111192480D01*
X218808533Y-110816139D01*
X218799833Y-110772932D01*
X218840888Y-110475849D01*
X219046488Y-110349265D01*
X219540285Y-110409091D01*
X220445931Y-110671235D01*
X221887077Y-111151607D01*
X221974833Y-111181444D01*
X223378381Y-111612527D01*
X224660859Y-111926721D01*
X225565680Y-112062073D01*
X225627549Y-112063388D01*
X226597733Y-111960303D01*
X227637019Y-111702261D01*
X228513894Y-111366090D01*
X228996846Y-111028614D01*
X229030388Y-110934186D01*
X229317115Y-110683807D01*
X229559555Y-110652277D01*
X230029314Y-110482104D01*
X230088722Y-110337744D01*
X230387698Y-110027181D01*
X230970666Y-109801856D01*
X231631888Y-109500025D01*
X231852611Y-109180925D01*
X231638716Y-109038714D01*
X230958770Y-108952200D01*
X229755383Y-108920074D01*
X227971163Y-108941029D01*
X225548718Y-109013757D01*
X225149833Y-109028200D01*
X222801855Y-109109083D01*
X221068247Y-109151253D01*
X219858676Y-109150679D01*
X219082810Y-109103327D01*
X218650316Y-109005164D01*
X218470861Y-108852156D01*
X218447055Y-108728943D01*
X218777727Y-108522575D01*
X219683822Y-108358384D01*
X221036461Y-108236534D01*
X222706763Y-108157194D01*
X224565847Y-108120527D01*
X226484834Y-108126702D01*
G36*
X220534843Y-95000807D02*
X221398098Y-95365553D01*
X221690171Y-95903357D01*
X221475900Y-96481841D01*
X220820118Y-96968628D01*
X219787664Y-97231342D01*
X219434833Y-97246722D01*
X218554296Y-97191832D01*
X218174639Y-96940002D01*
X218094277Y-96377189D01*
X218388255Y-95497477D01*
X219190934Y-95007221D01*
X220383433Y-94973464D01*
X220534843Y-95000807D01*
X220534843Y-95000807D01*
G37*
X220534843Y-95000807D02*
X221398098Y-95365553D01*
X221690171Y-95903357D01*
X221475900Y-96481841D01*
X220820118Y-96968628D01*
X219787664Y-97231342D01*
X219434833Y-97246722D01*
X218554296Y-97191832D01*
X218174639Y-96940002D01*
X218094277Y-96377189D01*
X218388255Y-95497477D01*
X219190934Y-95007221D01*
X220383433Y-94973464D01*
X220534843Y-95000807D01*
G36*
X226816500Y-94399500D02*
X227166500Y-94399500D01*
X227466500Y-94399500D01*
X228299002Y-94828494D01*
X228607949Y-95367912D01*
X228605790Y-95820563D01*
X228372422Y-96492854D01*
X227740362Y-96769836D01*
X227442888Y-96803921D01*
X226462875Y-96747706D01*
X225767194Y-96521809D01*
X225314723Y-95937983D01*
X225266500Y-95149500D01*
X225466500Y-94899500D01*
X225866500Y-94599500D01*
X226316500Y-94449500D01*
X226816500Y-94399500D01*
G37*
X226816500Y-94399500D02*
X227166500Y-94399500D01*
X227466500Y-94399500D01*
X228299002Y-94828494D01*
X228607949Y-95367912D01*
X228605790Y-95820563D01*
X228372422Y-96492854D01*
X227740362Y-96769836D01*
X227442888Y-96803921D01*
X226462875Y-96747706D01*
X225767194Y-96521809D01*
X225314723Y-95937983D01*
X225266500Y-95149500D01*
X225466500Y-94899500D01*
X225866500Y-94599500D01*
X226316500Y-94449500D01*
X226816500Y-94399500D01*
G36*
X223584198Y-73445596D02*
X223655508Y-72169101D01*
X223774752Y-71435368D01*
X224008932Y-71081861D01*
X224425053Y-70946045D01*
X224625361Y-70919943D01*
X225611146Y-71092719D01*
X226393500Y-71588000D01*
X226793500Y-73088000D01*
X226793500Y-74638000D01*
X226793500Y-75788000D01*
X226693500Y-76688000D01*
X226454306Y-77113695D01*
X225976839Y-77514041D01*
X225217451Y-77507221D01*
X224436990Y-77136860D01*
X224033303Y-76708790D01*
X223698908Y-75884180D01*
X223567166Y-74653899D01*
X223584198Y-73445596D01*
X223584198Y-73445596D01*
G37*
X223584198Y-73445596D02*
X223655508Y-72169101D01*
X223774752Y-71435368D01*
X224008932Y-71081861D01*
X224425053Y-70946045D01*
X224625361Y-70919943D01*
X225611146Y-71092719D01*
X226393500Y-71588000D01*
X226793500Y-73088000D01*
X226793500Y-74638000D01*
X226793500Y-75788000D01*
X226693500Y-76688000D01*
X226454306Y-77113695D01*
X225976839Y-77514041D01*
X225217451Y-77507221D01*
X224436990Y-77136860D01*
X224033303Y-76708790D01*
X223698908Y-75884180D01*
X223567166Y-74653899D01*
X223584198Y-73445596D01*
G36*
X223625595Y-59543462D02*
X223702569Y-58228915D01*
X223773882Y-57236902D01*
X223905966Y-55641301D01*
X224033943Y-54616584D01*
X224198745Y-54029515D01*
X224441307Y-53746862D01*
X224802562Y-53635389D01*
X224884159Y-53623107D01*
X225650018Y-53706355D01*
X226025285Y-53975885D01*
X226293500Y-54688000D01*
X226495622Y-55809582D01*
X226465071Y-57053173D01*
X226175789Y-58395293D01*
X226193500Y-59338000D01*
X226008156Y-60214607D01*
X224765399Y-60672645D01*
X224002751Y-60836235D01*
X223616583Y-60842475D01*
X223615226Y-60841209D01*
X223594198Y-60466082D01*
X223625595Y-59543462D01*
X223625595Y-59543462D01*
G37*
X223625595Y-59543462D02*
X223702569Y-58228915D01*
X223773882Y-57236902D01*
X223905966Y-55641301D01*
X224033943Y-54616584D01*
X224198745Y-54029515D01*
X224441307Y-53746862D01*
X224802562Y-53635389D01*
X224884159Y-53623107D01*
X225650018Y-53706355D01*
X226025285Y-53975885D01*
X226293500Y-54688000D01*
X226495622Y-55809582D01*
X226465071Y-57053173D01*
X226175789Y-58395293D01*
X226193500Y-59338000D01*
X226008156Y-60214607D01*
X224765399Y-60672645D01*
X224002751Y-60836235D01*
X223616583Y-60842475D01*
X223615226Y-60841209D01*
X223594198Y-60466082D01*
X223625595Y-59543462D01*
G36*
X205676267Y-76960478D02*
X206159143Y-76603588D01*
X206724164Y-76709321D01*
X207158791Y-77215931D01*
X207285166Y-77945188D01*
X207181711Y-78684010D01*
X206748138Y-78946261D01*
X206403222Y-78965778D01*
X205768466Y-78848726D01*
X205540009Y-78354981D01*
X205521277Y-77928265D01*
X205676267Y-76960478D01*
X205676267Y-76960478D01*
G37*
X205676267Y-76960478D02*
X206159143Y-76603588D01*
X206724164Y-76709321D01*
X207158791Y-77215931D01*
X207285166Y-77945188D01*
X207181711Y-78684010D01*
X206748138Y-78946261D01*
X206403222Y-78965778D01*
X205768466Y-78848726D01*
X205540009Y-78354981D01*
X205521277Y-77928265D01*
X205676267Y-76960478D01*
G36*
X205523887Y-47831991D02*
X206057405Y-47088301D01*
X206667805Y-46868402D01*
X206810823Y-47178996D01*
X206993500Y-47938000D01*
X207011845Y-49003010D01*
X206993500Y-50188000D01*
X206876022Y-50718411D01*
X206406438Y-51279471D01*
X206012339Y-51259473D01*
X205608613Y-50658961D01*
X205447677Y-50191402D01*
X205298377Y-48927002D01*
X205523887Y-47831991D01*
X205523887Y-47831991D01*
G37*
X205523887Y-47831991D02*
X206057405Y-47088301D01*
X206667805Y-46868402D01*
X206810823Y-47178996D01*
X206993500Y-47938000D01*
X207011845Y-49003010D01*
X206993500Y-50188000D01*
X206876022Y-50718411D01*
X206406438Y-51279471D01*
X206012339Y-51259473D01*
X205608613Y-50658961D01*
X205447677Y-50191402D01*
X205298377Y-48927002D01*
X205523887Y-47831991D01*
G36*
X199820702Y-63519666D02*
X199869883Y-61669656D01*
X199962236Y-60017505D01*
X199893500Y-58238000D01*
X199943500Y-57588000D01*
X200343500Y-57238000D01*
X200985510Y-57197456D01*
X201570012Y-57294118D01*
X202209373Y-57913309D01*
X202954542Y-59104943D01*
X203856468Y-60918937D01*
X203887182Y-60985005D01*
X204743237Y-62907615D01*
X205269576Y-64300731D01*
X205487493Y-65246906D01*
X205418278Y-65828692D01*
X205198870Y-66070619D01*
X204921816Y-66476022D01*
X204487135Y-67363016D01*
X203981998Y-68551469D01*
X203908414Y-68737272D01*
X203384467Y-69923218D01*
X202886480Y-70797378D01*
X202510139Y-71195967D01*
X202466932Y-71204667D01*
X202169849Y-71163612D01*
X202043265Y-70958012D01*
X202103091Y-70464215D01*
X202365235Y-69558569D01*
X202845607Y-68117423D01*
X202875444Y-68029667D01*
X203306527Y-66626119D01*
X203620721Y-65343641D01*
X203756073Y-64438820D01*
X203757388Y-64376951D01*
X203654303Y-63406767D01*
X203396261Y-62367481D01*
X203060090Y-61490606D01*
X202722614Y-61007654D01*
X202628186Y-60974112D01*
X202377807Y-60687385D01*
X202346277Y-60444945D01*
X202176104Y-59975186D01*
X202031744Y-59915778D01*
X201721181Y-59616802D01*
X201495856Y-59033834D01*
X201194025Y-58372612D01*
X200874925Y-58151889D01*
X200732714Y-58365784D01*
X200646200Y-59045730D01*
X200614074Y-60249117D01*
X200635029Y-62033337D01*
X200707757Y-64455782D01*
X200722200Y-64854667D01*
X200803083Y-67202645D01*
X200845253Y-68936253D01*
X200844679Y-70145824D01*
X200797327Y-70921690D01*
X200699164Y-71354184D01*
X200546156Y-71533639D01*
X200422943Y-71557445D01*
X200216575Y-71226773D01*
X200052384Y-70320678D01*
X199930534Y-68968039D01*
X199851194Y-67297737D01*
X199814527Y-65438653D01*
X199820702Y-63519666D01*
X199820702Y-63519666D01*
G37*
X199820702Y-63519666D02*
X199869883Y-61669656D01*
X199962236Y-60017505D01*
X199893500Y-58238000D01*
X199943500Y-57588000D01*
X200343500Y-57238000D01*
X200985510Y-57197456D01*
X201570012Y-57294118D01*
X202209373Y-57913309D01*
X202954542Y-59104943D01*
X203856468Y-60918937D01*
X203887182Y-60985005D01*
X204743237Y-62907615D01*
X205269576Y-64300731D01*
X205487493Y-65246906D01*
X205418278Y-65828692D01*
X205198870Y-66070619D01*
X204921816Y-66476022D01*
X204487135Y-67363016D01*
X203981998Y-68551469D01*
X203908414Y-68737272D01*
X203384467Y-69923218D01*
X202886480Y-70797378D01*
X202510139Y-71195967D01*
X202466932Y-71204667D01*
X202169849Y-71163612D01*
X202043265Y-70958012D01*
X202103091Y-70464215D01*
X202365235Y-69558569D01*
X202845607Y-68117423D01*
X202875444Y-68029667D01*
X203306527Y-66626119D01*
X203620721Y-65343641D01*
X203756073Y-64438820D01*
X203757388Y-64376951D01*
X203654303Y-63406767D01*
X203396261Y-62367481D01*
X203060090Y-61490606D01*
X202722614Y-61007654D01*
X202628186Y-60974112D01*
X202377807Y-60687385D01*
X202346277Y-60444945D01*
X202176104Y-59975186D01*
X202031744Y-59915778D01*
X201721181Y-59616802D01*
X201495856Y-59033834D01*
X201194025Y-58372612D01*
X200874925Y-58151889D01*
X200732714Y-58365784D01*
X200646200Y-59045730D01*
X200614074Y-60249117D01*
X200635029Y-62033337D01*
X200707757Y-64455782D01*
X200722200Y-64854667D01*
X200803083Y-67202645D01*
X200845253Y-68936253D01*
X200844679Y-70145824D01*
X200797327Y-70921690D01*
X200699164Y-71354184D01*
X200546156Y-71533639D01*
X200422943Y-71557445D01*
X200216575Y-71226773D01*
X200052384Y-70320678D01*
X199930534Y-68968039D01*
X199851194Y-67297737D01*
X199814527Y-65438653D01*
X199820702Y-63519666D01*
G36*
X186694807Y-69469657D02*
X187059553Y-68606402D01*
X187597357Y-68314329D01*
X188175841Y-68528600D01*
X188662628Y-69184382D01*
X188925342Y-70216836D01*
X188940722Y-70569667D01*
X188885832Y-71450204D01*
X188634002Y-71829861D01*
X188071189Y-71910223D01*
X187191477Y-71616245D01*
X186701221Y-70813566D01*
X186667464Y-69621067D01*
X186694807Y-69469657D01*
X186694807Y-69469657D01*
G37*
X186694807Y-69469657D02*
X187059553Y-68606402D01*
X187597357Y-68314329D01*
X188175841Y-68528600D01*
X188662628Y-69184382D01*
X188925342Y-70216836D01*
X188940722Y-70569667D01*
X188885832Y-71450204D01*
X188634002Y-71829861D01*
X188071189Y-71910223D01*
X187191477Y-71616245D01*
X186701221Y-70813566D01*
X186667464Y-69621067D01*
X186694807Y-69469657D01*
G36*
X186093500Y-63188000D02*
X186093500Y-62838000D01*
X186093500Y-62538000D01*
X186522494Y-61705498D01*
X187061912Y-61396551D01*
X187514563Y-61398710D01*
X188186854Y-61632078D01*
X188463836Y-62264138D01*
X188497921Y-62561612D01*
X188441706Y-63541625D01*
X188215809Y-64237306D01*
X187631983Y-64689777D01*
X186843500Y-64738000D01*
X186593500Y-64538000D01*
X186293500Y-64138000D01*
X186143500Y-63688000D01*
X186093500Y-63188000D01*
G37*
X186093500Y-63188000D02*
X186093500Y-62838000D01*
X186093500Y-62538000D01*
X186522494Y-61705498D01*
X187061912Y-61396551D01*
X187514563Y-61398710D01*
X188186854Y-61632078D01*
X188463836Y-62264138D01*
X188497921Y-62561612D01*
X188441706Y-63541625D01*
X188215809Y-64237306D01*
X187631983Y-64689777D01*
X186843500Y-64738000D01*
X186593500Y-64538000D01*
X186293500Y-64138000D01*
X186143500Y-63688000D01*
X186093500Y-63188000D01*
G04 #@! TD*
M02*
