G04 #@! TF.GenerationSoftware,KiCad,Pcbnew,(5.0.0-3-g5ebb6b6)*
G04 #@! TF.CreationDate,2019-09-09T21:19:02-07:00*
G04 #@! TF.ProjectId,panelized001,70616E656C697A65643030312E6B6963,rev?*
G04 #@! TF.SameCoordinates,Original*
G04 #@! TF.FileFunction,Legend,Bot*
G04 #@! TF.FilePolarity,Positive*
%FSLAX46Y46*%
G04 Gerber Fmt 4.6, Leading zero omitted, Abs format (unit mm)*
G04 Created by KiCad (PCBNEW (5.0.0-3-g5ebb6b6)) date Monday, September 09, 2019 at 09:19:02 PM*
%MOMM*%
%LPD*%
G01*
G04 APERTURE LIST*
%ADD10C,0.100000*%
%ADD11C,0.010000*%
G04 APERTURE END LIST*
D10*
X195687047Y-134093757D02*
X195329904Y-134093757D01*
X195544190Y-133879471D02*
X195687047Y-134522328D01*
X195377523Y-134308042D02*
X195734666Y-134308042D01*
X195520380Y-134522328D02*
X195377523Y-133879471D01*
X195068000Y-133927090D02*
X195020380Y-133927090D01*
X194972761Y-133950900D01*
X194948952Y-133974709D01*
X194925142Y-134022328D01*
X194901333Y-134117566D01*
X194901333Y-134236614D01*
X194925142Y-134331852D01*
X194948952Y-134379471D01*
X194972761Y-134403280D01*
X195020380Y-134427090D01*
X195068000Y-134427090D01*
X195115619Y-134403280D01*
X195139428Y-134379471D01*
X195163238Y-134331852D01*
X195187047Y-134236614D01*
X195187047Y-134117566D01*
X195163238Y-134022328D01*
X195139428Y-133974709D01*
X195115619Y-133950900D01*
X195068000Y-133927090D01*
X194591809Y-133927090D02*
X194544190Y-133927090D01*
X194496571Y-133950900D01*
X194472761Y-133974709D01*
X194448952Y-134022328D01*
X194425142Y-134117566D01*
X194425142Y-134236614D01*
X194448952Y-134331852D01*
X194472761Y-134379471D01*
X194496571Y-134403280D01*
X194544190Y-134427090D01*
X194591809Y-134427090D01*
X194639428Y-134403280D01*
X194663238Y-134379471D01*
X194687047Y-134331852D01*
X194710857Y-134236614D01*
X194710857Y-134117566D01*
X194687047Y-134022328D01*
X194663238Y-133974709D01*
X194639428Y-133950900D01*
X194591809Y-133927090D01*
X193948952Y-134427090D02*
X194234666Y-134427090D01*
X194091809Y-134427090D02*
X194091809Y-133927090D01*
X194139428Y-133998519D01*
X194187047Y-134046138D01*
X194234666Y-134069947D01*
X237025547Y-135871757D02*
X236668404Y-135871757D01*
X236882690Y-135657471D02*
X237025547Y-136300328D01*
X236716023Y-136086042D02*
X237073166Y-136086042D01*
X236858880Y-136300328D02*
X236716023Y-135657471D01*
X236406500Y-135705090D02*
X236358880Y-135705090D01*
X236311261Y-135728900D01*
X236287452Y-135752709D01*
X236263642Y-135800328D01*
X236239833Y-135895566D01*
X236239833Y-136014614D01*
X236263642Y-136109852D01*
X236287452Y-136157471D01*
X236311261Y-136181280D01*
X236358880Y-136205090D01*
X236406500Y-136205090D01*
X236454119Y-136181280D01*
X236477928Y-136157471D01*
X236501738Y-136109852D01*
X236525547Y-136014614D01*
X236525547Y-135895566D01*
X236501738Y-135800328D01*
X236477928Y-135752709D01*
X236454119Y-135728900D01*
X236406500Y-135705090D01*
X235930309Y-135705090D02*
X235882690Y-135705090D01*
X235835071Y-135728900D01*
X235811261Y-135752709D01*
X235787452Y-135800328D01*
X235763642Y-135895566D01*
X235763642Y-136014614D01*
X235787452Y-136109852D01*
X235811261Y-136157471D01*
X235835071Y-136181280D01*
X235882690Y-136205090D01*
X235930309Y-136205090D01*
X235977928Y-136181280D01*
X236001738Y-136157471D01*
X236025547Y-136109852D01*
X236049357Y-136014614D01*
X236049357Y-135895566D01*
X236025547Y-135800328D01*
X236001738Y-135752709D01*
X235977928Y-135728900D01*
X235930309Y-135705090D01*
X235287452Y-136205090D02*
X235573166Y-136205090D01*
X235430309Y-136205090D02*
X235430309Y-135705090D01*
X235477928Y-135776519D01*
X235525547Y-135824138D01*
X235573166Y-135847947D01*
X227565757Y-52978952D02*
X227565757Y-53336095D01*
X227351471Y-53121809D02*
X227994328Y-52978952D01*
X227780042Y-53288476D02*
X227780042Y-52931333D01*
X227994328Y-53145619D02*
X227351471Y-53288476D01*
X227399090Y-53598000D02*
X227399090Y-53645619D01*
X227422900Y-53693238D01*
X227446709Y-53717047D01*
X227494328Y-53740857D01*
X227589566Y-53764666D01*
X227708614Y-53764666D01*
X227803852Y-53740857D01*
X227851471Y-53717047D01*
X227875280Y-53693238D01*
X227899090Y-53645619D01*
X227899090Y-53598000D01*
X227875280Y-53550380D01*
X227851471Y-53526571D01*
X227803852Y-53502761D01*
X227708614Y-53478952D01*
X227589566Y-53478952D01*
X227494328Y-53502761D01*
X227446709Y-53526571D01*
X227422900Y-53550380D01*
X227399090Y-53598000D01*
X227399090Y-54074190D02*
X227399090Y-54121809D01*
X227422900Y-54169428D01*
X227446709Y-54193238D01*
X227494328Y-54217047D01*
X227589566Y-54240857D01*
X227708614Y-54240857D01*
X227803852Y-54217047D01*
X227851471Y-54193238D01*
X227875280Y-54169428D01*
X227899090Y-54121809D01*
X227899090Y-54074190D01*
X227875280Y-54026571D01*
X227851471Y-54002761D01*
X227803852Y-53978952D01*
X227708614Y-53955142D01*
X227589566Y-53955142D01*
X227494328Y-53978952D01*
X227446709Y-54002761D01*
X227422900Y-54026571D01*
X227399090Y-54074190D01*
X227899090Y-54717047D02*
X227899090Y-54431333D01*
X227899090Y-54574190D02*
X227399090Y-54574190D01*
X227470519Y-54526571D01*
X227518138Y-54478952D01*
X227541947Y-54431333D01*
D11*
G04 #@! TO.C,G\002A\002A\002A*
G36*
X185575222Y-94135222D02*
X185911766Y-94452230D01*
X185928000Y-94508819D01*
X185655058Y-94660344D01*
X185575222Y-94664388D01*
X185236001Y-94393190D01*
X185222444Y-94290791D01*
X185438569Y-94080099D01*
X185575222Y-94135222D01*
X185575222Y-94135222D01*
G37*
X185575222Y-94135222D02*
X185911766Y-94452230D01*
X185928000Y-94508819D01*
X185655058Y-94660344D01*
X185575222Y-94664388D01*
X185236001Y-94393190D01*
X185222444Y-94290791D01*
X185438569Y-94080099D01*
X185575222Y-94135222D01*
G36*
X177814111Y-94488000D02*
X178150655Y-94805008D01*
X178166889Y-94861597D01*
X177893947Y-95013122D01*
X177814111Y-95017166D01*
X177474890Y-94745968D01*
X177461333Y-94643569D01*
X177677458Y-94432877D01*
X177814111Y-94488000D01*
X177814111Y-94488000D01*
G37*
X177814111Y-94488000D02*
X178150655Y-94805008D01*
X178166889Y-94861597D01*
X177893947Y-95013122D01*
X177814111Y-95017166D01*
X177474890Y-94745968D01*
X177461333Y-94643569D01*
X177677458Y-94432877D01*
X177814111Y-94488000D01*
G36*
X191987383Y-84306870D02*
X192107608Y-84443537D01*
X192055430Y-84919613D01*
X191677803Y-85743658D01*
X191321952Y-86330359D01*
X190613724Y-87578944D01*
X189929687Y-89068965D01*
X189634580Y-89848433D01*
X189179792Y-91011674D01*
X188786949Y-91703154D01*
X188508692Y-91857878D01*
X188397665Y-91410851D01*
X188397444Y-91375843D01*
X188536499Y-90595557D01*
X188889816Y-89444225D01*
X189361625Y-88184590D01*
X189856153Y-87079396D01*
X190156305Y-86550500D01*
X190794266Y-85579465D01*
X191028574Y-85072995D01*
X190854198Y-84913499D01*
X190266112Y-84983385D01*
X190090675Y-85015992D01*
X188377136Y-85508193D01*
X186779614Y-86265414D01*
X185545772Y-87160791D01*
X185226225Y-87507763D01*
X184773567Y-88239902D01*
X184879530Y-88557513D01*
X185527700Y-88454898D01*
X186593149Y-87982225D01*
X187487115Y-87545792D01*
X188091895Y-87286841D01*
X188207001Y-87256055D01*
X188389879Y-87530344D01*
X188355823Y-88134264D01*
X188142415Y-88739397D01*
X188018280Y-88905219D01*
X187665048Y-89466291D01*
X187260555Y-90386860D01*
X187164186Y-90651469D01*
X186842161Y-91460401D01*
X186617885Y-91659276D01*
X186438640Y-91378697D01*
X186386189Y-90580598D01*
X186575832Y-89887696D01*
X186779482Y-89370242D01*
X186663405Y-89153796D01*
X186084852Y-89162067D01*
X185387486Y-89252588D01*
X184328692Y-89302429D01*
X183831805Y-89030015D01*
X183856677Y-88358836D01*
X184340155Y-87256721D01*
X184999586Y-86472354D01*
X186067669Y-85713248D01*
X187385819Y-85036837D01*
X188795451Y-84500558D01*
X190137979Y-84161847D01*
X191254818Y-84078139D01*
X191987383Y-84306870D01*
X191987383Y-84306870D01*
G37*
X191987383Y-84306870D02*
X192107608Y-84443537D01*
X192055430Y-84919613D01*
X191677803Y-85743658D01*
X191321952Y-86330359D01*
X190613724Y-87578944D01*
X189929687Y-89068965D01*
X189634580Y-89848433D01*
X189179792Y-91011674D01*
X188786949Y-91703154D01*
X188508692Y-91857878D01*
X188397665Y-91410851D01*
X188397444Y-91375843D01*
X188536499Y-90595557D01*
X188889816Y-89444225D01*
X189361625Y-88184590D01*
X189856153Y-87079396D01*
X190156305Y-86550500D01*
X190794266Y-85579465D01*
X191028574Y-85072995D01*
X190854198Y-84913499D01*
X190266112Y-84983385D01*
X190090675Y-85015992D01*
X188377136Y-85508193D01*
X186779614Y-86265414D01*
X185545772Y-87160791D01*
X185226225Y-87507763D01*
X184773567Y-88239902D01*
X184879530Y-88557513D01*
X185527700Y-88454898D01*
X186593149Y-87982225D01*
X187487115Y-87545792D01*
X188091895Y-87286841D01*
X188207001Y-87256055D01*
X188389879Y-87530344D01*
X188355823Y-88134264D01*
X188142415Y-88739397D01*
X188018280Y-88905219D01*
X187665048Y-89466291D01*
X187260555Y-90386860D01*
X187164186Y-90651469D01*
X186842161Y-91460401D01*
X186617885Y-91659276D01*
X186438640Y-91378697D01*
X186386189Y-90580598D01*
X186575832Y-89887696D01*
X186779482Y-89370242D01*
X186663405Y-89153796D01*
X186084852Y-89162067D01*
X185387486Y-89252588D01*
X184328692Y-89302429D01*
X183831805Y-89030015D01*
X183856677Y-88358836D01*
X184340155Y-87256721D01*
X184999586Y-86472354D01*
X186067669Y-85713248D01*
X187385819Y-85036837D01*
X188795451Y-84500558D01*
X190137979Y-84161847D01*
X191254818Y-84078139D01*
X191987383Y-84306870D01*
G36*
X185767748Y-89851878D02*
X185620836Y-90342888D01*
X185560579Y-90458416D01*
X185074238Y-90960354D01*
X184677520Y-91002990D01*
X184115262Y-91032551D01*
X183966691Y-91170640D01*
X183489557Y-91408054D01*
X183338032Y-91379291D01*
X182706263Y-91402582D01*
X182312027Y-91549471D01*
X181814581Y-91680943D01*
X181694666Y-91563295D01*
X181939591Y-91118529D01*
X182507294Y-90503435D01*
X183147165Y-89958823D01*
X183607230Y-89725500D01*
X183747840Y-89986558D01*
X183683759Y-90254666D01*
X183655895Y-90709952D01*
X183779209Y-90783833D01*
X184229118Y-90542951D01*
X184516888Y-90254666D01*
X185124109Y-89806042D01*
X185454441Y-89725500D01*
X185767748Y-89851878D01*
X185767748Y-89851878D01*
G37*
X185767748Y-89851878D02*
X185620836Y-90342888D01*
X185560579Y-90458416D01*
X185074238Y-90960354D01*
X184677520Y-91002990D01*
X184115262Y-91032551D01*
X183966691Y-91170640D01*
X183489557Y-91408054D01*
X183338032Y-91379291D01*
X182706263Y-91402582D01*
X182312027Y-91549471D01*
X181814581Y-91680943D01*
X181694666Y-91563295D01*
X181939591Y-91118529D01*
X182507294Y-90503435D01*
X183147165Y-89958823D01*
X183607230Y-89725500D01*
X183747840Y-89986558D01*
X183683759Y-90254666D01*
X183655895Y-90709952D01*
X183779209Y-90783833D01*
X184229118Y-90542951D01*
X184516888Y-90254666D01*
X185124109Y-89806042D01*
X185454441Y-89725500D01*
X185767748Y-89851878D01*
G36*
X180152507Y-83434762D02*
X180505352Y-83597496D01*
X180709971Y-84019396D01*
X180807544Y-84856324D01*
X180837234Y-86026520D01*
X180890921Y-87548203D01*
X181005893Y-89027600D01*
X181132826Y-89990083D01*
X181259196Y-90952722D01*
X181160445Y-91398160D01*
X180892869Y-91489389D01*
X180544559Y-91154285D01*
X180258356Y-90216940D01*
X180052472Y-88779301D01*
X179945118Y-86943313D01*
X179933844Y-86120599D01*
X179885634Y-85103448D01*
X179716547Y-84661213D01*
X179421189Y-84651524D01*
X178890134Y-85067497D01*
X178146179Y-85897288D01*
X177334533Y-86946795D01*
X176600404Y-88021917D01*
X176089001Y-88928550D01*
X175955490Y-89284176D01*
X175895075Y-90034606D01*
X176184514Y-90210893D01*
X176775379Y-89821285D01*
X177503219Y-89020607D01*
X178186643Y-88269431D01*
X178710239Y-87872687D01*
X178891862Y-87867033D01*
X179056156Y-88342819D01*
X179226554Y-89289647D01*
X179331367Y-90166472D01*
X179399613Y-91457088D01*
X179282568Y-92101301D01*
X178968157Y-92136672D01*
X178754851Y-91959759D01*
X178567467Y-91453465D01*
X178519666Y-90922245D01*
X178368819Y-90119550D01*
X177971524Y-89962294D01*
X177410648Y-90471933D01*
X177315400Y-90610473D01*
X176600049Y-91360761D01*
X175937727Y-91500916D01*
X175417629Y-91125434D01*
X175128950Y-90328809D01*
X175160884Y-89205537D01*
X175336877Y-88514379D01*
X175803902Y-87578423D01*
X176579503Y-86487735D01*
X177528491Y-85384916D01*
X178515676Y-84412569D01*
X179405867Y-83713294D01*
X180063873Y-83429691D01*
X180152507Y-83434762D01*
X180152507Y-83434762D01*
G37*
X180152507Y-83434762D02*
X180505352Y-83597496D01*
X180709971Y-84019396D01*
X180807544Y-84856324D01*
X180837234Y-86026520D01*
X180890921Y-87548203D01*
X181005893Y-89027600D01*
X181132826Y-89990083D01*
X181259196Y-90952722D01*
X181160445Y-91398160D01*
X180892869Y-91489389D01*
X180544559Y-91154285D01*
X180258356Y-90216940D01*
X180052472Y-88779301D01*
X179945118Y-86943313D01*
X179933844Y-86120599D01*
X179885634Y-85103448D01*
X179716547Y-84661213D01*
X179421189Y-84651524D01*
X178890134Y-85067497D01*
X178146179Y-85897288D01*
X177334533Y-86946795D01*
X176600404Y-88021917D01*
X176089001Y-88928550D01*
X175955490Y-89284176D01*
X175895075Y-90034606D01*
X176184514Y-90210893D01*
X176775379Y-89821285D01*
X177503219Y-89020607D01*
X178186643Y-88269431D01*
X178710239Y-87872687D01*
X178891862Y-87867033D01*
X179056156Y-88342819D01*
X179226554Y-89289647D01*
X179331367Y-90166472D01*
X179399613Y-91457088D01*
X179282568Y-92101301D01*
X178968157Y-92136672D01*
X178754851Y-91959759D01*
X178567467Y-91453465D01*
X178519666Y-90922245D01*
X178368819Y-90119550D01*
X177971524Y-89962294D01*
X177410648Y-90471933D01*
X177315400Y-90610473D01*
X176600049Y-91360761D01*
X175937727Y-91500916D01*
X175417629Y-91125434D01*
X175128950Y-90328809D01*
X175160884Y-89205537D01*
X175336877Y-88514379D01*
X175803902Y-87578423D01*
X176579503Y-86487735D01*
X177528491Y-85384916D01*
X178515676Y-84412569D01*
X179405867Y-83713294D01*
X180063873Y-83429691D01*
X180152507Y-83434762D01*
G36*
X185640735Y-92382788D02*
X186092026Y-92584067D01*
X187163227Y-93323873D01*
X187617624Y-94099020D01*
X187530645Y-94808367D01*
X186977715Y-95350775D01*
X186034262Y-95625104D01*
X184775710Y-95530214D01*
X184055963Y-95314243D01*
X183340561Y-94902945D01*
X183154884Y-94272756D01*
X183174018Y-94022106D01*
X183200509Y-93963708D01*
X183869911Y-93963708D01*
X184058325Y-94553108D01*
X184408068Y-94770015D01*
X185624629Y-94973020D01*
X186532009Y-94910700D01*
X186969211Y-94600160D01*
X186986333Y-94496132D01*
X186687363Y-93897419D01*
X185975611Y-93333944D01*
X185128818Y-92985827D01*
X184622429Y-92963090D01*
X184069979Y-93332271D01*
X183869911Y-93963708D01*
X183200509Y-93963708D01*
X183596688Y-93090358D01*
X184184289Y-92595195D01*
X184943596Y-92282067D01*
X185640735Y-92382788D01*
X185640735Y-92382788D01*
G37*
X185640735Y-92382788D02*
X186092026Y-92584067D01*
X187163227Y-93323873D01*
X187617624Y-94099020D01*
X187530645Y-94808367D01*
X186977715Y-95350775D01*
X186034262Y-95625104D01*
X184775710Y-95530214D01*
X184055963Y-95314243D01*
X183340561Y-94902945D01*
X183154884Y-94272756D01*
X183174018Y-94022106D01*
X183200509Y-93963708D01*
X183869911Y-93963708D01*
X184058325Y-94553108D01*
X184408068Y-94770015D01*
X185624629Y-94973020D01*
X186532009Y-94910700D01*
X186969211Y-94600160D01*
X186986333Y-94496132D01*
X186687363Y-93897419D01*
X185975611Y-93333944D01*
X185128818Y-92985827D01*
X184622429Y-92963090D01*
X184069979Y-93332271D01*
X183869911Y-93963708D01*
X183200509Y-93963708D01*
X183596688Y-93090358D01*
X184184289Y-92595195D01*
X184943596Y-92282067D01*
X185640735Y-92382788D01*
G36*
X180209780Y-93378101D02*
X180472058Y-93619441D01*
X180879879Y-94138110D01*
X180851173Y-94530393D01*
X180346980Y-95083106D01*
X180262151Y-95164734D01*
X179045060Y-96000635D01*
X177834405Y-96229171D01*
X176820630Y-95869551D01*
X176172465Y-95213036D01*
X176173899Y-94752214D01*
X176916560Y-94752214D01*
X177253350Y-95255657D01*
X177344072Y-95311333D01*
X178152404Y-95470317D01*
X179034158Y-95259142D01*
X179714940Y-94787519D01*
X179930777Y-94277100D01*
X179776218Y-93809381D01*
X179193654Y-93623727D01*
X178708467Y-93606055D01*
X177760537Y-93781908D01*
X177124428Y-94212463D01*
X176916560Y-94752214D01*
X176173899Y-94752214D01*
X176174594Y-94529141D01*
X176829423Y-93702827D01*
X176866709Y-93667549D01*
X177950117Y-93043384D01*
X179147448Y-92945794D01*
X180209780Y-93378101D01*
X180209780Y-93378101D01*
G37*
X180209780Y-93378101D02*
X180472058Y-93619441D01*
X180879879Y-94138110D01*
X180851173Y-94530393D01*
X180346980Y-95083106D01*
X180262151Y-95164734D01*
X179045060Y-96000635D01*
X177834405Y-96229171D01*
X176820630Y-95869551D01*
X176172465Y-95213036D01*
X176173899Y-94752214D01*
X176916560Y-94752214D01*
X177253350Y-95255657D01*
X177344072Y-95311333D01*
X178152404Y-95470317D01*
X179034158Y-95259142D01*
X179714940Y-94787519D01*
X179930777Y-94277100D01*
X179776218Y-93809381D01*
X179193654Y-93623727D01*
X178708467Y-93606055D01*
X177760537Y-93781908D01*
X177124428Y-94212463D01*
X176916560Y-94752214D01*
X176173899Y-94752214D01*
X176174594Y-94529141D01*
X176829423Y-93702827D01*
X176866709Y-93667549D01*
X177950117Y-93043384D01*
X179147448Y-92945794D01*
X180209780Y-93378101D01*
G36*
X195801091Y-114681328D02*
X195680619Y-115383393D01*
X195211682Y-116404413D01*
X194919407Y-116896399D01*
X194288726Y-117754056D01*
X193741568Y-118260639D01*
X193396771Y-118323974D01*
X193336333Y-118124295D01*
X193502149Y-117669050D01*
X193916488Y-116873546D01*
X194454684Y-115946942D01*
X194992075Y-115098397D01*
X195403996Y-114537069D01*
X195541194Y-114425027D01*
X195801091Y-114681328D01*
X195801091Y-114681328D01*
G37*
X195801091Y-114681328D02*
X195680619Y-115383393D01*
X195211682Y-116404413D01*
X194919407Y-116896399D01*
X194288726Y-117754056D01*
X193741568Y-118260639D01*
X193396771Y-118323974D01*
X193336333Y-118124295D01*
X193502149Y-117669050D01*
X193916488Y-116873546D01*
X194454684Y-115946942D01*
X194992075Y-115098397D01*
X195403996Y-114537069D01*
X195541194Y-114425027D01*
X195801091Y-114681328D01*
G36*
X190498534Y-94648578D02*
X191039577Y-95242147D01*
X191649933Y-96083365D01*
X192199930Y-96983890D01*
X192559899Y-97755378D01*
X192630777Y-98084844D01*
X192346935Y-98492171D01*
X192101611Y-98544944D01*
X191694321Y-98584397D01*
X191626190Y-98821650D01*
X191894657Y-99435049D01*
X192083556Y-99802242D01*
X192425609Y-100713322D01*
X192234484Y-101206320D01*
X191471722Y-101366211D01*
X191375235Y-101367166D01*
X190681525Y-101554913D01*
X190514111Y-101896333D01*
X190818296Y-102323400D01*
X191351958Y-102425500D01*
X192345449Y-102497278D01*
X193218555Y-102631250D01*
X193812208Y-102705084D01*
X194193432Y-102531589D01*
X194500003Y-101965739D01*
X194855209Y-100908508D01*
X195488267Y-99188695D01*
X196167641Y-98062910D01*
X197005074Y-97422667D01*
X198112307Y-97159477D01*
X198741799Y-97135152D01*
X200600847Y-97357318D01*
X202055320Y-98046186D01*
X203131083Y-99239788D01*
X203853999Y-100976161D01*
X204249934Y-103293340D01*
X204347401Y-105378281D01*
X204244435Y-106942936D01*
X203950134Y-108819709D01*
X203521987Y-110744440D01*
X203017487Y-112452969D01*
X202571531Y-113538000D01*
X202172022Y-114475574D01*
X201971196Y-115253278D01*
X201970747Y-115258384D01*
X201587248Y-116093131D01*
X200736984Y-116792114D01*
X199647500Y-117261866D01*
X198546342Y-117408925D01*
X197661054Y-117139826D01*
X197569936Y-117066022D01*
X197112215Y-116752439D01*
X196801799Y-116969814D01*
X196576629Y-117416126D01*
X196163946Y-118065999D01*
X195813341Y-118300500D01*
X195513326Y-118184756D01*
X195531460Y-117758300D01*
X195888943Y-116902294D01*
X196160011Y-116357366D01*
X196655764Y-114982748D01*
X196654407Y-114881523D01*
X197983692Y-114881523D01*
X198019150Y-115887925D01*
X198505108Y-116434615D01*
X199317502Y-116471379D01*
X200332271Y-115948004D01*
X200429559Y-115871489D01*
X200968859Y-115343823D01*
X200979123Y-114924669D01*
X200763272Y-114618752D01*
X200082624Y-114205247D01*
X199205753Y-114124779D01*
X198414064Y-114350744D01*
X197988960Y-114856540D01*
X197983692Y-114881523D01*
X196654407Y-114881523D01*
X196639323Y-113756857D01*
X196599376Y-113177072D01*
X197497179Y-113177072D01*
X197927774Y-113320072D01*
X198510952Y-113350883D01*
X199579235Y-113308080D01*
X200404882Y-113188397D01*
X200539425Y-113147479D01*
X201102015Y-112808489D01*
X201056510Y-112531611D01*
X200500253Y-112391943D01*
X199632049Y-112447428D01*
X198401639Y-112698585D01*
X197672575Y-112955855D01*
X197497179Y-113177072D01*
X196599376Y-113177072D01*
X196573361Y-112799498D01*
X196878294Y-112216350D01*
X197033414Y-112088446D01*
X197456746Y-111478176D01*
X197364091Y-110596754D01*
X196739100Y-109385623D01*
X195979821Y-108315156D01*
X194828507Y-106964268D01*
X193904244Y-106243148D01*
X193167789Y-106128187D01*
X192760193Y-106378227D01*
X192546714Y-106891714D01*
X192367361Y-107881311D01*
X192225844Y-109208637D01*
X192125877Y-110735311D01*
X192071169Y-112322952D01*
X192065434Y-113833177D01*
X192112383Y-115127606D01*
X192215727Y-116067857D01*
X192379179Y-116515548D01*
X192488479Y-116508318D01*
X192917386Y-115908352D01*
X192983555Y-115611471D01*
X193188619Y-115170423D01*
X193336333Y-115125500D01*
X193720105Y-115339408D01*
X193607003Y-115929260D01*
X193040447Y-116817248D01*
X192063855Y-117925565D01*
X191428366Y-118544554D01*
X189167622Y-120650547D01*
X189848482Y-121725891D01*
X190337395Y-122943289D01*
X190697834Y-124849654D01*
X190821437Y-125966746D01*
X190978235Y-127422034D01*
X191149348Y-128624164D01*
X191306692Y-129388252D01*
X191363808Y-129537212D01*
X191838303Y-129776829D01*
X192755523Y-129922115D01*
X193286597Y-129942166D01*
X194370701Y-130026659D01*
X195182171Y-130240319D01*
X195382444Y-130365500D01*
X195727582Y-131093302D01*
X195774829Y-132042960D01*
X195526605Y-132848519D01*
X195364805Y-133033234D01*
X194348849Y-133498047D01*
X192918645Y-133723476D01*
X191310817Y-133720120D01*
X189761992Y-133498576D01*
X188508793Y-133069442D01*
X187982903Y-132702625D01*
X187676961Y-132343896D01*
X187487796Y-131909771D01*
X187401250Y-131256185D01*
X187402909Y-130373412D01*
X188050918Y-130373412D01*
X188273809Y-131304317D01*
X188438334Y-131966283D01*
X188652657Y-132319860D01*
X189120467Y-132516715D01*
X190045451Y-132708515D01*
X190200810Y-132739182D01*
X192501654Y-132893812D01*
X194482861Y-132537889D01*
X194953186Y-132131510D01*
X195088725Y-131489702D01*
X194854433Y-130949660D01*
X194659250Y-130840674D01*
X194123574Y-130760396D01*
X193074419Y-130664861D01*
X191703151Y-130570491D01*
X191134598Y-130538201D01*
X188050918Y-130373412D01*
X187402909Y-130373412D01*
X187403162Y-130239076D01*
X187473841Y-128825037D01*
X188397444Y-128825037D01*
X188702589Y-129383953D01*
X189603428Y-129588654D01*
X189679891Y-129589389D01*
X190268157Y-129453363D01*
X190288907Y-129060222D01*
X189897389Y-128715820D01*
X189246891Y-128539819D01*
X188644754Y-128570434D01*
X188397444Y-128825037D01*
X187473841Y-128825037D01*
X187479373Y-128714381D01*
X187522175Y-128015028D01*
X187617983Y-125617591D01*
X187551262Y-123840042D01*
X187302721Y-122611406D01*
X186853071Y-121860708D01*
X186183020Y-121516974D01*
X185744771Y-121475500D01*
X184762002Y-121372925D01*
X184672649Y-121354639D01*
X187734339Y-121354639D01*
X187911623Y-121904282D01*
X188221055Y-122655808D01*
X188529798Y-123763823D01*
X188720468Y-125158957D01*
X188750222Y-125873891D01*
X188804632Y-127076563D01*
X188985966Y-127688619D01*
X189241645Y-127825500D01*
X189793067Y-127542279D01*
X189924639Y-127326276D01*
X189996076Y-126604777D01*
X189911304Y-125459204D01*
X189710921Y-124143031D01*
X189435528Y-122909734D01*
X189125725Y-122012788D01*
X189051899Y-121877547D01*
X188531674Y-121299617D01*
X188136196Y-121122722D01*
X187812391Y-121151840D01*
X187734339Y-121354639D01*
X184672649Y-121354639D01*
X183485080Y-121111607D01*
X182790825Y-120924884D01*
X181622256Y-120629534D01*
X180820854Y-120642502D01*
X180220844Y-121058449D01*
X179656447Y-121972036D01*
X179181395Y-122985912D01*
X178802105Y-123931928D01*
X178557328Y-124869722D01*
X178419020Y-125994569D01*
X178359138Y-127501745D01*
X178348981Y-128782203D01*
X178322009Y-130783727D01*
X178194853Y-132190627D01*
X177888052Y-133113528D01*
X177322144Y-133663058D01*
X176417667Y-133949842D01*
X175095160Y-134084508D01*
X174517595Y-134116237D01*
X173131854Y-134160725D01*
X172230373Y-134093119D01*
X171595152Y-133869434D01*
X171008190Y-133445686D01*
X170950663Y-133396561D01*
X170286912Y-132682323D01*
X170152897Y-132048025D01*
X171111333Y-132048025D01*
X171387741Y-132786655D01*
X171728694Y-133112205D01*
X172445180Y-133313881D01*
X173549442Y-133378430D01*
X174808526Y-133322979D01*
X175989481Y-133164656D01*
X176859354Y-132920587D01*
X177155050Y-132713247D01*
X177375812Y-131973594D01*
X177375159Y-131529666D01*
X177239869Y-131134267D01*
X176850907Y-130923167D01*
X176039861Y-130843548D01*
X175168277Y-130837511D01*
X173258535Y-130921494D01*
X171984598Y-131156323D01*
X171289532Y-131558987D01*
X171111333Y-132048025D01*
X170152897Y-132048025D01*
X170150034Y-132034477D01*
X170218179Y-131741374D01*
X170728876Y-131067984D01*
X171668532Y-130447962D01*
X172767283Y-130031900D01*
X173442361Y-129942166D01*
X174197459Y-129626623D01*
X174223873Y-129589389D01*
X175521055Y-129589389D01*
X175660313Y-129837992D01*
X176350848Y-129941840D01*
X176403000Y-129942166D01*
X177120098Y-129848228D01*
X177294303Y-129606179D01*
X177284944Y-129589389D01*
X176785898Y-129289950D01*
X176403000Y-129236611D01*
X175736355Y-129403448D01*
X175521055Y-129589389D01*
X174223873Y-129589389D01*
X174764101Y-128827885D01*
X174980958Y-127825500D01*
X175008335Y-127550511D01*
X176072228Y-127550511D01*
X176110478Y-128225503D01*
X176302902Y-128498644D01*
X176490632Y-128531055D01*
X177074121Y-128244437D01*
X177247201Y-127973036D01*
X177397080Y-127239536D01*
X177461294Y-126245014D01*
X177461333Y-126222207D01*
X177625661Y-125055254D01*
X178048607Y-123604958D01*
X178625109Y-122156661D01*
X179250108Y-120995708D01*
X179512998Y-120649887D01*
X179895572Y-120126032D01*
X179739411Y-119757402D01*
X179409487Y-119497357D01*
X178948629Y-119240633D01*
X178580747Y-119368657D01*
X178123136Y-119982190D01*
X177912405Y-120322969D01*
X177123477Y-121865908D01*
X176588357Y-123567910D01*
X176237805Y-125667053D01*
X176166471Y-126326194D01*
X176072228Y-127550511D01*
X175008335Y-127550511D01*
X175128626Y-126342254D01*
X175491877Y-124547861D01*
X175999623Y-122705084D01*
X176580775Y-121076684D01*
X177085036Y-120048134D01*
X177644853Y-119103346D01*
X177861149Y-118530022D01*
X177765264Y-118101888D01*
X177419792Y-117631247D01*
X176590151Y-116073208D01*
X176171192Y-113975223D01*
X176170507Y-111376421D01*
X176180706Y-111244944D01*
X176190355Y-111143764D01*
X177099539Y-111143764D01*
X177118633Y-112518955D01*
X177200339Y-113895285D01*
X177341029Y-115097707D01*
X177537077Y-115951174D01*
X177606227Y-116113157D01*
X178718988Y-117615726D01*
X180291201Y-118911787D01*
X181518277Y-119573186D01*
X183954894Y-120374299D01*
X186086754Y-120551687D01*
X187939533Y-120105020D01*
X189010068Y-119477104D01*
X189829666Y-118777186D01*
X190405485Y-118129834D01*
X190471948Y-118021577D01*
X190675922Y-117340567D01*
X190892820Y-116141869D01*
X191103056Y-114612604D01*
X191287042Y-112939888D01*
X191425191Y-111310841D01*
X191497914Y-109912581D01*
X191485625Y-108932228D01*
X191449249Y-108685453D01*
X191218454Y-107765894D01*
X187838200Y-109345495D01*
X184457947Y-110925097D01*
X182458945Y-110362578D01*
X181077731Y-109949026D01*
X179741153Y-109509319D01*
X179129888Y-109287779D01*
X178202426Y-108961298D01*
X177547259Y-108785362D01*
X177454194Y-108775500D01*
X177263693Y-109096989D01*
X177146683Y-109944760D01*
X177099539Y-111143764D01*
X176190355Y-111143764D01*
X176314850Y-109838343D01*
X176467346Y-108620897D01*
X176606819Y-107840428D01*
X176616175Y-107805361D01*
X176672450Y-107218079D01*
X176259469Y-107022801D01*
X175942045Y-107011611D01*
X174872276Y-107313960D01*
X173817387Y-108084578D01*
X173004381Y-109118817D01*
X172690119Y-109943293D01*
X172626974Y-110941415D01*
X172694898Y-112258881D01*
X172793068Y-113045765D01*
X172949339Y-114669737D01*
X172783916Y-115754916D01*
X172258798Y-116408519D01*
X171495697Y-116706062D01*
X170268759Y-116849422D01*
X169501505Y-116559516D01*
X169074078Y-115742583D01*
X168972933Y-115125500D01*
X169700222Y-115125500D01*
X169838340Y-115611783D01*
X170377537Y-115807992D01*
X170934944Y-115831055D01*
X171768273Y-115766963D01*
X172109700Y-115470642D01*
X172169666Y-114911367D01*
X172064787Y-114260685D01*
X171690214Y-114178597D01*
X171611647Y-114205812D01*
X170767954Y-114393816D01*
X170376925Y-114419944D01*
X169808119Y-114683189D01*
X169700222Y-115125500D01*
X168972933Y-115125500D01*
X168899043Y-114674700D01*
X168859043Y-113292970D01*
X168913843Y-113088469D01*
X169846906Y-113088469D01*
X170003436Y-113412346D01*
X170138996Y-113480018D01*
X170862315Y-113676201D01*
X171558687Y-113520379D01*
X171609621Y-113501034D01*
X171999620Y-113178062D01*
X171810436Y-112852709D01*
X171153912Y-112665046D01*
X170934944Y-112656055D01*
X170203914Y-112788230D01*
X169846906Y-113088469D01*
X168913843Y-113088469D01*
X169086652Y-112443588D01*
X169207881Y-112275499D01*
X169568229Y-111525391D01*
X169700222Y-110649519D01*
X169859274Y-109756197D01*
X170270647Y-108552459D01*
X170695256Y-107607816D01*
X171690290Y-105635148D01*
X170794578Y-105529629D01*
X169902949Y-105117564D01*
X169383914Y-104502384D01*
X169070932Y-103763292D01*
X169117946Y-103061291D01*
X169362850Y-102388306D01*
X170501555Y-100507066D01*
X172160873Y-98940464D01*
X174173602Y-97845912D01*
X174197212Y-97837035D01*
X175898262Y-97268760D01*
X177668954Y-96792364D01*
X179381498Y-96428055D01*
X180908105Y-96196041D01*
X182120986Y-96116530D01*
X182892350Y-96209730D01*
X183105777Y-96428277D01*
X182796383Y-96664484D01*
X182038712Y-96779025D01*
X181910519Y-96781055D01*
X180910887Y-96896083D01*
X179459826Y-97202238D01*
X177765869Y-97641128D01*
X176037550Y-98154361D01*
X174483401Y-98683545D01*
X173311956Y-99170289D01*
X173228000Y-99212277D01*
X172188619Y-99942080D01*
X171282226Y-100929319D01*
X170579503Y-102030408D01*
X170151134Y-103101760D01*
X170067802Y-103999790D01*
X170400192Y-104580911D01*
X170547912Y-104656595D01*
X171154355Y-104669082D01*
X172146237Y-104488796D01*
X172752773Y-104323375D01*
X174087998Y-103927805D01*
X175716143Y-103464891D01*
X177497433Y-102972031D01*
X179292098Y-102486619D01*
X180960363Y-102046053D01*
X182362456Y-101687729D01*
X183358604Y-101449043D01*
X183801926Y-101367166D01*
X184105191Y-101615615D01*
X184085440Y-101779567D01*
X183703045Y-102050242D01*
X182800173Y-102418967D01*
X181543013Y-102821631D01*
X180981697Y-102976907D01*
X179631218Y-103372668D01*
X178569956Y-103756008D01*
X177963476Y-104064091D01*
X177885368Y-104152006D01*
X177480063Y-104421675D01*
X176675794Y-104541773D01*
X176624740Y-104542166D01*
X174900282Y-104866182D01*
X173285255Y-105742821D01*
X172006405Y-107028975D01*
X171594210Y-107717166D01*
X171026543Y-109089258D01*
X170683841Y-110336966D01*
X170588155Y-111313766D01*
X170761534Y-111873137D01*
X170957123Y-111950500D01*
X171412564Y-111704615D01*
X171466078Y-111509527D01*
X171774730Y-109824057D01*
X172595381Y-108277630D01*
X173792806Y-107039997D01*
X175231778Y-106280907D01*
X175722375Y-106166599D01*
X176595406Y-105948658D01*
X177076137Y-105676401D01*
X177108555Y-105596331D01*
X177382174Y-105264228D01*
X177501373Y-105247722D01*
X177745471Y-105556161D01*
X177732538Y-106349134D01*
X177570885Y-107450547D01*
X183601526Y-107279136D01*
X185630842Y-107207794D01*
X187442551Y-107118467D01*
X188906575Y-107019585D01*
X189892839Y-106919577D01*
X190240801Y-106848885D01*
X190626621Y-106601347D01*
X190615810Y-106195941D01*
X190502193Y-105953277D01*
X191572444Y-105953277D01*
X191701520Y-106243653D01*
X191807629Y-106188463D01*
X191849850Y-105769798D01*
X191807629Y-105718092D01*
X191597903Y-105766518D01*
X191572444Y-105953277D01*
X190502193Y-105953277D01*
X190330289Y-105586126D01*
X190108917Y-104898049D01*
X190142051Y-104383085D01*
X190367894Y-104223123D01*
X190686943Y-104536412D01*
X191147122Y-104756077D01*
X192040585Y-104882713D01*
X192445609Y-104894944D01*
X193238921Y-104933153D01*
X193864956Y-105119581D01*
X194496787Y-105561933D01*
X195307489Y-106367913D01*
X195964146Y-107084524D01*
X196913650Y-108213541D01*
X197668852Y-109259844D01*
X198097942Y-110036427D01*
X198139877Y-110171329D01*
X198389692Y-111194439D01*
X198635016Y-111676390D01*
X198993327Y-111770959D01*
X199311975Y-111705582D01*
X199810106Y-111556015D01*
X199986051Y-111324453D01*
X199861040Y-110813879D01*
X199502460Y-109937897D01*
X198644628Y-108399664D01*
X197381175Y-106757281D01*
X195917901Y-105258700D01*
X194993639Y-104505513D01*
X193901124Y-103841768D01*
X192811110Y-103541766D01*
X191684831Y-103483833D01*
X190382924Y-103391651D01*
X190087810Y-103251950D01*
X194923833Y-103251950D01*
X197062201Y-105300237D01*
X198416188Y-106748038D01*
X199543698Y-108242165D01*
X200346678Y-109631034D01*
X200727076Y-110763063D01*
X200744666Y-110993134D01*
X201036915Y-111488594D01*
X201673274Y-111770870D01*
X202205201Y-111715186D01*
X202392984Y-111342578D01*
X202679245Y-110462566D01*
X203006061Y-109255747D01*
X203046824Y-109091136D01*
X203487105Y-106374775D01*
X203471780Y-104054743D01*
X203167908Y-101822723D01*
X202616031Y-100183294D01*
X201775933Y-99054782D01*
X200679355Y-98383584D01*
X199180475Y-97913235D01*
X198030570Y-97908754D01*
X197125149Y-98429539D01*
X196359724Y-99534985D01*
X195643530Y-101246146D01*
X194923833Y-103251950D01*
X190087810Y-103251950D01*
X189674985Y-103056528D01*
X189466680Y-102390601D01*
X189600841Y-101542766D01*
X189997260Y-100839989D01*
X190691513Y-100661611D01*
X191561029Y-100661611D01*
X190956267Y-99393411D01*
X190593268Y-98554556D01*
X190558922Y-98092689D01*
X190848679Y-97762880D01*
X190924914Y-97705925D01*
X191301702Y-97315315D01*
X191169582Y-96860864D01*
X190980367Y-96592874D01*
X190245621Y-95502176D01*
X189993207Y-94820210D01*
X190156475Y-94491002D01*
X190498534Y-94648578D01*
X190498534Y-94648578D01*
G37*
X190498534Y-94648578D02*
X191039577Y-95242147D01*
X191649933Y-96083365D01*
X192199930Y-96983890D01*
X192559899Y-97755378D01*
X192630777Y-98084844D01*
X192346935Y-98492171D01*
X192101611Y-98544944D01*
X191694321Y-98584397D01*
X191626190Y-98821650D01*
X191894657Y-99435049D01*
X192083556Y-99802242D01*
X192425609Y-100713322D01*
X192234484Y-101206320D01*
X191471722Y-101366211D01*
X191375235Y-101367166D01*
X190681525Y-101554913D01*
X190514111Y-101896333D01*
X190818296Y-102323400D01*
X191351958Y-102425500D01*
X192345449Y-102497278D01*
X193218555Y-102631250D01*
X193812208Y-102705084D01*
X194193432Y-102531589D01*
X194500003Y-101965739D01*
X194855209Y-100908508D01*
X195488267Y-99188695D01*
X196167641Y-98062910D01*
X197005074Y-97422667D01*
X198112307Y-97159477D01*
X198741799Y-97135152D01*
X200600847Y-97357318D01*
X202055320Y-98046186D01*
X203131083Y-99239788D01*
X203853999Y-100976161D01*
X204249934Y-103293340D01*
X204347401Y-105378281D01*
X204244435Y-106942936D01*
X203950134Y-108819709D01*
X203521987Y-110744440D01*
X203017487Y-112452969D01*
X202571531Y-113538000D01*
X202172022Y-114475574D01*
X201971196Y-115253278D01*
X201970747Y-115258384D01*
X201587248Y-116093131D01*
X200736984Y-116792114D01*
X199647500Y-117261866D01*
X198546342Y-117408925D01*
X197661054Y-117139826D01*
X197569936Y-117066022D01*
X197112215Y-116752439D01*
X196801799Y-116969814D01*
X196576629Y-117416126D01*
X196163946Y-118065999D01*
X195813341Y-118300500D01*
X195513326Y-118184756D01*
X195531460Y-117758300D01*
X195888943Y-116902294D01*
X196160011Y-116357366D01*
X196655764Y-114982748D01*
X196654407Y-114881523D01*
X197983692Y-114881523D01*
X198019150Y-115887925D01*
X198505108Y-116434615D01*
X199317502Y-116471379D01*
X200332271Y-115948004D01*
X200429559Y-115871489D01*
X200968859Y-115343823D01*
X200979123Y-114924669D01*
X200763272Y-114618752D01*
X200082624Y-114205247D01*
X199205753Y-114124779D01*
X198414064Y-114350744D01*
X197988960Y-114856540D01*
X197983692Y-114881523D01*
X196654407Y-114881523D01*
X196639323Y-113756857D01*
X196599376Y-113177072D01*
X197497179Y-113177072D01*
X197927774Y-113320072D01*
X198510952Y-113350883D01*
X199579235Y-113308080D01*
X200404882Y-113188397D01*
X200539425Y-113147479D01*
X201102015Y-112808489D01*
X201056510Y-112531611D01*
X200500253Y-112391943D01*
X199632049Y-112447428D01*
X198401639Y-112698585D01*
X197672575Y-112955855D01*
X197497179Y-113177072D01*
X196599376Y-113177072D01*
X196573361Y-112799498D01*
X196878294Y-112216350D01*
X197033414Y-112088446D01*
X197456746Y-111478176D01*
X197364091Y-110596754D01*
X196739100Y-109385623D01*
X195979821Y-108315156D01*
X194828507Y-106964268D01*
X193904244Y-106243148D01*
X193167789Y-106128187D01*
X192760193Y-106378227D01*
X192546714Y-106891714D01*
X192367361Y-107881311D01*
X192225844Y-109208637D01*
X192125877Y-110735311D01*
X192071169Y-112322952D01*
X192065434Y-113833177D01*
X192112383Y-115127606D01*
X192215727Y-116067857D01*
X192379179Y-116515548D01*
X192488479Y-116508318D01*
X192917386Y-115908352D01*
X192983555Y-115611471D01*
X193188619Y-115170423D01*
X193336333Y-115125500D01*
X193720105Y-115339408D01*
X193607003Y-115929260D01*
X193040447Y-116817248D01*
X192063855Y-117925565D01*
X191428366Y-118544554D01*
X189167622Y-120650547D01*
X189848482Y-121725891D01*
X190337395Y-122943289D01*
X190697834Y-124849654D01*
X190821437Y-125966746D01*
X190978235Y-127422034D01*
X191149348Y-128624164D01*
X191306692Y-129388252D01*
X191363808Y-129537212D01*
X191838303Y-129776829D01*
X192755523Y-129922115D01*
X193286597Y-129942166D01*
X194370701Y-130026659D01*
X195182171Y-130240319D01*
X195382444Y-130365500D01*
X195727582Y-131093302D01*
X195774829Y-132042960D01*
X195526605Y-132848519D01*
X195364805Y-133033234D01*
X194348849Y-133498047D01*
X192918645Y-133723476D01*
X191310817Y-133720120D01*
X189761992Y-133498576D01*
X188508793Y-133069442D01*
X187982903Y-132702625D01*
X187676961Y-132343896D01*
X187487796Y-131909771D01*
X187401250Y-131256185D01*
X187402909Y-130373412D01*
X188050918Y-130373412D01*
X188273809Y-131304317D01*
X188438334Y-131966283D01*
X188652657Y-132319860D01*
X189120467Y-132516715D01*
X190045451Y-132708515D01*
X190200810Y-132739182D01*
X192501654Y-132893812D01*
X194482861Y-132537889D01*
X194953186Y-132131510D01*
X195088725Y-131489702D01*
X194854433Y-130949660D01*
X194659250Y-130840674D01*
X194123574Y-130760396D01*
X193074419Y-130664861D01*
X191703151Y-130570491D01*
X191134598Y-130538201D01*
X188050918Y-130373412D01*
X187402909Y-130373412D01*
X187403162Y-130239076D01*
X187473841Y-128825037D01*
X188397444Y-128825037D01*
X188702589Y-129383953D01*
X189603428Y-129588654D01*
X189679891Y-129589389D01*
X190268157Y-129453363D01*
X190288907Y-129060222D01*
X189897389Y-128715820D01*
X189246891Y-128539819D01*
X188644754Y-128570434D01*
X188397444Y-128825037D01*
X187473841Y-128825037D01*
X187479373Y-128714381D01*
X187522175Y-128015028D01*
X187617983Y-125617591D01*
X187551262Y-123840042D01*
X187302721Y-122611406D01*
X186853071Y-121860708D01*
X186183020Y-121516974D01*
X185744771Y-121475500D01*
X184762002Y-121372925D01*
X184672649Y-121354639D01*
X187734339Y-121354639D01*
X187911623Y-121904282D01*
X188221055Y-122655808D01*
X188529798Y-123763823D01*
X188720468Y-125158957D01*
X188750222Y-125873891D01*
X188804632Y-127076563D01*
X188985966Y-127688619D01*
X189241645Y-127825500D01*
X189793067Y-127542279D01*
X189924639Y-127326276D01*
X189996076Y-126604777D01*
X189911304Y-125459204D01*
X189710921Y-124143031D01*
X189435528Y-122909734D01*
X189125725Y-122012788D01*
X189051899Y-121877547D01*
X188531674Y-121299617D01*
X188136196Y-121122722D01*
X187812391Y-121151840D01*
X187734339Y-121354639D01*
X184672649Y-121354639D01*
X183485080Y-121111607D01*
X182790825Y-120924884D01*
X181622256Y-120629534D01*
X180820854Y-120642502D01*
X180220844Y-121058449D01*
X179656447Y-121972036D01*
X179181395Y-122985912D01*
X178802105Y-123931928D01*
X178557328Y-124869722D01*
X178419020Y-125994569D01*
X178359138Y-127501745D01*
X178348981Y-128782203D01*
X178322009Y-130783727D01*
X178194853Y-132190627D01*
X177888052Y-133113528D01*
X177322144Y-133663058D01*
X176417667Y-133949842D01*
X175095160Y-134084508D01*
X174517595Y-134116237D01*
X173131854Y-134160725D01*
X172230373Y-134093119D01*
X171595152Y-133869434D01*
X171008190Y-133445686D01*
X170950663Y-133396561D01*
X170286912Y-132682323D01*
X170152897Y-132048025D01*
X171111333Y-132048025D01*
X171387741Y-132786655D01*
X171728694Y-133112205D01*
X172445180Y-133313881D01*
X173549442Y-133378430D01*
X174808526Y-133322979D01*
X175989481Y-133164656D01*
X176859354Y-132920587D01*
X177155050Y-132713247D01*
X177375812Y-131973594D01*
X177375159Y-131529666D01*
X177239869Y-131134267D01*
X176850907Y-130923167D01*
X176039861Y-130843548D01*
X175168277Y-130837511D01*
X173258535Y-130921494D01*
X171984598Y-131156323D01*
X171289532Y-131558987D01*
X171111333Y-132048025D01*
X170152897Y-132048025D01*
X170150034Y-132034477D01*
X170218179Y-131741374D01*
X170728876Y-131067984D01*
X171668532Y-130447962D01*
X172767283Y-130031900D01*
X173442361Y-129942166D01*
X174197459Y-129626623D01*
X174223873Y-129589389D01*
X175521055Y-129589389D01*
X175660313Y-129837992D01*
X176350848Y-129941840D01*
X176403000Y-129942166D01*
X177120098Y-129848228D01*
X177294303Y-129606179D01*
X177284944Y-129589389D01*
X176785898Y-129289950D01*
X176403000Y-129236611D01*
X175736355Y-129403448D01*
X175521055Y-129589389D01*
X174223873Y-129589389D01*
X174764101Y-128827885D01*
X174980958Y-127825500D01*
X175008335Y-127550511D01*
X176072228Y-127550511D01*
X176110478Y-128225503D01*
X176302902Y-128498644D01*
X176490632Y-128531055D01*
X177074121Y-128244437D01*
X177247201Y-127973036D01*
X177397080Y-127239536D01*
X177461294Y-126245014D01*
X177461333Y-126222207D01*
X177625661Y-125055254D01*
X178048607Y-123604958D01*
X178625109Y-122156661D01*
X179250108Y-120995708D01*
X179512998Y-120649887D01*
X179895572Y-120126032D01*
X179739411Y-119757402D01*
X179409487Y-119497357D01*
X178948629Y-119240633D01*
X178580747Y-119368657D01*
X178123136Y-119982190D01*
X177912405Y-120322969D01*
X177123477Y-121865908D01*
X176588357Y-123567910D01*
X176237805Y-125667053D01*
X176166471Y-126326194D01*
X176072228Y-127550511D01*
X175008335Y-127550511D01*
X175128626Y-126342254D01*
X175491877Y-124547861D01*
X175999623Y-122705084D01*
X176580775Y-121076684D01*
X177085036Y-120048134D01*
X177644853Y-119103346D01*
X177861149Y-118530022D01*
X177765264Y-118101888D01*
X177419792Y-117631247D01*
X176590151Y-116073208D01*
X176171192Y-113975223D01*
X176170507Y-111376421D01*
X176180706Y-111244944D01*
X176190355Y-111143764D01*
X177099539Y-111143764D01*
X177118633Y-112518955D01*
X177200339Y-113895285D01*
X177341029Y-115097707D01*
X177537077Y-115951174D01*
X177606227Y-116113157D01*
X178718988Y-117615726D01*
X180291201Y-118911787D01*
X181518277Y-119573186D01*
X183954894Y-120374299D01*
X186086754Y-120551687D01*
X187939533Y-120105020D01*
X189010068Y-119477104D01*
X189829666Y-118777186D01*
X190405485Y-118129834D01*
X190471948Y-118021577D01*
X190675922Y-117340567D01*
X190892820Y-116141869D01*
X191103056Y-114612604D01*
X191287042Y-112939888D01*
X191425191Y-111310841D01*
X191497914Y-109912581D01*
X191485625Y-108932228D01*
X191449249Y-108685453D01*
X191218454Y-107765894D01*
X187838200Y-109345495D01*
X184457947Y-110925097D01*
X182458945Y-110362578D01*
X181077731Y-109949026D01*
X179741153Y-109509319D01*
X179129888Y-109287779D01*
X178202426Y-108961298D01*
X177547259Y-108785362D01*
X177454194Y-108775500D01*
X177263693Y-109096989D01*
X177146683Y-109944760D01*
X177099539Y-111143764D01*
X176190355Y-111143764D01*
X176314850Y-109838343D01*
X176467346Y-108620897D01*
X176606819Y-107840428D01*
X176616175Y-107805361D01*
X176672450Y-107218079D01*
X176259469Y-107022801D01*
X175942045Y-107011611D01*
X174872276Y-107313960D01*
X173817387Y-108084578D01*
X173004381Y-109118817D01*
X172690119Y-109943293D01*
X172626974Y-110941415D01*
X172694898Y-112258881D01*
X172793068Y-113045765D01*
X172949339Y-114669737D01*
X172783916Y-115754916D01*
X172258798Y-116408519D01*
X171495697Y-116706062D01*
X170268759Y-116849422D01*
X169501505Y-116559516D01*
X169074078Y-115742583D01*
X168972933Y-115125500D01*
X169700222Y-115125500D01*
X169838340Y-115611783D01*
X170377537Y-115807992D01*
X170934944Y-115831055D01*
X171768273Y-115766963D01*
X172109700Y-115470642D01*
X172169666Y-114911367D01*
X172064787Y-114260685D01*
X171690214Y-114178597D01*
X171611647Y-114205812D01*
X170767954Y-114393816D01*
X170376925Y-114419944D01*
X169808119Y-114683189D01*
X169700222Y-115125500D01*
X168972933Y-115125500D01*
X168899043Y-114674700D01*
X168859043Y-113292970D01*
X168913843Y-113088469D01*
X169846906Y-113088469D01*
X170003436Y-113412346D01*
X170138996Y-113480018D01*
X170862315Y-113676201D01*
X171558687Y-113520379D01*
X171609621Y-113501034D01*
X171999620Y-113178062D01*
X171810436Y-112852709D01*
X171153912Y-112665046D01*
X170934944Y-112656055D01*
X170203914Y-112788230D01*
X169846906Y-113088469D01*
X168913843Y-113088469D01*
X169086652Y-112443588D01*
X169207881Y-112275499D01*
X169568229Y-111525391D01*
X169700222Y-110649519D01*
X169859274Y-109756197D01*
X170270647Y-108552459D01*
X170695256Y-107607816D01*
X171690290Y-105635148D01*
X170794578Y-105529629D01*
X169902949Y-105117564D01*
X169383914Y-104502384D01*
X169070932Y-103763292D01*
X169117946Y-103061291D01*
X169362850Y-102388306D01*
X170501555Y-100507066D01*
X172160873Y-98940464D01*
X174173602Y-97845912D01*
X174197212Y-97837035D01*
X175898262Y-97268760D01*
X177668954Y-96792364D01*
X179381498Y-96428055D01*
X180908105Y-96196041D01*
X182120986Y-96116530D01*
X182892350Y-96209730D01*
X183105777Y-96428277D01*
X182796383Y-96664484D01*
X182038712Y-96779025D01*
X181910519Y-96781055D01*
X180910887Y-96896083D01*
X179459826Y-97202238D01*
X177765869Y-97641128D01*
X176037550Y-98154361D01*
X174483401Y-98683545D01*
X173311956Y-99170289D01*
X173228000Y-99212277D01*
X172188619Y-99942080D01*
X171282226Y-100929319D01*
X170579503Y-102030408D01*
X170151134Y-103101760D01*
X170067802Y-103999790D01*
X170400192Y-104580911D01*
X170547912Y-104656595D01*
X171154355Y-104669082D01*
X172146237Y-104488796D01*
X172752773Y-104323375D01*
X174087998Y-103927805D01*
X175716143Y-103464891D01*
X177497433Y-102972031D01*
X179292098Y-102486619D01*
X180960363Y-102046053D01*
X182362456Y-101687729D01*
X183358604Y-101449043D01*
X183801926Y-101367166D01*
X184105191Y-101615615D01*
X184085440Y-101779567D01*
X183703045Y-102050242D01*
X182800173Y-102418967D01*
X181543013Y-102821631D01*
X180981697Y-102976907D01*
X179631218Y-103372668D01*
X178569956Y-103756008D01*
X177963476Y-104064091D01*
X177885368Y-104152006D01*
X177480063Y-104421675D01*
X176675794Y-104541773D01*
X176624740Y-104542166D01*
X174900282Y-104866182D01*
X173285255Y-105742821D01*
X172006405Y-107028975D01*
X171594210Y-107717166D01*
X171026543Y-109089258D01*
X170683841Y-110336966D01*
X170588155Y-111313766D01*
X170761534Y-111873137D01*
X170957123Y-111950500D01*
X171412564Y-111704615D01*
X171466078Y-111509527D01*
X171774730Y-109824057D01*
X172595381Y-108277630D01*
X173792806Y-107039997D01*
X175231778Y-106280907D01*
X175722375Y-106166599D01*
X176595406Y-105948658D01*
X177076137Y-105676401D01*
X177108555Y-105596331D01*
X177382174Y-105264228D01*
X177501373Y-105247722D01*
X177745471Y-105556161D01*
X177732538Y-106349134D01*
X177570885Y-107450547D01*
X183601526Y-107279136D01*
X185630842Y-107207794D01*
X187442551Y-107118467D01*
X188906575Y-107019585D01*
X189892839Y-106919577D01*
X190240801Y-106848885D01*
X190626621Y-106601347D01*
X190615810Y-106195941D01*
X190502193Y-105953277D01*
X191572444Y-105953277D01*
X191701520Y-106243653D01*
X191807629Y-106188463D01*
X191849850Y-105769798D01*
X191807629Y-105718092D01*
X191597903Y-105766518D01*
X191572444Y-105953277D01*
X190502193Y-105953277D01*
X190330289Y-105586126D01*
X190108917Y-104898049D01*
X190142051Y-104383085D01*
X190367894Y-104223123D01*
X190686943Y-104536412D01*
X191147122Y-104756077D01*
X192040585Y-104882713D01*
X192445609Y-104894944D01*
X193238921Y-104933153D01*
X193864956Y-105119581D01*
X194496787Y-105561933D01*
X195307489Y-106367913D01*
X195964146Y-107084524D01*
X196913650Y-108213541D01*
X197668852Y-109259844D01*
X198097942Y-110036427D01*
X198139877Y-110171329D01*
X198389692Y-111194439D01*
X198635016Y-111676390D01*
X198993327Y-111770959D01*
X199311975Y-111705582D01*
X199810106Y-111556015D01*
X199986051Y-111324453D01*
X199861040Y-110813879D01*
X199502460Y-109937897D01*
X198644628Y-108399664D01*
X197381175Y-106757281D01*
X195917901Y-105258700D01*
X194993639Y-104505513D01*
X193901124Y-103841768D01*
X192811110Y-103541766D01*
X191684831Y-103483833D01*
X190382924Y-103391651D01*
X190087810Y-103251950D01*
X194923833Y-103251950D01*
X197062201Y-105300237D01*
X198416188Y-106748038D01*
X199543698Y-108242165D01*
X200346678Y-109631034D01*
X200727076Y-110763063D01*
X200744666Y-110993134D01*
X201036915Y-111488594D01*
X201673274Y-111770870D01*
X202205201Y-111715186D01*
X202392984Y-111342578D01*
X202679245Y-110462566D01*
X203006061Y-109255747D01*
X203046824Y-109091136D01*
X203487105Y-106374775D01*
X203471780Y-104054743D01*
X203167908Y-101822723D01*
X202616031Y-100183294D01*
X201775933Y-99054782D01*
X200679355Y-98383584D01*
X199180475Y-97913235D01*
X198030570Y-97908754D01*
X197125149Y-98429539D01*
X196359724Y-99534985D01*
X195643530Y-101246146D01*
X194923833Y-103251950D01*
X190087810Y-103251950D01*
X189674985Y-103056528D01*
X189466680Y-102390601D01*
X189600841Y-101542766D01*
X189997260Y-100839989D01*
X190691513Y-100661611D01*
X191561029Y-100661611D01*
X190956267Y-99393411D01*
X190593268Y-98554556D01*
X190558922Y-98092689D01*
X190848679Y-97762880D01*
X190924914Y-97705925D01*
X191301702Y-97315315D01*
X191169582Y-96860864D01*
X190980367Y-96592874D01*
X190245621Y-95502176D01*
X189993207Y-94820210D01*
X190156475Y-94491002D01*
X190498534Y-94648578D01*
G36*
X226913722Y-95913222D02*
X227250266Y-96230230D01*
X227266500Y-96286819D01*
X226993558Y-96438344D01*
X226913722Y-96442388D01*
X226574501Y-96171190D01*
X226560944Y-96068791D01*
X226777069Y-95858099D01*
X226913722Y-95913222D01*
X226913722Y-95913222D01*
G37*
X226913722Y-95913222D02*
X227250266Y-96230230D01*
X227266500Y-96286819D01*
X226993558Y-96438344D01*
X226913722Y-96442388D01*
X226574501Y-96171190D01*
X226560944Y-96068791D01*
X226777069Y-95858099D01*
X226913722Y-95913222D01*
G36*
X219152611Y-96266000D02*
X219489155Y-96583008D01*
X219505389Y-96639597D01*
X219232447Y-96791122D01*
X219152611Y-96795166D01*
X218813390Y-96523968D01*
X218799833Y-96421569D01*
X219015958Y-96210877D01*
X219152611Y-96266000D01*
X219152611Y-96266000D01*
G37*
X219152611Y-96266000D02*
X219489155Y-96583008D01*
X219505389Y-96639597D01*
X219232447Y-96791122D01*
X219152611Y-96795166D01*
X218813390Y-96523968D01*
X218799833Y-96421569D01*
X219015958Y-96210877D01*
X219152611Y-96266000D01*
G36*
X233325883Y-86084870D02*
X233446108Y-86221537D01*
X233393930Y-86697613D01*
X233016303Y-87521658D01*
X232660452Y-88108359D01*
X231952224Y-89356944D01*
X231268187Y-90846965D01*
X230973080Y-91626433D01*
X230518292Y-92789674D01*
X230125449Y-93481154D01*
X229847192Y-93635878D01*
X229736165Y-93188851D01*
X229735944Y-93153843D01*
X229874999Y-92373557D01*
X230228316Y-91222225D01*
X230700125Y-89962590D01*
X231194653Y-88857396D01*
X231494805Y-88328500D01*
X232132766Y-87357465D01*
X232367074Y-86850995D01*
X232192698Y-86691499D01*
X231604612Y-86761385D01*
X231429175Y-86793992D01*
X229715636Y-87286193D01*
X228118114Y-88043414D01*
X226884272Y-88938791D01*
X226564725Y-89285763D01*
X226112067Y-90017902D01*
X226218030Y-90335513D01*
X226866200Y-90232898D01*
X227931649Y-89760225D01*
X228825615Y-89323792D01*
X229430395Y-89064841D01*
X229545501Y-89034055D01*
X229728379Y-89308344D01*
X229694323Y-89912264D01*
X229480915Y-90517397D01*
X229356780Y-90683219D01*
X229003548Y-91244291D01*
X228599055Y-92164860D01*
X228502686Y-92429469D01*
X228180661Y-93238401D01*
X227956385Y-93437276D01*
X227777140Y-93156697D01*
X227724689Y-92358598D01*
X227914332Y-91665696D01*
X228117982Y-91148242D01*
X228001905Y-90931796D01*
X227423352Y-90940067D01*
X226725986Y-91030588D01*
X225667192Y-91080429D01*
X225170305Y-90808015D01*
X225195177Y-90136836D01*
X225678655Y-89034721D01*
X226338086Y-88250354D01*
X227406169Y-87491248D01*
X228724319Y-86814837D01*
X230133951Y-86278558D01*
X231476479Y-85939847D01*
X232593318Y-85856139D01*
X233325883Y-86084870D01*
X233325883Y-86084870D01*
G37*
X233325883Y-86084870D02*
X233446108Y-86221537D01*
X233393930Y-86697613D01*
X233016303Y-87521658D01*
X232660452Y-88108359D01*
X231952224Y-89356944D01*
X231268187Y-90846965D01*
X230973080Y-91626433D01*
X230518292Y-92789674D01*
X230125449Y-93481154D01*
X229847192Y-93635878D01*
X229736165Y-93188851D01*
X229735944Y-93153843D01*
X229874999Y-92373557D01*
X230228316Y-91222225D01*
X230700125Y-89962590D01*
X231194653Y-88857396D01*
X231494805Y-88328500D01*
X232132766Y-87357465D01*
X232367074Y-86850995D01*
X232192698Y-86691499D01*
X231604612Y-86761385D01*
X231429175Y-86793992D01*
X229715636Y-87286193D01*
X228118114Y-88043414D01*
X226884272Y-88938791D01*
X226564725Y-89285763D01*
X226112067Y-90017902D01*
X226218030Y-90335513D01*
X226866200Y-90232898D01*
X227931649Y-89760225D01*
X228825615Y-89323792D01*
X229430395Y-89064841D01*
X229545501Y-89034055D01*
X229728379Y-89308344D01*
X229694323Y-89912264D01*
X229480915Y-90517397D01*
X229356780Y-90683219D01*
X229003548Y-91244291D01*
X228599055Y-92164860D01*
X228502686Y-92429469D01*
X228180661Y-93238401D01*
X227956385Y-93437276D01*
X227777140Y-93156697D01*
X227724689Y-92358598D01*
X227914332Y-91665696D01*
X228117982Y-91148242D01*
X228001905Y-90931796D01*
X227423352Y-90940067D01*
X226725986Y-91030588D01*
X225667192Y-91080429D01*
X225170305Y-90808015D01*
X225195177Y-90136836D01*
X225678655Y-89034721D01*
X226338086Y-88250354D01*
X227406169Y-87491248D01*
X228724319Y-86814837D01*
X230133951Y-86278558D01*
X231476479Y-85939847D01*
X232593318Y-85856139D01*
X233325883Y-86084870D01*
G36*
X227106248Y-91629878D02*
X226959336Y-92120888D01*
X226899079Y-92236416D01*
X226412738Y-92738354D01*
X226016020Y-92780990D01*
X225453762Y-92810551D01*
X225305191Y-92948640D01*
X224828057Y-93186054D01*
X224676532Y-93157291D01*
X224044763Y-93180582D01*
X223650527Y-93327471D01*
X223153081Y-93458943D01*
X223033166Y-93341295D01*
X223278091Y-92896529D01*
X223845794Y-92281435D01*
X224485665Y-91736823D01*
X224945730Y-91503500D01*
X225086340Y-91764558D01*
X225022259Y-92032666D01*
X224994395Y-92487952D01*
X225117709Y-92561833D01*
X225567618Y-92320951D01*
X225855388Y-92032666D01*
X226462609Y-91584042D01*
X226792941Y-91503500D01*
X227106248Y-91629878D01*
X227106248Y-91629878D01*
G37*
X227106248Y-91629878D02*
X226959336Y-92120888D01*
X226899079Y-92236416D01*
X226412738Y-92738354D01*
X226016020Y-92780990D01*
X225453762Y-92810551D01*
X225305191Y-92948640D01*
X224828057Y-93186054D01*
X224676532Y-93157291D01*
X224044763Y-93180582D01*
X223650527Y-93327471D01*
X223153081Y-93458943D01*
X223033166Y-93341295D01*
X223278091Y-92896529D01*
X223845794Y-92281435D01*
X224485665Y-91736823D01*
X224945730Y-91503500D01*
X225086340Y-91764558D01*
X225022259Y-92032666D01*
X224994395Y-92487952D01*
X225117709Y-92561833D01*
X225567618Y-92320951D01*
X225855388Y-92032666D01*
X226462609Y-91584042D01*
X226792941Y-91503500D01*
X227106248Y-91629878D01*
G36*
X221491007Y-85212762D02*
X221843852Y-85375496D01*
X222048471Y-85797396D01*
X222146044Y-86634324D01*
X222175734Y-87804520D01*
X222229421Y-89326203D01*
X222344393Y-90805600D01*
X222471326Y-91768083D01*
X222597696Y-92730722D01*
X222498945Y-93176160D01*
X222231369Y-93267389D01*
X221883059Y-92932285D01*
X221596856Y-91994940D01*
X221390972Y-90557301D01*
X221283618Y-88721313D01*
X221272344Y-87898599D01*
X221224134Y-86881448D01*
X221055047Y-86439213D01*
X220759689Y-86429524D01*
X220228634Y-86845497D01*
X219484679Y-87675288D01*
X218673033Y-88724795D01*
X217938904Y-89799917D01*
X217427501Y-90706550D01*
X217293990Y-91062176D01*
X217233575Y-91812606D01*
X217523014Y-91988893D01*
X218113879Y-91599285D01*
X218841719Y-90798607D01*
X219525143Y-90047431D01*
X220048739Y-89650687D01*
X220230362Y-89645033D01*
X220394656Y-90120819D01*
X220565054Y-91067647D01*
X220669867Y-91944472D01*
X220738113Y-93235088D01*
X220621068Y-93879301D01*
X220306657Y-93914672D01*
X220093351Y-93737759D01*
X219905967Y-93231465D01*
X219858166Y-92700245D01*
X219707319Y-91897550D01*
X219310024Y-91740294D01*
X218749148Y-92249933D01*
X218653900Y-92388473D01*
X217938549Y-93138761D01*
X217276227Y-93278916D01*
X216756129Y-92903434D01*
X216467450Y-92106809D01*
X216499384Y-90983537D01*
X216675377Y-90292379D01*
X217142402Y-89356423D01*
X217918003Y-88265735D01*
X218866991Y-87162916D01*
X219854176Y-86190569D01*
X220744367Y-85491294D01*
X221402373Y-85207691D01*
X221491007Y-85212762D01*
X221491007Y-85212762D01*
G37*
X221491007Y-85212762D02*
X221843852Y-85375496D01*
X222048471Y-85797396D01*
X222146044Y-86634324D01*
X222175734Y-87804520D01*
X222229421Y-89326203D01*
X222344393Y-90805600D01*
X222471326Y-91768083D01*
X222597696Y-92730722D01*
X222498945Y-93176160D01*
X222231369Y-93267389D01*
X221883059Y-92932285D01*
X221596856Y-91994940D01*
X221390972Y-90557301D01*
X221283618Y-88721313D01*
X221272344Y-87898599D01*
X221224134Y-86881448D01*
X221055047Y-86439213D01*
X220759689Y-86429524D01*
X220228634Y-86845497D01*
X219484679Y-87675288D01*
X218673033Y-88724795D01*
X217938904Y-89799917D01*
X217427501Y-90706550D01*
X217293990Y-91062176D01*
X217233575Y-91812606D01*
X217523014Y-91988893D01*
X218113879Y-91599285D01*
X218841719Y-90798607D01*
X219525143Y-90047431D01*
X220048739Y-89650687D01*
X220230362Y-89645033D01*
X220394656Y-90120819D01*
X220565054Y-91067647D01*
X220669867Y-91944472D01*
X220738113Y-93235088D01*
X220621068Y-93879301D01*
X220306657Y-93914672D01*
X220093351Y-93737759D01*
X219905967Y-93231465D01*
X219858166Y-92700245D01*
X219707319Y-91897550D01*
X219310024Y-91740294D01*
X218749148Y-92249933D01*
X218653900Y-92388473D01*
X217938549Y-93138761D01*
X217276227Y-93278916D01*
X216756129Y-92903434D01*
X216467450Y-92106809D01*
X216499384Y-90983537D01*
X216675377Y-90292379D01*
X217142402Y-89356423D01*
X217918003Y-88265735D01*
X218866991Y-87162916D01*
X219854176Y-86190569D01*
X220744367Y-85491294D01*
X221402373Y-85207691D01*
X221491007Y-85212762D01*
G36*
X226979235Y-94160788D02*
X227430526Y-94362067D01*
X228501727Y-95101873D01*
X228956124Y-95877020D01*
X228869145Y-96586367D01*
X228316215Y-97128775D01*
X227372762Y-97403104D01*
X226114210Y-97308214D01*
X225394463Y-97092243D01*
X224679061Y-96680945D01*
X224493384Y-96050756D01*
X224512518Y-95800106D01*
X224539009Y-95741708D01*
X225208411Y-95741708D01*
X225396825Y-96331108D01*
X225746568Y-96548015D01*
X226963129Y-96751020D01*
X227870509Y-96688700D01*
X228307711Y-96378160D01*
X228324833Y-96274132D01*
X228025863Y-95675419D01*
X227314111Y-95111944D01*
X226467318Y-94763827D01*
X225960929Y-94741090D01*
X225408479Y-95110271D01*
X225208411Y-95741708D01*
X224539009Y-95741708D01*
X224935188Y-94868358D01*
X225522789Y-94373195D01*
X226282096Y-94060067D01*
X226979235Y-94160788D01*
X226979235Y-94160788D01*
G37*
X226979235Y-94160788D02*
X227430526Y-94362067D01*
X228501727Y-95101873D01*
X228956124Y-95877020D01*
X228869145Y-96586367D01*
X228316215Y-97128775D01*
X227372762Y-97403104D01*
X226114210Y-97308214D01*
X225394463Y-97092243D01*
X224679061Y-96680945D01*
X224493384Y-96050756D01*
X224512518Y-95800106D01*
X224539009Y-95741708D01*
X225208411Y-95741708D01*
X225396825Y-96331108D01*
X225746568Y-96548015D01*
X226963129Y-96751020D01*
X227870509Y-96688700D01*
X228307711Y-96378160D01*
X228324833Y-96274132D01*
X228025863Y-95675419D01*
X227314111Y-95111944D01*
X226467318Y-94763827D01*
X225960929Y-94741090D01*
X225408479Y-95110271D01*
X225208411Y-95741708D01*
X224539009Y-95741708D01*
X224935188Y-94868358D01*
X225522789Y-94373195D01*
X226282096Y-94060067D01*
X226979235Y-94160788D01*
G36*
X221548280Y-95156101D02*
X221810558Y-95397441D01*
X222218379Y-95916110D01*
X222189673Y-96308393D01*
X221685480Y-96861106D01*
X221600651Y-96942734D01*
X220383560Y-97778635D01*
X219172905Y-98007171D01*
X218159130Y-97647551D01*
X217510965Y-96991036D01*
X217512399Y-96530214D01*
X218255060Y-96530214D01*
X218591850Y-97033657D01*
X218682572Y-97089333D01*
X219490904Y-97248317D01*
X220372658Y-97037142D01*
X221053440Y-96565519D01*
X221269277Y-96055100D01*
X221114718Y-95587381D01*
X220532154Y-95401727D01*
X220046967Y-95384055D01*
X219099037Y-95559908D01*
X218462928Y-95990463D01*
X218255060Y-96530214D01*
X217512399Y-96530214D01*
X217513094Y-96307141D01*
X218167923Y-95480827D01*
X218205209Y-95445549D01*
X219288617Y-94821384D01*
X220485948Y-94723794D01*
X221548280Y-95156101D01*
X221548280Y-95156101D01*
G37*
X221548280Y-95156101D02*
X221810558Y-95397441D01*
X222218379Y-95916110D01*
X222189673Y-96308393D01*
X221685480Y-96861106D01*
X221600651Y-96942734D01*
X220383560Y-97778635D01*
X219172905Y-98007171D01*
X218159130Y-97647551D01*
X217510965Y-96991036D01*
X217512399Y-96530214D01*
X218255060Y-96530214D01*
X218591850Y-97033657D01*
X218682572Y-97089333D01*
X219490904Y-97248317D01*
X220372658Y-97037142D01*
X221053440Y-96565519D01*
X221269277Y-96055100D01*
X221114718Y-95587381D01*
X220532154Y-95401727D01*
X220046967Y-95384055D01*
X219099037Y-95559908D01*
X218462928Y-95990463D01*
X218255060Y-96530214D01*
X217512399Y-96530214D01*
X217513094Y-96307141D01*
X218167923Y-95480827D01*
X218205209Y-95445549D01*
X219288617Y-94821384D01*
X220485948Y-94723794D01*
X221548280Y-95156101D01*
G36*
X237139591Y-116459328D02*
X237019119Y-117161393D01*
X236550182Y-118182413D01*
X236257907Y-118674399D01*
X235627226Y-119532056D01*
X235080068Y-120038639D01*
X234735271Y-120101974D01*
X234674833Y-119902295D01*
X234840649Y-119447050D01*
X235254988Y-118651546D01*
X235793184Y-117724942D01*
X236330575Y-116876397D01*
X236742496Y-116315069D01*
X236879694Y-116203027D01*
X237139591Y-116459328D01*
X237139591Y-116459328D01*
G37*
X237139591Y-116459328D02*
X237019119Y-117161393D01*
X236550182Y-118182413D01*
X236257907Y-118674399D01*
X235627226Y-119532056D01*
X235080068Y-120038639D01*
X234735271Y-120101974D01*
X234674833Y-119902295D01*
X234840649Y-119447050D01*
X235254988Y-118651546D01*
X235793184Y-117724942D01*
X236330575Y-116876397D01*
X236742496Y-116315069D01*
X236879694Y-116203027D01*
X237139591Y-116459328D01*
G36*
X231837034Y-96426578D02*
X232378077Y-97020147D01*
X232988433Y-97861365D01*
X233538430Y-98761890D01*
X233898399Y-99533378D01*
X233969277Y-99862844D01*
X233685435Y-100270171D01*
X233440111Y-100322944D01*
X233032821Y-100362397D01*
X232964690Y-100599650D01*
X233233157Y-101213049D01*
X233422056Y-101580242D01*
X233764109Y-102491322D01*
X233572984Y-102984320D01*
X232810222Y-103144211D01*
X232713735Y-103145166D01*
X232020025Y-103332913D01*
X231852611Y-103674333D01*
X232156796Y-104101400D01*
X232690458Y-104203500D01*
X233683949Y-104275278D01*
X234557055Y-104409250D01*
X235150708Y-104483084D01*
X235531932Y-104309589D01*
X235838503Y-103743739D01*
X236193709Y-102686508D01*
X236826767Y-100966695D01*
X237506141Y-99840910D01*
X238343574Y-99200667D01*
X239450807Y-98937477D01*
X240080299Y-98913152D01*
X241939347Y-99135318D01*
X243393820Y-99824186D01*
X244469583Y-101017788D01*
X245192499Y-102754161D01*
X245588434Y-105071340D01*
X245685901Y-107156281D01*
X245582935Y-108720936D01*
X245288634Y-110597709D01*
X244860487Y-112522440D01*
X244355987Y-114230969D01*
X243910031Y-115316000D01*
X243510522Y-116253574D01*
X243309696Y-117031278D01*
X243309247Y-117036384D01*
X242925748Y-117871131D01*
X242075484Y-118570114D01*
X240986000Y-119039866D01*
X239884842Y-119186925D01*
X238999554Y-118917826D01*
X238908436Y-118844022D01*
X238450715Y-118530439D01*
X238140299Y-118747814D01*
X237915129Y-119194126D01*
X237502446Y-119843999D01*
X237151841Y-120078500D01*
X236851826Y-119962756D01*
X236869960Y-119536300D01*
X237227443Y-118680294D01*
X237498511Y-118135366D01*
X237994264Y-116760748D01*
X237992907Y-116659523D01*
X239322192Y-116659523D01*
X239357650Y-117665925D01*
X239843608Y-118212615D01*
X240656002Y-118249379D01*
X241670771Y-117726004D01*
X241768059Y-117649489D01*
X242307359Y-117121823D01*
X242317623Y-116702669D01*
X242101772Y-116396752D01*
X241421124Y-115983247D01*
X240544253Y-115902779D01*
X239752564Y-116128744D01*
X239327460Y-116634540D01*
X239322192Y-116659523D01*
X237992907Y-116659523D01*
X237977823Y-115534857D01*
X237937876Y-114955072D01*
X238835679Y-114955072D01*
X239266274Y-115098072D01*
X239849452Y-115128883D01*
X240917735Y-115086080D01*
X241743382Y-114966397D01*
X241877925Y-114925479D01*
X242440515Y-114586489D01*
X242395010Y-114309611D01*
X241838753Y-114169943D01*
X240970549Y-114225428D01*
X239740139Y-114476585D01*
X239011075Y-114733855D01*
X238835679Y-114955072D01*
X237937876Y-114955072D01*
X237911861Y-114577498D01*
X238216794Y-113994350D01*
X238371914Y-113866446D01*
X238795246Y-113256176D01*
X238702591Y-112374754D01*
X238077600Y-111163623D01*
X237318321Y-110093156D01*
X236167007Y-108742268D01*
X235242744Y-108021148D01*
X234506289Y-107906187D01*
X234098693Y-108156227D01*
X233885214Y-108669714D01*
X233705861Y-109659311D01*
X233564344Y-110986637D01*
X233464377Y-112513311D01*
X233409669Y-114100952D01*
X233403934Y-115611177D01*
X233450883Y-116905606D01*
X233554227Y-117845857D01*
X233717679Y-118293548D01*
X233826979Y-118286318D01*
X234255886Y-117686352D01*
X234322055Y-117389471D01*
X234527119Y-116948423D01*
X234674833Y-116903500D01*
X235058605Y-117117408D01*
X234945503Y-117707260D01*
X234378947Y-118595248D01*
X233402355Y-119703565D01*
X232766866Y-120322554D01*
X230506122Y-122428547D01*
X231186982Y-123503891D01*
X231675895Y-124721289D01*
X232036334Y-126627654D01*
X232159937Y-127744746D01*
X232316735Y-129200034D01*
X232487848Y-130402164D01*
X232645192Y-131166252D01*
X232702308Y-131315212D01*
X233176803Y-131554829D01*
X234094023Y-131700115D01*
X234625097Y-131720166D01*
X235709201Y-131804659D01*
X236520671Y-132018319D01*
X236720944Y-132143500D01*
X237066082Y-132871302D01*
X237113329Y-133820960D01*
X236865105Y-134626519D01*
X236703305Y-134811234D01*
X235687349Y-135276047D01*
X234257145Y-135501476D01*
X232649317Y-135498120D01*
X231100492Y-135276576D01*
X229847293Y-134847442D01*
X229321403Y-134480625D01*
X229015461Y-134121896D01*
X228826296Y-133687771D01*
X228739750Y-133034185D01*
X228741409Y-132151412D01*
X229389418Y-132151412D01*
X229612309Y-133082317D01*
X229776834Y-133744283D01*
X229991157Y-134097860D01*
X230458967Y-134294715D01*
X231383951Y-134486515D01*
X231539310Y-134517182D01*
X233840154Y-134671812D01*
X235821361Y-134315889D01*
X236291686Y-133909510D01*
X236427225Y-133267702D01*
X236192933Y-132727660D01*
X235997750Y-132618674D01*
X235462074Y-132538396D01*
X234412919Y-132442861D01*
X233041651Y-132348491D01*
X232473098Y-132316201D01*
X229389418Y-132151412D01*
X228741409Y-132151412D01*
X228741662Y-132017076D01*
X228812341Y-130603037D01*
X229735944Y-130603037D01*
X230041089Y-131161953D01*
X230941928Y-131366654D01*
X231018391Y-131367389D01*
X231606657Y-131231363D01*
X231627407Y-130838222D01*
X231235889Y-130493820D01*
X230585391Y-130317819D01*
X229983254Y-130348434D01*
X229735944Y-130603037D01*
X228812341Y-130603037D01*
X228817873Y-130492381D01*
X228860675Y-129793028D01*
X228956483Y-127395591D01*
X228889762Y-125618042D01*
X228641221Y-124389406D01*
X228191571Y-123638708D01*
X227521520Y-123294974D01*
X227083271Y-123253500D01*
X226100502Y-123150925D01*
X226011149Y-123132639D01*
X229072839Y-123132639D01*
X229250123Y-123682282D01*
X229559555Y-124433808D01*
X229868298Y-125541823D01*
X230058968Y-126936957D01*
X230088722Y-127651891D01*
X230143132Y-128854563D01*
X230324466Y-129466619D01*
X230580145Y-129603500D01*
X231131567Y-129320279D01*
X231263139Y-129104276D01*
X231334576Y-128382777D01*
X231249804Y-127237204D01*
X231049421Y-125921031D01*
X230774028Y-124687734D01*
X230464225Y-123790788D01*
X230390399Y-123655547D01*
X229870174Y-123077617D01*
X229474696Y-122900722D01*
X229150891Y-122929840D01*
X229072839Y-123132639D01*
X226011149Y-123132639D01*
X224823580Y-122889607D01*
X224129325Y-122702884D01*
X222960756Y-122407534D01*
X222159354Y-122420502D01*
X221559344Y-122836449D01*
X220994947Y-123750036D01*
X220519895Y-124763912D01*
X220140605Y-125709928D01*
X219895828Y-126647722D01*
X219757520Y-127772569D01*
X219697638Y-129279745D01*
X219687481Y-130560203D01*
X219660509Y-132561727D01*
X219533353Y-133968627D01*
X219226552Y-134891528D01*
X218660644Y-135441058D01*
X217756167Y-135727842D01*
X216433660Y-135862508D01*
X215856095Y-135894237D01*
X214470354Y-135938725D01*
X213568873Y-135871119D01*
X212933652Y-135647434D01*
X212346690Y-135223686D01*
X212289163Y-135174561D01*
X211625412Y-134460323D01*
X211491397Y-133826025D01*
X212449833Y-133826025D01*
X212726241Y-134564655D01*
X213067194Y-134890205D01*
X213783680Y-135091881D01*
X214887942Y-135156430D01*
X216147026Y-135100979D01*
X217327981Y-134942656D01*
X218197854Y-134698587D01*
X218493550Y-134491247D01*
X218714312Y-133751594D01*
X218713659Y-133307666D01*
X218578369Y-132912267D01*
X218189407Y-132701167D01*
X217378361Y-132621548D01*
X216506777Y-132615511D01*
X214597035Y-132699494D01*
X213323098Y-132934323D01*
X212628032Y-133336987D01*
X212449833Y-133826025D01*
X211491397Y-133826025D01*
X211488534Y-133812477D01*
X211556679Y-133519374D01*
X212067376Y-132845984D01*
X213007032Y-132225962D01*
X214105783Y-131809900D01*
X214780861Y-131720166D01*
X215535959Y-131404623D01*
X215562373Y-131367389D01*
X216859555Y-131367389D01*
X216998813Y-131615992D01*
X217689348Y-131719840D01*
X217741500Y-131720166D01*
X218458598Y-131626228D01*
X218632803Y-131384179D01*
X218623444Y-131367389D01*
X218124398Y-131067950D01*
X217741500Y-131014611D01*
X217074855Y-131181448D01*
X216859555Y-131367389D01*
X215562373Y-131367389D01*
X216102601Y-130605885D01*
X216319458Y-129603500D01*
X216346835Y-129328511D01*
X217410728Y-129328511D01*
X217448978Y-130003503D01*
X217641402Y-130276644D01*
X217829132Y-130309055D01*
X218412621Y-130022437D01*
X218585701Y-129751036D01*
X218735580Y-129017536D01*
X218799794Y-128023014D01*
X218799833Y-128000207D01*
X218964161Y-126833254D01*
X219387107Y-125382958D01*
X219963609Y-123934661D01*
X220588608Y-122773708D01*
X220851498Y-122427887D01*
X221234072Y-121904032D01*
X221077911Y-121535402D01*
X220747987Y-121275357D01*
X220287129Y-121018633D01*
X219919247Y-121146657D01*
X219461636Y-121760190D01*
X219250905Y-122100969D01*
X218461977Y-123643908D01*
X217926857Y-125345910D01*
X217576305Y-127445053D01*
X217504971Y-128104194D01*
X217410728Y-129328511D01*
X216346835Y-129328511D01*
X216467126Y-128120254D01*
X216830377Y-126325861D01*
X217338123Y-124483084D01*
X217919275Y-122854684D01*
X218423536Y-121826134D01*
X218983353Y-120881346D01*
X219199649Y-120308022D01*
X219103764Y-119879888D01*
X218758292Y-119409247D01*
X217928651Y-117851208D01*
X217509692Y-115753223D01*
X217509007Y-113154421D01*
X217519206Y-113022944D01*
X217528855Y-112921764D01*
X218438039Y-112921764D01*
X218457133Y-114296955D01*
X218538839Y-115673285D01*
X218679529Y-116875707D01*
X218875577Y-117729174D01*
X218944727Y-117891157D01*
X220057488Y-119393726D01*
X221629701Y-120689787D01*
X222856777Y-121351186D01*
X225293394Y-122152299D01*
X227425254Y-122329687D01*
X229278033Y-121883020D01*
X230348568Y-121255104D01*
X231168166Y-120555186D01*
X231743985Y-119907834D01*
X231810448Y-119799577D01*
X232014422Y-119118567D01*
X232231320Y-117919869D01*
X232441556Y-116390604D01*
X232625542Y-114717888D01*
X232763691Y-113088841D01*
X232836414Y-111690581D01*
X232824125Y-110710228D01*
X232787749Y-110463453D01*
X232556954Y-109543894D01*
X229176700Y-111123495D01*
X225796447Y-112703097D01*
X223797445Y-112140578D01*
X222416231Y-111727026D01*
X221079653Y-111287319D01*
X220468388Y-111065779D01*
X219540926Y-110739298D01*
X218885759Y-110563362D01*
X218792694Y-110553500D01*
X218602193Y-110874989D01*
X218485183Y-111722760D01*
X218438039Y-112921764D01*
X217528855Y-112921764D01*
X217653350Y-111616343D01*
X217805846Y-110398897D01*
X217945319Y-109618428D01*
X217954675Y-109583361D01*
X218010950Y-108996079D01*
X217597969Y-108800801D01*
X217280545Y-108789611D01*
X216210776Y-109091960D01*
X215155887Y-109862578D01*
X214342881Y-110896817D01*
X214028619Y-111721293D01*
X213965474Y-112719415D01*
X214033398Y-114036881D01*
X214131568Y-114823765D01*
X214287839Y-116447737D01*
X214122416Y-117532916D01*
X213597298Y-118186519D01*
X212834197Y-118484062D01*
X211607259Y-118627422D01*
X210840005Y-118337516D01*
X210412578Y-117520583D01*
X210311433Y-116903500D01*
X211038722Y-116903500D01*
X211176840Y-117389783D01*
X211716037Y-117585992D01*
X212273444Y-117609055D01*
X213106773Y-117544963D01*
X213448200Y-117248642D01*
X213508166Y-116689367D01*
X213403287Y-116038685D01*
X213028714Y-115956597D01*
X212950147Y-115983812D01*
X212106454Y-116171816D01*
X211715425Y-116197944D01*
X211146619Y-116461189D01*
X211038722Y-116903500D01*
X210311433Y-116903500D01*
X210237543Y-116452700D01*
X210197543Y-115070970D01*
X210252343Y-114866469D01*
X211185406Y-114866469D01*
X211341936Y-115190346D01*
X211477496Y-115258018D01*
X212200815Y-115454201D01*
X212897187Y-115298379D01*
X212948121Y-115279034D01*
X213338120Y-114956062D01*
X213148936Y-114630709D01*
X212492412Y-114443046D01*
X212273444Y-114434055D01*
X211542414Y-114566230D01*
X211185406Y-114866469D01*
X210252343Y-114866469D01*
X210425152Y-114221588D01*
X210546381Y-114053499D01*
X210906729Y-113303391D01*
X211038722Y-112427519D01*
X211197774Y-111534197D01*
X211609147Y-110330459D01*
X212033756Y-109385816D01*
X213028790Y-107413148D01*
X212133078Y-107307629D01*
X211241449Y-106895564D01*
X210722414Y-106280384D01*
X210409432Y-105541292D01*
X210456446Y-104839291D01*
X210701350Y-104166306D01*
X211840055Y-102285066D01*
X213499373Y-100718464D01*
X215512102Y-99623912D01*
X215535712Y-99615035D01*
X217236762Y-99046760D01*
X219007454Y-98570364D01*
X220719998Y-98206055D01*
X222246605Y-97974041D01*
X223459486Y-97894530D01*
X224230850Y-97987730D01*
X224444277Y-98206277D01*
X224134883Y-98442484D01*
X223377212Y-98557025D01*
X223249019Y-98559055D01*
X222249387Y-98674083D01*
X220798326Y-98980238D01*
X219104369Y-99419128D01*
X217376050Y-99932361D01*
X215821901Y-100461545D01*
X214650456Y-100948289D01*
X214566500Y-100990277D01*
X213527119Y-101720080D01*
X212620726Y-102707319D01*
X211918003Y-103808408D01*
X211489634Y-104879760D01*
X211406302Y-105777790D01*
X211738692Y-106358911D01*
X211886412Y-106434595D01*
X212492855Y-106447082D01*
X213484737Y-106266796D01*
X214091273Y-106101375D01*
X215426498Y-105705805D01*
X217054643Y-105242891D01*
X218835933Y-104750031D01*
X220630598Y-104264619D01*
X222298863Y-103824053D01*
X223700956Y-103465729D01*
X224697104Y-103227043D01*
X225140426Y-103145166D01*
X225443691Y-103393615D01*
X225423940Y-103557567D01*
X225041545Y-103828242D01*
X224138673Y-104196967D01*
X222881513Y-104599631D01*
X222320197Y-104754907D01*
X220969718Y-105150668D01*
X219908456Y-105534008D01*
X219301976Y-105842091D01*
X219223868Y-105930006D01*
X218818563Y-106199675D01*
X218014294Y-106319773D01*
X217963240Y-106320166D01*
X216238782Y-106644182D01*
X214623755Y-107520821D01*
X213344905Y-108806975D01*
X212932710Y-109495166D01*
X212365043Y-110867258D01*
X212022341Y-112114966D01*
X211926655Y-113091766D01*
X212100034Y-113651137D01*
X212295623Y-113728500D01*
X212751064Y-113482615D01*
X212804578Y-113287527D01*
X213113230Y-111602057D01*
X213933881Y-110055630D01*
X215131306Y-108817997D01*
X216570278Y-108058907D01*
X217060875Y-107944599D01*
X217933906Y-107726658D01*
X218414637Y-107454401D01*
X218447055Y-107374331D01*
X218720674Y-107042228D01*
X218839873Y-107025722D01*
X219083971Y-107334161D01*
X219071038Y-108127134D01*
X218909385Y-109228547D01*
X224940026Y-109057136D01*
X226969342Y-108985794D01*
X228781051Y-108896467D01*
X230245075Y-108797585D01*
X231231339Y-108697577D01*
X231579301Y-108626885D01*
X231965121Y-108379347D01*
X231954310Y-107973941D01*
X231840693Y-107731277D01*
X232910944Y-107731277D01*
X233040020Y-108021653D01*
X233146129Y-107966463D01*
X233188350Y-107547798D01*
X233146129Y-107496092D01*
X232936403Y-107544518D01*
X232910944Y-107731277D01*
X231840693Y-107731277D01*
X231668789Y-107364126D01*
X231447417Y-106676049D01*
X231480551Y-106161085D01*
X231706394Y-106001123D01*
X232025443Y-106314412D01*
X232485622Y-106534077D01*
X233379085Y-106660713D01*
X233784109Y-106672944D01*
X234577421Y-106711153D01*
X235203456Y-106897581D01*
X235835287Y-107339933D01*
X236645989Y-108145913D01*
X237302646Y-108862524D01*
X238252150Y-109991541D01*
X239007352Y-111037844D01*
X239436442Y-111814427D01*
X239478377Y-111949329D01*
X239728192Y-112972439D01*
X239973516Y-113454390D01*
X240331827Y-113548959D01*
X240650475Y-113483582D01*
X241148606Y-113334015D01*
X241324551Y-113102453D01*
X241199540Y-112591879D01*
X240840960Y-111715897D01*
X239983128Y-110177664D01*
X238719675Y-108535281D01*
X237256401Y-107036700D01*
X236332139Y-106283513D01*
X235239624Y-105619768D01*
X234149610Y-105319766D01*
X233023331Y-105261833D01*
X231721424Y-105169651D01*
X231426310Y-105029950D01*
X236262333Y-105029950D01*
X238400701Y-107078237D01*
X239754688Y-108526038D01*
X240882198Y-110020165D01*
X241685178Y-111409034D01*
X242065576Y-112541063D01*
X242083166Y-112771134D01*
X242375415Y-113266594D01*
X243011774Y-113548870D01*
X243543701Y-113493186D01*
X243731484Y-113120578D01*
X244017745Y-112240566D01*
X244344561Y-111033747D01*
X244385324Y-110869136D01*
X244825605Y-108152775D01*
X244810280Y-105832743D01*
X244506408Y-103600723D01*
X243954531Y-101961294D01*
X243114433Y-100832782D01*
X242017855Y-100161584D01*
X240518975Y-99691235D01*
X239369070Y-99686754D01*
X238463649Y-100207539D01*
X237698224Y-101312985D01*
X236982030Y-103024146D01*
X236262333Y-105029950D01*
X231426310Y-105029950D01*
X231013485Y-104834528D01*
X230805180Y-104168601D01*
X230939341Y-103320766D01*
X231335760Y-102617989D01*
X232030013Y-102439611D01*
X232899529Y-102439611D01*
X232294767Y-101171411D01*
X231931768Y-100332556D01*
X231897422Y-99870689D01*
X232187179Y-99540880D01*
X232263414Y-99483925D01*
X232640202Y-99093315D01*
X232508082Y-98638864D01*
X232318867Y-98370874D01*
X231584121Y-97280176D01*
X231331707Y-96598210D01*
X231494975Y-96269002D01*
X231837034Y-96426578D01*
X231837034Y-96426578D01*
G37*
X231837034Y-96426578D02*
X232378077Y-97020147D01*
X232988433Y-97861365D01*
X233538430Y-98761890D01*
X233898399Y-99533378D01*
X233969277Y-99862844D01*
X233685435Y-100270171D01*
X233440111Y-100322944D01*
X233032821Y-100362397D01*
X232964690Y-100599650D01*
X233233157Y-101213049D01*
X233422056Y-101580242D01*
X233764109Y-102491322D01*
X233572984Y-102984320D01*
X232810222Y-103144211D01*
X232713735Y-103145166D01*
X232020025Y-103332913D01*
X231852611Y-103674333D01*
X232156796Y-104101400D01*
X232690458Y-104203500D01*
X233683949Y-104275278D01*
X234557055Y-104409250D01*
X235150708Y-104483084D01*
X235531932Y-104309589D01*
X235838503Y-103743739D01*
X236193709Y-102686508D01*
X236826767Y-100966695D01*
X237506141Y-99840910D01*
X238343574Y-99200667D01*
X239450807Y-98937477D01*
X240080299Y-98913152D01*
X241939347Y-99135318D01*
X243393820Y-99824186D01*
X244469583Y-101017788D01*
X245192499Y-102754161D01*
X245588434Y-105071340D01*
X245685901Y-107156281D01*
X245582935Y-108720936D01*
X245288634Y-110597709D01*
X244860487Y-112522440D01*
X244355987Y-114230969D01*
X243910031Y-115316000D01*
X243510522Y-116253574D01*
X243309696Y-117031278D01*
X243309247Y-117036384D01*
X242925748Y-117871131D01*
X242075484Y-118570114D01*
X240986000Y-119039866D01*
X239884842Y-119186925D01*
X238999554Y-118917826D01*
X238908436Y-118844022D01*
X238450715Y-118530439D01*
X238140299Y-118747814D01*
X237915129Y-119194126D01*
X237502446Y-119843999D01*
X237151841Y-120078500D01*
X236851826Y-119962756D01*
X236869960Y-119536300D01*
X237227443Y-118680294D01*
X237498511Y-118135366D01*
X237994264Y-116760748D01*
X237992907Y-116659523D01*
X239322192Y-116659523D01*
X239357650Y-117665925D01*
X239843608Y-118212615D01*
X240656002Y-118249379D01*
X241670771Y-117726004D01*
X241768059Y-117649489D01*
X242307359Y-117121823D01*
X242317623Y-116702669D01*
X242101772Y-116396752D01*
X241421124Y-115983247D01*
X240544253Y-115902779D01*
X239752564Y-116128744D01*
X239327460Y-116634540D01*
X239322192Y-116659523D01*
X237992907Y-116659523D01*
X237977823Y-115534857D01*
X237937876Y-114955072D01*
X238835679Y-114955072D01*
X239266274Y-115098072D01*
X239849452Y-115128883D01*
X240917735Y-115086080D01*
X241743382Y-114966397D01*
X241877925Y-114925479D01*
X242440515Y-114586489D01*
X242395010Y-114309611D01*
X241838753Y-114169943D01*
X240970549Y-114225428D01*
X239740139Y-114476585D01*
X239011075Y-114733855D01*
X238835679Y-114955072D01*
X237937876Y-114955072D01*
X237911861Y-114577498D01*
X238216794Y-113994350D01*
X238371914Y-113866446D01*
X238795246Y-113256176D01*
X238702591Y-112374754D01*
X238077600Y-111163623D01*
X237318321Y-110093156D01*
X236167007Y-108742268D01*
X235242744Y-108021148D01*
X234506289Y-107906187D01*
X234098693Y-108156227D01*
X233885214Y-108669714D01*
X233705861Y-109659311D01*
X233564344Y-110986637D01*
X233464377Y-112513311D01*
X233409669Y-114100952D01*
X233403934Y-115611177D01*
X233450883Y-116905606D01*
X233554227Y-117845857D01*
X233717679Y-118293548D01*
X233826979Y-118286318D01*
X234255886Y-117686352D01*
X234322055Y-117389471D01*
X234527119Y-116948423D01*
X234674833Y-116903500D01*
X235058605Y-117117408D01*
X234945503Y-117707260D01*
X234378947Y-118595248D01*
X233402355Y-119703565D01*
X232766866Y-120322554D01*
X230506122Y-122428547D01*
X231186982Y-123503891D01*
X231675895Y-124721289D01*
X232036334Y-126627654D01*
X232159937Y-127744746D01*
X232316735Y-129200034D01*
X232487848Y-130402164D01*
X232645192Y-131166252D01*
X232702308Y-131315212D01*
X233176803Y-131554829D01*
X234094023Y-131700115D01*
X234625097Y-131720166D01*
X235709201Y-131804659D01*
X236520671Y-132018319D01*
X236720944Y-132143500D01*
X237066082Y-132871302D01*
X237113329Y-133820960D01*
X236865105Y-134626519D01*
X236703305Y-134811234D01*
X235687349Y-135276047D01*
X234257145Y-135501476D01*
X232649317Y-135498120D01*
X231100492Y-135276576D01*
X229847293Y-134847442D01*
X229321403Y-134480625D01*
X229015461Y-134121896D01*
X228826296Y-133687771D01*
X228739750Y-133034185D01*
X228741409Y-132151412D01*
X229389418Y-132151412D01*
X229612309Y-133082317D01*
X229776834Y-133744283D01*
X229991157Y-134097860D01*
X230458967Y-134294715D01*
X231383951Y-134486515D01*
X231539310Y-134517182D01*
X233840154Y-134671812D01*
X235821361Y-134315889D01*
X236291686Y-133909510D01*
X236427225Y-133267702D01*
X236192933Y-132727660D01*
X235997750Y-132618674D01*
X235462074Y-132538396D01*
X234412919Y-132442861D01*
X233041651Y-132348491D01*
X232473098Y-132316201D01*
X229389418Y-132151412D01*
X228741409Y-132151412D01*
X228741662Y-132017076D01*
X228812341Y-130603037D01*
X229735944Y-130603037D01*
X230041089Y-131161953D01*
X230941928Y-131366654D01*
X231018391Y-131367389D01*
X231606657Y-131231363D01*
X231627407Y-130838222D01*
X231235889Y-130493820D01*
X230585391Y-130317819D01*
X229983254Y-130348434D01*
X229735944Y-130603037D01*
X228812341Y-130603037D01*
X228817873Y-130492381D01*
X228860675Y-129793028D01*
X228956483Y-127395591D01*
X228889762Y-125618042D01*
X228641221Y-124389406D01*
X228191571Y-123638708D01*
X227521520Y-123294974D01*
X227083271Y-123253500D01*
X226100502Y-123150925D01*
X226011149Y-123132639D01*
X229072839Y-123132639D01*
X229250123Y-123682282D01*
X229559555Y-124433808D01*
X229868298Y-125541823D01*
X230058968Y-126936957D01*
X230088722Y-127651891D01*
X230143132Y-128854563D01*
X230324466Y-129466619D01*
X230580145Y-129603500D01*
X231131567Y-129320279D01*
X231263139Y-129104276D01*
X231334576Y-128382777D01*
X231249804Y-127237204D01*
X231049421Y-125921031D01*
X230774028Y-124687734D01*
X230464225Y-123790788D01*
X230390399Y-123655547D01*
X229870174Y-123077617D01*
X229474696Y-122900722D01*
X229150891Y-122929840D01*
X229072839Y-123132639D01*
X226011149Y-123132639D01*
X224823580Y-122889607D01*
X224129325Y-122702884D01*
X222960756Y-122407534D01*
X222159354Y-122420502D01*
X221559344Y-122836449D01*
X220994947Y-123750036D01*
X220519895Y-124763912D01*
X220140605Y-125709928D01*
X219895828Y-126647722D01*
X219757520Y-127772569D01*
X219697638Y-129279745D01*
X219687481Y-130560203D01*
X219660509Y-132561727D01*
X219533353Y-133968627D01*
X219226552Y-134891528D01*
X218660644Y-135441058D01*
X217756167Y-135727842D01*
X216433660Y-135862508D01*
X215856095Y-135894237D01*
X214470354Y-135938725D01*
X213568873Y-135871119D01*
X212933652Y-135647434D01*
X212346690Y-135223686D01*
X212289163Y-135174561D01*
X211625412Y-134460323D01*
X211491397Y-133826025D01*
X212449833Y-133826025D01*
X212726241Y-134564655D01*
X213067194Y-134890205D01*
X213783680Y-135091881D01*
X214887942Y-135156430D01*
X216147026Y-135100979D01*
X217327981Y-134942656D01*
X218197854Y-134698587D01*
X218493550Y-134491247D01*
X218714312Y-133751594D01*
X218713659Y-133307666D01*
X218578369Y-132912267D01*
X218189407Y-132701167D01*
X217378361Y-132621548D01*
X216506777Y-132615511D01*
X214597035Y-132699494D01*
X213323098Y-132934323D01*
X212628032Y-133336987D01*
X212449833Y-133826025D01*
X211491397Y-133826025D01*
X211488534Y-133812477D01*
X211556679Y-133519374D01*
X212067376Y-132845984D01*
X213007032Y-132225962D01*
X214105783Y-131809900D01*
X214780861Y-131720166D01*
X215535959Y-131404623D01*
X215562373Y-131367389D01*
X216859555Y-131367389D01*
X216998813Y-131615992D01*
X217689348Y-131719840D01*
X217741500Y-131720166D01*
X218458598Y-131626228D01*
X218632803Y-131384179D01*
X218623444Y-131367389D01*
X218124398Y-131067950D01*
X217741500Y-131014611D01*
X217074855Y-131181448D01*
X216859555Y-131367389D01*
X215562373Y-131367389D01*
X216102601Y-130605885D01*
X216319458Y-129603500D01*
X216346835Y-129328511D01*
X217410728Y-129328511D01*
X217448978Y-130003503D01*
X217641402Y-130276644D01*
X217829132Y-130309055D01*
X218412621Y-130022437D01*
X218585701Y-129751036D01*
X218735580Y-129017536D01*
X218799794Y-128023014D01*
X218799833Y-128000207D01*
X218964161Y-126833254D01*
X219387107Y-125382958D01*
X219963609Y-123934661D01*
X220588608Y-122773708D01*
X220851498Y-122427887D01*
X221234072Y-121904032D01*
X221077911Y-121535402D01*
X220747987Y-121275357D01*
X220287129Y-121018633D01*
X219919247Y-121146657D01*
X219461636Y-121760190D01*
X219250905Y-122100969D01*
X218461977Y-123643908D01*
X217926857Y-125345910D01*
X217576305Y-127445053D01*
X217504971Y-128104194D01*
X217410728Y-129328511D01*
X216346835Y-129328511D01*
X216467126Y-128120254D01*
X216830377Y-126325861D01*
X217338123Y-124483084D01*
X217919275Y-122854684D01*
X218423536Y-121826134D01*
X218983353Y-120881346D01*
X219199649Y-120308022D01*
X219103764Y-119879888D01*
X218758292Y-119409247D01*
X217928651Y-117851208D01*
X217509692Y-115753223D01*
X217509007Y-113154421D01*
X217519206Y-113022944D01*
X217528855Y-112921764D01*
X218438039Y-112921764D01*
X218457133Y-114296955D01*
X218538839Y-115673285D01*
X218679529Y-116875707D01*
X218875577Y-117729174D01*
X218944727Y-117891157D01*
X220057488Y-119393726D01*
X221629701Y-120689787D01*
X222856777Y-121351186D01*
X225293394Y-122152299D01*
X227425254Y-122329687D01*
X229278033Y-121883020D01*
X230348568Y-121255104D01*
X231168166Y-120555186D01*
X231743985Y-119907834D01*
X231810448Y-119799577D01*
X232014422Y-119118567D01*
X232231320Y-117919869D01*
X232441556Y-116390604D01*
X232625542Y-114717888D01*
X232763691Y-113088841D01*
X232836414Y-111690581D01*
X232824125Y-110710228D01*
X232787749Y-110463453D01*
X232556954Y-109543894D01*
X229176700Y-111123495D01*
X225796447Y-112703097D01*
X223797445Y-112140578D01*
X222416231Y-111727026D01*
X221079653Y-111287319D01*
X220468388Y-111065779D01*
X219540926Y-110739298D01*
X218885759Y-110563362D01*
X218792694Y-110553500D01*
X218602193Y-110874989D01*
X218485183Y-111722760D01*
X218438039Y-112921764D01*
X217528855Y-112921764D01*
X217653350Y-111616343D01*
X217805846Y-110398897D01*
X217945319Y-109618428D01*
X217954675Y-109583361D01*
X218010950Y-108996079D01*
X217597969Y-108800801D01*
X217280545Y-108789611D01*
X216210776Y-109091960D01*
X215155887Y-109862578D01*
X214342881Y-110896817D01*
X214028619Y-111721293D01*
X213965474Y-112719415D01*
X214033398Y-114036881D01*
X214131568Y-114823765D01*
X214287839Y-116447737D01*
X214122416Y-117532916D01*
X213597298Y-118186519D01*
X212834197Y-118484062D01*
X211607259Y-118627422D01*
X210840005Y-118337516D01*
X210412578Y-117520583D01*
X210311433Y-116903500D01*
X211038722Y-116903500D01*
X211176840Y-117389783D01*
X211716037Y-117585992D01*
X212273444Y-117609055D01*
X213106773Y-117544963D01*
X213448200Y-117248642D01*
X213508166Y-116689367D01*
X213403287Y-116038685D01*
X213028714Y-115956597D01*
X212950147Y-115983812D01*
X212106454Y-116171816D01*
X211715425Y-116197944D01*
X211146619Y-116461189D01*
X211038722Y-116903500D01*
X210311433Y-116903500D01*
X210237543Y-116452700D01*
X210197543Y-115070970D01*
X210252343Y-114866469D01*
X211185406Y-114866469D01*
X211341936Y-115190346D01*
X211477496Y-115258018D01*
X212200815Y-115454201D01*
X212897187Y-115298379D01*
X212948121Y-115279034D01*
X213338120Y-114956062D01*
X213148936Y-114630709D01*
X212492412Y-114443046D01*
X212273444Y-114434055D01*
X211542414Y-114566230D01*
X211185406Y-114866469D01*
X210252343Y-114866469D01*
X210425152Y-114221588D01*
X210546381Y-114053499D01*
X210906729Y-113303391D01*
X211038722Y-112427519D01*
X211197774Y-111534197D01*
X211609147Y-110330459D01*
X212033756Y-109385816D01*
X213028790Y-107413148D01*
X212133078Y-107307629D01*
X211241449Y-106895564D01*
X210722414Y-106280384D01*
X210409432Y-105541292D01*
X210456446Y-104839291D01*
X210701350Y-104166306D01*
X211840055Y-102285066D01*
X213499373Y-100718464D01*
X215512102Y-99623912D01*
X215535712Y-99615035D01*
X217236762Y-99046760D01*
X219007454Y-98570364D01*
X220719998Y-98206055D01*
X222246605Y-97974041D01*
X223459486Y-97894530D01*
X224230850Y-97987730D01*
X224444277Y-98206277D01*
X224134883Y-98442484D01*
X223377212Y-98557025D01*
X223249019Y-98559055D01*
X222249387Y-98674083D01*
X220798326Y-98980238D01*
X219104369Y-99419128D01*
X217376050Y-99932361D01*
X215821901Y-100461545D01*
X214650456Y-100948289D01*
X214566500Y-100990277D01*
X213527119Y-101720080D01*
X212620726Y-102707319D01*
X211918003Y-103808408D01*
X211489634Y-104879760D01*
X211406302Y-105777790D01*
X211738692Y-106358911D01*
X211886412Y-106434595D01*
X212492855Y-106447082D01*
X213484737Y-106266796D01*
X214091273Y-106101375D01*
X215426498Y-105705805D01*
X217054643Y-105242891D01*
X218835933Y-104750031D01*
X220630598Y-104264619D01*
X222298863Y-103824053D01*
X223700956Y-103465729D01*
X224697104Y-103227043D01*
X225140426Y-103145166D01*
X225443691Y-103393615D01*
X225423940Y-103557567D01*
X225041545Y-103828242D01*
X224138673Y-104196967D01*
X222881513Y-104599631D01*
X222320197Y-104754907D01*
X220969718Y-105150668D01*
X219908456Y-105534008D01*
X219301976Y-105842091D01*
X219223868Y-105930006D01*
X218818563Y-106199675D01*
X218014294Y-106319773D01*
X217963240Y-106320166D01*
X216238782Y-106644182D01*
X214623755Y-107520821D01*
X213344905Y-108806975D01*
X212932710Y-109495166D01*
X212365043Y-110867258D01*
X212022341Y-112114966D01*
X211926655Y-113091766D01*
X212100034Y-113651137D01*
X212295623Y-113728500D01*
X212751064Y-113482615D01*
X212804578Y-113287527D01*
X213113230Y-111602057D01*
X213933881Y-110055630D01*
X215131306Y-108817997D01*
X216570278Y-108058907D01*
X217060875Y-107944599D01*
X217933906Y-107726658D01*
X218414637Y-107454401D01*
X218447055Y-107374331D01*
X218720674Y-107042228D01*
X218839873Y-107025722D01*
X219083971Y-107334161D01*
X219071038Y-108127134D01*
X218909385Y-109228547D01*
X224940026Y-109057136D01*
X226969342Y-108985794D01*
X228781051Y-108896467D01*
X230245075Y-108797585D01*
X231231339Y-108697577D01*
X231579301Y-108626885D01*
X231965121Y-108379347D01*
X231954310Y-107973941D01*
X231840693Y-107731277D01*
X232910944Y-107731277D01*
X233040020Y-108021653D01*
X233146129Y-107966463D01*
X233188350Y-107547798D01*
X233146129Y-107496092D01*
X232936403Y-107544518D01*
X232910944Y-107731277D01*
X231840693Y-107731277D01*
X231668789Y-107364126D01*
X231447417Y-106676049D01*
X231480551Y-106161085D01*
X231706394Y-106001123D01*
X232025443Y-106314412D01*
X232485622Y-106534077D01*
X233379085Y-106660713D01*
X233784109Y-106672944D01*
X234577421Y-106711153D01*
X235203456Y-106897581D01*
X235835287Y-107339933D01*
X236645989Y-108145913D01*
X237302646Y-108862524D01*
X238252150Y-109991541D01*
X239007352Y-111037844D01*
X239436442Y-111814427D01*
X239478377Y-111949329D01*
X239728192Y-112972439D01*
X239973516Y-113454390D01*
X240331827Y-113548959D01*
X240650475Y-113483582D01*
X241148606Y-113334015D01*
X241324551Y-113102453D01*
X241199540Y-112591879D01*
X240840960Y-111715897D01*
X239983128Y-110177664D01*
X238719675Y-108535281D01*
X237256401Y-107036700D01*
X236332139Y-106283513D01*
X235239624Y-105619768D01*
X234149610Y-105319766D01*
X233023331Y-105261833D01*
X231721424Y-105169651D01*
X231426310Y-105029950D01*
X236262333Y-105029950D01*
X238400701Y-107078237D01*
X239754688Y-108526038D01*
X240882198Y-110020165D01*
X241685178Y-111409034D01*
X242065576Y-112541063D01*
X242083166Y-112771134D01*
X242375415Y-113266594D01*
X243011774Y-113548870D01*
X243543701Y-113493186D01*
X243731484Y-113120578D01*
X244017745Y-112240566D01*
X244344561Y-111033747D01*
X244385324Y-110869136D01*
X244825605Y-108152775D01*
X244810280Y-105832743D01*
X244506408Y-103600723D01*
X243954531Y-101961294D01*
X243114433Y-100832782D01*
X242017855Y-100161584D01*
X240518975Y-99691235D01*
X239369070Y-99686754D01*
X238463649Y-100207539D01*
X237698224Y-101312985D01*
X236982030Y-103024146D01*
X236262333Y-105029950D01*
X231426310Y-105029950D01*
X231013485Y-104834528D01*
X230805180Y-104168601D01*
X230939341Y-103320766D01*
X231335760Y-102617989D01*
X232030013Y-102439611D01*
X232899529Y-102439611D01*
X232294767Y-101171411D01*
X231931768Y-100332556D01*
X231897422Y-99870689D01*
X232187179Y-99540880D01*
X232263414Y-99483925D01*
X232640202Y-99093315D01*
X232508082Y-98638864D01*
X232318867Y-98370874D01*
X231584121Y-97280176D01*
X231331707Y-96598210D01*
X231494975Y-96269002D01*
X231837034Y-96426578D01*
G36*
X187607222Y-63090778D02*
X187924230Y-62754234D01*
X187980819Y-62738000D01*
X188132344Y-63010942D01*
X188136388Y-63090778D01*
X187865190Y-63429999D01*
X187762791Y-63443556D01*
X187552099Y-63227431D01*
X187607222Y-63090778D01*
X187607222Y-63090778D01*
G37*
X187607222Y-63090778D02*
X187924230Y-62754234D01*
X187980819Y-62738000D01*
X188132344Y-63010942D01*
X188136388Y-63090778D01*
X187865190Y-63429999D01*
X187762791Y-63443556D01*
X187552099Y-63227431D01*
X187607222Y-63090778D01*
G36*
X187960000Y-70851889D02*
X188277008Y-70515345D01*
X188333597Y-70499111D01*
X188485122Y-70772053D01*
X188489166Y-70851889D01*
X188217968Y-71191110D01*
X188115569Y-71204667D01*
X187904877Y-70988542D01*
X187960000Y-70851889D01*
X187960000Y-70851889D01*
G37*
X187960000Y-70851889D02*
X188277008Y-70515345D01*
X188333597Y-70499111D01*
X188485122Y-70772053D01*
X188489166Y-70851889D01*
X188217968Y-71191110D01*
X188115569Y-71204667D01*
X187904877Y-70988542D01*
X187960000Y-70851889D01*
G36*
X177778870Y-56678617D02*
X177915537Y-56558392D01*
X178391613Y-56610570D01*
X179215658Y-56988197D01*
X179802359Y-57344048D01*
X181050944Y-58052276D01*
X182540965Y-58736313D01*
X183320433Y-59031420D01*
X184483674Y-59486208D01*
X185175154Y-59879051D01*
X185329878Y-60157308D01*
X184882851Y-60268335D01*
X184847843Y-60268556D01*
X184067557Y-60129501D01*
X182916225Y-59776184D01*
X181656590Y-59304375D01*
X180551396Y-58809847D01*
X180022500Y-58509695D01*
X179051465Y-57871734D01*
X178544995Y-57637426D01*
X178385499Y-57811802D01*
X178455385Y-58399888D01*
X178487992Y-58575325D01*
X178980193Y-60288864D01*
X179737414Y-61886386D01*
X180632791Y-63120228D01*
X180979763Y-63439775D01*
X181711902Y-63892433D01*
X182029513Y-63786470D01*
X181926898Y-63138300D01*
X181454225Y-62072851D01*
X181017792Y-61178885D01*
X180758841Y-60574105D01*
X180728055Y-60458999D01*
X181002344Y-60276121D01*
X181606264Y-60310177D01*
X182211397Y-60523585D01*
X182377219Y-60647720D01*
X182938291Y-61000952D01*
X183858860Y-61405445D01*
X184123469Y-61501814D01*
X184932401Y-61823839D01*
X185131276Y-62048115D01*
X184850697Y-62227360D01*
X184052598Y-62279811D01*
X183359696Y-62090168D01*
X182842242Y-61886518D01*
X182625796Y-62002595D01*
X182634067Y-62581148D01*
X182724588Y-63278514D01*
X182774429Y-64337308D01*
X182502015Y-64834195D01*
X181830836Y-64809323D01*
X180728721Y-64325845D01*
X179944354Y-63666414D01*
X179185248Y-62598331D01*
X178508837Y-61280181D01*
X177972558Y-59870549D01*
X177633847Y-58528021D01*
X177550139Y-57411182D01*
X177778870Y-56678617D01*
X177778870Y-56678617D01*
G37*
X177778870Y-56678617D02*
X177915537Y-56558392D01*
X178391613Y-56610570D01*
X179215658Y-56988197D01*
X179802359Y-57344048D01*
X181050944Y-58052276D01*
X182540965Y-58736313D01*
X183320433Y-59031420D01*
X184483674Y-59486208D01*
X185175154Y-59879051D01*
X185329878Y-60157308D01*
X184882851Y-60268335D01*
X184847843Y-60268556D01*
X184067557Y-60129501D01*
X182916225Y-59776184D01*
X181656590Y-59304375D01*
X180551396Y-58809847D01*
X180022500Y-58509695D01*
X179051465Y-57871734D01*
X178544995Y-57637426D01*
X178385499Y-57811802D01*
X178455385Y-58399888D01*
X178487992Y-58575325D01*
X178980193Y-60288864D01*
X179737414Y-61886386D01*
X180632791Y-63120228D01*
X180979763Y-63439775D01*
X181711902Y-63892433D01*
X182029513Y-63786470D01*
X181926898Y-63138300D01*
X181454225Y-62072851D01*
X181017792Y-61178885D01*
X180758841Y-60574105D01*
X180728055Y-60458999D01*
X181002344Y-60276121D01*
X181606264Y-60310177D01*
X182211397Y-60523585D01*
X182377219Y-60647720D01*
X182938291Y-61000952D01*
X183858860Y-61405445D01*
X184123469Y-61501814D01*
X184932401Y-61823839D01*
X185131276Y-62048115D01*
X184850697Y-62227360D01*
X184052598Y-62279811D01*
X183359696Y-62090168D01*
X182842242Y-61886518D01*
X182625796Y-62002595D01*
X182634067Y-62581148D01*
X182724588Y-63278514D01*
X182774429Y-64337308D01*
X182502015Y-64834195D01*
X181830836Y-64809323D01*
X180728721Y-64325845D01*
X179944354Y-63666414D01*
X179185248Y-62598331D01*
X178508837Y-61280181D01*
X177972558Y-59870549D01*
X177633847Y-58528021D01*
X177550139Y-57411182D01*
X177778870Y-56678617D01*
G36*
X183323878Y-62898252D02*
X183814888Y-63045164D01*
X183930416Y-63105421D01*
X184432354Y-63591762D01*
X184474990Y-63988480D01*
X184504551Y-64550738D01*
X184642640Y-64699309D01*
X184880054Y-65176443D01*
X184851291Y-65327968D01*
X184874582Y-65959737D01*
X185021471Y-66353973D01*
X185152943Y-66851419D01*
X185035295Y-66971334D01*
X184590529Y-66726409D01*
X183975435Y-66158706D01*
X183430823Y-65518835D01*
X183197500Y-65058770D01*
X183458558Y-64918160D01*
X183726666Y-64982241D01*
X184181952Y-65010105D01*
X184255833Y-64886791D01*
X184014951Y-64436882D01*
X183726666Y-64149112D01*
X183278042Y-63541891D01*
X183197500Y-63211559D01*
X183323878Y-62898252D01*
X183323878Y-62898252D01*
G37*
X183323878Y-62898252D02*
X183814888Y-63045164D01*
X183930416Y-63105421D01*
X184432354Y-63591762D01*
X184474990Y-63988480D01*
X184504551Y-64550738D01*
X184642640Y-64699309D01*
X184880054Y-65176443D01*
X184851291Y-65327968D01*
X184874582Y-65959737D01*
X185021471Y-66353973D01*
X185152943Y-66851419D01*
X185035295Y-66971334D01*
X184590529Y-66726409D01*
X183975435Y-66158706D01*
X183430823Y-65518835D01*
X183197500Y-65058770D01*
X183458558Y-64918160D01*
X183726666Y-64982241D01*
X184181952Y-65010105D01*
X184255833Y-64886791D01*
X184014951Y-64436882D01*
X183726666Y-64149112D01*
X183278042Y-63541891D01*
X183197500Y-63211559D01*
X183323878Y-62898252D01*
G36*
X176906762Y-68513493D02*
X177069496Y-68160648D01*
X177491396Y-67956029D01*
X178328324Y-67858456D01*
X179498520Y-67828766D01*
X181020203Y-67775079D01*
X182499600Y-67660107D01*
X183462083Y-67533174D01*
X184424722Y-67406804D01*
X184870160Y-67505555D01*
X184961389Y-67773131D01*
X184626285Y-68121441D01*
X183688940Y-68407644D01*
X182251301Y-68613528D01*
X180415313Y-68720882D01*
X179592599Y-68732156D01*
X178575448Y-68780366D01*
X178133213Y-68949453D01*
X178123524Y-69244811D01*
X178539497Y-69775866D01*
X179369288Y-70519821D01*
X180418795Y-71331467D01*
X181493917Y-72065596D01*
X182400550Y-72576999D01*
X182756176Y-72710510D01*
X183506606Y-72770925D01*
X183682893Y-72481486D01*
X183293285Y-71890621D01*
X182492607Y-71162781D01*
X181741431Y-70479357D01*
X181344687Y-69955761D01*
X181339033Y-69774138D01*
X181814819Y-69609844D01*
X182761647Y-69439446D01*
X183638472Y-69334633D01*
X184929088Y-69266387D01*
X185573301Y-69383432D01*
X185608672Y-69697843D01*
X185431759Y-69911149D01*
X184925465Y-70098533D01*
X184394245Y-70146334D01*
X183591550Y-70297181D01*
X183434294Y-70694476D01*
X183943933Y-71255352D01*
X184082473Y-71350600D01*
X184832761Y-72065951D01*
X184972916Y-72728273D01*
X184597434Y-73248371D01*
X183800809Y-73537050D01*
X182677537Y-73505116D01*
X181986379Y-73329123D01*
X181050423Y-72862098D01*
X179959735Y-72086497D01*
X178856916Y-71137509D01*
X177884569Y-70150324D01*
X177185294Y-69260133D01*
X176901691Y-68602127D01*
X176906762Y-68513493D01*
X176906762Y-68513493D01*
G37*
X176906762Y-68513493D02*
X177069496Y-68160648D01*
X177491396Y-67956029D01*
X178328324Y-67858456D01*
X179498520Y-67828766D01*
X181020203Y-67775079D01*
X182499600Y-67660107D01*
X183462083Y-67533174D01*
X184424722Y-67406804D01*
X184870160Y-67505555D01*
X184961389Y-67773131D01*
X184626285Y-68121441D01*
X183688940Y-68407644D01*
X182251301Y-68613528D01*
X180415313Y-68720882D01*
X179592599Y-68732156D01*
X178575448Y-68780366D01*
X178133213Y-68949453D01*
X178123524Y-69244811D01*
X178539497Y-69775866D01*
X179369288Y-70519821D01*
X180418795Y-71331467D01*
X181493917Y-72065596D01*
X182400550Y-72576999D01*
X182756176Y-72710510D01*
X183506606Y-72770925D01*
X183682893Y-72481486D01*
X183293285Y-71890621D01*
X182492607Y-71162781D01*
X181741431Y-70479357D01*
X181344687Y-69955761D01*
X181339033Y-69774138D01*
X181814819Y-69609844D01*
X182761647Y-69439446D01*
X183638472Y-69334633D01*
X184929088Y-69266387D01*
X185573301Y-69383432D01*
X185608672Y-69697843D01*
X185431759Y-69911149D01*
X184925465Y-70098533D01*
X184394245Y-70146334D01*
X183591550Y-70297181D01*
X183434294Y-70694476D01*
X183943933Y-71255352D01*
X184082473Y-71350600D01*
X184832761Y-72065951D01*
X184972916Y-72728273D01*
X184597434Y-73248371D01*
X183800809Y-73537050D01*
X182677537Y-73505116D01*
X181986379Y-73329123D01*
X181050423Y-72862098D01*
X179959735Y-72086497D01*
X178856916Y-71137509D01*
X177884569Y-70150324D01*
X177185294Y-69260133D01*
X176901691Y-68602127D01*
X176906762Y-68513493D01*
G36*
X185854788Y-63025265D02*
X186056067Y-62573974D01*
X186795873Y-61502773D01*
X187571020Y-61048376D01*
X188280367Y-61135355D01*
X188822775Y-61688285D01*
X189097104Y-62631738D01*
X189002214Y-63890290D01*
X188786243Y-64610037D01*
X188374945Y-65325439D01*
X187744756Y-65511116D01*
X187494106Y-65491982D01*
X187435708Y-65465491D01*
X187435708Y-64796089D01*
X188025108Y-64607675D01*
X188242015Y-64257932D01*
X188445020Y-63041371D01*
X188382700Y-62133991D01*
X188072160Y-61696789D01*
X187968132Y-61679667D01*
X187369419Y-61978637D01*
X186805944Y-62690389D01*
X186457827Y-63537182D01*
X186435090Y-64043571D01*
X186804271Y-64596021D01*
X187435708Y-64796089D01*
X187435708Y-65465491D01*
X186562358Y-65069312D01*
X186067195Y-64481711D01*
X185754067Y-63722404D01*
X185854788Y-63025265D01*
X185854788Y-63025265D01*
G37*
X185854788Y-63025265D02*
X186056067Y-62573974D01*
X186795873Y-61502773D01*
X187571020Y-61048376D01*
X188280367Y-61135355D01*
X188822775Y-61688285D01*
X189097104Y-62631738D01*
X189002214Y-63890290D01*
X188786243Y-64610037D01*
X188374945Y-65325439D01*
X187744756Y-65511116D01*
X187494106Y-65491982D01*
X187435708Y-65465491D01*
X187435708Y-64796089D01*
X188025108Y-64607675D01*
X188242015Y-64257932D01*
X188445020Y-63041371D01*
X188382700Y-62133991D01*
X188072160Y-61696789D01*
X187968132Y-61679667D01*
X187369419Y-61978637D01*
X186805944Y-62690389D01*
X186457827Y-63537182D01*
X186435090Y-64043571D01*
X186804271Y-64596021D01*
X187435708Y-64796089D01*
X187435708Y-65465491D01*
X186562358Y-65069312D01*
X186067195Y-64481711D01*
X185754067Y-63722404D01*
X185854788Y-63025265D01*
G36*
X186850101Y-68456220D02*
X187091441Y-68193942D01*
X187610110Y-67786121D01*
X188002393Y-67814827D01*
X188555106Y-68319020D01*
X188636734Y-68403849D01*
X189472635Y-69620940D01*
X189701171Y-70831595D01*
X189341551Y-71845370D01*
X188685036Y-72493535D01*
X188224214Y-72492101D01*
X188224214Y-71749440D01*
X188727657Y-71412650D01*
X188783333Y-71321928D01*
X188942317Y-70513596D01*
X188731142Y-69631842D01*
X188259519Y-68951060D01*
X187749100Y-68735223D01*
X187281381Y-68889782D01*
X187095727Y-69472346D01*
X187078055Y-69957533D01*
X187253908Y-70905463D01*
X187684463Y-71541572D01*
X188224214Y-71749440D01*
X188224214Y-72492101D01*
X188001141Y-72491406D01*
X187174827Y-71836577D01*
X187139549Y-71799291D01*
X186515384Y-70715883D01*
X186417794Y-69518552D01*
X186850101Y-68456220D01*
X186850101Y-68456220D01*
G37*
X186850101Y-68456220D02*
X187091441Y-68193942D01*
X187610110Y-67786121D01*
X188002393Y-67814827D01*
X188555106Y-68319020D01*
X188636734Y-68403849D01*
X189472635Y-69620940D01*
X189701171Y-70831595D01*
X189341551Y-71845370D01*
X188685036Y-72493535D01*
X188224214Y-72492101D01*
X188224214Y-71749440D01*
X188727657Y-71412650D01*
X188783333Y-71321928D01*
X188942317Y-70513596D01*
X188731142Y-69631842D01*
X188259519Y-68951060D01*
X187749100Y-68735223D01*
X187281381Y-68889782D01*
X187095727Y-69472346D01*
X187078055Y-69957533D01*
X187253908Y-70905463D01*
X187684463Y-71541572D01*
X188224214Y-71749440D01*
X188224214Y-72492101D01*
X188001141Y-72491406D01*
X187174827Y-71836577D01*
X187139549Y-71799291D01*
X186515384Y-70715883D01*
X186417794Y-69518552D01*
X186850101Y-68456220D01*
G36*
X208153328Y-52864909D02*
X208855393Y-52985381D01*
X209876413Y-53454318D01*
X210368399Y-53746593D01*
X211226056Y-54377274D01*
X211732639Y-54924432D01*
X211795974Y-55269229D01*
X211596295Y-55329667D01*
X211141050Y-55163851D01*
X210345546Y-54749512D01*
X209418942Y-54211316D01*
X208570397Y-53673925D01*
X208009069Y-53262004D01*
X207897027Y-53124806D01*
X208153328Y-52864909D01*
X208153328Y-52864909D01*
G37*
X208153328Y-52864909D02*
X208855393Y-52985381D01*
X209876413Y-53454318D01*
X210368399Y-53746593D01*
X211226056Y-54377274D01*
X211732639Y-54924432D01*
X211795974Y-55269229D01*
X211596295Y-55329667D01*
X211141050Y-55163851D01*
X210345546Y-54749512D01*
X209418942Y-54211316D01*
X208570397Y-53673925D01*
X208009069Y-53262004D01*
X207897027Y-53124806D01*
X208153328Y-52864909D01*
G36*
X188120578Y-58167466D02*
X188714147Y-57626423D01*
X189555365Y-57016067D01*
X190455890Y-56466070D01*
X191227378Y-56106101D01*
X191556844Y-56035223D01*
X191964171Y-56319065D01*
X192016944Y-56564389D01*
X192056397Y-56971679D01*
X192293650Y-57039810D01*
X192907049Y-56771343D01*
X193274242Y-56582444D01*
X194185322Y-56240391D01*
X194678320Y-56431516D01*
X194838211Y-57194278D01*
X194839166Y-57290765D01*
X195026913Y-57984475D01*
X195368333Y-58151889D01*
X195795400Y-57847704D01*
X195897500Y-57314042D01*
X195969278Y-56320551D01*
X196103250Y-55447445D01*
X196177084Y-54853792D01*
X196003589Y-54472568D01*
X195437739Y-54165997D01*
X194380508Y-53810791D01*
X192660695Y-53177733D01*
X191534910Y-52498359D01*
X190894667Y-51660926D01*
X190631477Y-50553693D01*
X190607152Y-49924201D01*
X190829318Y-48065153D01*
X191518186Y-46610680D01*
X192711788Y-45534917D01*
X194448161Y-44812001D01*
X196765340Y-44416066D01*
X198850281Y-44318599D01*
X200414936Y-44421565D01*
X202291709Y-44715866D01*
X204216440Y-45144013D01*
X205924969Y-45648513D01*
X207010000Y-46094469D01*
X207947574Y-46493978D01*
X208725278Y-46694804D01*
X208730384Y-46695253D01*
X209565131Y-47078752D01*
X210264114Y-47929016D01*
X210733866Y-49018500D01*
X210880925Y-50119658D01*
X210611826Y-51004946D01*
X210538022Y-51096064D01*
X210224439Y-51553785D01*
X210441814Y-51864201D01*
X210888126Y-52089371D01*
X211537999Y-52502054D01*
X211772500Y-52852659D01*
X211656756Y-53152674D01*
X211230300Y-53134540D01*
X210374294Y-52777057D01*
X209829366Y-52505989D01*
X208454748Y-52010236D01*
X208353523Y-52011593D01*
X208353523Y-50682308D01*
X209359925Y-50646850D01*
X209906615Y-50160892D01*
X209943379Y-49348498D01*
X209420004Y-48333729D01*
X209343489Y-48236441D01*
X208815823Y-47697141D01*
X208396669Y-47686877D01*
X208090752Y-47902728D01*
X207677247Y-48583376D01*
X207596779Y-49460247D01*
X207822744Y-50251936D01*
X208328540Y-50677040D01*
X208353523Y-50682308D01*
X208353523Y-52011593D01*
X207228857Y-52026677D01*
X206649072Y-52066624D01*
X206649072Y-51168821D01*
X206792072Y-50738226D01*
X206822883Y-50155048D01*
X206780080Y-49086765D01*
X206660397Y-48261118D01*
X206619479Y-48126575D01*
X206280489Y-47563985D01*
X206003611Y-47609490D01*
X205863943Y-48165747D01*
X205919428Y-49033951D01*
X206170585Y-50264361D01*
X206427855Y-50993425D01*
X206649072Y-51168821D01*
X206649072Y-52066624D01*
X206271498Y-52092639D01*
X205688350Y-51787706D01*
X205560446Y-51632586D01*
X204950176Y-51209254D01*
X204068754Y-51301909D01*
X202857623Y-51926900D01*
X201787156Y-52686179D01*
X200436268Y-53837493D01*
X199715148Y-54761756D01*
X199600187Y-55498211D01*
X199850227Y-55905807D01*
X200363714Y-56119286D01*
X201353311Y-56298639D01*
X202680637Y-56440156D01*
X204207311Y-56540123D01*
X205794952Y-56594831D01*
X207305177Y-56600566D01*
X208599606Y-56553617D01*
X209539857Y-56450273D01*
X209987548Y-56286821D01*
X209980318Y-56177521D01*
X209380352Y-55748614D01*
X209083471Y-55682445D01*
X208642423Y-55477381D01*
X208597500Y-55329667D01*
X208811408Y-54945895D01*
X209401260Y-55058997D01*
X210289248Y-55625553D01*
X211397565Y-56602145D01*
X212016554Y-57237634D01*
X214122547Y-59498378D01*
X215197891Y-58817518D01*
X216415289Y-58328605D01*
X218321654Y-57968166D01*
X219438746Y-57844563D01*
X220894034Y-57687765D01*
X222096164Y-57516652D01*
X222860252Y-57359308D01*
X223009212Y-57302192D01*
X223248829Y-56827697D01*
X223394115Y-55910477D01*
X223414166Y-55379403D01*
X223498659Y-54295299D01*
X223712319Y-53483829D01*
X223837500Y-53283556D01*
X224565302Y-52938418D01*
X225514960Y-52891171D01*
X226320519Y-53139395D01*
X226505234Y-53301195D01*
X226970047Y-54317151D01*
X227195476Y-55747355D01*
X227192120Y-57355183D01*
X226970576Y-58904008D01*
X226541442Y-60157207D01*
X226174625Y-60683097D01*
X225815896Y-60989039D01*
X225381771Y-61178204D01*
X224728185Y-61264750D01*
X223845412Y-61263091D01*
X223845412Y-60615082D01*
X224776317Y-60392191D01*
X225438283Y-60227666D01*
X225791860Y-60013343D01*
X225988715Y-59545533D01*
X226180515Y-58620549D01*
X226211182Y-58465190D01*
X226365812Y-56164346D01*
X226009889Y-54183139D01*
X225603510Y-53712814D01*
X224961702Y-53577275D01*
X224421660Y-53811567D01*
X224312674Y-54006750D01*
X224232396Y-54542426D01*
X224136861Y-55591581D01*
X224042491Y-56962849D01*
X224010201Y-57531402D01*
X223845412Y-60615082D01*
X223845412Y-61263091D01*
X223711076Y-61262838D01*
X222297037Y-61192159D01*
X222297037Y-60268556D01*
X222855953Y-59963411D01*
X223060654Y-59062572D01*
X223061389Y-58986109D01*
X222925363Y-58397843D01*
X222532222Y-58377093D01*
X222187820Y-58768611D01*
X222011819Y-59419109D01*
X222042434Y-60021246D01*
X222297037Y-60268556D01*
X222297037Y-61192159D01*
X222186381Y-61186627D01*
X221487028Y-61143825D01*
X219089591Y-61048017D01*
X217312042Y-61114738D01*
X216083406Y-61363279D01*
X215332708Y-61812929D01*
X214988974Y-62482980D01*
X214947500Y-62921229D01*
X214844925Y-63903998D01*
X214826639Y-63993351D01*
X214826639Y-60931661D01*
X215376282Y-60754377D01*
X216127808Y-60444945D01*
X217235823Y-60136202D01*
X218630957Y-59945532D01*
X219345891Y-59915778D01*
X220548563Y-59861368D01*
X221160619Y-59680034D01*
X221297500Y-59424355D01*
X221014279Y-58872933D01*
X220798276Y-58741361D01*
X220076777Y-58669924D01*
X218931204Y-58754696D01*
X217615031Y-58955079D01*
X216381734Y-59230472D01*
X215484788Y-59540275D01*
X215349547Y-59614101D01*
X214771617Y-60134326D01*
X214594722Y-60529804D01*
X214623840Y-60853609D01*
X214826639Y-60931661D01*
X214826639Y-63993351D01*
X214583607Y-65180920D01*
X214396884Y-65875175D01*
X214101534Y-67043744D01*
X214114502Y-67845146D01*
X214530449Y-68445156D01*
X215444036Y-69009553D01*
X216457912Y-69484605D01*
X217403928Y-69863895D01*
X218341722Y-70108672D01*
X219466569Y-70246980D01*
X220973745Y-70306862D01*
X222254203Y-70317019D01*
X224255727Y-70343991D01*
X225662627Y-70471147D01*
X226585528Y-70777948D01*
X227135058Y-71343856D01*
X227421842Y-72248333D01*
X227556508Y-73570840D01*
X227588237Y-74148405D01*
X227632725Y-75534146D01*
X227565119Y-76435627D01*
X227341434Y-77070848D01*
X226917686Y-77657810D01*
X226868561Y-77715337D01*
X226154323Y-78379088D01*
X225520025Y-78513103D01*
X225520025Y-77554667D01*
X226258655Y-77278259D01*
X226584205Y-76937306D01*
X226785881Y-76220820D01*
X226850430Y-75116558D01*
X226794979Y-73857474D01*
X226636656Y-72676519D01*
X226392587Y-71806646D01*
X226185247Y-71510950D01*
X225445594Y-71290188D01*
X225001666Y-71290841D01*
X224606267Y-71426131D01*
X224395167Y-71815093D01*
X224315548Y-72626139D01*
X224309511Y-73497723D01*
X224393494Y-75407465D01*
X224628323Y-76681402D01*
X225030987Y-77376468D01*
X225520025Y-77554667D01*
X225520025Y-78513103D01*
X225506477Y-78515966D01*
X225213374Y-78447821D01*
X224539984Y-77937124D01*
X223919962Y-76997468D01*
X223503900Y-75898717D01*
X223414166Y-75223639D01*
X223098623Y-74468541D01*
X223061389Y-74442127D01*
X223061389Y-73144945D01*
X223309992Y-73005687D01*
X223413840Y-72315152D01*
X223414166Y-72263000D01*
X223320228Y-71545902D01*
X223078179Y-71371697D01*
X223061389Y-71381056D01*
X222761950Y-71880102D01*
X222708611Y-72263000D01*
X222875448Y-72929645D01*
X223061389Y-73144945D01*
X223061389Y-74442127D01*
X222299885Y-73901899D01*
X221297500Y-73685042D01*
X221022511Y-73657665D01*
X221022511Y-72593772D01*
X221697503Y-72555522D01*
X221970644Y-72363098D01*
X222003055Y-72175368D01*
X221716437Y-71591879D01*
X221445036Y-71418799D01*
X220711536Y-71268920D01*
X219717014Y-71204706D01*
X219694207Y-71204667D01*
X218527254Y-71040339D01*
X217076958Y-70617393D01*
X215628661Y-70040891D01*
X214467708Y-69415892D01*
X214121887Y-69153002D01*
X213598032Y-68770428D01*
X213229402Y-68926589D01*
X212969357Y-69256513D01*
X212712633Y-69717371D01*
X212840657Y-70085253D01*
X213454190Y-70542864D01*
X213794969Y-70753595D01*
X215337908Y-71542523D01*
X217039910Y-72077643D01*
X219139053Y-72428195D01*
X219798194Y-72499529D01*
X221022511Y-72593772D01*
X221022511Y-73657665D01*
X219814254Y-73537374D01*
X218019861Y-73174123D01*
X216177084Y-72666377D01*
X214548684Y-72085225D01*
X213520134Y-71580964D01*
X212575346Y-71021147D01*
X212002022Y-70804851D01*
X211573888Y-70900736D01*
X211103247Y-71246208D01*
X209545208Y-72075849D01*
X207447223Y-72494808D01*
X204848421Y-72495493D01*
X204716944Y-72485294D01*
X204615764Y-72475645D01*
X204615764Y-71566461D01*
X205990955Y-71547367D01*
X207367285Y-71465661D01*
X208569707Y-71324971D01*
X209423174Y-71128923D01*
X209585157Y-71059773D01*
X211087726Y-69947012D01*
X212383787Y-68374799D01*
X213045186Y-67147723D01*
X213846299Y-64711106D01*
X214023687Y-62579246D01*
X213577020Y-60726467D01*
X212949104Y-59655932D01*
X212249186Y-58836334D01*
X211601834Y-58260515D01*
X211493577Y-58194052D01*
X210812567Y-57990078D01*
X209613869Y-57773180D01*
X208084604Y-57562944D01*
X206411888Y-57378958D01*
X204782841Y-57240809D01*
X203384581Y-57168086D01*
X202404228Y-57180375D01*
X202157453Y-57216751D01*
X201237894Y-57447546D01*
X202817495Y-60827800D01*
X204397097Y-64208053D01*
X203834578Y-66207055D01*
X203421026Y-67588269D01*
X202981319Y-68924847D01*
X202759779Y-69536112D01*
X202433298Y-70463574D01*
X202257362Y-71118741D01*
X202247500Y-71211806D01*
X202568989Y-71402307D01*
X203416760Y-71519317D01*
X204615764Y-71566461D01*
X204615764Y-72475645D01*
X203310343Y-72351150D01*
X202092897Y-72198654D01*
X201312428Y-72059181D01*
X201277361Y-72049825D01*
X200690079Y-71993550D01*
X200494801Y-72406531D01*
X200483611Y-72723955D01*
X200785960Y-73793724D01*
X201556578Y-74848613D01*
X202590817Y-75661619D01*
X203415293Y-75975881D01*
X204413415Y-76039026D01*
X205730881Y-75971102D01*
X206517765Y-75872932D01*
X208141737Y-75716661D01*
X209226916Y-75882084D01*
X209880519Y-76407202D01*
X210178062Y-77170303D01*
X210321422Y-78397241D01*
X210031516Y-79164495D01*
X209214583Y-79591922D01*
X208597500Y-79693067D01*
X208597500Y-78965778D01*
X209083783Y-78827660D01*
X209279992Y-78288463D01*
X209303055Y-77731056D01*
X209238963Y-76897727D01*
X208942642Y-76556300D01*
X208383367Y-76496334D01*
X207732685Y-76601213D01*
X207650597Y-76975786D01*
X207677812Y-77054353D01*
X207865816Y-77898046D01*
X207891944Y-78289075D01*
X208155189Y-78857881D01*
X208597500Y-78965778D01*
X208597500Y-79693067D01*
X208146700Y-79766957D01*
X206764970Y-79806957D01*
X206560469Y-79752157D01*
X206560469Y-78819094D01*
X206884346Y-78662564D01*
X206952018Y-78527004D01*
X207148201Y-77803685D01*
X206992379Y-77107313D01*
X206973034Y-77056379D01*
X206650062Y-76666380D01*
X206324709Y-76855564D01*
X206137046Y-77512088D01*
X206128055Y-77731056D01*
X206260230Y-78462086D01*
X206560469Y-78819094D01*
X206560469Y-79752157D01*
X205915588Y-79579348D01*
X205747499Y-79458119D01*
X204997391Y-79097771D01*
X204121519Y-78965778D01*
X203228197Y-78806726D01*
X202024459Y-78395353D01*
X201079816Y-77970744D01*
X199107148Y-76975710D01*
X199001629Y-77871422D01*
X198589564Y-78763051D01*
X197974384Y-79282086D01*
X197235292Y-79595068D01*
X196533291Y-79548054D01*
X195860306Y-79303150D01*
X193979066Y-78164445D01*
X192412464Y-76505127D01*
X191317912Y-74492398D01*
X191309035Y-74468788D01*
X190740760Y-72767738D01*
X190264364Y-70997046D01*
X189900055Y-69284502D01*
X189668041Y-67757895D01*
X189588530Y-66545014D01*
X189681730Y-65773650D01*
X189900277Y-65560223D01*
X190136484Y-65869617D01*
X190251025Y-66627288D01*
X190253055Y-66755481D01*
X190368083Y-67755113D01*
X190674238Y-69206174D01*
X191113128Y-70900131D01*
X191626361Y-72628450D01*
X192155545Y-74182599D01*
X192642289Y-75354044D01*
X192684277Y-75438000D01*
X193414080Y-76477381D01*
X194401319Y-77383774D01*
X195502408Y-78086497D01*
X196573760Y-78514866D01*
X197471790Y-78598198D01*
X198052911Y-78265808D01*
X198128595Y-78118088D01*
X198141082Y-77511645D01*
X197960796Y-76519763D01*
X197795375Y-75913227D01*
X197399805Y-74578002D01*
X196936891Y-72949857D01*
X196444031Y-71168567D01*
X195958619Y-69373902D01*
X195518053Y-67705637D01*
X195159729Y-66303544D01*
X194921043Y-65307396D01*
X194839166Y-64864074D01*
X195087615Y-64560809D01*
X195251567Y-64580560D01*
X195522242Y-64962955D01*
X195890967Y-65865827D01*
X196293631Y-67122987D01*
X196448907Y-67684303D01*
X196844668Y-69034782D01*
X197228008Y-70096044D01*
X197536091Y-70702524D01*
X197624006Y-70780632D01*
X197893675Y-71185937D01*
X198013773Y-71990206D01*
X198014166Y-72041260D01*
X198338182Y-73765718D01*
X199214821Y-75380745D01*
X200500975Y-76659595D01*
X201189166Y-77071790D01*
X202561258Y-77639457D01*
X203808966Y-77982159D01*
X204785766Y-78077845D01*
X205345137Y-77904466D01*
X205422500Y-77708877D01*
X205176615Y-77253436D01*
X204981527Y-77199922D01*
X203296057Y-76891270D01*
X201749630Y-76070619D01*
X200511997Y-74873194D01*
X199752907Y-73434222D01*
X199638599Y-72943625D01*
X199420658Y-72070594D01*
X199148401Y-71589863D01*
X199068331Y-71557445D01*
X198736228Y-71283826D01*
X198719722Y-71164627D01*
X199028161Y-70920529D01*
X199821134Y-70933462D01*
X200922547Y-71095115D01*
X200751136Y-65064474D01*
X200679794Y-63035158D01*
X200590467Y-61223449D01*
X200491585Y-59759425D01*
X200391577Y-58773161D01*
X200320885Y-58425199D01*
X200073347Y-58039379D01*
X199667941Y-58050190D01*
X199425277Y-58163807D01*
X199425277Y-57093556D01*
X199715653Y-56964480D01*
X199660463Y-56858371D01*
X199241798Y-56816150D01*
X199190092Y-56858371D01*
X199238518Y-57068097D01*
X199425277Y-57093556D01*
X199425277Y-58163807D01*
X199058126Y-58335711D01*
X198370049Y-58557083D01*
X197855085Y-58523949D01*
X197695123Y-58298106D01*
X198008412Y-57979057D01*
X198228077Y-57518878D01*
X198354713Y-56625415D01*
X198366944Y-56220391D01*
X198405153Y-55427079D01*
X198591581Y-54801044D01*
X199033933Y-54169213D01*
X199839913Y-53358511D01*
X200556524Y-52701854D01*
X201685541Y-51752350D01*
X202731844Y-50997148D01*
X203508427Y-50568058D01*
X203643329Y-50526123D01*
X204666439Y-50276308D01*
X205148390Y-50030984D01*
X205242959Y-49672673D01*
X205177582Y-49354025D01*
X205028015Y-48855894D01*
X204796453Y-48679949D01*
X204285879Y-48804960D01*
X203409897Y-49163540D01*
X201871664Y-50021372D01*
X200229281Y-51284825D01*
X198730700Y-52748099D01*
X197977513Y-53672361D01*
X197313768Y-54764876D01*
X197013766Y-55854890D01*
X196955833Y-56981169D01*
X196863651Y-58283076D01*
X196723950Y-58578190D01*
X196723950Y-53742167D01*
X198772237Y-51603799D01*
X200220038Y-50249812D01*
X201714165Y-49122302D01*
X203103034Y-48319322D01*
X204235063Y-47938924D01*
X204465134Y-47921334D01*
X204960594Y-47629085D01*
X205242870Y-46992726D01*
X205187186Y-46460799D01*
X204814578Y-46273016D01*
X203934566Y-45986755D01*
X202727747Y-45659939D01*
X202563136Y-45619176D01*
X199846775Y-45178895D01*
X197526743Y-45194220D01*
X195294723Y-45498092D01*
X193655294Y-46049969D01*
X192526782Y-46890067D01*
X191855584Y-47986645D01*
X191385235Y-49485525D01*
X191380754Y-50635430D01*
X191901539Y-51540851D01*
X193006985Y-52306276D01*
X194718146Y-53022470D01*
X196723950Y-53742167D01*
X196723950Y-58578190D01*
X196528528Y-58991015D01*
X195862601Y-59199320D01*
X195014766Y-59065159D01*
X194311989Y-58668740D01*
X194133611Y-57974487D01*
X194133611Y-57104971D01*
X192865411Y-57709733D01*
X192026556Y-58072732D01*
X191564689Y-58107078D01*
X191234880Y-57817321D01*
X191177925Y-57741086D01*
X190787315Y-57364298D01*
X190332864Y-57496418D01*
X190064874Y-57685633D01*
X188974176Y-58420379D01*
X188292210Y-58672793D01*
X187963002Y-58509525D01*
X188120578Y-58167466D01*
X188120578Y-58167466D01*
G37*
X188120578Y-58167466D02*
X188714147Y-57626423D01*
X189555365Y-57016067D01*
X190455890Y-56466070D01*
X191227378Y-56106101D01*
X191556844Y-56035223D01*
X191964171Y-56319065D01*
X192016944Y-56564389D01*
X192056397Y-56971679D01*
X192293650Y-57039810D01*
X192907049Y-56771343D01*
X193274242Y-56582444D01*
X194185322Y-56240391D01*
X194678320Y-56431516D01*
X194838211Y-57194278D01*
X194839166Y-57290765D01*
X195026913Y-57984475D01*
X195368333Y-58151889D01*
X195795400Y-57847704D01*
X195897500Y-57314042D01*
X195969278Y-56320551D01*
X196103250Y-55447445D01*
X196177084Y-54853792D01*
X196003589Y-54472568D01*
X195437739Y-54165997D01*
X194380508Y-53810791D01*
X192660695Y-53177733D01*
X191534910Y-52498359D01*
X190894667Y-51660926D01*
X190631477Y-50553693D01*
X190607152Y-49924201D01*
X190829318Y-48065153D01*
X191518186Y-46610680D01*
X192711788Y-45534917D01*
X194448161Y-44812001D01*
X196765340Y-44416066D01*
X198850281Y-44318599D01*
X200414936Y-44421565D01*
X202291709Y-44715866D01*
X204216440Y-45144013D01*
X205924969Y-45648513D01*
X207010000Y-46094469D01*
X207947574Y-46493978D01*
X208725278Y-46694804D01*
X208730384Y-46695253D01*
X209565131Y-47078752D01*
X210264114Y-47929016D01*
X210733866Y-49018500D01*
X210880925Y-50119658D01*
X210611826Y-51004946D01*
X210538022Y-51096064D01*
X210224439Y-51553785D01*
X210441814Y-51864201D01*
X210888126Y-52089371D01*
X211537999Y-52502054D01*
X211772500Y-52852659D01*
X211656756Y-53152674D01*
X211230300Y-53134540D01*
X210374294Y-52777057D01*
X209829366Y-52505989D01*
X208454748Y-52010236D01*
X208353523Y-52011593D01*
X208353523Y-50682308D01*
X209359925Y-50646850D01*
X209906615Y-50160892D01*
X209943379Y-49348498D01*
X209420004Y-48333729D01*
X209343489Y-48236441D01*
X208815823Y-47697141D01*
X208396669Y-47686877D01*
X208090752Y-47902728D01*
X207677247Y-48583376D01*
X207596779Y-49460247D01*
X207822744Y-50251936D01*
X208328540Y-50677040D01*
X208353523Y-50682308D01*
X208353523Y-52011593D01*
X207228857Y-52026677D01*
X206649072Y-52066624D01*
X206649072Y-51168821D01*
X206792072Y-50738226D01*
X206822883Y-50155048D01*
X206780080Y-49086765D01*
X206660397Y-48261118D01*
X206619479Y-48126575D01*
X206280489Y-47563985D01*
X206003611Y-47609490D01*
X205863943Y-48165747D01*
X205919428Y-49033951D01*
X206170585Y-50264361D01*
X206427855Y-50993425D01*
X206649072Y-51168821D01*
X206649072Y-52066624D01*
X206271498Y-52092639D01*
X205688350Y-51787706D01*
X205560446Y-51632586D01*
X204950176Y-51209254D01*
X204068754Y-51301909D01*
X202857623Y-51926900D01*
X201787156Y-52686179D01*
X200436268Y-53837493D01*
X199715148Y-54761756D01*
X199600187Y-55498211D01*
X199850227Y-55905807D01*
X200363714Y-56119286D01*
X201353311Y-56298639D01*
X202680637Y-56440156D01*
X204207311Y-56540123D01*
X205794952Y-56594831D01*
X207305177Y-56600566D01*
X208599606Y-56553617D01*
X209539857Y-56450273D01*
X209987548Y-56286821D01*
X209980318Y-56177521D01*
X209380352Y-55748614D01*
X209083471Y-55682445D01*
X208642423Y-55477381D01*
X208597500Y-55329667D01*
X208811408Y-54945895D01*
X209401260Y-55058997D01*
X210289248Y-55625553D01*
X211397565Y-56602145D01*
X212016554Y-57237634D01*
X214122547Y-59498378D01*
X215197891Y-58817518D01*
X216415289Y-58328605D01*
X218321654Y-57968166D01*
X219438746Y-57844563D01*
X220894034Y-57687765D01*
X222096164Y-57516652D01*
X222860252Y-57359308D01*
X223009212Y-57302192D01*
X223248829Y-56827697D01*
X223394115Y-55910477D01*
X223414166Y-55379403D01*
X223498659Y-54295299D01*
X223712319Y-53483829D01*
X223837500Y-53283556D01*
X224565302Y-52938418D01*
X225514960Y-52891171D01*
X226320519Y-53139395D01*
X226505234Y-53301195D01*
X226970047Y-54317151D01*
X227195476Y-55747355D01*
X227192120Y-57355183D01*
X226970576Y-58904008D01*
X226541442Y-60157207D01*
X226174625Y-60683097D01*
X225815896Y-60989039D01*
X225381771Y-61178204D01*
X224728185Y-61264750D01*
X223845412Y-61263091D01*
X223845412Y-60615082D01*
X224776317Y-60392191D01*
X225438283Y-60227666D01*
X225791860Y-60013343D01*
X225988715Y-59545533D01*
X226180515Y-58620549D01*
X226211182Y-58465190D01*
X226365812Y-56164346D01*
X226009889Y-54183139D01*
X225603510Y-53712814D01*
X224961702Y-53577275D01*
X224421660Y-53811567D01*
X224312674Y-54006750D01*
X224232396Y-54542426D01*
X224136861Y-55591581D01*
X224042491Y-56962849D01*
X224010201Y-57531402D01*
X223845412Y-60615082D01*
X223845412Y-61263091D01*
X223711076Y-61262838D01*
X222297037Y-61192159D01*
X222297037Y-60268556D01*
X222855953Y-59963411D01*
X223060654Y-59062572D01*
X223061389Y-58986109D01*
X222925363Y-58397843D01*
X222532222Y-58377093D01*
X222187820Y-58768611D01*
X222011819Y-59419109D01*
X222042434Y-60021246D01*
X222297037Y-60268556D01*
X222297037Y-61192159D01*
X222186381Y-61186627D01*
X221487028Y-61143825D01*
X219089591Y-61048017D01*
X217312042Y-61114738D01*
X216083406Y-61363279D01*
X215332708Y-61812929D01*
X214988974Y-62482980D01*
X214947500Y-62921229D01*
X214844925Y-63903998D01*
X214826639Y-63993351D01*
X214826639Y-60931661D01*
X215376282Y-60754377D01*
X216127808Y-60444945D01*
X217235823Y-60136202D01*
X218630957Y-59945532D01*
X219345891Y-59915778D01*
X220548563Y-59861368D01*
X221160619Y-59680034D01*
X221297500Y-59424355D01*
X221014279Y-58872933D01*
X220798276Y-58741361D01*
X220076777Y-58669924D01*
X218931204Y-58754696D01*
X217615031Y-58955079D01*
X216381734Y-59230472D01*
X215484788Y-59540275D01*
X215349547Y-59614101D01*
X214771617Y-60134326D01*
X214594722Y-60529804D01*
X214623840Y-60853609D01*
X214826639Y-60931661D01*
X214826639Y-63993351D01*
X214583607Y-65180920D01*
X214396884Y-65875175D01*
X214101534Y-67043744D01*
X214114502Y-67845146D01*
X214530449Y-68445156D01*
X215444036Y-69009553D01*
X216457912Y-69484605D01*
X217403928Y-69863895D01*
X218341722Y-70108672D01*
X219466569Y-70246980D01*
X220973745Y-70306862D01*
X222254203Y-70317019D01*
X224255727Y-70343991D01*
X225662627Y-70471147D01*
X226585528Y-70777948D01*
X227135058Y-71343856D01*
X227421842Y-72248333D01*
X227556508Y-73570840D01*
X227588237Y-74148405D01*
X227632725Y-75534146D01*
X227565119Y-76435627D01*
X227341434Y-77070848D01*
X226917686Y-77657810D01*
X226868561Y-77715337D01*
X226154323Y-78379088D01*
X225520025Y-78513103D01*
X225520025Y-77554667D01*
X226258655Y-77278259D01*
X226584205Y-76937306D01*
X226785881Y-76220820D01*
X226850430Y-75116558D01*
X226794979Y-73857474D01*
X226636656Y-72676519D01*
X226392587Y-71806646D01*
X226185247Y-71510950D01*
X225445594Y-71290188D01*
X225001666Y-71290841D01*
X224606267Y-71426131D01*
X224395167Y-71815093D01*
X224315548Y-72626139D01*
X224309511Y-73497723D01*
X224393494Y-75407465D01*
X224628323Y-76681402D01*
X225030987Y-77376468D01*
X225520025Y-77554667D01*
X225520025Y-78513103D01*
X225506477Y-78515966D01*
X225213374Y-78447821D01*
X224539984Y-77937124D01*
X223919962Y-76997468D01*
X223503900Y-75898717D01*
X223414166Y-75223639D01*
X223098623Y-74468541D01*
X223061389Y-74442127D01*
X223061389Y-73144945D01*
X223309992Y-73005687D01*
X223413840Y-72315152D01*
X223414166Y-72263000D01*
X223320228Y-71545902D01*
X223078179Y-71371697D01*
X223061389Y-71381056D01*
X222761950Y-71880102D01*
X222708611Y-72263000D01*
X222875448Y-72929645D01*
X223061389Y-73144945D01*
X223061389Y-74442127D01*
X222299885Y-73901899D01*
X221297500Y-73685042D01*
X221022511Y-73657665D01*
X221022511Y-72593772D01*
X221697503Y-72555522D01*
X221970644Y-72363098D01*
X222003055Y-72175368D01*
X221716437Y-71591879D01*
X221445036Y-71418799D01*
X220711536Y-71268920D01*
X219717014Y-71204706D01*
X219694207Y-71204667D01*
X218527254Y-71040339D01*
X217076958Y-70617393D01*
X215628661Y-70040891D01*
X214467708Y-69415892D01*
X214121887Y-69153002D01*
X213598032Y-68770428D01*
X213229402Y-68926589D01*
X212969357Y-69256513D01*
X212712633Y-69717371D01*
X212840657Y-70085253D01*
X213454190Y-70542864D01*
X213794969Y-70753595D01*
X215337908Y-71542523D01*
X217039910Y-72077643D01*
X219139053Y-72428195D01*
X219798194Y-72499529D01*
X221022511Y-72593772D01*
X221022511Y-73657665D01*
X219814254Y-73537374D01*
X218019861Y-73174123D01*
X216177084Y-72666377D01*
X214548684Y-72085225D01*
X213520134Y-71580964D01*
X212575346Y-71021147D01*
X212002022Y-70804851D01*
X211573888Y-70900736D01*
X211103247Y-71246208D01*
X209545208Y-72075849D01*
X207447223Y-72494808D01*
X204848421Y-72495493D01*
X204716944Y-72485294D01*
X204615764Y-72475645D01*
X204615764Y-71566461D01*
X205990955Y-71547367D01*
X207367285Y-71465661D01*
X208569707Y-71324971D01*
X209423174Y-71128923D01*
X209585157Y-71059773D01*
X211087726Y-69947012D01*
X212383787Y-68374799D01*
X213045186Y-67147723D01*
X213846299Y-64711106D01*
X214023687Y-62579246D01*
X213577020Y-60726467D01*
X212949104Y-59655932D01*
X212249186Y-58836334D01*
X211601834Y-58260515D01*
X211493577Y-58194052D01*
X210812567Y-57990078D01*
X209613869Y-57773180D01*
X208084604Y-57562944D01*
X206411888Y-57378958D01*
X204782841Y-57240809D01*
X203384581Y-57168086D01*
X202404228Y-57180375D01*
X202157453Y-57216751D01*
X201237894Y-57447546D01*
X202817495Y-60827800D01*
X204397097Y-64208053D01*
X203834578Y-66207055D01*
X203421026Y-67588269D01*
X202981319Y-68924847D01*
X202759779Y-69536112D01*
X202433298Y-70463574D01*
X202257362Y-71118741D01*
X202247500Y-71211806D01*
X202568989Y-71402307D01*
X203416760Y-71519317D01*
X204615764Y-71566461D01*
X204615764Y-72475645D01*
X203310343Y-72351150D01*
X202092897Y-72198654D01*
X201312428Y-72059181D01*
X201277361Y-72049825D01*
X200690079Y-71993550D01*
X200494801Y-72406531D01*
X200483611Y-72723955D01*
X200785960Y-73793724D01*
X201556578Y-74848613D01*
X202590817Y-75661619D01*
X203415293Y-75975881D01*
X204413415Y-76039026D01*
X205730881Y-75971102D01*
X206517765Y-75872932D01*
X208141737Y-75716661D01*
X209226916Y-75882084D01*
X209880519Y-76407202D01*
X210178062Y-77170303D01*
X210321422Y-78397241D01*
X210031516Y-79164495D01*
X209214583Y-79591922D01*
X208597500Y-79693067D01*
X208597500Y-78965778D01*
X209083783Y-78827660D01*
X209279992Y-78288463D01*
X209303055Y-77731056D01*
X209238963Y-76897727D01*
X208942642Y-76556300D01*
X208383367Y-76496334D01*
X207732685Y-76601213D01*
X207650597Y-76975786D01*
X207677812Y-77054353D01*
X207865816Y-77898046D01*
X207891944Y-78289075D01*
X208155189Y-78857881D01*
X208597500Y-78965778D01*
X208597500Y-79693067D01*
X208146700Y-79766957D01*
X206764970Y-79806957D01*
X206560469Y-79752157D01*
X206560469Y-78819094D01*
X206884346Y-78662564D01*
X206952018Y-78527004D01*
X207148201Y-77803685D01*
X206992379Y-77107313D01*
X206973034Y-77056379D01*
X206650062Y-76666380D01*
X206324709Y-76855564D01*
X206137046Y-77512088D01*
X206128055Y-77731056D01*
X206260230Y-78462086D01*
X206560469Y-78819094D01*
X206560469Y-79752157D01*
X205915588Y-79579348D01*
X205747499Y-79458119D01*
X204997391Y-79097771D01*
X204121519Y-78965778D01*
X203228197Y-78806726D01*
X202024459Y-78395353D01*
X201079816Y-77970744D01*
X199107148Y-76975710D01*
X199001629Y-77871422D01*
X198589564Y-78763051D01*
X197974384Y-79282086D01*
X197235292Y-79595068D01*
X196533291Y-79548054D01*
X195860306Y-79303150D01*
X193979066Y-78164445D01*
X192412464Y-76505127D01*
X191317912Y-74492398D01*
X191309035Y-74468788D01*
X190740760Y-72767738D01*
X190264364Y-70997046D01*
X189900055Y-69284502D01*
X189668041Y-67757895D01*
X189588530Y-66545014D01*
X189681730Y-65773650D01*
X189900277Y-65560223D01*
X190136484Y-65869617D01*
X190251025Y-66627288D01*
X190253055Y-66755481D01*
X190368083Y-67755113D01*
X190674238Y-69206174D01*
X191113128Y-70900131D01*
X191626361Y-72628450D01*
X192155545Y-74182599D01*
X192642289Y-75354044D01*
X192684277Y-75438000D01*
X193414080Y-76477381D01*
X194401319Y-77383774D01*
X195502408Y-78086497D01*
X196573760Y-78514866D01*
X197471790Y-78598198D01*
X198052911Y-78265808D01*
X198128595Y-78118088D01*
X198141082Y-77511645D01*
X197960796Y-76519763D01*
X197795375Y-75913227D01*
X197399805Y-74578002D01*
X196936891Y-72949857D01*
X196444031Y-71168567D01*
X195958619Y-69373902D01*
X195518053Y-67705637D01*
X195159729Y-66303544D01*
X194921043Y-65307396D01*
X194839166Y-64864074D01*
X195087615Y-64560809D01*
X195251567Y-64580560D01*
X195522242Y-64962955D01*
X195890967Y-65865827D01*
X196293631Y-67122987D01*
X196448907Y-67684303D01*
X196844668Y-69034782D01*
X197228008Y-70096044D01*
X197536091Y-70702524D01*
X197624006Y-70780632D01*
X197893675Y-71185937D01*
X198013773Y-71990206D01*
X198014166Y-72041260D01*
X198338182Y-73765718D01*
X199214821Y-75380745D01*
X200500975Y-76659595D01*
X201189166Y-77071790D01*
X202561258Y-77639457D01*
X203808966Y-77982159D01*
X204785766Y-78077845D01*
X205345137Y-77904466D01*
X205422500Y-77708877D01*
X205176615Y-77253436D01*
X204981527Y-77199922D01*
X203296057Y-76891270D01*
X201749630Y-76070619D01*
X200511997Y-74873194D01*
X199752907Y-73434222D01*
X199638599Y-72943625D01*
X199420658Y-72070594D01*
X199148401Y-71589863D01*
X199068331Y-71557445D01*
X198736228Y-71283826D01*
X198719722Y-71164627D01*
X199028161Y-70920529D01*
X199821134Y-70933462D01*
X200922547Y-71095115D01*
X200751136Y-65064474D01*
X200679794Y-63035158D01*
X200590467Y-61223449D01*
X200491585Y-59759425D01*
X200391577Y-58773161D01*
X200320885Y-58425199D01*
X200073347Y-58039379D01*
X199667941Y-58050190D01*
X199425277Y-58163807D01*
X199425277Y-57093556D01*
X199715653Y-56964480D01*
X199660463Y-56858371D01*
X199241798Y-56816150D01*
X199190092Y-56858371D01*
X199238518Y-57068097D01*
X199425277Y-57093556D01*
X199425277Y-58163807D01*
X199058126Y-58335711D01*
X198370049Y-58557083D01*
X197855085Y-58523949D01*
X197695123Y-58298106D01*
X198008412Y-57979057D01*
X198228077Y-57518878D01*
X198354713Y-56625415D01*
X198366944Y-56220391D01*
X198405153Y-55427079D01*
X198591581Y-54801044D01*
X199033933Y-54169213D01*
X199839913Y-53358511D01*
X200556524Y-52701854D01*
X201685541Y-51752350D01*
X202731844Y-50997148D01*
X203508427Y-50568058D01*
X203643329Y-50526123D01*
X204666439Y-50276308D01*
X205148390Y-50030984D01*
X205242959Y-49672673D01*
X205177582Y-49354025D01*
X205028015Y-48855894D01*
X204796453Y-48679949D01*
X204285879Y-48804960D01*
X203409897Y-49163540D01*
X201871664Y-50021372D01*
X200229281Y-51284825D01*
X198730700Y-52748099D01*
X197977513Y-53672361D01*
X197313768Y-54764876D01*
X197013766Y-55854890D01*
X196955833Y-56981169D01*
X196863651Y-58283076D01*
X196723950Y-58578190D01*
X196723950Y-53742167D01*
X198772237Y-51603799D01*
X200220038Y-50249812D01*
X201714165Y-49122302D01*
X203103034Y-48319322D01*
X204235063Y-47938924D01*
X204465134Y-47921334D01*
X204960594Y-47629085D01*
X205242870Y-46992726D01*
X205187186Y-46460799D01*
X204814578Y-46273016D01*
X203934566Y-45986755D01*
X202727747Y-45659939D01*
X202563136Y-45619176D01*
X199846775Y-45178895D01*
X197526743Y-45194220D01*
X195294723Y-45498092D01*
X193655294Y-46049969D01*
X192526782Y-46890067D01*
X191855584Y-47986645D01*
X191385235Y-49485525D01*
X191380754Y-50635430D01*
X191901539Y-51540851D01*
X193006985Y-52306276D01*
X194718146Y-53022470D01*
X196723950Y-53742167D01*
X196723950Y-58578190D01*
X196528528Y-58991015D01*
X195862601Y-59199320D01*
X195014766Y-59065159D01*
X194311989Y-58668740D01*
X194133611Y-57974487D01*
X194133611Y-57104971D01*
X192865411Y-57709733D01*
X192026556Y-58072732D01*
X191564689Y-58107078D01*
X191234880Y-57817321D01*
X191177925Y-57741086D01*
X190787315Y-57364298D01*
X190332864Y-57496418D01*
X190064874Y-57685633D01*
X188974176Y-58420379D01*
X188292210Y-58672793D01*
X187963002Y-58509525D01*
X188120578Y-58167466D01*
G04 #@! TD*
M02*
