G04 #@! TF.GenerationSoftware,KiCad,Pcbnew,(5.1.7)-1*
G04 #@! TF.CreationDate,2020-11-23T23:32:24-08:00*
G04 #@! TF.ProjectId,panelized001,70616e65-6c69-47a6-9564-3030312e6b69,rev?*
G04 #@! TF.SameCoordinates,Original*
G04 #@! TF.FileFunction,Copper,L2,Bot*
G04 #@! TF.FilePolarity,Positive*
%FSLAX46Y46*%
G04 Gerber Fmt 4.6, Leading zero omitted, Abs format (unit mm)*
G04 Created by KiCad (PCBNEW (5.1.7)-1) date 2020-11-23 23:32:24*
%MOMM*%
%LPD*%
G01*
G04 APERTURE LIST*
G04 #@! TA.AperFunction,EtchedComponent*
%ADD10C,0.010000*%
G04 #@! TD*
G04 APERTURE END LIST*
D10*
G36*
X102801000Y-89637000D02*
G01*
X103151000Y-89637000D01*
X103451000Y-89637000D01*
X104283502Y-90065994D01*
X104592449Y-90605412D01*
X104590290Y-91058063D01*
X104356922Y-91730354D01*
X103724862Y-92007336D01*
X103427388Y-92041421D01*
X102447375Y-91985206D01*
X101751694Y-91759309D01*
X101299223Y-91175483D01*
X101251000Y-90387000D01*
X101451000Y-90137000D01*
X101851000Y-89837000D01*
X102301000Y-89687000D01*
X102801000Y-89637000D01*
G37*
X102801000Y-89637000D02*
X103151000Y-89637000D01*
X103451000Y-89637000D01*
X104283502Y-90065994D01*
X104592449Y-90605412D01*
X104590290Y-91058063D01*
X104356922Y-91730354D01*
X103724862Y-92007336D01*
X103427388Y-92041421D01*
X102447375Y-91985206D01*
X101751694Y-91759309D01*
X101299223Y-91175483D01*
X101251000Y-90387000D01*
X101451000Y-90137000D01*
X101851000Y-89837000D01*
X102301000Y-89687000D01*
X102801000Y-89637000D01*
G36*
X96519343Y-90238307D02*
G01*
X97382598Y-90603053D01*
X97674671Y-91140857D01*
X97460400Y-91719341D01*
X96804618Y-92206128D01*
X95772164Y-92468842D01*
X95419333Y-92484222D01*
X94538796Y-92429332D01*
X94159139Y-92177502D01*
X94078777Y-91614689D01*
X94372755Y-90734977D01*
X95175434Y-90244721D01*
X96367933Y-90210964D01*
X96519343Y-90238307D01*
G37*
X96519343Y-90238307D02*
X97382598Y-90603053D01*
X97674671Y-91140857D01*
X97460400Y-91719341D01*
X96804618Y-92206128D01*
X95772164Y-92468842D01*
X95419333Y-92484222D01*
X94538796Y-92429332D01*
X94159139Y-92177502D01*
X94078777Y-91614689D01*
X94372755Y-90734977D01*
X95175434Y-90244721D01*
X96367933Y-90210964D01*
X96519343Y-90238307D01*
G36*
X102469334Y-103364202D02*
G01*
X104319344Y-103413383D01*
X105971495Y-103505736D01*
X107751000Y-103437000D01*
X108401000Y-103487000D01*
X108751000Y-103887000D01*
X108791544Y-104529010D01*
X108694882Y-105113512D01*
X108075691Y-105752873D01*
X106884057Y-106498042D01*
X105070063Y-107399968D01*
X105003995Y-107430682D01*
X103081385Y-108286737D01*
X101688269Y-108813076D01*
X100742094Y-109030993D01*
X100160308Y-108961778D01*
X99918381Y-108742370D01*
X99512978Y-108465316D01*
X98625984Y-108030635D01*
X97437531Y-107525498D01*
X97251728Y-107451914D01*
X96065782Y-106927967D01*
X95191622Y-106429980D01*
X94793033Y-106053639D01*
X94784333Y-106010432D01*
X94825388Y-105713349D01*
X95030988Y-105586765D01*
X95524785Y-105646591D01*
X96430431Y-105908735D01*
X97871577Y-106389107D01*
X97959333Y-106418944D01*
X99362881Y-106850027D01*
X100645359Y-107164221D01*
X101550180Y-107299573D01*
X101612049Y-107300888D01*
X102582233Y-107197803D01*
X103621519Y-106939761D01*
X104498394Y-106603590D01*
X104981346Y-106266114D01*
X105014888Y-106171686D01*
X105301615Y-105921307D01*
X105544055Y-105889777D01*
X106013814Y-105719604D01*
X106073222Y-105575244D01*
X106372198Y-105264681D01*
X106955166Y-105039356D01*
X107616388Y-104737525D01*
X107837111Y-104418425D01*
X107623216Y-104276214D01*
X106943270Y-104189700D01*
X105739883Y-104157574D01*
X103955663Y-104178529D01*
X101533218Y-104251257D01*
X101134333Y-104265700D01*
X98786355Y-104346583D01*
X97052747Y-104388753D01*
X95843176Y-104388179D01*
X95067310Y-104340827D01*
X94634816Y-104242664D01*
X94455361Y-104089656D01*
X94431555Y-103966443D01*
X94762227Y-103760075D01*
X95668322Y-103595884D01*
X97020961Y-103474034D01*
X98691263Y-103394694D01*
X100550347Y-103358027D01*
X102469334Y-103364202D01*
G37*
X102469334Y-103364202D02*
X104319344Y-103413383D01*
X105971495Y-103505736D01*
X107751000Y-103437000D01*
X108401000Y-103487000D01*
X108751000Y-103887000D01*
X108791544Y-104529010D01*
X108694882Y-105113512D01*
X108075691Y-105752873D01*
X106884057Y-106498042D01*
X105070063Y-107399968D01*
X105003995Y-107430682D01*
X103081385Y-108286737D01*
X101688269Y-108813076D01*
X100742094Y-109030993D01*
X100160308Y-108961778D01*
X99918381Y-108742370D01*
X99512978Y-108465316D01*
X98625984Y-108030635D01*
X97437531Y-107525498D01*
X97251728Y-107451914D01*
X96065782Y-106927967D01*
X95191622Y-106429980D01*
X94793033Y-106053639D01*
X94784333Y-106010432D01*
X94825388Y-105713349D01*
X95030988Y-105586765D01*
X95524785Y-105646591D01*
X96430431Y-105908735D01*
X97871577Y-106389107D01*
X97959333Y-106418944D01*
X99362881Y-106850027D01*
X100645359Y-107164221D01*
X101550180Y-107299573D01*
X101612049Y-107300888D01*
X102582233Y-107197803D01*
X103621519Y-106939761D01*
X104498394Y-106603590D01*
X104981346Y-106266114D01*
X105014888Y-106171686D01*
X105301615Y-105921307D01*
X105544055Y-105889777D01*
X106013814Y-105719604D01*
X106073222Y-105575244D01*
X106372198Y-105264681D01*
X106955166Y-105039356D01*
X107616388Y-104737525D01*
X107837111Y-104418425D01*
X107623216Y-104276214D01*
X106943270Y-104189700D01*
X105739883Y-104157574D01*
X103955663Y-104178529D01*
X101533218Y-104251257D01*
X101134333Y-104265700D01*
X98786355Y-104346583D01*
X97052747Y-104388753D01*
X95843176Y-104388179D01*
X95067310Y-104340827D01*
X94634816Y-104242664D01*
X94455361Y-104089656D01*
X94431555Y-103966443D01*
X94762227Y-103760075D01*
X95668322Y-103595884D01*
X97020961Y-103474034D01*
X98691263Y-103394694D01*
X100550347Y-103358027D01*
X102469334Y-103364202D01*
G36*
X118157009Y-109067387D02*
G01*
X118900699Y-109600905D01*
X119120598Y-110211305D01*
X118810004Y-110354323D01*
X118051000Y-110537000D01*
X116985990Y-110555345D01*
X115801000Y-110537000D01*
X115270589Y-110419522D01*
X114709529Y-109949938D01*
X114729527Y-109555839D01*
X115330039Y-109152113D01*
X115797598Y-108991177D01*
X117061998Y-108841877D01*
X118157009Y-109067387D01*
G37*
X118157009Y-109067387D02*
X118900699Y-109600905D01*
X119120598Y-110211305D01*
X118810004Y-110354323D01*
X118051000Y-110537000D01*
X116985990Y-110555345D01*
X115801000Y-110537000D01*
X115270589Y-110419522D01*
X114709529Y-109949938D01*
X114729527Y-109555839D01*
X115330039Y-109152113D01*
X115797598Y-108991177D01*
X117061998Y-108841877D01*
X118157009Y-109067387D01*
G36*
X89028522Y-109219767D02*
G01*
X89385412Y-109702643D01*
X89279679Y-110267664D01*
X88773069Y-110702291D01*
X88043812Y-110828666D01*
X87304990Y-110725211D01*
X87042739Y-110291638D01*
X87023222Y-109946722D01*
X87140274Y-109311966D01*
X87634019Y-109083509D01*
X88060735Y-109064777D01*
X89028522Y-109219767D01*
G37*
X89028522Y-109219767D02*
X89385412Y-109702643D01*
X89279679Y-110267664D01*
X88773069Y-110702291D01*
X88043812Y-110828666D01*
X87304990Y-110725211D01*
X87042739Y-110291638D01*
X87023222Y-109946722D01*
X87140274Y-109311966D01*
X87634019Y-109083509D01*
X88060735Y-109064777D01*
X89028522Y-109219767D01*
G36*
X106445538Y-127169095D02*
G01*
X107760085Y-127246069D01*
X108752098Y-127317382D01*
X110347699Y-127449466D01*
X111372416Y-127577443D01*
X111959485Y-127742245D01*
X112242138Y-127984807D01*
X112353611Y-128346062D01*
X112365893Y-128427659D01*
X112282645Y-129193518D01*
X112013115Y-129568785D01*
X111301000Y-129837000D01*
X110179418Y-130039122D01*
X108935827Y-130008571D01*
X107593707Y-129719289D01*
X106651000Y-129737000D01*
X105774393Y-129551656D01*
X105316355Y-128308899D01*
X105152765Y-127546251D01*
X105146525Y-127160083D01*
X105147791Y-127158726D01*
X105522918Y-127137698D01*
X106445538Y-127169095D01*
G37*
X106445538Y-127169095D02*
X107760085Y-127246069D01*
X108752098Y-127317382D01*
X110347699Y-127449466D01*
X111372416Y-127577443D01*
X111959485Y-127742245D01*
X112242138Y-127984807D01*
X112353611Y-128346062D01*
X112365893Y-128427659D01*
X112282645Y-129193518D01*
X112013115Y-129568785D01*
X111301000Y-129837000D01*
X110179418Y-130039122D01*
X108935827Y-130008571D01*
X107593707Y-129719289D01*
X106651000Y-129737000D01*
X105774393Y-129551656D01*
X105316355Y-128308899D01*
X105152765Y-127546251D01*
X105146525Y-127160083D01*
X105147791Y-127158726D01*
X105522918Y-127137698D01*
X106445538Y-127169095D01*
G36*
X92543404Y-127127698D02*
G01*
X93819899Y-127199008D01*
X94553632Y-127318252D01*
X94907139Y-127552432D01*
X95042955Y-127968553D01*
X95069057Y-128168861D01*
X94896281Y-129154646D01*
X94401000Y-129937000D01*
X92901000Y-130337000D01*
X91351000Y-130337000D01*
X90201000Y-130337000D01*
X89301000Y-130237000D01*
X88875305Y-129997806D01*
X88474959Y-129520339D01*
X88481779Y-128760951D01*
X88852140Y-127980490D01*
X89280210Y-127576803D01*
X90104820Y-127242408D01*
X91335101Y-127110666D01*
X92543404Y-127127698D01*
G37*
X92543404Y-127127698D02*
X93819899Y-127199008D01*
X94553632Y-127318252D01*
X94907139Y-127552432D01*
X95042955Y-127968553D01*
X95069057Y-128168861D01*
X94896281Y-129154646D01*
X94401000Y-129937000D01*
X92901000Y-130337000D01*
X91351000Y-130337000D01*
X90201000Y-130337000D01*
X89301000Y-130237000D01*
X88875305Y-129997806D01*
X88474959Y-129520339D01*
X88481779Y-128760951D01*
X88852140Y-127980490D01*
X89280210Y-127576803D01*
X90104820Y-127242408D01*
X91335101Y-127110666D01*
X92543404Y-127127698D01*
G36*
X79223000Y-55441000D02*
G01*
X79223000Y-55091000D01*
X79223000Y-54791000D01*
X79651994Y-53958498D01*
X80191412Y-53649551D01*
X80644063Y-53651710D01*
X81316354Y-53885078D01*
X81593336Y-54517138D01*
X81627421Y-54814612D01*
X81571206Y-55794625D01*
X81345309Y-56490306D01*
X80761483Y-56942777D01*
X79973000Y-56991000D01*
X79723000Y-56791000D01*
X79423000Y-56391000D01*
X79273000Y-55941000D01*
X79223000Y-55441000D01*
G37*
X79223000Y-55441000D02*
X79223000Y-55091000D01*
X79223000Y-54791000D01*
X79651994Y-53958498D01*
X80191412Y-53649551D01*
X80644063Y-53651710D01*
X81316354Y-53885078D01*
X81593336Y-54517138D01*
X81627421Y-54814612D01*
X81571206Y-55794625D01*
X81345309Y-56490306D01*
X80761483Y-56942777D01*
X79973000Y-56991000D01*
X79723000Y-56791000D01*
X79423000Y-56391000D01*
X79273000Y-55941000D01*
X79223000Y-55441000D01*
G36*
X79824307Y-61722657D02*
G01*
X80189053Y-60859402D01*
X80726857Y-60567329D01*
X81305341Y-60781600D01*
X81792128Y-61437382D01*
X82054842Y-62469836D01*
X82070222Y-62822667D01*
X82015332Y-63703204D01*
X81763502Y-64082861D01*
X81200689Y-64163223D01*
X80320977Y-63869245D01*
X79830721Y-63066566D01*
X79796964Y-61874067D01*
X79824307Y-61722657D01*
G37*
X79824307Y-61722657D02*
X80189053Y-60859402D01*
X80726857Y-60567329D01*
X81305341Y-60781600D01*
X81792128Y-61437382D01*
X82054842Y-62469836D01*
X82070222Y-62822667D01*
X82015332Y-63703204D01*
X81763502Y-64082861D01*
X81200689Y-64163223D01*
X80320977Y-63869245D01*
X79830721Y-63066566D01*
X79796964Y-61874067D01*
X79824307Y-61722657D01*
G36*
X92950202Y-55772666D02*
G01*
X92999383Y-53922656D01*
X93091736Y-52270505D01*
X93023000Y-50491000D01*
X93073000Y-49841000D01*
X93473000Y-49491000D01*
X94115010Y-49450456D01*
X94699512Y-49547118D01*
X95338873Y-50166309D01*
X96084042Y-51357943D01*
X96985968Y-53171937D01*
X97016682Y-53238005D01*
X97872737Y-55160615D01*
X98399076Y-56553731D01*
X98616993Y-57499906D01*
X98547778Y-58081692D01*
X98328370Y-58323619D01*
X98051316Y-58729022D01*
X97616635Y-59616016D01*
X97111498Y-60804469D01*
X97037914Y-60990272D01*
X96513967Y-62176218D01*
X96015980Y-63050378D01*
X95639639Y-63448967D01*
X95596432Y-63457667D01*
X95299349Y-63416612D01*
X95172765Y-63211012D01*
X95232591Y-62717215D01*
X95494735Y-61811569D01*
X95975107Y-60370423D01*
X96004944Y-60282667D01*
X96436027Y-58879119D01*
X96750221Y-57596641D01*
X96885573Y-56691820D01*
X96886888Y-56629951D01*
X96783803Y-55659767D01*
X96525761Y-54620481D01*
X96189590Y-53743606D01*
X95852114Y-53260654D01*
X95757686Y-53227112D01*
X95507307Y-52940385D01*
X95475777Y-52697945D01*
X95305604Y-52228186D01*
X95161244Y-52168778D01*
X94850681Y-51869802D01*
X94625356Y-51286834D01*
X94323525Y-50625612D01*
X94004425Y-50404889D01*
X93862214Y-50618784D01*
X93775700Y-51298730D01*
X93743574Y-52502117D01*
X93764529Y-54286337D01*
X93837257Y-56708782D01*
X93851700Y-57107667D01*
X93932583Y-59455645D01*
X93974753Y-61189253D01*
X93974179Y-62398824D01*
X93926827Y-63174690D01*
X93828664Y-63607184D01*
X93675656Y-63786639D01*
X93552443Y-63810445D01*
X93346075Y-63479773D01*
X93181884Y-62573678D01*
X93060034Y-61221039D01*
X92980694Y-59550737D01*
X92944027Y-57691653D01*
X92950202Y-55772666D01*
G37*
X92950202Y-55772666D02*
X92999383Y-53922656D01*
X93091736Y-52270505D01*
X93023000Y-50491000D01*
X93073000Y-49841000D01*
X93473000Y-49491000D01*
X94115010Y-49450456D01*
X94699512Y-49547118D01*
X95338873Y-50166309D01*
X96084042Y-51357943D01*
X96985968Y-53171937D01*
X97016682Y-53238005D01*
X97872737Y-55160615D01*
X98399076Y-56553731D01*
X98616993Y-57499906D01*
X98547778Y-58081692D01*
X98328370Y-58323619D01*
X98051316Y-58729022D01*
X97616635Y-59616016D01*
X97111498Y-60804469D01*
X97037914Y-60990272D01*
X96513967Y-62176218D01*
X96015980Y-63050378D01*
X95639639Y-63448967D01*
X95596432Y-63457667D01*
X95299349Y-63416612D01*
X95172765Y-63211012D01*
X95232591Y-62717215D01*
X95494735Y-61811569D01*
X95975107Y-60370423D01*
X96004944Y-60282667D01*
X96436027Y-58879119D01*
X96750221Y-57596641D01*
X96885573Y-56691820D01*
X96886888Y-56629951D01*
X96783803Y-55659767D01*
X96525761Y-54620481D01*
X96189590Y-53743606D01*
X95852114Y-53260654D01*
X95757686Y-53227112D01*
X95507307Y-52940385D01*
X95475777Y-52697945D01*
X95305604Y-52228186D01*
X95161244Y-52168778D01*
X94850681Y-51869802D01*
X94625356Y-51286834D01*
X94323525Y-50625612D01*
X94004425Y-50404889D01*
X93862214Y-50618784D01*
X93775700Y-51298730D01*
X93743574Y-52502117D01*
X93764529Y-54286337D01*
X93837257Y-56708782D01*
X93851700Y-57107667D01*
X93932583Y-59455645D01*
X93974753Y-61189253D01*
X93974179Y-62398824D01*
X93926827Y-63174690D01*
X93828664Y-63607184D01*
X93675656Y-63786639D01*
X93552443Y-63810445D01*
X93346075Y-63479773D01*
X93181884Y-62573678D01*
X93060034Y-61221039D01*
X92980694Y-59550737D01*
X92944027Y-57691653D01*
X92950202Y-55772666D01*
G36*
X98653387Y-40084991D02*
G01*
X99186905Y-39341301D01*
X99797305Y-39121402D01*
X99940323Y-39431996D01*
X100123000Y-40191000D01*
X100141345Y-41256010D01*
X100123000Y-42441000D01*
X100005522Y-42971411D01*
X99535938Y-43532471D01*
X99141839Y-43512473D01*
X98738113Y-42911961D01*
X98577177Y-42444402D01*
X98427877Y-41180002D01*
X98653387Y-40084991D01*
G37*
X98653387Y-40084991D02*
X99186905Y-39341301D01*
X99797305Y-39121402D01*
X99940323Y-39431996D01*
X100123000Y-40191000D01*
X100141345Y-41256010D01*
X100123000Y-42441000D01*
X100005522Y-42971411D01*
X99535938Y-43532471D01*
X99141839Y-43512473D01*
X98738113Y-42911961D01*
X98577177Y-42444402D01*
X98427877Y-41180002D01*
X98653387Y-40084991D01*
G36*
X98805767Y-69213478D02*
G01*
X99288643Y-68856588D01*
X99853664Y-68962321D01*
X100288291Y-69468931D01*
X100414666Y-70198188D01*
X100311211Y-70937010D01*
X99877638Y-71199261D01*
X99532722Y-71218778D01*
X98897966Y-71101726D01*
X98669509Y-70607981D01*
X98650777Y-70181265D01*
X98805767Y-69213478D01*
G37*
X98805767Y-69213478D02*
X99288643Y-68856588D01*
X99853664Y-68962321D01*
X100288291Y-69468931D01*
X100414666Y-70198188D01*
X100311211Y-70937010D01*
X99877638Y-71199261D01*
X99532722Y-71218778D01*
X98897966Y-71101726D01*
X98669509Y-70607981D01*
X98650777Y-70181265D01*
X98805767Y-69213478D01*
G36*
X116755095Y-51796462D02*
G01*
X116832069Y-50481915D01*
X116903382Y-49489902D01*
X117035466Y-47894301D01*
X117163443Y-46869584D01*
X117328245Y-46282515D01*
X117570807Y-45999862D01*
X117932062Y-45888389D01*
X118013659Y-45876107D01*
X118779518Y-45959355D01*
X119154785Y-46228885D01*
X119423000Y-46941000D01*
X119625122Y-48062582D01*
X119594571Y-49306173D01*
X119305289Y-50648293D01*
X119323000Y-51591000D01*
X119137656Y-52467607D01*
X117894899Y-52925645D01*
X117132251Y-53089235D01*
X116746083Y-53095475D01*
X116744726Y-53094209D01*
X116723698Y-52719082D01*
X116755095Y-51796462D01*
G37*
X116755095Y-51796462D02*
X116832069Y-50481915D01*
X116903382Y-49489902D01*
X117035466Y-47894301D01*
X117163443Y-46869584D01*
X117328245Y-46282515D01*
X117570807Y-45999862D01*
X117932062Y-45888389D01*
X118013659Y-45876107D01*
X118779518Y-45959355D01*
X119154785Y-46228885D01*
X119423000Y-46941000D01*
X119625122Y-48062582D01*
X119594571Y-49306173D01*
X119305289Y-50648293D01*
X119323000Y-51591000D01*
X119137656Y-52467607D01*
X117894899Y-52925645D01*
X117132251Y-53089235D01*
X116746083Y-53095475D01*
X116744726Y-53094209D01*
X116723698Y-52719082D01*
X116755095Y-51796462D01*
G36*
X116713698Y-65698596D02*
G01*
X116785008Y-64422101D01*
X116904252Y-63688368D01*
X117138432Y-63334861D01*
X117554553Y-63199045D01*
X117754861Y-63172943D01*
X118740646Y-63345719D01*
X119523000Y-63841000D01*
X119923000Y-65341000D01*
X119923000Y-66891000D01*
X119923000Y-68041000D01*
X119823000Y-68941000D01*
X119583806Y-69366695D01*
X119106339Y-69767041D01*
X118346951Y-69760221D01*
X117566490Y-69389860D01*
X117162803Y-68961790D01*
X116828408Y-68137180D01*
X116696666Y-66906899D01*
X116713698Y-65698596D01*
G37*
X116713698Y-65698596D02*
X116785008Y-64422101D01*
X116904252Y-63688368D01*
X117138432Y-63334861D01*
X117554553Y-63199045D01*
X117754861Y-63172943D01*
X118740646Y-63345719D01*
X119523000Y-63841000D01*
X119923000Y-65341000D01*
X119923000Y-66891000D01*
X119923000Y-68041000D01*
X119823000Y-68941000D01*
X119583806Y-69366695D01*
X119106339Y-69767041D01*
X118346951Y-69760221D01*
X117566490Y-69389860D01*
X117162803Y-68961790D01*
X116828408Y-68137180D01*
X116696666Y-66906899D01*
X116713698Y-65698596D01*
G36*
X68605000Y-112961000D02*
G01*
X68605000Y-113311000D01*
X68605000Y-113611000D01*
X68176006Y-114443502D01*
X67636588Y-114752449D01*
X67183937Y-114750290D01*
X66511646Y-114516922D01*
X66234664Y-113884862D01*
X66200579Y-113587388D01*
X66256794Y-112607375D01*
X66482691Y-111911694D01*
X67066517Y-111459223D01*
X67855000Y-111411000D01*
X68105000Y-111611000D01*
X68405000Y-112011000D01*
X68555000Y-112461000D01*
X68605000Y-112961000D01*
G37*
X68605000Y-112961000D02*
X68605000Y-113311000D01*
X68605000Y-113611000D01*
X68176006Y-114443502D01*
X67636588Y-114752449D01*
X67183937Y-114750290D01*
X66511646Y-114516922D01*
X66234664Y-113884862D01*
X66200579Y-113587388D01*
X66256794Y-112607375D01*
X66482691Y-111911694D01*
X67066517Y-111459223D01*
X67855000Y-111411000D01*
X68105000Y-111611000D01*
X68405000Y-112011000D01*
X68555000Y-112461000D01*
X68605000Y-112961000D01*
G36*
X68003693Y-106679343D02*
G01*
X67638947Y-107542598D01*
X67101143Y-107834671D01*
X66522659Y-107620400D01*
X66035872Y-106964618D01*
X65773158Y-105932164D01*
X65757778Y-105579333D01*
X65812668Y-104698796D01*
X66064498Y-104319139D01*
X66627311Y-104238777D01*
X67507023Y-104532755D01*
X67997279Y-105335434D01*
X68031036Y-106527933D01*
X68003693Y-106679343D01*
G37*
X68003693Y-106679343D02*
X67638947Y-107542598D01*
X67101143Y-107834671D01*
X66522659Y-107620400D01*
X66035872Y-106964618D01*
X65773158Y-105932164D01*
X65757778Y-105579333D01*
X65812668Y-104698796D01*
X66064498Y-104319139D01*
X66627311Y-104238777D01*
X67507023Y-104532755D01*
X67997279Y-105335434D01*
X68031036Y-106527933D01*
X68003693Y-106679343D01*
G36*
X54877798Y-112629334D02*
G01*
X54828617Y-114479344D01*
X54736264Y-116131495D01*
X54805000Y-117911000D01*
X54755000Y-118561000D01*
X54355000Y-118911000D01*
X53712990Y-118951544D01*
X53128488Y-118854882D01*
X52489127Y-118235691D01*
X51743958Y-117044057D01*
X50842032Y-115230063D01*
X50811318Y-115163995D01*
X49955263Y-113241385D01*
X49428924Y-111848269D01*
X49211007Y-110902094D01*
X49280222Y-110320308D01*
X49499630Y-110078381D01*
X49776684Y-109672978D01*
X50211365Y-108785984D01*
X50716502Y-107597531D01*
X50790086Y-107411728D01*
X51314033Y-106225782D01*
X51812020Y-105351622D01*
X52188361Y-104953033D01*
X52231568Y-104944333D01*
X52528651Y-104985388D01*
X52655235Y-105190988D01*
X52595409Y-105684785D01*
X52333265Y-106590431D01*
X51852893Y-108031577D01*
X51823056Y-108119333D01*
X51391973Y-109522881D01*
X51077779Y-110805359D01*
X50942427Y-111710180D01*
X50941112Y-111772049D01*
X51044197Y-112742233D01*
X51302239Y-113781519D01*
X51638410Y-114658394D01*
X51975886Y-115141346D01*
X52070314Y-115174888D01*
X52320693Y-115461615D01*
X52352223Y-115704055D01*
X52522396Y-116173814D01*
X52666756Y-116233222D01*
X52977319Y-116532198D01*
X53202644Y-117115166D01*
X53504475Y-117776388D01*
X53823575Y-117997111D01*
X53965786Y-117783216D01*
X54052300Y-117103270D01*
X54084426Y-115899883D01*
X54063471Y-114115663D01*
X53990743Y-111693218D01*
X53976300Y-111294333D01*
X53895417Y-108946355D01*
X53853247Y-107212747D01*
X53853821Y-106003176D01*
X53901173Y-105227310D01*
X53999336Y-104794816D01*
X54152344Y-104615361D01*
X54275557Y-104591555D01*
X54481925Y-104922227D01*
X54646116Y-105828322D01*
X54767966Y-107180961D01*
X54847306Y-108851263D01*
X54883973Y-110710347D01*
X54877798Y-112629334D01*
G37*
X54877798Y-112629334D02*
X54828617Y-114479344D01*
X54736264Y-116131495D01*
X54805000Y-117911000D01*
X54755000Y-118561000D01*
X54355000Y-118911000D01*
X53712990Y-118951544D01*
X53128488Y-118854882D01*
X52489127Y-118235691D01*
X51743958Y-117044057D01*
X50842032Y-115230063D01*
X50811318Y-115163995D01*
X49955263Y-113241385D01*
X49428924Y-111848269D01*
X49211007Y-110902094D01*
X49280222Y-110320308D01*
X49499630Y-110078381D01*
X49776684Y-109672978D01*
X50211365Y-108785984D01*
X50716502Y-107597531D01*
X50790086Y-107411728D01*
X51314033Y-106225782D01*
X51812020Y-105351622D01*
X52188361Y-104953033D01*
X52231568Y-104944333D01*
X52528651Y-104985388D01*
X52655235Y-105190988D01*
X52595409Y-105684785D01*
X52333265Y-106590431D01*
X51852893Y-108031577D01*
X51823056Y-108119333D01*
X51391973Y-109522881D01*
X51077779Y-110805359D01*
X50942427Y-111710180D01*
X50941112Y-111772049D01*
X51044197Y-112742233D01*
X51302239Y-113781519D01*
X51638410Y-114658394D01*
X51975886Y-115141346D01*
X52070314Y-115174888D01*
X52320693Y-115461615D01*
X52352223Y-115704055D01*
X52522396Y-116173814D01*
X52666756Y-116233222D01*
X52977319Y-116532198D01*
X53202644Y-117115166D01*
X53504475Y-117776388D01*
X53823575Y-117997111D01*
X53965786Y-117783216D01*
X54052300Y-117103270D01*
X54084426Y-115899883D01*
X54063471Y-114115663D01*
X53990743Y-111693218D01*
X53976300Y-111294333D01*
X53895417Y-108946355D01*
X53853247Y-107212747D01*
X53853821Y-106003176D01*
X53901173Y-105227310D01*
X53999336Y-104794816D01*
X54152344Y-104615361D01*
X54275557Y-104591555D01*
X54481925Y-104922227D01*
X54646116Y-105828322D01*
X54767966Y-107180961D01*
X54847306Y-108851263D01*
X54883973Y-110710347D01*
X54877798Y-112629334D01*
G36*
X49174613Y-128317009D02*
G01*
X48641095Y-129060699D01*
X48030695Y-129280598D01*
X47887677Y-128970004D01*
X47705000Y-128211000D01*
X47686655Y-127145990D01*
X47705000Y-125961000D01*
X47822478Y-125430589D01*
X48292062Y-124869529D01*
X48686161Y-124889527D01*
X49089887Y-125490039D01*
X49250823Y-125957598D01*
X49400123Y-127221998D01*
X49174613Y-128317009D01*
G37*
X49174613Y-128317009D02*
X48641095Y-129060699D01*
X48030695Y-129280598D01*
X47887677Y-128970004D01*
X47705000Y-128211000D01*
X47686655Y-127145990D01*
X47705000Y-125961000D01*
X47822478Y-125430589D01*
X48292062Y-124869529D01*
X48686161Y-124889527D01*
X49089887Y-125490039D01*
X49250823Y-125957598D01*
X49400123Y-127221998D01*
X49174613Y-128317009D01*
G36*
X49022233Y-99188522D02*
G01*
X48539357Y-99545412D01*
X47974336Y-99439679D01*
X47539709Y-98933069D01*
X47413334Y-98203812D01*
X47516789Y-97464990D01*
X47950362Y-97202739D01*
X48295278Y-97183222D01*
X48930034Y-97300274D01*
X49158491Y-97794019D01*
X49177223Y-98220735D01*
X49022233Y-99188522D01*
G37*
X49022233Y-99188522D02*
X48539357Y-99545412D01*
X47974336Y-99439679D01*
X47539709Y-98933069D01*
X47413334Y-98203812D01*
X47516789Y-97464990D01*
X47950362Y-97202739D01*
X48295278Y-97183222D01*
X48930034Y-97300274D01*
X49158491Y-97794019D01*
X49177223Y-98220735D01*
X49022233Y-99188522D01*
G36*
X31072905Y-116605538D02*
G01*
X30995931Y-117920085D01*
X30924618Y-118912098D01*
X30792534Y-120507699D01*
X30664557Y-121532416D01*
X30499755Y-122119485D01*
X30257193Y-122402138D01*
X29895938Y-122513611D01*
X29814341Y-122525893D01*
X29048482Y-122442645D01*
X28673215Y-122173115D01*
X28405000Y-121461000D01*
X28202878Y-120339418D01*
X28233429Y-119095827D01*
X28522711Y-117753707D01*
X28505000Y-116811000D01*
X28690344Y-115934393D01*
X29933101Y-115476355D01*
X30695749Y-115312765D01*
X31081917Y-115306525D01*
X31083274Y-115307791D01*
X31104302Y-115682918D01*
X31072905Y-116605538D01*
G37*
X31072905Y-116605538D02*
X30995931Y-117920085D01*
X30924618Y-118912098D01*
X30792534Y-120507699D01*
X30664557Y-121532416D01*
X30499755Y-122119485D01*
X30257193Y-122402138D01*
X29895938Y-122513611D01*
X29814341Y-122525893D01*
X29048482Y-122442645D01*
X28673215Y-122173115D01*
X28405000Y-121461000D01*
X28202878Y-120339418D01*
X28233429Y-119095827D01*
X28522711Y-117753707D01*
X28505000Y-116811000D01*
X28690344Y-115934393D01*
X29933101Y-115476355D01*
X30695749Y-115312765D01*
X31081917Y-115306525D01*
X31083274Y-115307791D01*
X31104302Y-115682918D01*
X31072905Y-116605538D01*
G36*
X31114302Y-102703404D02*
G01*
X31042992Y-103979899D01*
X30923748Y-104713632D01*
X30689568Y-105067139D01*
X30273447Y-105202955D01*
X30073139Y-105229057D01*
X29087354Y-105056281D01*
X28305000Y-104561000D01*
X27905000Y-103061000D01*
X27905000Y-101511000D01*
X27905000Y-100361000D01*
X28005000Y-99461000D01*
X28244194Y-99035305D01*
X28721661Y-98634959D01*
X29481049Y-98641779D01*
X30261510Y-99012140D01*
X30665197Y-99440210D01*
X30999592Y-100264820D01*
X31131334Y-101495101D01*
X31114302Y-102703404D01*
G37*
X31114302Y-102703404D02*
X31042992Y-103979899D01*
X30923748Y-104713632D01*
X30689568Y-105067139D01*
X30273447Y-105202955D01*
X30073139Y-105229057D01*
X29087354Y-105056281D01*
X28305000Y-104561000D01*
X27905000Y-103061000D01*
X27905000Y-101511000D01*
X27905000Y-100361000D01*
X28005000Y-99461000D01*
X28244194Y-99035305D01*
X28721661Y-98634959D01*
X29481049Y-98641779D01*
X30261510Y-99012140D01*
X30665197Y-99440210D01*
X30999592Y-100264820D01*
X31131334Y-101495101D01*
X31114302Y-102703404D01*
G36*
X42603000Y-47727000D02*
G01*
X42953000Y-47727000D01*
X43253000Y-47727000D01*
X44085502Y-48155994D01*
X44394449Y-48695412D01*
X44392290Y-49148063D01*
X44158922Y-49820354D01*
X43526862Y-50097336D01*
X43229388Y-50131421D01*
X42249375Y-50075206D01*
X41553694Y-49849309D01*
X41101223Y-49265483D01*
X41053000Y-48477000D01*
X41253000Y-48227000D01*
X41653000Y-47927000D01*
X42103000Y-47777000D01*
X42603000Y-47727000D01*
G37*
X42603000Y-47727000D02*
X42953000Y-47727000D01*
X43253000Y-47727000D01*
X44085502Y-48155994D01*
X44394449Y-48695412D01*
X44392290Y-49148063D01*
X44158922Y-49820354D01*
X43526862Y-50097336D01*
X43229388Y-50131421D01*
X42249375Y-50075206D01*
X41553694Y-49849309D01*
X41101223Y-49265483D01*
X41053000Y-48477000D01*
X41253000Y-48227000D01*
X41653000Y-47927000D01*
X42103000Y-47777000D01*
X42603000Y-47727000D01*
G36*
X36321343Y-48328307D02*
G01*
X37184598Y-48693053D01*
X37476671Y-49230857D01*
X37262400Y-49809341D01*
X36606618Y-50296128D01*
X35574164Y-50558842D01*
X35221333Y-50574222D01*
X34340796Y-50519332D01*
X33961139Y-50267502D01*
X33880777Y-49704689D01*
X34174755Y-48824977D01*
X34977434Y-48334721D01*
X36169933Y-48300964D01*
X36321343Y-48328307D01*
G37*
X36321343Y-48328307D02*
X37184598Y-48693053D01*
X37476671Y-49230857D01*
X37262400Y-49809341D01*
X36606618Y-50296128D01*
X35574164Y-50558842D01*
X35221333Y-50574222D01*
X34340796Y-50519332D01*
X33961139Y-50267502D01*
X33880777Y-49704689D01*
X34174755Y-48824977D01*
X34977434Y-48334721D01*
X36169933Y-48300964D01*
X36321343Y-48328307D01*
G36*
X42271334Y-61454202D02*
G01*
X44121344Y-61503383D01*
X45773495Y-61595736D01*
X47553000Y-61527000D01*
X48203000Y-61577000D01*
X48553000Y-61977000D01*
X48593544Y-62619010D01*
X48496882Y-63203512D01*
X47877691Y-63842873D01*
X46686057Y-64588042D01*
X44872063Y-65489968D01*
X44805995Y-65520682D01*
X42883385Y-66376737D01*
X41490269Y-66903076D01*
X40544094Y-67120993D01*
X39962308Y-67051778D01*
X39720381Y-66832370D01*
X39314978Y-66555316D01*
X38427984Y-66120635D01*
X37239531Y-65615498D01*
X37053728Y-65541914D01*
X35867782Y-65017967D01*
X34993622Y-64519980D01*
X34595033Y-64143639D01*
X34586333Y-64100432D01*
X34627388Y-63803349D01*
X34832988Y-63676765D01*
X35326785Y-63736591D01*
X36232431Y-63998735D01*
X37673577Y-64479107D01*
X37761333Y-64508944D01*
X39164881Y-64940027D01*
X40447359Y-65254221D01*
X41352180Y-65389573D01*
X41414049Y-65390888D01*
X42384233Y-65287803D01*
X43423519Y-65029761D01*
X44300394Y-64693590D01*
X44783346Y-64356114D01*
X44816888Y-64261686D01*
X45103615Y-64011307D01*
X45346055Y-63979777D01*
X45815814Y-63809604D01*
X45875222Y-63665244D01*
X46174198Y-63354681D01*
X46757166Y-63129356D01*
X47418388Y-62827525D01*
X47639111Y-62508425D01*
X47425216Y-62366214D01*
X46745270Y-62279700D01*
X45541883Y-62247574D01*
X43757663Y-62268529D01*
X41335218Y-62341257D01*
X40936333Y-62355700D01*
X38588355Y-62436583D01*
X36854747Y-62478753D01*
X35645176Y-62478179D01*
X34869310Y-62430827D01*
X34436816Y-62332664D01*
X34257361Y-62179656D01*
X34233555Y-62056443D01*
X34564227Y-61850075D01*
X35470322Y-61685884D01*
X36822961Y-61564034D01*
X38493263Y-61484694D01*
X40352347Y-61448027D01*
X42271334Y-61454202D01*
G37*
X42271334Y-61454202D02*
X44121344Y-61503383D01*
X45773495Y-61595736D01*
X47553000Y-61527000D01*
X48203000Y-61577000D01*
X48553000Y-61977000D01*
X48593544Y-62619010D01*
X48496882Y-63203512D01*
X47877691Y-63842873D01*
X46686057Y-64588042D01*
X44872063Y-65489968D01*
X44805995Y-65520682D01*
X42883385Y-66376737D01*
X41490269Y-66903076D01*
X40544094Y-67120993D01*
X39962308Y-67051778D01*
X39720381Y-66832370D01*
X39314978Y-66555316D01*
X38427984Y-66120635D01*
X37239531Y-65615498D01*
X37053728Y-65541914D01*
X35867782Y-65017967D01*
X34993622Y-64519980D01*
X34595033Y-64143639D01*
X34586333Y-64100432D01*
X34627388Y-63803349D01*
X34832988Y-63676765D01*
X35326785Y-63736591D01*
X36232431Y-63998735D01*
X37673577Y-64479107D01*
X37761333Y-64508944D01*
X39164881Y-64940027D01*
X40447359Y-65254221D01*
X41352180Y-65389573D01*
X41414049Y-65390888D01*
X42384233Y-65287803D01*
X43423519Y-65029761D01*
X44300394Y-64693590D01*
X44783346Y-64356114D01*
X44816888Y-64261686D01*
X45103615Y-64011307D01*
X45346055Y-63979777D01*
X45815814Y-63809604D01*
X45875222Y-63665244D01*
X46174198Y-63354681D01*
X46757166Y-63129356D01*
X47418388Y-62827525D01*
X47639111Y-62508425D01*
X47425216Y-62366214D01*
X46745270Y-62279700D01*
X45541883Y-62247574D01*
X43757663Y-62268529D01*
X41335218Y-62341257D01*
X40936333Y-62355700D01*
X38588355Y-62436583D01*
X36854747Y-62478753D01*
X35645176Y-62478179D01*
X34869310Y-62430827D01*
X34436816Y-62332664D01*
X34257361Y-62179656D01*
X34233555Y-62056443D01*
X34564227Y-61850075D01*
X35470322Y-61685884D01*
X36822961Y-61564034D01*
X38493263Y-61484694D01*
X40352347Y-61448027D01*
X42271334Y-61454202D01*
G36*
X57959009Y-67157387D02*
G01*
X58702699Y-67690905D01*
X58922598Y-68301305D01*
X58612004Y-68444323D01*
X57853000Y-68627000D01*
X56787990Y-68645345D01*
X55603000Y-68627000D01*
X55072589Y-68509522D01*
X54511529Y-68039938D01*
X54531527Y-67645839D01*
X55132039Y-67242113D01*
X55599598Y-67081177D01*
X56863998Y-66931877D01*
X57959009Y-67157387D01*
G37*
X57959009Y-67157387D02*
X58702699Y-67690905D01*
X58922598Y-68301305D01*
X58612004Y-68444323D01*
X57853000Y-68627000D01*
X56787990Y-68645345D01*
X55603000Y-68627000D01*
X55072589Y-68509522D01*
X54511529Y-68039938D01*
X54531527Y-67645839D01*
X55132039Y-67242113D01*
X55599598Y-67081177D01*
X56863998Y-66931877D01*
X57959009Y-67157387D01*
G36*
X28830522Y-67309767D02*
G01*
X29187412Y-67792643D01*
X29081679Y-68357664D01*
X28575069Y-68792291D01*
X27845812Y-68918666D01*
X27106990Y-68815211D01*
X26844739Y-68381638D01*
X26825222Y-68036722D01*
X26942274Y-67401966D01*
X27436019Y-67173509D01*
X27862735Y-67154777D01*
X28830522Y-67309767D01*
G37*
X28830522Y-67309767D02*
X29187412Y-67792643D01*
X29081679Y-68357664D01*
X28575069Y-68792291D01*
X27845812Y-68918666D01*
X27106990Y-68815211D01*
X26844739Y-68381638D01*
X26825222Y-68036722D01*
X26942274Y-67401966D01*
X27436019Y-67173509D01*
X27862735Y-67154777D01*
X28830522Y-67309767D01*
G36*
X46247538Y-85259095D02*
G01*
X47562085Y-85336069D01*
X48554098Y-85407382D01*
X50149699Y-85539466D01*
X51174416Y-85667443D01*
X51761485Y-85832245D01*
X52044138Y-86074807D01*
X52155611Y-86436062D01*
X52167893Y-86517659D01*
X52084645Y-87283518D01*
X51815115Y-87658785D01*
X51103000Y-87927000D01*
X49981418Y-88129122D01*
X48737827Y-88098571D01*
X47395707Y-87809289D01*
X46453000Y-87827000D01*
X45576393Y-87641656D01*
X45118355Y-86398899D01*
X44954765Y-85636251D01*
X44948525Y-85250083D01*
X44949791Y-85248726D01*
X45324918Y-85227698D01*
X46247538Y-85259095D01*
G37*
X46247538Y-85259095D02*
X47562085Y-85336069D01*
X48554098Y-85407382D01*
X50149699Y-85539466D01*
X51174416Y-85667443D01*
X51761485Y-85832245D01*
X52044138Y-86074807D01*
X52155611Y-86436062D01*
X52167893Y-86517659D01*
X52084645Y-87283518D01*
X51815115Y-87658785D01*
X51103000Y-87927000D01*
X49981418Y-88129122D01*
X48737827Y-88098571D01*
X47395707Y-87809289D01*
X46453000Y-87827000D01*
X45576393Y-87641656D01*
X45118355Y-86398899D01*
X44954765Y-85636251D01*
X44948525Y-85250083D01*
X44949791Y-85248726D01*
X45324918Y-85227698D01*
X46247538Y-85259095D01*
G36*
X32345404Y-85217698D02*
G01*
X33621899Y-85289008D01*
X34355632Y-85408252D01*
X34709139Y-85642432D01*
X34844955Y-86058553D01*
X34871057Y-86258861D01*
X34698281Y-87244646D01*
X34203000Y-88027000D01*
X32703000Y-88427000D01*
X31153000Y-88427000D01*
X30003000Y-88427000D01*
X29103000Y-88327000D01*
X28677305Y-88087806D01*
X28276959Y-87610339D01*
X28283779Y-86850951D01*
X28654140Y-86070490D01*
X29082210Y-85666803D01*
X29906820Y-85332408D01*
X31137101Y-85200666D01*
X32345404Y-85217698D01*
G37*
X32345404Y-85217698D02*
X33621899Y-85289008D01*
X34355632Y-85408252D01*
X34709139Y-85642432D01*
X34844955Y-86058553D01*
X34871057Y-86258861D01*
X34698281Y-87244646D01*
X34203000Y-88027000D01*
X32703000Y-88427000D01*
X31153000Y-88427000D01*
X30003000Y-88427000D01*
X29103000Y-88327000D01*
X28677305Y-88087806D01*
X28276959Y-87610339D01*
X28283779Y-86850951D01*
X28654140Y-86070490D01*
X29082210Y-85666803D01*
X29906820Y-85332408D01*
X31137101Y-85200666D01*
X32345404Y-85217698D01*
M02*
