G04 #@! TF.GenerationSoftware,KiCad,Pcbnew,(5.1.7)-1*
G04 #@! TF.CreationDate,2020-11-23T23:32:24-08:00*
G04 #@! TF.ProjectId,panelized001,70616e65-6c69-47a6-9564-3030312e6b69,rev?*
G04 #@! TF.SameCoordinates,Original*
G04 #@! TF.FileFunction,Legend,Top*
G04 #@! TF.FilePolarity,Positive*
%FSLAX46Y46*%
G04 Gerber Fmt 4.6, Leading zero omitted, Abs format (unit mm)*
G04 Created by KiCad (PCBNEW (5.1.7)-1) date 2020-11-23 23:32:24*
%MOMM*%
%LPD*%
G01*
G04 APERTURE LIST*
%ADD10C,0.100000*%
%ADD11C,0.010000*%
G04 APERTURE END LIST*
D10*
X111271952Y-131109257D02*
X111629095Y-131109257D01*
X111414809Y-130894971D02*
X111271952Y-131537828D01*
X111581476Y-131323542D02*
X111224333Y-131323542D01*
X111438619Y-131537828D02*
X111581476Y-130894971D01*
X111891000Y-130942590D02*
X111938619Y-130942590D01*
X111986238Y-130966400D01*
X112010047Y-130990209D01*
X112033857Y-131037828D01*
X112057666Y-131133066D01*
X112057666Y-131252114D01*
X112033857Y-131347352D01*
X112010047Y-131394971D01*
X111986238Y-131418780D01*
X111938619Y-131442590D01*
X111891000Y-131442590D01*
X111843380Y-131418780D01*
X111819571Y-131394971D01*
X111795761Y-131347352D01*
X111771952Y-131252114D01*
X111771952Y-131133066D01*
X111795761Y-131037828D01*
X111819571Y-130990209D01*
X111843380Y-130966400D01*
X111891000Y-130942590D01*
X112367190Y-130942590D02*
X112414809Y-130942590D01*
X112462428Y-130966400D01*
X112486238Y-130990209D01*
X112510047Y-131037828D01*
X112533857Y-131133066D01*
X112533857Y-131252114D01*
X112510047Y-131347352D01*
X112486238Y-131394971D01*
X112462428Y-131418780D01*
X112414809Y-131442590D01*
X112367190Y-131442590D01*
X112319571Y-131418780D01*
X112295761Y-131394971D01*
X112271952Y-131347352D01*
X112248142Y-131252114D01*
X112248142Y-131133066D01*
X112271952Y-131037828D01*
X112295761Y-130990209D01*
X112319571Y-130966400D01*
X112367190Y-130942590D01*
X112724333Y-130990209D02*
X112748142Y-130966400D01*
X112795761Y-130942590D01*
X112914809Y-130942590D01*
X112962428Y-130966400D01*
X112986238Y-130990209D01*
X113010047Y-131037828D01*
X113010047Y-131085447D01*
X112986238Y-131156876D01*
X112700523Y-131442590D01*
X113010047Y-131442590D01*
X120695257Y-46970047D02*
X120695257Y-46612904D01*
X120480971Y-46827190D02*
X121123828Y-46970047D01*
X120909542Y-46660523D02*
X120909542Y-47017666D01*
X121123828Y-46803380D02*
X120480971Y-46660523D01*
X120528590Y-46351000D02*
X120528590Y-46303380D01*
X120552400Y-46255761D01*
X120576209Y-46231952D01*
X120623828Y-46208142D01*
X120719066Y-46184333D01*
X120838114Y-46184333D01*
X120933352Y-46208142D01*
X120980971Y-46231952D01*
X121004780Y-46255761D01*
X121028590Y-46303380D01*
X121028590Y-46351000D01*
X121004780Y-46398619D01*
X120980971Y-46422428D01*
X120933352Y-46446238D01*
X120838114Y-46470047D01*
X120719066Y-46470047D01*
X120623828Y-46446238D01*
X120576209Y-46422428D01*
X120552400Y-46398619D01*
X120528590Y-46351000D01*
X120528590Y-45874809D02*
X120528590Y-45827190D01*
X120552400Y-45779571D01*
X120576209Y-45755761D01*
X120623828Y-45731952D01*
X120719066Y-45708142D01*
X120838114Y-45708142D01*
X120933352Y-45731952D01*
X120980971Y-45755761D01*
X121004780Y-45779571D01*
X121028590Y-45827190D01*
X121028590Y-45874809D01*
X121004780Y-45922428D01*
X120980971Y-45946238D01*
X120933352Y-45970047D01*
X120838114Y-45993857D01*
X120719066Y-45993857D01*
X120623828Y-45970047D01*
X120576209Y-45946238D01*
X120552400Y-45922428D01*
X120528590Y-45874809D01*
X120576209Y-45517666D02*
X120552400Y-45493857D01*
X120528590Y-45446238D01*
X120528590Y-45327190D01*
X120552400Y-45279571D01*
X120576209Y-45255761D01*
X120623828Y-45231952D01*
X120671447Y-45231952D01*
X120742876Y-45255761D01*
X121028590Y-45541476D01*
X121028590Y-45231952D01*
X27132742Y-121431952D02*
X27132742Y-121789095D01*
X27347028Y-121574809D02*
X26704171Y-121431952D01*
X26918457Y-121741476D02*
X26918457Y-121384333D01*
X26704171Y-121598619D02*
X27347028Y-121741476D01*
X27299409Y-122051000D02*
X27299409Y-122098619D01*
X27275600Y-122146238D01*
X27251790Y-122170047D01*
X27204171Y-122193857D01*
X27108933Y-122217666D01*
X26989885Y-122217666D01*
X26894647Y-122193857D01*
X26847028Y-122170047D01*
X26823219Y-122146238D01*
X26799409Y-122098619D01*
X26799409Y-122051000D01*
X26823219Y-122003380D01*
X26847028Y-121979571D01*
X26894647Y-121955761D01*
X26989885Y-121931952D01*
X27108933Y-121931952D01*
X27204171Y-121955761D01*
X27251790Y-121979571D01*
X27275600Y-122003380D01*
X27299409Y-122051000D01*
X27299409Y-122527190D02*
X27299409Y-122574809D01*
X27275600Y-122622428D01*
X27251790Y-122646238D01*
X27204171Y-122670047D01*
X27108933Y-122693857D01*
X26989885Y-122693857D01*
X26894647Y-122670047D01*
X26847028Y-122646238D01*
X26823219Y-122622428D01*
X26799409Y-122574809D01*
X26799409Y-122527190D01*
X26823219Y-122479571D01*
X26847028Y-122455761D01*
X26894647Y-122431952D01*
X26989885Y-122408142D01*
X27108933Y-122408142D01*
X27204171Y-122431952D01*
X27251790Y-122455761D01*
X27275600Y-122479571D01*
X27299409Y-122527190D01*
X27251790Y-122884333D02*
X27275600Y-122908142D01*
X27299409Y-122955761D01*
X27299409Y-123074809D01*
X27275600Y-123122428D01*
X27251790Y-123146238D01*
X27204171Y-123170047D01*
X27156552Y-123170047D01*
X27085123Y-123146238D01*
X26799409Y-122860523D01*
X26799409Y-123170047D01*
X51073952Y-89199257D02*
X51431095Y-89199257D01*
X51216809Y-88984971D02*
X51073952Y-89627828D01*
X51383476Y-89413542D02*
X51026333Y-89413542D01*
X51240619Y-89627828D02*
X51383476Y-88984971D01*
X51693000Y-89032590D02*
X51740619Y-89032590D01*
X51788238Y-89056400D01*
X51812047Y-89080209D01*
X51835857Y-89127828D01*
X51859666Y-89223066D01*
X51859666Y-89342114D01*
X51835857Y-89437352D01*
X51812047Y-89484971D01*
X51788238Y-89508780D01*
X51740619Y-89532590D01*
X51693000Y-89532590D01*
X51645380Y-89508780D01*
X51621571Y-89484971D01*
X51597761Y-89437352D01*
X51573952Y-89342114D01*
X51573952Y-89223066D01*
X51597761Y-89127828D01*
X51621571Y-89080209D01*
X51645380Y-89056400D01*
X51693000Y-89032590D01*
X52169190Y-89032590D02*
X52216809Y-89032590D01*
X52264428Y-89056400D01*
X52288238Y-89080209D01*
X52312047Y-89127828D01*
X52335857Y-89223066D01*
X52335857Y-89342114D01*
X52312047Y-89437352D01*
X52288238Y-89484971D01*
X52264428Y-89508780D01*
X52216809Y-89532590D01*
X52169190Y-89532590D01*
X52121571Y-89508780D01*
X52097761Y-89484971D01*
X52073952Y-89437352D01*
X52050142Y-89342114D01*
X52050142Y-89223066D01*
X52073952Y-89127828D01*
X52097761Y-89080209D01*
X52121571Y-89056400D01*
X52169190Y-89032590D01*
X52526333Y-89080209D02*
X52550142Y-89056400D01*
X52597761Y-89032590D01*
X52716809Y-89032590D01*
X52764428Y-89056400D01*
X52788238Y-89080209D01*
X52812047Y-89127828D01*
X52812047Y-89175447D01*
X52788238Y-89246876D01*
X52502523Y-89532590D01*
X52812047Y-89532590D01*
D11*
G36*
X107821534Y-91664078D02*
G01*
X108362577Y-92257647D01*
X108972933Y-93098865D01*
X109522930Y-93999390D01*
X109882899Y-94770878D01*
X109953777Y-95100344D01*
X109669935Y-95507671D01*
X109424611Y-95560444D01*
X109017321Y-95599897D01*
X108949190Y-95837150D01*
X109217657Y-96450549D01*
X109406556Y-96817742D01*
X109748609Y-97728822D01*
X109557484Y-98221820D01*
X108794722Y-98381711D01*
X108698235Y-98382666D01*
X108004525Y-98570413D01*
X107837111Y-98911833D01*
X108141296Y-99338900D01*
X108674958Y-99441000D01*
X109668449Y-99512778D01*
X110541555Y-99646750D01*
X111135208Y-99720584D01*
X111516432Y-99547089D01*
X111823003Y-98981239D01*
X112178209Y-97924008D01*
X112811267Y-96204195D01*
X113490641Y-95078410D01*
X114328074Y-94438167D01*
X115435307Y-94174977D01*
X116064799Y-94150652D01*
X117923847Y-94372818D01*
X119378320Y-95061686D01*
X120454083Y-96255288D01*
X121176999Y-97991661D01*
X121572934Y-100308840D01*
X121670401Y-102393781D01*
X121567435Y-103958436D01*
X121273134Y-105835209D01*
X120844987Y-107759940D01*
X120340487Y-109468469D01*
X119894531Y-110553500D01*
X119495022Y-111491074D01*
X119294196Y-112268778D01*
X119293747Y-112273884D01*
X118910248Y-113108631D01*
X118059984Y-113807614D01*
X116970500Y-114277366D01*
X115869342Y-114424425D01*
X114984054Y-114155326D01*
X114892936Y-114081522D01*
X114435215Y-113767939D01*
X114124799Y-113985314D01*
X113899629Y-114431626D01*
X113486946Y-115081499D01*
X113136341Y-115316000D01*
X112836326Y-115200256D01*
X112854460Y-114773800D01*
X113211943Y-113917794D01*
X113483011Y-113372866D01*
X113978764Y-111998248D01*
X113977407Y-111897023D01*
X115306692Y-111897023D01*
X115342150Y-112903425D01*
X115828108Y-113450115D01*
X116640502Y-113486879D01*
X117655271Y-112963504D01*
X117752559Y-112886989D01*
X118291859Y-112359323D01*
X118302123Y-111940169D01*
X118086272Y-111634252D01*
X117405624Y-111220747D01*
X116528753Y-111140279D01*
X115737064Y-111366244D01*
X115311960Y-111872040D01*
X115306692Y-111897023D01*
X113977407Y-111897023D01*
X113962323Y-110772357D01*
X113922376Y-110192572D01*
X114820179Y-110192572D01*
X115250774Y-110335572D01*
X115833952Y-110366383D01*
X116902235Y-110323580D01*
X117727882Y-110203897D01*
X117862425Y-110162979D01*
X118425015Y-109823989D01*
X118379510Y-109547111D01*
X117823253Y-109407443D01*
X116955049Y-109462928D01*
X115724639Y-109714085D01*
X114995575Y-109971355D01*
X114820179Y-110192572D01*
X113922376Y-110192572D01*
X113896361Y-109814998D01*
X114201294Y-109231850D01*
X114356414Y-109103946D01*
X114779746Y-108493676D01*
X114687091Y-107612254D01*
X114062100Y-106401123D01*
X113302821Y-105330656D01*
X112151507Y-103979768D01*
X111227244Y-103258648D01*
X110490789Y-103143687D01*
X110083193Y-103393727D01*
X109869714Y-103907214D01*
X109690361Y-104896811D01*
X109548844Y-106224137D01*
X109448877Y-107750811D01*
X109394169Y-109338452D01*
X109388434Y-110848677D01*
X109435383Y-112143106D01*
X109538727Y-113083357D01*
X109702179Y-113531048D01*
X109811479Y-113523818D01*
X110240386Y-112923852D01*
X110306555Y-112626971D01*
X110511619Y-112185923D01*
X110659333Y-112141000D01*
X111043105Y-112354908D01*
X110930003Y-112944760D01*
X110363447Y-113832748D01*
X109386855Y-114941065D01*
X108751366Y-115560054D01*
X106490622Y-117666047D01*
X107171482Y-118741391D01*
X107660395Y-119958789D01*
X108020834Y-121865154D01*
X108144437Y-122982246D01*
X108301235Y-124437534D01*
X108472348Y-125639664D01*
X108629692Y-126403752D01*
X108686808Y-126552712D01*
X109161303Y-126792329D01*
X110078523Y-126937615D01*
X110609597Y-126957666D01*
X111693701Y-127042159D01*
X112505171Y-127255819D01*
X112705444Y-127381000D01*
X113050582Y-128108802D01*
X113097829Y-129058460D01*
X112849605Y-129864019D01*
X112687805Y-130048734D01*
X111671849Y-130513547D01*
X110241645Y-130738976D01*
X108633817Y-130735620D01*
X107084992Y-130514076D01*
X105831793Y-130084942D01*
X105305903Y-129718125D01*
X104999961Y-129359396D01*
X104810796Y-128925271D01*
X104724250Y-128271685D01*
X104725909Y-127388912D01*
X105373918Y-127388912D01*
X105596809Y-128319817D01*
X105761334Y-128981783D01*
X105975657Y-129335360D01*
X106443467Y-129532215D01*
X107368451Y-129724015D01*
X107523810Y-129754682D01*
X109824654Y-129909312D01*
X111805861Y-129553389D01*
X112276186Y-129147010D01*
X112411725Y-128505202D01*
X112177433Y-127965160D01*
X111982250Y-127856174D01*
X111446574Y-127775896D01*
X110397419Y-127680361D01*
X109026151Y-127585991D01*
X108457598Y-127553701D01*
X105373918Y-127388912D01*
X104725909Y-127388912D01*
X104726162Y-127254576D01*
X104796841Y-125840537D01*
X105720444Y-125840537D01*
X106025589Y-126399453D01*
X106926428Y-126604154D01*
X107002891Y-126604889D01*
X107591157Y-126468863D01*
X107611907Y-126075722D01*
X107220389Y-125731320D01*
X106569891Y-125555319D01*
X105967754Y-125585934D01*
X105720444Y-125840537D01*
X104796841Y-125840537D01*
X104802373Y-125729881D01*
X104845175Y-125030528D01*
X104940983Y-122633091D01*
X104874262Y-120855542D01*
X104625721Y-119626906D01*
X104176071Y-118876208D01*
X103506020Y-118532474D01*
X103067771Y-118491000D01*
X102085002Y-118388425D01*
X101995649Y-118370139D01*
X105057339Y-118370139D01*
X105234623Y-118919782D01*
X105544055Y-119671308D01*
X105852798Y-120779323D01*
X106043468Y-122174457D01*
X106073222Y-122889391D01*
X106127632Y-124092063D01*
X106308966Y-124704119D01*
X106564645Y-124841000D01*
X107116067Y-124557779D01*
X107247639Y-124341776D01*
X107319076Y-123620277D01*
X107234304Y-122474704D01*
X107033921Y-121158531D01*
X106758528Y-119925234D01*
X106448725Y-119028288D01*
X106374899Y-118893047D01*
X105854674Y-118315117D01*
X105459196Y-118138222D01*
X105135391Y-118167340D01*
X105057339Y-118370139D01*
X101995649Y-118370139D01*
X100808080Y-118127107D01*
X100113825Y-117940384D01*
X98945256Y-117645034D01*
X98143854Y-117658002D01*
X97543844Y-118073949D01*
X96979447Y-118987536D01*
X96504395Y-120001412D01*
X96125105Y-120947428D01*
X95880328Y-121885222D01*
X95742020Y-123010069D01*
X95682138Y-124517245D01*
X95671981Y-125797703D01*
X95645009Y-127799227D01*
X95517853Y-129206127D01*
X95211052Y-130129028D01*
X94645144Y-130678558D01*
X93740667Y-130965342D01*
X92418160Y-131100008D01*
X91840595Y-131131737D01*
X90454854Y-131176225D01*
X89553373Y-131108619D01*
X88918152Y-130884934D01*
X88331190Y-130461186D01*
X88273663Y-130412061D01*
X87609912Y-129697823D01*
X87475897Y-129063525D01*
X88434333Y-129063525D01*
X88710741Y-129802155D01*
X89051694Y-130127705D01*
X89768180Y-130329381D01*
X90872442Y-130393930D01*
X92131526Y-130338479D01*
X93312481Y-130180156D01*
X94182354Y-129936087D01*
X94478050Y-129728747D01*
X94698812Y-128989094D01*
X94698159Y-128545166D01*
X94562869Y-128149767D01*
X94173907Y-127938667D01*
X93362861Y-127859048D01*
X92491277Y-127853011D01*
X90581535Y-127936994D01*
X89307598Y-128171823D01*
X88612532Y-128574487D01*
X88434333Y-129063525D01*
X87475897Y-129063525D01*
X87473034Y-129049977D01*
X87541179Y-128756874D01*
X88051876Y-128083484D01*
X88991532Y-127463462D01*
X90090283Y-127047400D01*
X90765361Y-126957666D01*
X91520459Y-126642123D01*
X91546873Y-126604889D01*
X92844055Y-126604889D01*
X92983313Y-126853492D01*
X93673848Y-126957340D01*
X93726000Y-126957666D01*
X94443098Y-126863728D01*
X94617303Y-126621679D01*
X94607944Y-126604889D01*
X94108898Y-126305450D01*
X93726000Y-126252111D01*
X93059355Y-126418948D01*
X92844055Y-126604889D01*
X91546873Y-126604889D01*
X92087101Y-125843385D01*
X92303958Y-124841000D01*
X92331335Y-124566011D01*
X93395228Y-124566011D01*
X93433478Y-125241003D01*
X93625902Y-125514144D01*
X93813632Y-125546555D01*
X94397121Y-125259937D01*
X94570201Y-124988536D01*
X94720080Y-124255036D01*
X94784294Y-123260514D01*
X94784333Y-123237707D01*
X94948661Y-122070754D01*
X95371607Y-120620458D01*
X95948109Y-119172161D01*
X96573108Y-118011208D01*
X96835998Y-117665387D01*
X97218572Y-117141532D01*
X97062411Y-116772902D01*
X96732487Y-116512857D01*
X96271629Y-116256133D01*
X95903747Y-116384157D01*
X95446136Y-116997690D01*
X95235405Y-117338469D01*
X94446477Y-118881408D01*
X93911357Y-120583410D01*
X93560805Y-122682553D01*
X93489471Y-123341694D01*
X93395228Y-124566011D01*
X92331335Y-124566011D01*
X92451626Y-123357754D01*
X92814877Y-121563361D01*
X93322623Y-119720584D01*
X93903775Y-118092184D01*
X94408036Y-117063634D01*
X94967853Y-116118846D01*
X95184149Y-115545522D01*
X95088264Y-115117388D01*
X94742792Y-114646747D01*
X93913151Y-113088708D01*
X93494192Y-110990723D01*
X93493507Y-108391921D01*
X93503706Y-108260444D01*
X93513355Y-108159264D01*
X94422539Y-108159264D01*
X94441633Y-109534455D01*
X94523339Y-110910785D01*
X94664029Y-112113207D01*
X94860077Y-112966674D01*
X94929227Y-113128657D01*
X96041988Y-114631226D01*
X97614201Y-115927287D01*
X98841277Y-116588686D01*
X101277894Y-117389799D01*
X103409754Y-117567187D01*
X105262533Y-117120520D01*
X106333068Y-116492604D01*
X107152666Y-115792686D01*
X107728485Y-115145334D01*
X107794948Y-115037077D01*
X107998922Y-114356067D01*
X108215820Y-113157369D01*
X108426056Y-111628104D01*
X108610042Y-109955388D01*
X108748191Y-108326341D01*
X108820914Y-106928081D01*
X108808625Y-105947728D01*
X108772249Y-105700953D01*
X108541454Y-104781394D01*
X105161200Y-106360995D01*
X101780947Y-107940597D01*
X99781945Y-107378078D01*
X98400731Y-106964526D01*
X97064153Y-106524819D01*
X96452888Y-106303279D01*
X95525426Y-105976798D01*
X94870259Y-105800862D01*
X94777194Y-105791000D01*
X94586693Y-106112489D01*
X94469683Y-106960260D01*
X94422539Y-108159264D01*
X93513355Y-108159264D01*
X93637850Y-106853843D01*
X93790346Y-105636397D01*
X93929819Y-104855928D01*
X93939175Y-104820861D01*
X93995450Y-104233579D01*
X93582469Y-104038301D01*
X93265045Y-104027111D01*
X92195276Y-104329460D01*
X91140387Y-105100078D01*
X90327381Y-106134317D01*
X90013119Y-106958793D01*
X89949974Y-107956915D01*
X90017898Y-109274381D01*
X90116068Y-110061265D01*
X90272339Y-111685237D01*
X90106916Y-112770416D01*
X89581798Y-113424019D01*
X88818697Y-113721562D01*
X87591759Y-113864922D01*
X86824505Y-113575016D01*
X86397078Y-112758083D01*
X86295933Y-112141000D01*
X87023222Y-112141000D01*
X87161340Y-112627283D01*
X87700537Y-112823492D01*
X88257944Y-112846555D01*
X89091273Y-112782463D01*
X89432700Y-112486142D01*
X89492666Y-111926867D01*
X89387787Y-111276185D01*
X89013214Y-111194097D01*
X88934647Y-111221312D01*
X88090954Y-111409316D01*
X87699925Y-111435444D01*
X87131119Y-111698689D01*
X87023222Y-112141000D01*
X86295933Y-112141000D01*
X86222043Y-111690200D01*
X86182043Y-110308470D01*
X86236843Y-110103969D01*
X87169906Y-110103969D01*
X87326436Y-110427846D01*
X87461996Y-110495518D01*
X88185315Y-110691701D01*
X88881687Y-110535879D01*
X88932621Y-110516534D01*
X89322620Y-110193562D01*
X89133436Y-109868209D01*
X88476912Y-109680546D01*
X88257944Y-109671555D01*
X87526914Y-109803730D01*
X87169906Y-110103969D01*
X86236843Y-110103969D01*
X86409652Y-109459088D01*
X86530881Y-109290999D01*
X86891229Y-108540891D01*
X87023222Y-107665019D01*
X87182274Y-106771697D01*
X87593647Y-105567959D01*
X88018256Y-104623316D01*
X89013290Y-102650648D01*
X88117578Y-102545129D01*
X87225949Y-102133064D01*
X86706914Y-101517884D01*
X86393932Y-100778792D01*
X86440946Y-100076791D01*
X86685850Y-99403806D01*
X87824555Y-97522566D01*
X89483873Y-95955964D01*
X91496602Y-94861412D01*
X91520212Y-94852535D01*
X93221262Y-94284260D01*
X94991954Y-93807864D01*
X96704498Y-93443555D01*
X98231105Y-93211541D01*
X99443986Y-93132030D01*
X100215350Y-93225230D01*
X100428777Y-93443777D01*
X100119383Y-93679984D01*
X99361712Y-93794525D01*
X99233519Y-93796555D01*
X98233887Y-93911583D01*
X96782826Y-94217738D01*
X95088869Y-94656628D01*
X93360550Y-95169861D01*
X91806401Y-95699045D01*
X90634956Y-96185789D01*
X90551000Y-96227777D01*
X89511619Y-96957580D01*
X88605226Y-97944819D01*
X87902503Y-99045908D01*
X87474134Y-100117260D01*
X87390802Y-101015290D01*
X87723192Y-101596411D01*
X87870912Y-101672095D01*
X88477355Y-101684582D01*
X89469237Y-101504296D01*
X90075773Y-101338875D01*
X91410998Y-100943305D01*
X93039143Y-100480391D01*
X94820433Y-99987531D01*
X96615098Y-99502119D01*
X98283363Y-99061553D01*
X99685456Y-98703229D01*
X100681604Y-98464543D01*
X101124926Y-98382666D01*
X101428191Y-98631115D01*
X101408440Y-98795067D01*
X101026045Y-99065742D01*
X100123173Y-99434467D01*
X98866013Y-99837131D01*
X98304697Y-99992407D01*
X96954218Y-100388168D01*
X95892956Y-100771508D01*
X95286476Y-101079591D01*
X95208368Y-101167506D01*
X94803063Y-101437175D01*
X93998794Y-101557273D01*
X93947740Y-101557666D01*
X92223282Y-101881682D01*
X90608255Y-102758321D01*
X89329405Y-104044475D01*
X88917210Y-104732666D01*
X88349543Y-106104758D01*
X88006841Y-107352466D01*
X87911155Y-108329266D01*
X88084534Y-108888637D01*
X88280123Y-108966000D01*
X88735564Y-108720115D01*
X88789078Y-108525027D01*
X89097730Y-106839557D01*
X89918381Y-105293130D01*
X91115806Y-104055497D01*
X92554778Y-103296407D01*
X93045375Y-103182099D01*
X93918406Y-102964158D01*
X94399137Y-102691901D01*
X94431555Y-102611831D01*
X94705174Y-102279728D01*
X94824373Y-102263222D01*
X95068471Y-102571661D01*
X95055538Y-103364634D01*
X94893885Y-104466047D01*
X100924526Y-104294636D01*
X102953842Y-104223294D01*
X104765551Y-104133967D01*
X106229575Y-104035085D01*
X107215839Y-103935077D01*
X107563801Y-103864385D01*
X107949621Y-103616847D01*
X107938810Y-103211441D01*
X107825193Y-102968777D01*
X108895444Y-102968777D01*
X109024520Y-103259153D01*
X109130629Y-103203963D01*
X109172850Y-102785298D01*
X109130629Y-102733592D01*
X108920903Y-102782018D01*
X108895444Y-102968777D01*
X107825193Y-102968777D01*
X107653289Y-102601626D01*
X107431917Y-101913549D01*
X107465051Y-101398585D01*
X107690894Y-101238623D01*
X108009943Y-101551912D01*
X108470122Y-101771577D01*
X109363585Y-101898213D01*
X109768609Y-101910444D01*
X110561921Y-101948653D01*
X111187956Y-102135081D01*
X111819787Y-102577433D01*
X112630489Y-103383413D01*
X113287146Y-104100024D01*
X114236650Y-105229041D01*
X114991852Y-106275344D01*
X115420942Y-107051927D01*
X115462877Y-107186829D01*
X115712692Y-108209939D01*
X115958016Y-108691890D01*
X116316327Y-108786459D01*
X116634975Y-108721082D01*
X117133106Y-108571515D01*
X117309051Y-108339953D01*
X117184040Y-107829379D01*
X116825460Y-106953397D01*
X115967628Y-105415164D01*
X114704175Y-103772781D01*
X113240901Y-102274200D01*
X112316639Y-101521013D01*
X111224124Y-100857268D01*
X110134110Y-100557266D01*
X109007831Y-100499333D01*
X107705924Y-100407151D01*
X107410810Y-100267450D01*
X112246833Y-100267450D01*
X114385201Y-102315737D01*
X115739188Y-103763538D01*
X116866698Y-105257665D01*
X117669678Y-106646534D01*
X118050076Y-107778563D01*
X118067666Y-108008634D01*
X118359915Y-108504094D01*
X118996274Y-108786370D01*
X119528201Y-108730686D01*
X119715984Y-108358078D01*
X120002245Y-107478066D01*
X120329061Y-106271247D01*
X120369824Y-106106636D01*
X120810105Y-103390275D01*
X120794780Y-101070243D01*
X120490908Y-98838223D01*
X119939031Y-97198794D01*
X119098933Y-96070282D01*
X118002355Y-95399084D01*
X116503475Y-94928735D01*
X115353570Y-94924254D01*
X114448149Y-95445039D01*
X113682724Y-96550485D01*
X112966530Y-98261646D01*
X112246833Y-100267450D01*
X107410810Y-100267450D01*
X106997985Y-100072028D01*
X106789680Y-99406101D01*
X106923841Y-98558266D01*
X107320260Y-97855489D01*
X108014513Y-97677111D01*
X108884029Y-97677111D01*
X108279267Y-96408911D01*
X107916268Y-95570056D01*
X107881922Y-95108189D01*
X108171679Y-94778380D01*
X108247914Y-94721425D01*
X108624702Y-94330815D01*
X108492582Y-93876364D01*
X108303367Y-93608374D01*
X107568621Y-92517676D01*
X107316207Y-91835710D01*
X107479475Y-91506502D01*
X107821534Y-91664078D01*
G37*
X107821534Y-91664078D02*
X108362577Y-92257647D01*
X108972933Y-93098865D01*
X109522930Y-93999390D01*
X109882899Y-94770878D01*
X109953777Y-95100344D01*
X109669935Y-95507671D01*
X109424611Y-95560444D01*
X109017321Y-95599897D01*
X108949190Y-95837150D01*
X109217657Y-96450549D01*
X109406556Y-96817742D01*
X109748609Y-97728822D01*
X109557484Y-98221820D01*
X108794722Y-98381711D01*
X108698235Y-98382666D01*
X108004525Y-98570413D01*
X107837111Y-98911833D01*
X108141296Y-99338900D01*
X108674958Y-99441000D01*
X109668449Y-99512778D01*
X110541555Y-99646750D01*
X111135208Y-99720584D01*
X111516432Y-99547089D01*
X111823003Y-98981239D01*
X112178209Y-97924008D01*
X112811267Y-96204195D01*
X113490641Y-95078410D01*
X114328074Y-94438167D01*
X115435307Y-94174977D01*
X116064799Y-94150652D01*
X117923847Y-94372818D01*
X119378320Y-95061686D01*
X120454083Y-96255288D01*
X121176999Y-97991661D01*
X121572934Y-100308840D01*
X121670401Y-102393781D01*
X121567435Y-103958436D01*
X121273134Y-105835209D01*
X120844987Y-107759940D01*
X120340487Y-109468469D01*
X119894531Y-110553500D01*
X119495022Y-111491074D01*
X119294196Y-112268778D01*
X119293747Y-112273884D01*
X118910248Y-113108631D01*
X118059984Y-113807614D01*
X116970500Y-114277366D01*
X115869342Y-114424425D01*
X114984054Y-114155326D01*
X114892936Y-114081522D01*
X114435215Y-113767939D01*
X114124799Y-113985314D01*
X113899629Y-114431626D01*
X113486946Y-115081499D01*
X113136341Y-115316000D01*
X112836326Y-115200256D01*
X112854460Y-114773800D01*
X113211943Y-113917794D01*
X113483011Y-113372866D01*
X113978764Y-111998248D01*
X113977407Y-111897023D01*
X115306692Y-111897023D01*
X115342150Y-112903425D01*
X115828108Y-113450115D01*
X116640502Y-113486879D01*
X117655271Y-112963504D01*
X117752559Y-112886989D01*
X118291859Y-112359323D01*
X118302123Y-111940169D01*
X118086272Y-111634252D01*
X117405624Y-111220747D01*
X116528753Y-111140279D01*
X115737064Y-111366244D01*
X115311960Y-111872040D01*
X115306692Y-111897023D01*
X113977407Y-111897023D01*
X113962323Y-110772357D01*
X113922376Y-110192572D01*
X114820179Y-110192572D01*
X115250774Y-110335572D01*
X115833952Y-110366383D01*
X116902235Y-110323580D01*
X117727882Y-110203897D01*
X117862425Y-110162979D01*
X118425015Y-109823989D01*
X118379510Y-109547111D01*
X117823253Y-109407443D01*
X116955049Y-109462928D01*
X115724639Y-109714085D01*
X114995575Y-109971355D01*
X114820179Y-110192572D01*
X113922376Y-110192572D01*
X113896361Y-109814998D01*
X114201294Y-109231850D01*
X114356414Y-109103946D01*
X114779746Y-108493676D01*
X114687091Y-107612254D01*
X114062100Y-106401123D01*
X113302821Y-105330656D01*
X112151507Y-103979768D01*
X111227244Y-103258648D01*
X110490789Y-103143687D01*
X110083193Y-103393727D01*
X109869714Y-103907214D01*
X109690361Y-104896811D01*
X109548844Y-106224137D01*
X109448877Y-107750811D01*
X109394169Y-109338452D01*
X109388434Y-110848677D01*
X109435383Y-112143106D01*
X109538727Y-113083357D01*
X109702179Y-113531048D01*
X109811479Y-113523818D01*
X110240386Y-112923852D01*
X110306555Y-112626971D01*
X110511619Y-112185923D01*
X110659333Y-112141000D01*
X111043105Y-112354908D01*
X110930003Y-112944760D01*
X110363447Y-113832748D01*
X109386855Y-114941065D01*
X108751366Y-115560054D01*
X106490622Y-117666047D01*
X107171482Y-118741391D01*
X107660395Y-119958789D01*
X108020834Y-121865154D01*
X108144437Y-122982246D01*
X108301235Y-124437534D01*
X108472348Y-125639664D01*
X108629692Y-126403752D01*
X108686808Y-126552712D01*
X109161303Y-126792329D01*
X110078523Y-126937615D01*
X110609597Y-126957666D01*
X111693701Y-127042159D01*
X112505171Y-127255819D01*
X112705444Y-127381000D01*
X113050582Y-128108802D01*
X113097829Y-129058460D01*
X112849605Y-129864019D01*
X112687805Y-130048734D01*
X111671849Y-130513547D01*
X110241645Y-130738976D01*
X108633817Y-130735620D01*
X107084992Y-130514076D01*
X105831793Y-130084942D01*
X105305903Y-129718125D01*
X104999961Y-129359396D01*
X104810796Y-128925271D01*
X104724250Y-128271685D01*
X104725909Y-127388912D01*
X105373918Y-127388912D01*
X105596809Y-128319817D01*
X105761334Y-128981783D01*
X105975657Y-129335360D01*
X106443467Y-129532215D01*
X107368451Y-129724015D01*
X107523810Y-129754682D01*
X109824654Y-129909312D01*
X111805861Y-129553389D01*
X112276186Y-129147010D01*
X112411725Y-128505202D01*
X112177433Y-127965160D01*
X111982250Y-127856174D01*
X111446574Y-127775896D01*
X110397419Y-127680361D01*
X109026151Y-127585991D01*
X108457598Y-127553701D01*
X105373918Y-127388912D01*
X104725909Y-127388912D01*
X104726162Y-127254576D01*
X104796841Y-125840537D01*
X105720444Y-125840537D01*
X106025589Y-126399453D01*
X106926428Y-126604154D01*
X107002891Y-126604889D01*
X107591157Y-126468863D01*
X107611907Y-126075722D01*
X107220389Y-125731320D01*
X106569891Y-125555319D01*
X105967754Y-125585934D01*
X105720444Y-125840537D01*
X104796841Y-125840537D01*
X104802373Y-125729881D01*
X104845175Y-125030528D01*
X104940983Y-122633091D01*
X104874262Y-120855542D01*
X104625721Y-119626906D01*
X104176071Y-118876208D01*
X103506020Y-118532474D01*
X103067771Y-118491000D01*
X102085002Y-118388425D01*
X101995649Y-118370139D01*
X105057339Y-118370139D01*
X105234623Y-118919782D01*
X105544055Y-119671308D01*
X105852798Y-120779323D01*
X106043468Y-122174457D01*
X106073222Y-122889391D01*
X106127632Y-124092063D01*
X106308966Y-124704119D01*
X106564645Y-124841000D01*
X107116067Y-124557779D01*
X107247639Y-124341776D01*
X107319076Y-123620277D01*
X107234304Y-122474704D01*
X107033921Y-121158531D01*
X106758528Y-119925234D01*
X106448725Y-119028288D01*
X106374899Y-118893047D01*
X105854674Y-118315117D01*
X105459196Y-118138222D01*
X105135391Y-118167340D01*
X105057339Y-118370139D01*
X101995649Y-118370139D01*
X100808080Y-118127107D01*
X100113825Y-117940384D01*
X98945256Y-117645034D01*
X98143854Y-117658002D01*
X97543844Y-118073949D01*
X96979447Y-118987536D01*
X96504395Y-120001412D01*
X96125105Y-120947428D01*
X95880328Y-121885222D01*
X95742020Y-123010069D01*
X95682138Y-124517245D01*
X95671981Y-125797703D01*
X95645009Y-127799227D01*
X95517853Y-129206127D01*
X95211052Y-130129028D01*
X94645144Y-130678558D01*
X93740667Y-130965342D01*
X92418160Y-131100008D01*
X91840595Y-131131737D01*
X90454854Y-131176225D01*
X89553373Y-131108619D01*
X88918152Y-130884934D01*
X88331190Y-130461186D01*
X88273663Y-130412061D01*
X87609912Y-129697823D01*
X87475897Y-129063525D01*
X88434333Y-129063525D01*
X88710741Y-129802155D01*
X89051694Y-130127705D01*
X89768180Y-130329381D01*
X90872442Y-130393930D01*
X92131526Y-130338479D01*
X93312481Y-130180156D01*
X94182354Y-129936087D01*
X94478050Y-129728747D01*
X94698812Y-128989094D01*
X94698159Y-128545166D01*
X94562869Y-128149767D01*
X94173907Y-127938667D01*
X93362861Y-127859048D01*
X92491277Y-127853011D01*
X90581535Y-127936994D01*
X89307598Y-128171823D01*
X88612532Y-128574487D01*
X88434333Y-129063525D01*
X87475897Y-129063525D01*
X87473034Y-129049977D01*
X87541179Y-128756874D01*
X88051876Y-128083484D01*
X88991532Y-127463462D01*
X90090283Y-127047400D01*
X90765361Y-126957666D01*
X91520459Y-126642123D01*
X91546873Y-126604889D01*
X92844055Y-126604889D01*
X92983313Y-126853492D01*
X93673848Y-126957340D01*
X93726000Y-126957666D01*
X94443098Y-126863728D01*
X94617303Y-126621679D01*
X94607944Y-126604889D01*
X94108898Y-126305450D01*
X93726000Y-126252111D01*
X93059355Y-126418948D01*
X92844055Y-126604889D01*
X91546873Y-126604889D01*
X92087101Y-125843385D01*
X92303958Y-124841000D01*
X92331335Y-124566011D01*
X93395228Y-124566011D01*
X93433478Y-125241003D01*
X93625902Y-125514144D01*
X93813632Y-125546555D01*
X94397121Y-125259937D01*
X94570201Y-124988536D01*
X94720080Y-124255036D01*
X94784294Y-123260514D01*
X94784333Y-123237707D01*
X94948661Y-122070754D01*
X95371607Y-120620458D01*
X95948109Y-119172161D01*
X96573108Y-118011208D01*
X96835998Y-117665387D01*
X97218572Y-117141532D01*
X97062411Y-116772902D01*
X96732487Y-116512857D01*
X96271629Y-116256133D01*
X95903747Y-116384157D01*
X95446136Y-116997690D01*
X95235405Y-117338469D01*
X94446477Y-118881408D01*
X93911357Y-120583410D01*
X93560805Y-122682553D01*
X93489471Y-123341694D01*
X93395228Y-124566011D01*
X92331335Y-124566011D01*
X92451626Y-123357754D01*
X92814877Y-121563361D01*
X93322623Y-119720584D01*
X93903775Y-118092184D01*
X94408036Y-117063634D01*
X94967853Y-116118846D01*
X95184149Y-115545522D01*
X95088264Y-115117388D01*
X94742792Y-114646747D01*
X93913151Y-113088708D01*
X93494192Y-110990723D01*
X93493507Y-108391921D01*
X93503706Y-108260444D01*
X93513355Y-108159264D01*
X94422539Y-108159264D01*
X94441633Y-109534455D01*
X94523339Y-110910785D01*
X94664029Y-112113207D01*
X94860077Y-112966674D01*
X94929227Y-113128657D01*
X96041988Y-114631226D01*
X97614201Y-115927287D01*
X98841277Y-116588686D01*
X101277894Y-117389799D01*
X103409754Y-117567187D01*
X105262533Y-117120520D01*
X106333068Y-116492604D01*
X107152666Y-115792686D01*
X107728485Y-115145334D01*
X107794948Y-115037077D01*
X107998922Y-114356067D01*
X108215820Y-113157369D01*
X108426056Y-111628104D01*
X108610042Y-109955388D01*
X108748191Y-108326341D01*
X108820914Y-106928081D01*
X108808625Y-105947728D01*
X108772249Y-105700953D01*
X108541454Y-104781394D01*
X105161200Y-106360995D01*
X101780947Y-107940597D01*
X99781945Y-107378078D01*
X98400731Y-106964526D01*
X97064153Y-106524819D01*
X96452888Y-106303279D01*
X95525426Y-105976798D01*
X94870259Y-105800862D01*
X94777194Y-105791000D01*
X94586693Y-106112489D01*
X94469683Y-106960260D01*
X94422539Y-108159264D01*
X93513355Y-108159264D01*
X93637850Y-106853843D01*
X93790346Y-105636397D01*
X93929819Y-104855928D01*
X93939175Y-104820861D01*
X93995450Y-104233579D01*
X93582469Y-104038301D01*
X93265045Y-104027111D01*
X92195276Y-104329460D01*
X91140387Y-105100078D01*
X90327381Y-106134317D01*
X90013119Y-106958793D01*
X89949974Y-107956915D01*
X90017898Y-109274381D01*
X90116068Y-110061265D01*
X90272339Y-111685237D01*
X90106916Y-112770416D01*
X89581798Y-113424019D01*
X88818697Y-113721562D01*
X87591759Y-113864922D01*
X86824505Y-113575016D01*
X86397078Y-112758083D01*
X86295933Y-112141000D01*
X87023222Y-112141000D01*
X87161340Y-112627283D01*
X87700537Y-112823492D01*
X88257944Y-112846555D01*
X89091273Y-112782463D01*
X89432700Y-112486142D01*
X89492666Y-111926867D01*
X89387787Y-111276185D01*
X89013214Y-111194097D01*
X88934647Y-111221312D01*
X88090954Y-111409316D01*
X87699925Y-111435444D01*
X87131119Y-111698689D01*
X87023222Y-112141000D01*
X86295933Y-112141000D01*
X86222043Y-111690200D01*
X86182043Y-110308470D01*
X86236843Y-110103969D01*
X87169906Y-110103969D01*
X87326436Y-110427846D01*
X87461996Y-110495518D01*
X88185315Y-110691701D01*
X88881687Y-110535879D01*
X88932621Y-110516534D01*
X89322620Y-110193562D01*
X89133436Y-109868209D01*
X88476912Y-109680546D01*
X88257944Y-109671555D01*
X87526914Y-109803730D01*
X87169906Y-110103969D01*
X86236843Y-110103969D01*
X86409652Y-109459088D01*
X86530881Y-109290999D01*
X86891229Y-108540891D01*
X87023222Y-107665019D01*
X87182274Y-106771697D01*
X87593647Y-105567959D01*
X88018256Y-104623316D01*
X89013290Y-102650648D01*
X88117578Y-102545129D01*
X87225949Y-102133064D01*
X86706914Y-101517884D01*
X86393932Y-100778792D01*
X86440946Y-100076791D01*
X86685850Y-99403806D01*
X87824555Y-97522566D01*
X89483873Y-95955964D01*
X91496602Y-94861412D01*
X91520212Y-94852535D01*
X93221262Y-94284260D01*
X94991954Y-93807864D01*
X96704498Y-93443555D01*
X98231105Y-93211541D01*
X99443986Y-93132030D01*
X100215350Y-93225230D01*
X100428777Y-93443777D01*
X100119383Y-93679984D01*
X99361712Y-93794525D01*
X99233519Y-93796555D01*
X98233887Y-93911583D01*
X96782826Y-94217738D01*
X95088869Y-94656628D01*
X93360550Y-95169861D01*
X91806401Y-95699045D01*
X90634956Y-96185789D01*
X90551000Y-96227777D01*
X89511619Y-96957580D01*
X88605226Y-97944819D01*
X87902503Y-99045908D01*
X87474134Y-100117260D01*
X87390802Y-101015290D01*
X87723192Y-101596411D01*
X87870912Y-101672095D01*
X88477355Y-101684582D01*
X89469237Y-101504296D01*
X90075773Y-101338875D01*
X91410998Y-100943305D01*
X93039143Y-100480391D01*
X94820433Y-99987531D01*
X96615098Y-99502119D01*
X98283363Y-99061553D01*
X99685456Y-98703229D01*
X100681604Y-98464543D01*
X101124926Y-98382666D01*
X101428191Y-98631115D01*
X101408440Y-98795067D01*
X101026045Y-99065742D01*
X100123173Y-99434467D01*
X98866013Y-99837131D01*
X98304697Y-99992407D01*
X96954218Y-100388168D01*
X95892956Y-100771508D01*
X95286476Y-101079591D01*
X95208368Y-101167506D01*
X94803063Y-101437175D01*
X93998794Y-101557273D01*
X93947740Y-101557666D01*
X92223282Y-101881682D01*
X90608255Y-102758321D01*
X89329405Y-104044475D01*
X88917210Y-104732666D01*
X88349543Y-106104758D01*
X88006841Y-107352466D01*
X87911155Y-108329266D01*
X88084534Y-108888637D01*
X88280123Y-108966000D01*
X88735564Y-108720115D01*
X88789078Y-108525027D01*
X89097730Y-106839557D01*
X89918381Y-105293130D01*
X91115806Y-104055497D01*
X92554778Y-103296407D01*
X93045375Y-103182099D01*
X93918406Y-102964158D01*
X94399137Y-102691901D01*
X94431555Y-102611831D01*
X94705174Y-102279728D01*
X94824373Y-102263222D01*
X95068471Y-102571661D01*
X95055538Y-103364634D01*
X94893885Y-104466047D01*
X100924526Y-104294636D01*
X102953842Y-104223294D01*
X104765551Y-104133967D01*
X106229575Y-104035085D01*
X107215839Y-103935077D01*
X107563801Y-103864385D01*
X107949621Y-103616847D01*
X107938810Y-103211441D01*
X107825193Y-102968777D01*
X108895444Y-102968777D01*
X109024520Y-103259153D01*
X109130629Y-103203963D01*
X109172850Y-102785298D01*
X109130629Y-102733592D01*
X108920903Y-102782018D01*
X108895444Y-102968777D01*
X107825193Y-102968777D01*
X107653289Y-102601626D01*
X107431917Y-101913549D01*
X107465051Y-101398585D01*
X107690894Y-101238623D01*
X108009943Y-101551912D01*
X108470122Y-101771577D01*
X109363585Y-101898213D01*
X109768609Y-101910444D01*
X110561921Y-101948653D01*
X111187956Y-102135081D01*
X111819787Y-102577433D01*
X112630489Y-103383413D01*
X113287146Y-104100024D01*
X114236650Y-105229041D01*
X114991852Y-106275344D01*
X115420942Y-107051927D01*
X115462877Y-107186829D01*
X115712692Y-108209939D01*
X115958016Y-108691890D01*
X116316327Y-108786459D01*
X116634975Y-108721082D01*
X117133106Y-108571515D01*
X117309051Y-108339953D01*
X117184040Y-107829379D01*
X116825460Y-106953397D01*
X115967628Y-105415164D01*
X114704175Y-103772781D01*
X113240901Y-102274200D01*
X112316639Y-101521013D01*
X111224124Y-100857268D01*
X110134110Y-100557266D01*
X109007831Y-100499333D01*
X107705924Y-100407151D01*
X107410810Y-100267450D01*
X112246833Y-100267450D01*
X114385201Y-102315737D01*
X115739188Y-103763538D01*
X116866698Y-105257665D01*
X117669678Y-106646534D01*
X118050076Y-107778563D01*
X118067666Y-108008634D01*
X118359915Y-108504094D01*
X118996274Y-108786370D01*
X119528201Y-108730686D01*
X119715984Y-108358078D01*
X120002245Y-107478066D01*
X120329061Y-106271247D01*
X120369824Y-106106636D01*
X120810105Y-103390275D01*
X120794780Y-101070243D01*
X120490908Y-98838223D01*
X119939031Y-97198794D01*
X119098933Y-96070282D01*
X118002355Y-95399084D01*
X116503475Y-94928735D01*
X115353570Y-94924254D01*
X114448149Y-95445039D01*
X113682724Y-96550485D01*
X112966530Y-98261646D01*
X112246833Y-100267450D01*
X107410810Y-100267450D01*
X106997985Y-100072028D01*
X106789680Y-99406101D01*
X106923841Y-98558266D01*
X107320260Y-97855489D01*
X108014513Y-97677111D01*
X108884029Y-97677111D01*
X108279267Y-96408911D01*
X107916268Y-95570056D01*
X107881922Y-95108189D01*
X108171679Y-94778380D01*
X108247914Y-94721425D01*
X108624702Y-94330815D01*
X108492582Y-93876364D01*
X108303367Y-93608374D01*
X107568621Y-92517676D01*
X107316207Y-91835710D01*
X107479475Y-91506502D01*
X107821534Y-91664078D01*
G36*
X113124091Y-111696828D02*
G01*
X113003619Y-112398893D01*
X112534682Y-113419913D01*
X112242407Y-113911899D01*
X111611726Y-114769556D01*
X111064568Y-115276139D01*
X110719771Y-115339474D01*
X110659333Y-115139795D01*
X110825149Y-114684550D01*
X111239488Y-113889046D01*
X111777684Y-112962442D01*
X112315075Y-112113897D01*
X112726996Y-111552569D01*
X112864194Y-111440527D01*
X113124091Y-111696828D01*
G37*
X113124091Y-111696828D02*
X113003619Y-112398893D01*
X112534682Y-113419913D01*
X112242407Y-113911899D01*
X111611726Y-114769556D01*
X111064568Y-115276139D01*
X110719771Y-115339474D01*
X110659333Y-115139795D01*
X110825149Y-114684550D01*
X111239488Y-113889046D01*
X111777684Y-112962442D01*
X112315075Y-112113897D01*
X112726996Y-111552569D01*
X112864194Y-111440527D01*
X113124091Y-111696828D01*
G36*
X97532780Y-90393601D02*
G01*
X97795058Y-90634941D01*
X98202879Y-91153610D01*
X98174173Y-91545893D01*
X97669980Y-92098606D01*
X97585151Y-92180234D01*
X96368060Y-93016135D01*
X95157405Y-93244671D01*
X94143630Y-92885051D01*
X93495465Y-92228536D01*
X93496899Y-91767714D01*
X94239560Y-91767714D01*
X94576350Y-92271157D01*
X94667072Y-92326833D01*
X95475404Y-92485817D01*
X96357158Y-92274642D01*
X97037940Y-91803019D01*
X97253777Y-91292600D01*
X97099218Y-90824881D01*
X96516654Y-90639227D01*
X96031467Y-90621555D01*
X95083537Y-90797408D01*
X94447428Y-91227963D01*
X94239560Y-91767714D01*
X93496899Y-91767714D01*
X93497594Y-91544641D01*
X94152423Y-90718327D01*
X94189709Y-90683049D01*
X95273117Y-90058884D01*
X96470448Y-89961294D01*
X97532780Y-90393601D01*
G37*
X97532780Y-90393601D02*
X97795058Y-90634941D01*
X98202879Y-91153610D01*
X98174173Y-91545893D01*
X97669980Y-92098606D01*
X97585151Y-92180234D01*
X96368060Y-93016135D01*
X95157405Y-93244671D01*
X94143630Y-92885051D01*
X93495465Y-92228536D01*
X93496899Y-91767714D01*
X94239560Y-91767714D01*
X94576350Y-92271157D01*
X94667072Y-92326833D01*
X95475404Y-92485817D01*
X96357158Y-92274642D01*
X97037940Y-91803019D01*
X97253777Y-91292600D01*
X97099218Y-90824881D01*
X96516654Y-90639227D01*
X96031467Y-90621555D01*
X95083537Y-90797408D01*
X94447428Y-91227963D01*
X94239560Y-91767714D01*
X93496899Y-91767714D01*
X93497594Y-91544641D01*
X94152423Y-90718327D01*
X94189709Y-90683049D01*
X95273117Y-90058884D01*
X96470448Y-89961294D01*
X97532780Y-90393601D01*
G36*
X102963735Y-89398288D02*
G01*
X103415026Y-89599567D01*
X104486227Y-90339373D01*
X104940624Y-91114520D01*
X104853645Y-91823867D01*
X104300715Y-92366275D01*
X103357262Y-92640604D01*
X102098710Y-92545714D01*
X101378963Y-92329743D01*
X100663561Y-91918445D01*
X100477884Y-91288256D01*
X100497018Y-91037606D01*
X100523509Y-90979208D01*
X101192911Y-90979208D01*
X101381325Y-91568608D01*
X101731068Y-91785515D01*
X102947629Y-91988520D01*
X103855009Y-91926200D01*
X104292211Y-91615660D01*
X104309333Y-91511632D01*
X104010363Y-90912919D01*
X103298611Y-90349444D01*
X102451818Y-90001327D01*
X101945429Y-89978590D01*
X101392979Y-90347771D01*
X101192911Y-90979208D01*
X100523509Y-90979208D01*
X100919688Y-90105858D01*
X101507289Y-89610695D01*
X102266596Y-89297567D01*
X102963735Y-89398288D01*
G37*
X102963735Y-89398288D02*
X103415026Y-89599567D01*
X104486227Y-90339373D01*
X104940624Y-91114520D01*
X104853645Y-91823867D01*
X104300715Y-92366275D01*
X103357262Y-92640604D01*
X102098710Y-92545714D01*
X101378963Y-92329743D01*
X100663561Y-91918445D01*
X100477884Y-91288256D01*
X100497018Y-91037606D01*
X100523509Y-90979208D01*
X101192911Y-90979208D01*
X101381325Y-91568608D01*
X101731068Y-91785515D01*
X102947629Y-91988520D01*
X103855009Y-91926200D01*
X104292211Y-91615660D01*
X104309333Y-91511632D01*
X104010363Y-90912919D01*
X103298611Y-90349444D01*
X102451818Y-90001327D01*
X101945429Y-89978590D01*
X101392979Y-90347771D01*
X101192911Y-90979208D01*
X100523509Y-90979208D01*
X100919688Y-90105858D01*
X101507289Y-89610695D01*
X102266596Y-89297567D01*
X102963735Y-89398288D01*
G36*
X97475507Y-80450262D02*
G01*
X97828352Y-80612996D01*
X98032971Y-81034896D01*
X98130544Y-81871824D01*
X98160234Y-83042020D01*
X98213921Y-84563703D01*
X98328893Y-86043100D01*
X98455826Y-87005583D01*
X98582196Y-87968222D01*
X98483445Y-88413660D01*
X98215869Y-88504889D01*
X97867559Y-88169785D01*
X97581356Y-87232440D01*
X97375472Y-85794801D01*
X97268118Y-83958813D01*
X97256844Y-83136099D01*
X97208634Y-82118948D01*
X97039547Y-81676713D01*
X96744189Y-81667024D01*
X96213134Y-82082997D01*
X95469179Y-82912788D01*
X94657533Y-83962295D01*
X93923404Y-85037417D01*
X93412001Y-85944050D01*
X93278490Y-86299676D01*
X93218075Y-87050106D01*
X93507514Y-87226393D01*
X94098379Y-86836785D01*
X94826219Y-86036107D01*
X95509643Y-85284931D01*
X96033239Y-84888187D01*
X96214862Y-84882533D01*
X96379156Y-85358319D01*
X96549554Y-86305147D01*
X96654367Y-87181972D01*
X96722613Y-88472588D01*
X96605568Y-89116801D01*
X96291157Y-89152172D01*
X96077851Y-88975259D01*
X95890467Y-88468965D01*
X95842666Y-87937745D01*
X95691819Y-87135050D01*
X95294524Y-86977794D01*
X94733648Y-87487433D01*
X94638400Y-87625973D01*
X93923049Y-88376261D01*
X93260727Y-88516416D01*
X92740629Y-88140934D01*
X92451950Y-87344309D01*
X92483884Y-86221037D01*
X92659877Y-85529879D01*
X93126902Y-84593923D01*
X93902503Y-83503235D01*
X94851491Y-82400416D01*
X95838676Y-81428069D01*
X96728867Y-80728794D01*
X97386873Y-80445191D01*
X97475507Y-80450262D01*
G37*
X97475507Y-80450262D02*
X97828352Y-80612996D01*
X98032971Y-81034896D01*
X98130544Y-81871824D01*
X98160234Y-83042020D01*
X98213921Y-84563703D01*
X98328893Y-86043100D01*
X98455826Y-87005583D01*
X98582196Y-87968222D01*
X98483445Y-88413660D01*
X98215869Y-88504889D01*
X97867559Y-88169785D01*
X97581356Y-87232440D01*
X97375472Y-85794801D01*
X97268118Y-83958813D01*
X97256844Y-83136099D01*
X97208634Y-82118948D01*
X97039547Y-81676713D01*
X96744189Y-81667024D01*
X96213134Y-82082997D01*
X95469179Y-82912788D01*
X94657533Y-83962295D01*
X93923404Y-85037417D01*
X93412001Y-85944050D01*
X93278490Y-86299676D01*
X93218075Y-87050106D01*
X93507514Y-87226393D01*
X94098379Y-86836785D01*
X94826219Y-86036107D01*
X95509643Y-85284931D01*
X96033239Y-84888187D01*
X96214862Y-84882533D01*
X96379156Y-85358319D01*
X96549554Y-86305147D01*
X96654367Y-87181972D01*
X96722613Y-88472588D01*
X96605568Y-89116801D01*
X96291157Y-89152172D01*
X96077851Y-88975259D01*
X95890467Y-88468965D01*
X95842666Y-87937745D01*
X95691819Y-87135050D01*
X95294524Y-86977794D01*
X94733648Y-87487433D01*
X94638400Y-87625973D01*
X93923049Y-88376261D01*
X93260727Y-88516416D01*
X92740629Y-88140934D01*
X92451950Y-87344309D01*
X92483884Y-86221037D01*
X92659877Y-85529879D01*
X93126902Y-84593923D01*
X93902503Y-83503235D01*
X94851491Y-82400416D01*
X95838676Y-81428069D01*
X96728867Y-80728794D01*
X97386873Y-80445191D01*
X97475507Y-80450262D01*
G36*
X103090748Y-86867378D02*
G01*
X102943836Y-87358388D01*
X102883579Y-87473916D01*
X102397238Y-87975854D01*
X102000520Y-88018490D01*
X101438262Y-88048051D01*
X101289691Y-88186140D01*
X100812557Y-88423554D01*
X100661032Y-88394791D01*
X100029263Y-88418082D01*
X99635027Y-88564971D01*
X99137581Y-88696443D01*
X99017666Y-88578795D01*
X99262591Y-88134029D01*
X99830294Y-87518935D01*
X100470165Y-86974323D01*
X100930230Y-86741000D01*
X101070840Y-87002058D01*
X101006759Y-87270166D01*
X100978895Y-87725452D01*
X101102209Y-87799333D01*
X101552118Y-87558451D01*
X101839888Y-87270166D01*
X102447109Y-86821542D01*
X102777441Y-86741000D01*
X103090748Y-86867378D01*
G37*
X103090748Y-86867378D02*
X102943836Y-87358388D01*
X102883579Y-87473916D01*
X102397238Y-87975854D01*
X102000520Y-88018490D01*
X101438262Y-88048051D01*
X101289691Y-88186140D01*
X100812557Y-88423554D01*
X100661032Y-88394791D01*
X100029263Y-88418082D01*
X99635027Y-88564971D01*
X99137581Y-88696443D01*
X99017666Y-88578795D01*
X99262591Y-88134029D01*
X99830294Y-87518935D01*
X100470165Y-86974323D01*
X100930230Y-86741000D01*
X101070840Y-87002058D01*
X101006759Y-87270166D01*
X100978895Y-87725452D01*
X101102209Y-87799333D01*
X101552118Y-87558451D01*
X101839888Y-87270166D01*
X102447109Y-86821542D01*
X102777441Y-86741000D01*
X103090748Y-86867378D01*
G36*
X109310383Y-81322370D02*
G01*
X109430608Y-81459037D01*
X109378430Y-81935113D01*
X109000803Y-82759158D01*
X108644952Y-83345859D01*
X107936724Y-84594444D01*
X107252687Y-86084465D01*
X106957580Y-86863933D01*
X106502792Y-88027174D01*
X106109949Y-88718654D01*
X105831692Y-88873378D01*
X105720665Y-88426351D01*
X105720444Y-88391343D01*
X105859499Y-87611057D01*
X106212816Y-86459725D01*
X106684625Y-85200090D01*
X107179153Y-84094896D01*
X107479305Y-83566000D01*
X108117266Y-82594965D01*
X108351574Y-82088495D01*
X108177198Y-81928999D01*
X107589112Y-81998885D01*
X107413675Y-82031492D01*
X105700136Y-82523693D01*
X104102614Y-83280914D01*
X102868772Y-84176291D01*
X102549225Y-84523263D01*
X102096567Y-85255402D01*
X102202530Y-85573013D01*
X102850700Y-85470398D01*
X103916149Y-84997725D01*
X104810115Y-84561292D01*
X105414895Y-84302341D01*
X105530001Y-84271555D01*
X105712879Y-84545844D01*
X105678823Y-85149764D01*
X105465415Y-85754897D01*
X105341280Y-85920719D01*
X104988048Y-86481791D01*
X104583555Y-87402360D01*
X104487186Y-87666969D01*
X104165161Y-88475901D01*
X103940885Y-88674776D01*
X103761640Y-88394197D01*
X103709189Y-87596098D01*
X103898832Y-86903196D01*
X104102482Y-86385742D01*
X103986405Y-86169296D01*
X103407852Y-86177567D01*
X102710486Y-86268088D01*
X101651692Y-86317929D01*
X101154805Y-86045515D01*
X101179677Y-85374336D01*
X101663155Y-84272221D01*
X102322586Y-83487854D01*
X103390669Y-82728748D01*
X104708819Y-82052337D01*
X106118451Y-81516058D01*
X107460979Y-81177347D01*
X108577818Y-81093639D01*
X109310383Y-81322370D01*
G37*
X109310383Y-81322370D02*
X109430608Y-81459037D01*
X109378430Y-81935113D01*
X109000803Y-82759158D01*
X108644952Y-83345859D01*
X107936724Y-84594444D01*
X107252687Y-86084465D01*
X106957580Y-86863933D01*
X106502792Y-88027174D01*
X106109949Y-88718654D01*
X105831692Y-88873378D01*
X105720665Y-88426351D01*
X105720444Y-88391343D01*
X105859499Y-87611057D01*
X106212816Y-86459725D01*
X106684625Y-85200090D01*
X107179153Y-84094896D01*
X107479305Y-83566000D01*
X108117266Y-82594965D01*
X108351574Y-82088495D01*
X108177198Y-81928999D01*
X107589112Y-81998885D01*
X107413675Y-82031492D01*
X105700136Y-82523693D01*
X104102614Y-83280914D01*
X102868772Y-84176291D01*
X102549225Y-84523263D01*
X102096567Y-85255402D01*
X102202530Y-85573013D01*
X102850700Y-85470398D01*
X103916149Y-84997725D01*
X104810115Y-84561292D01*
X105414895Y-84302341D01*
X105530001Y-84271555D01*
X105712879Y-84545844D01*
X105678823Y-85149764D01*
X105465415Y-85754897D01*
X105341280Y-85920719D01*
X104988048Y-86481791D01*
X104583555Y-87402360D01*
X104487186Y-87666969D01*
X104165161Y-88475901D01*
X103940885Y-88674776D01*
X103761640Y-88394197D01*
X103709189Y-87596098D01*
X103898832Y-86903196D01*
X104102482Y-86385742D01*
X103986405Y-86169296D01*
X103407852Y-86177567D01*
X102710486Y-86268088D01*
X101651692Y-86317929D01*
X101154805Y-86045515D01*
X101179677Y-85374336D01*
X101663155Y-84272221D01*
X102322586Y-83487854D01*
X103390669Y-82728748D01*
X104708819Y-82052337D01*
X106118451Y-81516058D01*
X107460979Y-81177347D01*
X108577818Y-81093639D01*
X109310383Y-81322370D01*
G36*
X95137111Y-91503500D02*
G01*
X95473655Y-91820508D01*
X95489889Y-91877097D01*
X95216947Y-92028622D01*
X95137111Y-92032666D01*
X94797890Y-91761468D01*
X94784333Y-91659069D01*
X95000458Y-91448377D01*
X95137111Y-91503500D01*
G37*
X95137111Y-91503500D02*
X95473655Y-91820508D01*
X95489889Y-91877097D01*
X95216947Y-92028622D01*
X95137111Y-92032666D01*
X94797890Y-91761468D01*
X94784333Y-91659069D01*
X95000458Y-91448377D01*
X95137111Y-91503500D01*
G36*
X102898222Y-91150722D02*
G01*
X103234766Y-91467730D01*
X103251000Y-91524319D01*
X102978058Y-91675844D01*
X102898222Y-91679888D01*
X102559001Y-91408690D01*
X102545444Y-91306291D01*
X102761569Y-91095599D01*
X102898222Y-91150722D01*
G37*
X102898222Y-91150722D02*
X103234766Y-91467730D01*
X103251000Y-91524319D01*
X102978058Y-91675844D01*
X102898222Y-91679888D01*
X102559001Y-91408690D01*
X102545444Y-91306291D01*
X102761569Y-91095599D01*
X102898222Y-91150722D01*
G36*
X81250078Y-50420466D02*
G01*
X81843647Y-49879423D01*
X82684865Y-49269067D01*
X83585390Y-48719070D01*
X84356878Y-48359101D01*
X84686344Y-48288223D01*
X85093671Y-48572065D01*
X85146444Y-48817389D01*
X85185897Y-49224679D01*
X85423150Y-49292810D01*
X86036549Y-49024343D01*
X86403742Y-48835444D01*
X87314822Y-48493391D01*
X87807820Y-48684516D01*
X87967711Y-49447278D01*
X87968666Y-49543765D01*
X88156413Y-50237475D01*
X88497833Y-50404889D01*
X88924900Y-50100704D01*
X89027000Y-49567042D01*
X89098778Y-48573551D01*
X89232750Y-47700445D01*
X89306584Y-47106792D01*
X89133089Y-46725568D01*
X88567239Y-46418997D01*
X87510008Y-46063791D01*
X85790195Y-45430733D01*
X84664410Y-44751359D01*
X84024167Y-43913926D01*
X83760977Y-42806693D01*
X83736652Y-42177201D01*
X83958818Y-40318153D01*
X84647686Y-38863680D01*
X85841288Y-37787917D01*
X87577661Y-37065001D01*
X89894840Y-36669066D01*
X91979781Y-36571599D01*
X93544436Y-36674565D01*
X95421209Y-36968866D01*
X97345940Y-37397013D01*
X99054469Y-37901513D01*
X100139500Y-38347469D01*
X101077074Y-38746978D01*
X101854778Y-38947804D01*
X101859884Y-38948253D01*
X102694631Y-39331752D01*
X103393614Y-40182016D01*
X103863366Y-41271500D01*
X104010425Y-42372658D01*
X103741326Y-43257946D01*
X103667522Y-43349064D01*
X103353939Y-43806785D01*
X103571314Y-44117201D01*
X104017626Y-44342371D01*
X104667499Y-44755054D01*
X104902000Y-45105659D01*
X104786256Y-45405674D01*
X104359800Y-45387540D01*
X103503794Y-45030057D01*
X102958866Y-44758989D01*
X101584248Y-44263236D01*
X101483023Y-44264593D01*
X101483023Y-42935308D01*
X102489425Y-42899850D01*
X103036115Y-42413892D01*
X103072879Y-41601498D01*
X102549504Y-40586729D01*
X102472989Y-40489441D01*
X101945323Y-39950141D01*
X101526169Y-39939877D01*
X101220252Y-40155728D01*
X100806747Y-40836376D01*
X100726279Y-41713247D01*
X100952244Y-42504936D01*
X101458040Y-42930040D01*
X101483023Y-42935308D01*
X101483023Y-44264593D01*
X100358357Y-44279677D01*
X99778572Y-44319624D01*
X99778572Y-43421821D01*
X99921572Y-42991226D01*
X99952383Y-42408048D01*
X99909580Y-41339765D01*
X99789897Y-40514118D01*
X99748979Y-40379575D01*
X99409989Y-39816985D01*
X99133111Y-39862490D01*
X98993443Y-40418747D01*
X99048928Y-41286951D01*
X99300085Y-42517361D01*
X99557355Y-43246425D01*
X99778572Y-43421821D01*
X99778572Y-44319624D01*
X99400998Y-44345639D01*
X98817850Y-44040706D01*
X98689946Y-43885586D01*
X98079676Y-43462254D01*
X97198254Y-43554909D01*
X95987123Y-44179900D01*
X94916656Y-44939179D01*
X93565768Y-46090493D01*
X92844648Y-47014756D01*
X92729687Y-47751211D01*
X92979727Y-48158807D01*
X93493214Y-48372286D01*
X94482811Y-48551639D01*
X95810137Y-48693156D01*
X97336811Y-48793123D01*
X98924452Y-48847831D01*
X100434677Y-48853566D01*
X101729106Y-48806617D01*
X102669357Y-48703273D01*
X103117048Y-48539821D01*
X103109818Y-48430521D01*
X102509852Y-48001614D01*
X102212971Y-47935445D01*
X101771923Y-47730381D01*
X101727000Y-47582667D01*
X101940908Y-47198895D01*
X102530760Y-47311997D01*
X103418748Y-47878553D01*
X104527065Y-48855145D01*
X105146054Y-49490634D01*
X107252047Y-51751378D01*
X108327391Y-51070518D01*
X109544789Y-50581605D01*
X111451154Y-50221166D01*
X112568246Y-50097563D01*
X114023534Y-49940765D01*
X115225664Y-49769652D01*
X115989752Y-49612308D01*
X116138712Y-49555192D01*
X116378329Y-49080697D01*
X116523615Y-48163477D01*
X116543666Y-47632403D01*
X116628159Y-46548299D01*
X116841819Y-45736829D01*
X116967000Y-45536556D01*
X117694802Y-45191418D01*
X118644460Y-45144171D01*
X119450019Y-45392395D01*
X119634734Y-45554195D01*
X120099547Y-46570151D01*
X120324976Y-48000355D01*
X120321620Y-49608183D01*
X120100076Y-51157008D01*
X119670942Y-52410207D01*
X119304125Y-52936097D01*
X118945396Y-53242039D01*
X118511271Y-53431204D01*
X117857685Y-53517750D01*
X116974912Y-53516091D01*
X116974912Y-52868082D01*
X117905817Y-52645191D01*
X118567783Y-52480666D01*
X118921360Y-52266343D01*
X119118215Y-51798533D01*
X119310015Y-50873549D01*
X119340682Y-50718190D01*
X119495312Y-48417346D01*
X119139389Y-46436139D01*
X118733010Y-45965814D01*
X118091202Y-45830275D01*
X117551160Y-46064567D01*
X117442174Y-46259750D01*
X117361896Y-46795426D01*
X117266361Y-47844581D01*
X117171991Y-49215849D01*
X117139701Y-49784402D01*
X116974912Y-52868082D01*
X116974912Y-53516091D01*
X116840576Y-53515838D01*
X115426537Y-53445159D01*
X115426537Y-52521556D01*
X115985453Y-52216411D01*
X116190154Y-51315572D01*
X116190889Y-51239109D01*
X116054863Y-50650843D01*
X115661722Y-50630093D01*
X115317320Y-51021611D01*
X115141319Y-51672109D01*
X115171934Y-52274246D01*
X115426537Y-52521556D01*
X115426537Y-53445159D01*
X115315881Y-53439627D01*
X114616528Y-53396825D01*
X112219091Y-53301017D01*
X110441542Y-53367738D01*
X109212906Y-53616279D01*
X108462208Y-54065929D01*
X108118474Y-54735980D01*
X108077000Y-55174229D01*
X107974425Y-56156998D01*
X107956139Y-56246351D01*
X107956139Y-53184661D01*
X108505782Y-53007377D01*
X109257308Y-52697945D01*
X110365323Y-52389202D01*
X111760457Y-52198532D01*
X112475391Y-52168778D01*
X113678063Y-52114368D01*
X114290119Y-51933034D01*
X114427000Y-51677355D01*
X114143779Y-51125933D01*
X113927776Y-50994361D01*
X113206277Y-50922924D01*
X112060704Y-51007696D01*
X110744531Y-51208079D01*
X109511234Y-51483472D01*
X108614288Y-51793275D01*
X108479047Y-51867101D01*
X107901117Y-52387326D01*
X107724222Y-52782804D01*
X107753340Y-53106609D01*
X107956139Y-53184661D01*
X107956139Y-56246351D01*
X107713107Y-57433920D01*
X107526384Y-58128175D01*
X107231034Y-59296744D01*
X107244002Y-60098146D01*
X107659949Y-60698156D01*
X108573536Y-61262553D01*
X109587412Y-61737605D01*
X110533428Y-62116895D01*
X111471222Y-62361672D01*
X112596069Y-62499980D01*
X114103245Y-62559862D01*
X115383703Y-62570019D01*
X117385227Y-62596991D01*
X118792127Y-62724147D01*
X119715028Y-63030948D01*
X120264558Y-63596856D01*
X120551342Y-64501333D01*
X120686008Y-65823840D01*
X120717737Y-66401405D01*
X120762225Y-67787146D01*
X120694619Y-68688627D01*
X120470934Y-69323848D01*
X120047186Y-69910810D01*
X119998061Y-69968337D01*
X119283823Y-70632088D01*
X118649525Y-70766103D01*
X118649525Y-69807667D01*
X119388155Y-69531259D01*
X119713705Y-69190306D01*
X119915381Y-68473820D01*
X119979930Y-67369558D01*
X119924479Y-66110474D01*
X119766156Y-64929519D01*
X119522087Y-64059646D01*
X119314747Y-63763950D01*
X118575094Y-63543188D01*
X118131166Y-63543841D01*
X117735767Y-63679131D01*
X117524667Y-64068093D01*
X117445048Y-64879139D01*
X117439011Y-65750723D01*
X117522994Y-67660465D01*
X117757823Y-68934402D01*
X118160487Y-69629468D01*
X118649525Y-69807667D01*
X118649525Y-70766103D01*
X118635977Y-70768966D01*
X118342874Y-70700821D01*
X117669484Y-70190124D01*
X117049462Y-69250468D01*
X116633400Y-68151717D01*
X116543666Y-67476639D01*
X116228123Y-66721541D01*
X116190889Y-66695127D01*
X116190889Y-65397945D01*
X116439492Y-65258687D01*
X116543340Y-64568152D01*
X116543666Y-64516000D01*
X116449728Y-63798902D01*
X116207679Y-63624697D01*
X116190889Y-63634056D01*
X115891450Y-64133102D01*
X115838111Y-64516000D01*
X116004948Y-65182645D01*
X116190889Y-65397945D01*
X116190889Y-66695127D01*
X115429385Y-66154899D01*
X114427000Y-65938042D01*
X114152011Y-65910665D01*
X114152011Y-64846772D01*
X114827003Y-64808522D01*
X115100144Y-64616098D01*
X115132555Y-64428368D01*
X114845937Y-63844879D01*
X114574536Y-63671799D01*
X113841036Y-63521920D01*
X112846514Y-63457706D01*
X112823707Y-63457667D01*
X111656754Y-63293339D01*
X110206458Y-62870393D01*
X108758161Y-62293891D01*
X107597208Y-61668892D01*
X107251387Y-61406002D01*
X106727532Y-61023428D01*
X106358902Y-61179589D01*
X106098857Y-61509513D01*
X105842133Y-61970371D01*
X105970157Y-62338253D01*
X106583690Y-62795864D01*
X106924469Y-63006595D01*
X108467408Y-63795523D01*
X110169410Y-64330643D01*
X112268553Y-64681195D01*
X112927694Y-64752529D01*
X114152011Y-64846772D01*
X114152011Y-65910665D01*
X112943754Y-65790374D01*
X111149361Y-65427123D01*
X109306584Y-64919377D01*
X107678184Y-64338225D01*
X106649634Y-63833964D01*
X105704846Y-63274147D01*
X105131522Y-63057851D01*
X104703388Y-63153736D01*
X104232747Y-63499208D01*
X102674708Y-64328849D01*
X100576723Y-64747808D01*
X97977921Y-64748493D01*
X97846444Y-64738294D01*
X97745264Y-64728645D01*
X97745264Y-63819461D01*
X99120455Y-63800367D01*
X100496785Y-63718661D01*
X101699207Y-63577971D01*
X102552674Y-63381923D01*
X102714657Y-63312773D01*
X104217226Y-62200012D01*
X105513287Y-60627799D01*
X106174686Y-59400723D01*
X106975799Y-56964106D01*
X107153187Y-54832246D01*
X106706520Y-52979467D01*
X106078604Y-51908932D01*
X105378686Y-51089334D01*
X104731334Y-50513515D01*
X104623077Y-50447052D01*
X103942067Y-50243078D01*
X102743369Y-50026180D01*
X101214104Y-49815944D01*
X99541388Y-49631958D01*
X97912341Y-49493809D01*
X96514081Y-49421086D01*
X95533728Y-49433375D01*
X95286953Y-49469751D01*
X94367394Y-49700546D01*
X95946995Y-53080800D01*
X97526597Y-56461053D01*
X96964078Y-58460055D01*
X96550526Y-59841269D01*
X96110819Y-61177847D01*
X95889279Y-61789112D01*
X95562798Y-62716574D01*
X95386862Y-63371741D01*
X95377000Y-63464806D01*
X95698489Y-63655307D01*
X96546260Y-63772317D01*
X97745264Y-63819461D01*
X97745264Y-64728645D01*
X96439843Y-64604150D01*
X95222397Y-64451654D01*
X94441928Y-64312181D01*
X94406861Y-64302825D01*
X93819579Y-64246550D01*
X93624301Y-64659531D01*
X93613111Y-64976955D01*
X93915460Y-66046724D01*
X94686078Y-67101613D01*
X95720317Y-67914619D01*
X96544793Y-68228881D01*
X97542915Y-68292026D01*
X98860381Y-68224102D01*
X99647265Y-68125932D01*
X101271237Y-67969661D01*
X102356416Y-68135084D01*
X103010019Y-68660202D01*
X103307562Y-69423303D01*
X103450922Y-70650241D01*
X103161016Y-71417495D01*
X102344083Y-71844922D01*
X101727000Y-71946067D01*
X101727000Y-71218778D01*
X102213283Y-71080660D01*
X102409492Y-70541463D01*
X102432555Y-69984056D01*
X102368463Y-69150727D01*
X102072142Y-68809300D01*
X101512867Y-68749334D01*
X100862185Y-68854213D01*
X100780097Y-69228786D01*
X100807312Y-69307353D01*
X100995316Y-70151046D01*
X101021444Y-70542075D01*
X101284689Y-71110881D01*
X101727000Y-71218778D01*
X101727000Y-71946067D01*
X101276200Y-72019957D01*
X99894470Y-72059957D01*
X99689969Y-72005157D01*
X99689969Y-71072094D01*
X100013846Y-70915564D01*
X100081518Y-70780004D01*
X100277701Y-70056685D01*
X100121879Y-69360313D01*
X100102534Y-69309379D01*
X99779562Y-68919380D01*
X99454209Y-69108564D01*
X99266546Y-69765088D01*
X99257555Y-69984056D01*
X99389730Y-70715086D01*
X99689969Y-71072094D01*
X99689969Y-72005157D01*
X99045088Y-71832348D01*
X98876999Y-71711119D01*
X98126891Y-71350771D01*
X97251019Y-71218778D01*
X96357697Y-71059726D01*
X95153959Y-70648353D01*
X94209316Y-70223744D01*
X92236648Y-69228710D01*
X92131129Y-70124422D01*
X91719064Y-71016051D01*
X91103884Y-71535086D01*
X90364792Y-71848068D01*
X89662791Y-71801054D01*
X88989806Y-71556150D01*
X87108566Y-70417445D01*
X85541964Y-68758127D01*
X84447412Y-66745398D01*
X84438535Y-66721788D01*
X83870260Y-65020738D01*
X83393864Y-63250046D01*
X83029555Y-61537502D01*
X82797541Y-60010895D01*
X82718030Y-58798014D01*
X82811230Y-58026650D01*
X83029777Y-57813223D01*
X83265984Y-58122617D01*
X83380525Y-58880288D01*
X83382555Y-59008481D01*
X83497583Y-60008113D01*
X83803738Y-61459174D01*
X84242628Y-63153131D01*
X84755861Y-64881450D01*
X85285045Y-66435599D01*
X85771789Y-67607044D01*
X85813777Y-67691000D01*
X86543580Y-68730381D01*
X87530819Y-69636774D01*
X88631908Y-70339497D01*
X89703260Y-70767866D01*
X90601290Y-70851198D01*
X91182411Y-70518808D01*
X91258095Y-70371088D01*
X91270582Y-69764645D01*
X91090296Y-68772763D01*
X90924875Y-68166227D01*
X90529305Y-66831002D01*
X90066391Y-65202857D01*
X89573531Y-63421567D01*
X89088119Y-61626902D01*
X88647553Y-59958637D01*
X88289229Y-58556544D01*
X88050543Y-57560396D01*
X87968666Y-57117074D01*
X88217115Y-56813809D01*
X88381067Y-56833560D01*
X88651742Y-57215955D01*
X89020467Y-58118827D01*
X89423131Y-59375987D01*
X89578407Y-59937303D01*
X89974168Y-61287782D01*
X90357508Y-62349044D01*
X90665591Y-62955524D01*
X90753506Y-63033632D01*
X91023175Y-63438937D01*
X91143273Y-64243206D01*
X91143666Y-64294260D01*
X91467682Y-66018718D01*
X92344321Y-67633745D01*
X93630475Y-68912595D01*
X94318666Y-69324790D01*
X95690758Y-69892457D01*
X96938466Y-70235159D01*
X97915266Y-70330845D01*
X98474637Y-70157466D01*
X98552000Y-69961877D01*
X98306115Y-69506436D01*
X98111027Y-69452922D01*
X96425557Y-69144270D01*
X94879130Y-68323619D01*
X93641497Y-67126194D01*
X92882407Y-65687222D01*
X92768099Y-65196625D01*
X92550158Y-64323594D01*
X92277901Y-63842863D01*
X92197831Y-63810445D01*
X91865728Y-63536826D01*
X91849222Y-63417627D01*
X92157661Y-63173529D01*
X92950634Y-63186462D01*
X94052047Y-63348115D01*
X93880636Y-57317474D01*
X93809294Y-55288158D01*
X93719967Y-53476449D01*
X93621085Y-52012425D01*
X93521077Y-51026161D01*
X93450385Y-50678199D01*
X93202847Y-50292379D01*
X92797441Y-50303190D01*
X92554777Y-50416807D01*
X92554777Y-49346556D01*
X92845153Y-49217480D01*
X92789963Y-49111371D01*
X92371298Y-49069150D01*
X92319592Y-49111371D01*
X92368018Y-49321097D01*
X92554777Y-49346556D01*
X92554777Y-50416807D01*
X92187626Y-50588711D01*
X91499549Y-50810083D01*
X90984585Y-50776949D01*
X90824623Y-50551106D01*
X91137912Y-50232057D01*
X91357577Y-49771878D01*
X91484213Y-48878415D01*
X91496444Y-48473391D01*
X91534653Y-47680079D01*
X91721081Y-47054044D01*
X92163433Y-46422213D01*
X92969413Y-45611511D01*
X93686024Y-44954854D01*
X94815041Y-44005350D01*
X95861344Y-43250148D01*
X96637927Y-42821058D01*
X96772829Y-42779123D01*
X97795939Y-42529308D01*
X98277890Y-42283984D01*
X98372459Y-41925673D01*
X98307082Y-41607025D01*
X98157515Y-41108894D01*
X97925953Y-40932949D01*
X97415379Y-41057960D01*
X96539397Y-41416540D01*
X95001164Y-42274372D01*
X93358781Y-43537825D01*
X91860200Y-45001099D01*
X91107013Y-45925361D01*
X90443268Y-47017876D01*
X90143266Y-48107890D01*
X90085333Y-49234169D01*
X89993151Y-50536076D01*
X89853450Y-50831190D01*
X89853450Y-45995167D01*
X91901737Y-43856799D01*
X93349538Y-42502812D01*
X94843665Y-41375302D01*
X96232534Y-40572322D01*
X97364563Y-40191924D01*
X97594634Y-40174334D01*
X98090094Y-39882085D01*
X98372370Y-39245726D01*
X98316686Y-38713799D01*
X97944078Y-38526016D01*
X97064066Y-38239755D01*
X95857247Y-37912939D01*
X95692636Y-37872176D01*
X92976275Y-37431895D01*
X90656243Y-37447220D01*
X88424223Y-37751092D01*
X86784794Y-38302969D01*
X85656282Y-39143067D01*
X84985084Y-40239645D01*
X84514735Y-41738525D01*
X84510254Y-42888430D01*
X85031039Y-43793851D01*
X86136485Y-44559276D01*
X87847646Y-45275470D01*
X89853450Y-45995167D01*
X89853450Y-50831190D01*
X89658028Y-51244015D01*
X88992101Y-51452320D01*
X88144266Y-51318159D01*
X87441489Y-50921740D01*
X87263111Y-50227487D01*
X87263111Y-49357971D01*
X85994911Y-49962733D01*
X85156056Y-50325732D01*
X84694189Y-50360078D01*
X84364380Y-50070321D01*
X84307425Y-49994086D01*
X83916815Y-49617298D01*
X83462364Y-49749418D01*
X83194374Y-49938633D01*
X82103676Y-50673379D01*
X81421710Y-50925793D01*
X81092502Y-50762525D01*
X81250078Y-50420466D01*
G37*
X81250078Y-50420466D02*
X81843647Y-49879423D01*
X82684865Y-49269067D01*
X83585390Y-48719070D01*
X84356878Y-48359101D01*
X84686344Y-48288223D01*
X85093671Y-48572065D01*
X85146444Y-48817389D01*
X85185897Y-49224679D01*
X85423150Y-49292810D01*
X86036549Y-49024343D01*
X86403742Y-48835444D01*
X87314822Y-48493391D01*
X87807820Y-48684516D01*
X87967711Y-49447278D01*
X87968666Y-49543765D01*
X88156413Y-50237475D01*
X88497833Y-50404889D01*
X88924900Y-50100704D01*
X89027000Y-49567042D01*
X89098778Y-48573551D01*
X89232750Y-47700445D01*
X89306584Y-47106792D01*
X89133089Y-46725568D01*
X88567239Y-46418997D01*
X87510008Y-46063791D01*
X85790195Y-45430733D01*
X84664410Y-44751359D01*
X84024167Y-43913926D01*
X83760977Y-42806693D01*
X83736652Y-42177201D01*
X83958818Y-40318153D01*
X84647686Y-38863680D01*
X85841288Y-37787917D01*
X87577661Y-37065001D01*
X89894840Y-36669066D01*
X91979781Y-36571599D01*
X93544436Y-36674565D01*
X95421209Y-36968866D01*
X97345940Y-37397013D01*
X99054469Y-37901513D01*
X100139500Y-38347469D01*
X101077074Y-38746978D01*
X101854778Y-38947804D01*
X101859884Y-38948253D01*
X102694631Y-39331752D01*
X103393614Y-40182016D01*
X103863366Y-41271500D01*
X104010425Y-42372658D01*
X103741326Y-43257946D01*
X103667522Y-43349064D01*
X103353939Y-43806785D01*
X103571314Y-44117201D01*
X104017626Y-44342371D01*
X104667499Y-44755054D01*
X104902000Y-45105659D01*
X104786256Y-45405674D01*
X104359800Y-45387540D01*
X103503794Y-45030057D01*
X102958866Y-44758989D01*
X101584248Y-44263236D01*
X101483023Y-44264593D01*
X101483023Y-42935308D01*
X102489425Y-42899850D01*
X103036115Y-42413892D01*
X103072879Y-41601498D01*
X102549504Y-40586729D01*
X102472989Y-40489441D01*
X101945323Y-39950141D01*
X101526169Y-39939877D01*
X101220252Y-40155728D01*
X100806747Y-40836376D01*
X100726279Y-41713247D01*
X100952244Y-42504936D01*
X101458040Y-42930040D01*
X101483023Y-42935308D01*
X101483023Y-44264593D01*
X100358357Y-44279677D01*
X99778572Y-44319624D01*
X99778572Y-43421821D01*
X99921572Y-42991226D01*
X99952383Y-42408048D01*
X99909580Y-41339765D01*
X99789897Y-40514118D01*
X99748979Y-40379575D01*
X99409989Y-39816985D01*
X99133111Y-39862490D01*
X98993443Y-40418747D01*
X99048928Y-41286951D01*
X99300085Y-42517361D01*
X99557355Y-43246425D01*
X99778572Y-43421821D01*
X99778572Y-44319624D01*
X99400998Y-44345639D01*
X98817850Y-44040706D01*
X98689946Y-43885586D01*
X98079676Y-43462254D01*
X97198254Y-43554909D01*
X95987123Y-44179900D01*
X94916656Y-44939179D01*
X93565768Y-46090493D01*
X92844648Y-47014756D01*
X92729687Y-47751211D01*
X92979727Y-48158807D01*
X93493214Y-48372286D01*
X94482811Y-48551639D01*
X95810137Y-48693156D01*
X97336811Y-48793123D01*
X98924452Y-48847831D01*
X100434677Y-48853566D01*
X101729106Y-48806617D01*
X102669357Y-48703273D01*
X103117048Y-48539821D01*
X103109818Y-48430521D01*
X102509852Y-48001614D01*
X102212971Y-47935445D01*
X101771923Y-47730381D01*
X101727000Y-47582667D01*
X101940908Y-47198895D01*
X102530760Y-47311997D01*
X103418748Y-47878553D01*
X104527065Y-48855145D01*
X105146054Y-49490634D01*
X107252047Y-51751378D01*
X108327391Y-51070518D01*
X109544789Y-50581605D01*
X111451154Y-50221166D01*
X112568246Y-50097563D01*
X114023534Y-49940765D01*
X115225664Y-49769652D01*
X115989752Y-49612308D01*
X116138712Y-49555192D01*
X116378329Y-49080697D01*
X116523615Y-48163477D01*
X116543666Y-47632403D01*
X116628159Y-46548299D01*
X116841819Y-45736829D01*
X116967000Y-45536556D01*
X117694802Y-45191418D01*
X118644460Y-45144171D01*
X119450019Y-45392395D01*
X119634734Y-45554195D01*
X120099547Y-46570151D01*
X120324976Y-48000355D01*
X120321620Y-49608183D01*
X120100076Y-51157008D01*
X119670942Y-52410207D01*
X119304125Y-52936097D01*
X118945396Y-53242039D01*
X118511271Y-53431204D01*
X117857685Y-53517750D01*
X116974912Y-53516091D01*
X116974912Y-52868082D01*
X117905817Y-52645191D01*
X118567783Y-52480666D01*
X118921360Y-52266343D01*
X119118215Y-51798533D01*
X119310015Y-50873549D01*
X119340682Y-50718190D01*
X119495312Y-48417346D01*
X119139389Y-46436139D01*
X118733010Y-45965814D01*
X118091202Y-45830275D01*
X117551160Y-46064567D01*
X117442174Y-46259750D01*
X117361896Y-46795426D01*
X117266361Y-47844581D01*
X117171991Y-49215849D01*
X117139701Y-49784402D01*
X116974912Y-52868082D01*
X116974912Y-53516091D01*
X116840576Y-53515838D01*
X115426537Y-53445159D01*
X115426537Y-52521556D01*
X115985453Y-52216411D01*
X116190154Y-51315572D01*
X116190889Y-51239109D01*
X116054863Y-50650843D01*
X115661722Y-50630093D01*
X115317320Y-51021611D01*
X115141319Y-51672109D01*
X115171934Y-52274246D01*
X115426537Y-52521556D01*
X115426537Y-53445159D01*
X115315881Y-53439627D01*
X114616528Y-53396825D01*
X112219091Y-53301017D01*
X110441542Y-53367738D01*
X109212906Y-53616279D01*
X108462208Y-54065929D01*
X108118474Y-54735980D01*
X108077000Y-55174229D01*
X107974425Y-56156998D01*
X107956139Y-56246351D01*
X107956139Y-53184661D01*
X108505782Y-53007377D01*
X109257308Y-52697945D01*
X110365323Y-52389202D01*
X111760457Y-52198532D01*
X112475391Y-52168778D01*
X113678063Y-52114368D01*
X114290119Y-51933034D01*
X114427000Y-51677355D01*
X114143779Y-51125933D01*
X113927776Y-50994361D01*
X113206277Y-50922924D01*
X112060704Y-51007696D01*
X110744531Y-51208079D01*
X109511234Y-51483472D01*
X108614288Y-51793275D01*
X108479047Y-51867101D01*
X107901117Y-52387326D01*
X107724222Y-52782804D01*
X107753340Y-53106609D01*
X107956139Y-53184661D01*
X107956139Y-56246351D01*
X107713107Y-57433920D01*
X107526384Y-58128175D01*
X107231034Y-59296744D01*
X107244002Y-60098146D01*
X107659949Y-60698156D01*
X108573536Y-61262553D01*
X109587412Y-61737605D01*
X110533428Y-62116895D01*
X111471222Y-62361672D01*
X112596069Y-62499980D01*
X114103245Y-62559862D01*
X115383703Y-62570019D01*
X117385227Y-62596991D01*
X118792127Y-62724147D01*
X119715028Y-63030948D01*
X120264558Y-63596856D01*
X120551342Y-64501333D01*
X120686008Y-65823840D01*
X120717737Y-66401405D01*
X120762225Y-67787146D01*
X120694619Y-68688627D01*
X120470934Y-69323848D01*
X120047186Y-69910810D01*
X119998061Y-69968337D01*
X119283823Y-70632088D01*
X118649525Y-70766103D01*
X118649525Y-69807667D01*
X119388155Y-69531259D01*
X119713705Y-69190306D01*
X119915381Y-68473820D01*
X119979930Y-67369558D01*
X119924479Y-66110474D01*
X119766156Y-64929519D01*
X119522087Y-64059646D01*
X119314747Y-63763950D01*
X118575094Y-63543188D01*
X118131166Y-63543841D01*
X117735767Y-63679131D01*
X117524667Y-64068093D01*
X117445048Y-64879139D01*
X117439011Y-65750723D01*
X117522994Y-67660465D01*
X117757823Y-68934402D01*
X118160487Y-69629468D01*
X118649525Y-69807667D01*
X118649525Y-70766103D01*
X118635977Y-70768966D01*
X118342874Y-70700821D01*
X117669484Y-70190124D01*
X117049462Y-69250468D01*
X116633400Y-68151717D01*
X116543666Y-67476639D01*
X116228123Y-66721541D01*
X116190889Y-66695127D01*
X116190889Y-65397945D01*
X116439492Y-65258687D01*
X116543340Y-64568152D01*
X116543666Y-64516000D01*
X116449728Y-63798902D01*
X116207679Y-63624697D01*
X116190889Y-63634056D01*
X115891450Y-64133102D01*
X115838111Y-64516000D01*
X116004948Y-65182645D01*
X116190889Y-65397945D01*
X116190889Y-66695127D01*
X115429385Y-66154899D01*
X114427000Y-65938042D01*
X114152011Y-65910665D01*
X114152011Y-64846772D01*
X114827003Y-64808522D01*
X115100144Y-64616098D01*
X115132555Y-64428368D01*
X114845937Y-63844879D01*
X114574536Y-63671799D01*
X113841036Y-63521920D01*
X112846514Y-63457706D01*
X112823707Y-63457667D01*
X111656754Y-63293339D01*
X110206458Y-62870393D01*
X108758161Y-62293891D01*
X107597208Y-61668892D01*
X107251387Y-61406002D01*
X106727532Y-61023428D01*
X106358902Y-61179589D01*
X106098857Y-61509513D01*
X105842133Y-61970371D01*
X105970157Y-62338253D01*
X106583690Y-62795864D01*
X106924469Y-63006595D01*
X108467408Y-63795523D01*
X110169410Y-64330643D01*
X112268553Y-64681195D01*
X112927694Y-64752529D01*
X114152011Y-64846772D01*
X114152011Y-65910665D01*
X112943754Y-65790374D01*
X111149361Y-65427123D01*
X109306584Y-64919377D01*
X107678184Y-64338225D01*
X106649634Y-63833964D01*
X105704846Y-63274147D01*
X105131522Y-63057851D01*
X104703388Y-63153736D01*
X104232747Y-63499208D01*
X102674708Y-64328849D01*
X100576723Y-64747808D01*
X97977921Y-64748493D01*
X97846444Y-64738294D01*
X97745264Y-64728645D01*
X97745264Y-63819461D01*
X99120455Y-63800367D01*
X100496785Y-63718661D01*
X101699207Y-63577971D01*
X102552674Y-63381923D01*
X102714657Y-63312773D01*
X104217226Y-62200012D01*
X105513287Y-60627799D01*
X106174686Y-59400723D01*
X106975799Y-56964106D01*
X107153187Y-54832246D01*
X106706520Y-52979467D01*
X106078604Y-51908932D01*
X105378686Y-51089334D01*
X104731334Y-50513515D01*
X104623077Y-50447052D01*
X103942067Y-50243078D01*
X102743369Y-50026180D01*
X101214104Y-49815944D01*
X99541388Y-49631958D01*
X97912341Y-49493809D01*
X96514081Y-49421086D01*
X95533728Y-49433375D01*
X95286953Y-49469751D01*
X94367394Y-49700546D01*
X95946995Y-53080800D01*
X97526597Y-56461053D01*
X96964078Y-58460055D01*
X96550526Y-59841269D01*
X96110819Y-61177847D01*
X95889279Y-61789112D01*
X95562798Y-62716574D01*
X95386862Y-63371741D01*
X95377000Y-63464806D01*
X95698489Y-63655307D01*
X96546260Y-63772317D01*
X97745264Y-63819461D01*
X97745264Y-64728645D01*
X96439843Y-64604150D01*
X95222397Y-64451654D01*
X94441928Y-64312181D01*
X94406861Y-64302825D01*
X93819579Y-64246550D01*
X93624301Y-64659531D01*
X93613111Y-64976955D01*
X93915460Y-66046724D01*
X94686078Y-67101613D01*
X95720317Y-67914619D01*
X96544793Y-68228881D01*
X97542915Y-68292026D01*
X98860381Y-68224102D01*
X99647265Y-68125932D01*
X101271237Y-67969661D01*
X102356416Y-68135084D01*
X103010019Y-68660202D01*
X103307562Y-69423303D01*
X103450922Y-70650241D01*
X103161016Y-71417495D01*
X102344083Y-71844922D01*
X101727000Y-71946067D01*
X101727000Y-71218778D01*
X102213283Y-71080660D01*
X102409492Y-70541463D01*
X102432555Y-69984056D01*
X102368463Y-69150727D01*
X102072142Y-68809300D01*
X101512867Y-68749334D01*
X100862185Y-68854213D01*
X100780097Y-69228786D01*
X100807312Y-69307353D01*
X100995316Y-70151046D01*
X101021444Y-70542075D01*
X101284689Y-71110881D01*
X101727000Y-71218778D01*
X101727000Y-71946067D01*
X101276200Y-72019957D01*
X99894470Y-72059957D01*
X99689969Y-72005157D01*
X99689969Y-71072094D01*
X100013846Y-70915564D01*
X100081518Y-70780004D01*
X100277701Y-70056685D01*
X100121879Y-69360313D01*
X100102534Y-69309379D01*
X99779562Y-68919380D01*
X99454209Y-69108564D01*
X99266546Y-69765088D01*
X99257555Y-69984056D01*
X99389730Y-70715086D01*
X99689969Y-71072094D01*
X99689969Y-72005157D01*
X99045088Y-71832348D01*
X98876999Y-71711119D01*
X98126891Y-71350771D01*
X97251019Y-71218778D01*
X96357697Y-71059726D01*
X95153959Y-70648353D01*
X94209316Y-70223744D01*
X92236648Y-69228710D01*
X92131129Y-70124422D01*
X91719064Y-71016051D01*
X91103884Y-71535086D01*
X90364792Y-71848068D01*
X89662791Y-71801054D01*
X88989806Y-71556150D01*
X87108566Y-70417445D01*
X85541964Y-68758127D01*
X84447412Y-66745398D01*
X84438535Y-66721788D01*
X83870260Y-65020738D01*
X83393864Y-63250046D01*
X83029555Y-61537502D01*
X82797541Y-60010895D01*
X82718030Y-58798014D01*
X82811230Y-58026650D01*
X83029777Y-57813223D01*
X83265984Y-58122617D01*
X83380525Y-58880288D01*
X83382555Y-59008481D01*
X83497583Y-60008113D01*
X83803738Y-61459174D01*
X84242628Y-63153131D01*
X84755861Y-64881450D01*
X85285045Y-66435599D01*
X85771789Y-67607044D01*
X85813777Y-67691000D01*
X86543580Y-68730381D01*
X87530819Y-69636774D01*
X88631908Y-70339497D01*
X89703260Y-70767866D01*
X90601290Y-70851198D01*
X91182411Y-70518808D01*
X91258095Y-70371088D01*
X91270582Y-69764645D01*
X91090296Y-68772763D01*
X90924875Y-68166227D01*
X90529305Y-66831002D01*
X90066391Y-65202857D01*
X89573531Y-63421567D01*
X89088119Y-61626902D01*
X88647553Y-59958637D01*
X88289229Y-58556544D01*
X88050543Y-57560396D01*
X87968666Y-57117074D01*
X88217115Y-56813809D01*
X88381067Y-56833560D01*
X88651742Y-57215955D01*
X89020467Y-58118827D01*
X89423131Y-59375987D01*
X89578407Y-59937303D01*
X89974168Y-61287782D01*
X90357508Y-62349044D01*
X90665591Y-62955524D01*
X90753506Y-63033632D01*
X91023175Y-63438937D01*
X91143273Y-64243206D01*
X91143666Y-64294260D01*
X91467682Y-66018718D01*
X92344321Y-67633745D01*
X93630475Y-68912595D01*
X94318666Y-69324790D01*
X95690758Y-69892457D01*
X96938466Y-70235159D01*
X97915266Y-70330845D01*
X98474637Y-70157466D01*
X98552000Y-69961877D01*
X98306115Y-69506436D01*
X98111027Y-69452922D01*
X96425557Y-69144270D01*
X94879130Y-68323619D01*
X93641497Y-67126194D01*
X92882407Y-65687222D01*
X92768099Y-65196625D01*
X92550158Y-64323594D01*
X92277901Y-63842863D01*
X92197831Y-63810445D01*
X91865728Y-63536826D01*
X91849222Y-63417627D01*
X92157661Y-63173529D01*
X92950634Y-63186462D01*
X94052047Y-63348115D01*
X93880636Y-57317474D01*
X93809294Y-55288158D01*
X93719967Y-53476449D01*
X93621085Y-52012425D01*
X93521077Y-51026161D01*
X93450385Y-50678199D01*
X93202847Y-50292379D01*
X92797441Y-50303190D01*
X92554777Y-50416807D01*
X92554777Y-49346556D01*
X92845153Y-49217480D01*
X92789963Y-49111371D01*
X92371298Y-49069150D01*
X92319592Y-49111371D01*
X92368018Y-49321097D01*
X92554777Y-49346556D01*
X92554777Y-50416807D01*
X92187626Y-50588711D01*
X91499549Y-50810083D01*
X90984585Y-50776949D01*
X90824623Y-50551106D01*
X91137912Y-50232057D01*
X91357577Y-49771878D01*
X91484213Y-48878415D01*
X91496444Y-48473391D01*
X91534653Y-47680079D01*
X91721081Y-47054044D01*
X92163433Y-46422213D01*
X92969413Y-45611511D01*
X93686024Y-44954854D01*
X94815041Y-44005350D01*
X95861344Y-43250148D01*
X96637927Y-42821058D01*
X96772829Y-42779123D01*
X97795939Y-42529308D01*
X98277890Y-42283984D01*
X98372459Y-41925673D01*
X98307082Y-41607025D01*
X98157515Y-41108894D01*
X97925953Y-40932949D01*
X97415379Y-41057960D01*
X96539397Y-41416540D01*
X95001164Y-42274372D01*
X93358781Y-43537825D01*
X91860200Y-45001099D01*
X91107013Y-45925361D01*
X90443268Y-47017876D01*
X90143266Y-48107890D01*
X90085333Y-49234169D01*
X89993151Y-50536076D01*
X89853450Y-50831190D01*
X89853450Y-45995167D01*
X91901737Y-43856799D01*
X93349538Y-42502812D01*
X94843665Y-41375302D01*
X96232534Y-40572322D01*
X97364563Y-40191924D01*
X97594634Y-40174334D01*
X98090094Y-39882085D01*
X98372370Y-39245726D01*
X98316686Y-38713799D01*
X97944078Y-38526016D01*
X97064066Y-38239755D01*
X95857247Y-37912939D01*
X95692636Y-37872176D01*
X92976275Y-37431895D01*
X90656243Y-37447220D01*
X88424223Y-37751092D01*
X86784794Y-38302969D01*
X85656282Y-39143067D01*
X84985084Y-40239645D01*
X84514735Y-41738525D01*
X84510254Y-42888430D01*
X85031039Y-43793851D01*
X86136485Y-44559276D01*
X87847646Y-45275470D01*
X89853450Y-45995167D01*
X89853450Y-50831190D01*
X89658028Y-51244015D01*
X88992101Y-51452320D01*
X88144266Y-51318159D01*
X87441489Y-50921740D01*
X87263111Y-50227487D01*
X87263111Y-49357971D01*
X85994911Y-49962733D01*
X85156056Y-50325732D01*
X84694189Y-50360078D01*
X84364380Y-50070321D01*
X84307425Y-49994086D01*
X83916815Y-49617298D01*
X83462364Y-49749418D01*
X83194374Y-49938633D01*
X82103676Y-50673379D01*
X81421710Y-50925793D01*
X81092502Y-50762525D01*
X81250078Y-50420466D01*
G36*
X101282828Y-45117909D02*
G01*
X101984893Y-45238381D01*
X103005913Y-45707318D01*
X103497899Y-45999593D01*
X104355556Y-46630274D01*
X104862139Y-47177432D01*
X104925474Y-47522229D01*
X104725795Y-47582667D01*
X104270550Y-47416851D01*
X103475046Y-47002512D01*
X102548442Y-46464316D01*
X101699897Y-45926925D01*
X101138569Y-45515004D01*
X101026527Y-45377806D01*
X101282828Y-45117909D01*
G37*
X101282828Y-45117909D02*
X101984893Y-45238381D01*
X103005913Y-45707318D01*
X103497899Y-45999593D01*
X104355556Y-46630274D01*
X104862139Y-47177432D01*
X104925474Y-47522229D01*
X104725795Y-47582667D01*
X104270550Y-47416851D01*
X103475046Y-47002512D01*
X102548442Y-46464316D01*
X101699897Y-45926925D01*
X101138569Y-45515004D01*
X101026527Y-45377806D01*
X101282828Y-45117909D01*
G36*
X79979601Y-60709220D02*
G01*
X80220941Y-60446942D01*
X80739610Y-60039121D01*
X81131893Y-60067827D01*
X81684606Y-60572020D01*
X81766234Y-60656849D01*
X82602135Y-61873940D01*
X82830671Y-63084595D01*
X82471051Y-64098370D01*
X81814536Y-64746535D01*
X81353714Y-64745101D01*
X81353714Y-64002440D01*
X81857157Y-63665650D01*
X81912833Y-63574928D01*
X82071817Y-62766596D01*
X81860642Y-61884842D01*
X81389019Y-61204060D01*
X80878600Y-60988223D01*
X80410881Y-61142782D01*
X80225227Y-61725346D01*
X80207555Y-62210533D01*
X80383408Y-63158463D01*
X80813963Y-63794572D01*
X81353714Y-64002440D01*
X81353714Y-64745101D01*
X81130641Y-64744406D01*
X80304327Y-64089577D01*
X80269049Y-64052291D01*
X79644884Y-62968883D01*
X79547294Y-61771552D01*
X79979601Y-60709220D01*
G37*
X79979601Y-60709220D02*
X80220941Y-60446942D01*
X80739610Y-60039121D01*
X81131893Y-60067827D01*
X81684606Y-60572020D01*
X81766234Y-60656849D01*
X82602135Y-61873940D01*
X82830671Y-63084595D01*
X82471051Y-64098370D01*
X81814536Y-64746535D01*
X81353714Y-64745101D01*
X81353714Y-64002440D01*
X81857157Y-63665650D01*
X81912833Y-63574928D01*
X82071817Y-62766596D01*
X81860642Y-61884842D01*
X81389019Y-61204060D01*
X80878600Y-60988223D01*
X80410881Y-61142782D01*
X80225227Y-61725346D01*
X80207555Y-62210533D01*
X80383408Y-63158463D01*
X80813963Y-63794572D01*
X81353714Y-64002440D01*
X81353714Y-64745101D01*
X81130641Y-64744406D01*
X80304327Y-64089577D01*
X80269049Y-64052291D01*
X79644884Y-62968883D01*
X79547294Y-61771552D01*
X79979601Y-60709220D01*
G36*
X78984288Y-55278265D02*
G01*
X79185567Y-54826974D01*
X79925373Y-53755773D01*
X80700520Y-53301376D01*
X81409867Y-53388355D01*
X81952275Y-53941285D01*
X82226604Y-54884738D01*
X82131714Y-56143290D01*
X81915743Y-56863037D01*
X81504445Y-57578439D01*
X80874256Y-57764116D01*
X80623606Y-57744982D01*
X80565208Y-57718491D01*
X80565208Y-57049089D01*
X81154608Y-56860675D01*
X81371515Y-56510932D01*
X81574520Y-55294371D01*
X81512200Y-54386991D01*
X81201660Y-53949789D01*
X81097632Y-53932667D01*
X80498919Y-54231637D01*
X79935444Y-54943389D01*
X79587327Y-55790182D01*
X79564590Y-56296571D01*
X79933771Y-56849021D01*
X80565208Y-57049089D01*
X80565208Y-57718491D01*
X79691858Y-57322312D01*
X79196695Y-56734711D01*
X78883567Y-55975404D01*
X78984288Y-55278265D01*
G37*
X78984288Y-55278265D02*
X79185567Y-54826974D01*
X79925373Y-53755773D01*
X80700520Y-53301376D01*
X81409867Y-53388355D01*
X81952275Y-53941285D01*
X82226604Y-54884738D01*
X82131714Y-56143290D01*
X81915743Y-56863037D01*
X81504445Y-57578439D01*
X80874256Y-57764116D01*
X80623606Y-57744982D01*
X80565208Y-57718491D01*
X80565208Y-57049089D01*
X81154608Y-56860675D01*
X81371515Y-56510932D01*
X81574520Y-55294371D01*
X81512200Y-54386991D01*
X81201660Y-53949789D01*
X81097632Y-53932667D01*
X80498919Y-54231637D01*
X79935444Y-54943389D01*
X79587327Y-55790182D01*
X79564590Y-56296571D01*
X79933771Y-56849021D01*
X80565208Y-57049089D01*
X80565208Y-57718491D01*
X79691858Y-57322312D01*
X79196695Y-56734711D01*
X78883567Y-55975404D01*
X78984288Y-55278265D01*
G36*
X70036262Y-60766493D02*
G01*
X70198996Y-60413648D01*
X70620896Y-60209029D01*
X71457824Y-60111456D01*
X72628020Y-60081766D01*
X74149703Y-60028079D01*
X75629100Y-59913107D01*
X76591583Y-59786174D01*
X77554222Y-59659804D01*
X77999660Y-59758555D01*
X78090889Y-60026131D01*
X77755785Y-60374441D01*
X76818440Y-60660644D01*
X75380801Y-60866528D01*
X73544813Y-60973882D01*
X72722099Y-60985156D01*
X71704948Y-61033366D01*
X71262713Y-61202453D01*
X71253024Y-61497811D01*
X71668997Y-62028866D01*
X72498788Y-62772821D01*
X73548295Y-63584467D01*
X74623417Y-64318596D01*
X75530050Y-64829999D01*
X75885676Y-64963510D01*
X76636106Y-65023925D01*
X76812393Y-64734486D01*
X76422785Y-64143621D01*
X75622107Y-63415781D01*
X74870931Y-62732357D01*
X74474187Y-62208761D01*
X74468533Y-62027138D01*
X74944319Y-61862844D01*
X75891147Y-61692446D01*
X76767972Y-61587633D01*
X78058588Y-61519387D01*
X78702801Y-61636432D01*
X78738172Y-61950843D01*
X78561259Y-62164149D01*
X78054965Y-62351533D01*
X77523745Y-62399334D01*
X76721050Y-62550181D01*
X76563794Y-62947476D01*
X77073433Y-63508352D01*
X77211973Y-63603600D01*
X77962261Y-64318951D01*
X78102416Y-64981273D01*
X77726934Y-65501371D01*
X76930309Y-65790050D01*
X75807037Y-65758116D01*
X75115879Y-65582123D01*
X74179923Y-65115098D01*
X73089235Y-64339497D01*
X71986416Y-63390509D01*
X71014069Y-62403324D01*
X70314794Y-61513133D01*
X70031191Y-60855127D01*
X70036262Y-60766493D01*
G37*
X70036262Y-60766493D02*
X70198996Y-60413648D01*
X70620896Y-60209029D01*
X71457824Y-60111456D01*
X72628020Y-60081766D01*
X74149703Y-60028079D01*
X75629100Y-59913107D01*
X76591583Y-59786174D01*
X77554222Y-59659804D01*
X77999660Y-59758555D01*
X78090889Y-60026131D01*
X77755785Y-60374441D01*
X76818440Y-60660644D01*
X75380801Y-60866528D01*
X73544813Y-60973882D01*
X72722099Y-60985156D01*
X71704948Y-61033366D01*
X71262713Y-61202453D01*
X71253024Y-61497811D01*
X71668997Y-62028866D01*
X72498788Y-62772821D01*
X73548295Y-63584467D01*
X74623417Y-64318596D01*
X75530050Y-64829999D01*
X75885676Y-64963510D01*
X76636106Y-65023925D01*
X76812393Y-64734486D01*
X76422785Y-64143621D01*
X75622107Y-63415781D01*
X74870931Y-62732357D01*
X74474187Y-62208761D01*
X74468533Y-62027138D01*
X74944319Y-61862844D01*
X75891147Y-61692446D01*
X76767972Y-61587633D01*
X78058588Y-61519387D01*
X78702801Y-61636432D01*
X78738172Y-61950843D01*
X78561259Y-62164149D01*
X78054965Y-62351533D01*
X77523745Y-62399334D01*
X76721050Y-62550181D01*
X76563794Y-62947476D01*
X77073433Y-63508352D01*
X77211973Y-63603600D01*
X77962261Y-64318951D01*
X78102416Y-64981273D01*
X77726934Y-65501371D01*
X76930309Y-65790050D01*
X75807037Y-65758116D01*
X75115879Y-65582123D01*
X74179923Y-65115098D01*
X73089235Y-64339497D01*
X71986416Y-63390509D01*
X71014069Y-62403324D01*
X70314794Y-61513133D01*
X70031191Y-60855127D01*
X70036262Y-60766493D01*
G36*
X76453378Y-55151252D02*
G01*
X76944388Y-55298164D01*
X77059916Y-55358421D01*
X77561854Y-55844762D01*
X77604490Y-56241480D01*
X77634051Y-56803738D01*
X77772140Y-56952309D01*
X78009554Y-57429443D01*
X77980791Y-57580968D01*
X78004082Y-58212737D01*
X78150971Y-58606973D01*
X78282443Y-59104419D01*
X78164795Y-59224334D01*
X77720029Y-58979409D01*
X77104935Y-58411706D01*
X76560323Y-57771835D01*
X76327000Y-57311770D01*
X76588058Y-57171160D01*
X76856166Y-57235241D01*
X77311452Y-57263105D01*
X77385333Y-57139791D01*
X77144451Y-56689882D01*
X76856166Y-56402112D01*
X76407542Y-55794891D01*
X76327000Y-55464559D01*
X76453378Y-55151252D01*
G37*
X76453378Y-55151252D02*
X76944388Y-55298164D01*
X77059916Y-55358421D01*
X77561854Y-55844762D01*
X77604490Y-56241480D01*
X77634051Y-56803738D01*
X77772140Y-56952309D01*
X78009554Y-57429443D01*
X77980791Y-57580968D01*
X78004082Y-58212737D01*
X78150971Y-58606973D01*
X78282443Y-59104419D01*
X78164795Y-59224334D01*
X77720029Y-58979409D01*
X77104935Y-58411706D01*
X76560323Y-57771835D01*
X76327000Y-57311770D01*
X76588058Y-57171160D01*
X76856166Y-57235241D01*
X77311452Y-57263105D01*
X77385333Y-57139791D01*
X77144451Y-56689882D01*
X76856166Y-56402112D01*
X76407542Y-55794891D01*
X76327000Y-55464559D01*
X76453378Y-55151252D01*
G36*
X70908370Y-48931617D02*
G01*
X71045037Y-48811392D01*
X71521113Y-48863570D01*
X72345158Y-49241197D01*
X72931859Y-49597048D01*
X74180444Y-50305276D01*
X75670465Y-50989313D01*
X76449933Y-51284420D01*
X77613174Y-51739208D01*
X78304654Y-52132051D01*
X78459378Y-52410308D01*
X78012351Y-52521335D01*
X77977343Y-52521556D01*
X77197057Y-52382501D01*
X76045725Y-52029184D01*
X74786090Y-51557375D01*
X73680896Y-51062847D01*
X73152000Y-50762695D01*
X72180965Y-50124734D01*
X71674495Y-49890426D01*
X71514999Y-50064802D01*
X71584885Y-50652888D01*
X71617492Y-50828325D01*
X72109693Y-52541864D01*
X72866914Y-54139386D01*
X73762291Y-55373228D01*
X74109263Y-55692775D01*
X74841402Y-56145433D01*
X75159013Y-56039470D01*
X75056398Y-55391300D01*
X74583725Y-54325851D01*
X74147292Y-53431885D01*
X73888341Y-52827105D01*
X73857555Y-52711999D01*
X74131844Y-52529121D01*
X74735764Y-52563177D01*
X75340897Y-52776585D01*
X75506719Y-52900720D01*
X76067791Y-53253952D01*
X76988360Y-53658445D01*
X77252969Y-53754814D01*
X78061901Y-54076839D01*
X78260776Y-54301115D01*
X77980197Y-54480360D01*
X77182098Y-54532811D01*
X76489196Y-54343168D01*
X75971742Y-54139518D01*
X75755296Y-54255595D01*
X75763567Y-54834148D01*
X75854088Y-55531514D01*
X75903929Y-56590308D01*
X75631515Y-57087195D01*
X74960336Y-57062323D01*
X73858221Y-56578845D01*
X73073854Y-55919414D01*
X72314748Y-54851331D01*
X71638337Y-53533181D01*
X71102058Y-52123549D01*
X70763347Y-50781021D01*
X70679639Y-49664182D01*
X70908370Y-48931617D01*
G37*
X70908370Y-48931617D02*
X71045037Y-48811392D01*
X71521113Y-48863570D01*
X72345158Y-49241197D01*
X72931859Y-49597048D01*
X74180444Y-50305276D01*
X75670465Y-50989313D01*
X76449933Y-51284420D01*
X77613174Y-51739208D01*
X78304654Y-52132051D01*
X78459378Y-52410308D01*
X78012351Y-52521335D01*
X77977343Y-52521556D01*
X77197057Y-52382501D01*
X76045725Y-52029184D01*
X74786090Y-51557375D01*
X73680896Y-51062847D01*
X73152000Y-50762695D01*
X72180965Y-50124734D01*
X71674495Y-49890426D01*
X71514999Y-50064802D01*
X71584885Y-50652888D01*
X71617492Y-50828325D01*
X72109693Y-52541864D01*
X72866914Y-54139386D01*
X73762291Y-55373228D01*
X74109263Y-55692775D01*
X74841402Y-56145433D01*
X75159013Y-56039470D01*
X75056398Y-55391300D01*
X74583725Y-54325851D01*
X74147292Y-53431885D01*
X73888341Y-52827105D01*
X73857555Y-52711999D01*
X74131844Y-52529121D01*
X74735764Y-52563177D01*
X75340897Y-52776585D01*
X75506719Y-52900720D01*
X76067791Y-53253952D01*
X76988360Y-53658445D01*
X77252969Y-53754814D01*
X78061901Y-54076839D01*
X78260776Y-54301115D01*
X77980197Y-54480360D01*
X77182098Y-54532811D01*
X76489196Y-54343168D01*
X75971742Y-54139518D01*
X75755296Y-54255595D01*
X75763567Y-54834148D01*
X75854088Y-55531514D01*
X75903929Y-56590308D01*
X75631515Y-57087195D01*
X74960336Y-57062323D01*
X73858221Y-56578845D01*
X73073854Y-55919414D01*
X72314748Y-54851331D01*
X71638337Y-53533181D01*
X71102058Y-52123549D01*
X70763347Y-50781021D01*
X70679639Y-49664182D01*
X70908370Y-48931617D01*
G36*
X81089500Y-63104889D02*
G01*
X81406508Y-62768345D01*
X81463097Y-62752111D01*
X81614622Y-63025053D01*
X81618666Y-63104889D01*
X81347468Y-63444110D01*
X81245069Y-63457667D01*
X81034377Y-63241542D01*
X81089500Y-63104889D01*
G37*
X81089500Y-63104889D02*
X81406508Y-62768345D01*
X81463097Y-62752111D01*
X81614622Y-63025053D01*
X81618666Y-63104889D01*
X81347468Y-63444110D01*
X81245069Y-63457667D01*
X81034377Y-63241542D01*
X81089500Y-63104889D01*
G36*
X80736722Y-55343778D02*
G01*
X81053730Y-55007234D01*
X81110319Y-54991000D01*
X81261844Y-55263942D01*
X81265888Y-55343778D01*
X80994690Y-55682999D01*
X80892291Y-55696556D01*
X80681599Y-55480431D01*
X80736722Y-55343778D01*
G37*
X80736722Y-55343778D02*
X81053730Y-55007234D01*
X81110319Y-54991000D01*
X81261844Y-55263942D01*
X81265888Y-55343778D01*
X80994690Y-55682999D01*
X80892291Y-55696556D01*
X80681599Y-55480431D01*
X80736722Y-55343778D01*
G36*
X66577922Y-117981534D02*
G01*
X65984353Y-118522577D01*
X65143135Y-119132933D01*
X64242610Y-119682930D01*
X63471122Y-120042899D01*
X63141656Y-120113777D01*
X62734329Y-119829935D01*
X62681556Y-119584611D01*
X62642103Y-119177321D01*
X62404850Y-119109190D01*
X61791451Y-119377657D01*
X61424258Y-119566556D01*
X60513178Y-119908609D01*
X60020180Y-119717484D01*
X59860289Y-118954722D01*
X59859334Y-118858235D01*
X59671587Y-118164525D01*
X59330167Y-117997111D01*
X58903100Y-118301296D01*
X58801000Y-118834958D01*
X58729222Y-119828449D01*
X58595250Y-120701555D01*
X58521416Y-121295208D01*
X58694911Y-121676432D01*
X59260761Y-121983003D01*
X60317992Y-122338209D01*
X62037805Y-122971267D01*
X63163590Y-123650641D01*
X63803833Y-124488074D01*
X64067023Y-125595307D01*
X64091348Y-126224799D01*
X63869182Y-128083847D01*
X63180314Y-129538320D01*
X61986712Y-130614083D01*
X60250339Y-131336999D01*
X57933160Y-131732934D01*
X55848219Y-131830401D01*
X54283564Y-131727435D01*
X52406791Y-131433134D01*
X50482060Y-131004987D01*
X48773531Y-130500487D01*
X47688500Y-130054531D01*
X46750926Y-129655022D01*
X45973222Y-129454196D01*
X45968116Y-129453747D01*
X45133369Y-129070248D01*
X44434386Y-128219984D01*
X43964634Y-127130500D01*
X43817575Y-126029342D01*
X44086674Y-125144054D01*
X44160478Y-125052936D01*
X44474061Y-124595215D01*
X44256686Y-124284799D01*
X43810374Y-124059629D01*
X43160501Y-123646946D01*
X42926000Y-123296341D01*
X43041744Y-122996326D01*
X43468200Y-123014460D01*
X44324206Y-123371943D01*
X44869134Y-123643011D01*
X46243752Y-124138764D01*
X46344977Y-124137407D01*
X46344977Y-125466692D01*
X45338575Y-125502150D01*
X44791885Y-125988108D01*
X44755121Y-126800502D01*
X45278496Y-127815271D01*
X45355011Y-127912559D01*
X45882677Y-128451859D01*
X46301831Y-128462123D01*
X46607748Y-128246272D01*
X47021253Y-127565624D01*
X47101721Y-126688753D01*
X46875756Y-125897064D01*
X46369960Y-125471960D01*
X46344977Y-125466692D01*
X46344977Y-124137407D01*
X47469643Y-124122323D01*
X48049428Y-124082376D01*
X48049428Y-124980179D01*
X47906428Y-125410774D01*
X47875617Y-125993952D01*
X47918420Y-127062235D01*
X48038103Y-127887882D01*
X48079021Y-128022425D01*
X48418011Y-128585015D01*
X48694889Y-128539510D01*
X48834557Y-127983253D01*
X48779072Y-127115049D01*
X48527915Y-125884639D01*
X48270645Y-125155575D01*
X48049428Y-124980179D01*
X48049428Y-124082376D01*
X48427002Y-124056361D01*
X49010150Y-124361294D01*
X49138054Y-124516414D01*
X49748324Y-124939746D01*
X50629746Y-124847091D01*
X51840877Y-124222100D01*
X52911344Y-123462821D01*
X54262232Y-122311507D01*
X54983352Y-121387244D01*
X55098313Y-120650789D01*
X54848273Y-120243193D01*
X54334786Y-120029714D01*
X53345189Y-119850361D01*
X52017863Y-119708844D01*
X50491189Y-119608877D01*
X48903548Y-119554169D01*
X47393323Y-119548434D01*
X46098894Y-119595383D01*
X45158643Y-119698727D01*
X44710952Y-119862179D01*
X44718182Y-119971479D01*
X45318148Y-120400386D01*
X45615029Y-120466555D01*
X46056077Y-120671619D01*
X46101000Y-120819333D01*
X45887092Y-121203105D01*
X45297240Y-121090003D01*
X44409252Y-120523447D01*
X43300935Y-119546855D01*
X42681946Y-118911366D01*
X40575953Y-116650622D01*
X39500609Y-117331482D01*
X38283211Y-117820395D01*
X36376846Y-118180834D01*
X35259754Y-118304437D01*
X33804466Y-118461235D01*
X32602336Y-118632348D01*
X31838248Y-118789692D01*
X31689288Y-118846808D01*
X31449671Y-119321303D01*
X31304385Y-120238523D01*
X31284334Y-120769597D01*
X31199841Y-121853701D01*
X30986181Y-122665171D01*
X30861000Y-122865444D01*
X30133198Y-123210582D01*
X29183540Y-123257829D01*
X28377981Y-123009605D01*
X28193266Y-122847805D01*
X27728453Y-121831849D01*
X27503024Y-120401645D01*
X27506380Y-118793817D01*
X27727924Y-117244992D01*
X28157058Y-115991793D01*
X28523875Y-115465903D01*
X28882604Y-115159961D01*
X29316729Y-114970796D01*
X29970315Y-114884250D01*
X30853088Y-114885909D01*
X30853088Y-115533918D01*
X29922183Y-115756809D01*
X29260217Y-115921334D01*
X28906640Y-116135657D01*
X28709785Y-116603467D01*
X28517985Y-117528451D01*
X28487318Y-117683810D01*
X28332688Y-119984654D01*
X28688611Y-121965861D01*
X29094990Y-122436186D01*
X29736798Y-122571725D01*
X30276840Y-122337433D01*
X30385826Y-122142250D01*
X30466104Y-121606574D01*
X30561639Y-120557419D01*
X30656009Y-119186151D01*
X30688299Y-118617598D01*
X30853088Y-115533918D01*
X30853088Y-114885909D01*
X30987424Y-114886162D01*
X32401463Y-114956841D01*
X32401463Y-115880444D01*
X31842547Y-116185589D01*
X31637846Y-117086428D01*
X31637111Y-117162891D01*
X31773137Y-117751157D01*
X32166278Y-117771907D01*
X32510680Y-117380389D01*
X32686681Y-116729891D01*
X32656066Y-116127754D01*
X32401463Y-115880444D01*
X32401463Y-114956841D01*
X32512119Y-114962373D01*
X33211472Y-115005175D01*
X35608909Y-115100983D01*
X37386458Y-115034262D01*
X38615094Y-114785721D01*
X39365792Y-114336071D01*
X39709526Y-113666020D01*
X39751000Y-113227771D01*
X39853575Y-112245002D01*
X39871861Y-112155649D01*
X39871861Y-115217339D01*
X39322218Y-115394623D01*
X38570692Y-115704055D01*
X37462677Y-116012798D01*
X36067543Y-116203468D01*
X35352609Y-116233222D01*
X34149937Y-116287632D01*
X33537881Y-116468966D01*
X33401000Y-116724645D01*
X33684221Y-117276067D01*
X33900224Y-117407639D01*
X34621723Y-117479076D01*
X35767296Y-117394304D01*
X37083469Y-117193921D01*
X38316766Y-116918528D01*
X39213712Y-116608725D01*
X39348953Y-116534899D01*
X39926883Y-116014674D01*
X40103778Y-115619196D01*
X40074660Y-115295391D01*
X39871861Y-115217339D01*
X39871861Y-112155649D01*
X40114893Y-110968080D01*
X40301616Y-110273825D01*
X40596966Y-109105256D01*
X40583998Y-108303854D01*
X40168051Y-107703844D01*
X39254464Y-107139447D01*
X38240588Y-106664395D01*
X37294572Y-106285105D01*
X36356778Y-106040328D01*
X35231931Y-105902020D01*
X33724755Y-105842138D01*
X32444297Y-105831981D01*
X30442773Y-105805009D01*
X29035873Y-105677853D01*
X28112972Y-105371052D01*
X27563442Y-104805144D01*
X27276658Y-103900667D01*
X27141992Y-102578160D01*
X27110263Y-102000595D01*
X27065775Y-100614854D01*
X27133381Y-99713373D01*
X27357066Y-99078152D01*
X27780814Y-98491190D01*
X27829939Y-98433663D01*
X28544177Y-97769912D01*
X29178475Y-97635897D01*
X29178475Y-98594333D01*
X28439845Y-98870741D01*
X28114295Y-99211694D01*
X27912619Y-99928180D01*
X27848070Y-101032442D01*
X27903521Y-102291526D01*
X28061844Y-103472481D01*
X28305913Y-104342354D01*
X28513253Y-104638050D01*
X29252906Y-104858812D01*
X29696834Y-104858159D01*
X30092233Y-104722869D01*
X30303333Y-104333907D01*
X30382952Y-103522861D01*
X30388989Y-102651277D01*
X30305006Y-100741535D01*
X30070177Y-99467598D01*
X29667513Y-98772532D01*
X29178475Y-98594333D01*
X29178475Y-97635897D01*
X29192023Y-97633034D01*
X29485126Y-97701179D01*
X30158516Y-98211876D01*
X30778538Y-99151532D01*
X31194600Y-100250283D01*
X31284334Y-100925361D01*
X31599877Y-101680459D01*
X31637111Y-101706873D01*
X31637111Y-103004055D01*
X31388508Y-103143313D01*
X31284660Y-103833848D01*
X31284334Y-103886000D01*
X31378272Y-104603098D01*
X31620321Y-104777303D01*
X31637111Y-104767944D01*
X31936550Y-104268898D01*
X31989889Y-103886000D01*
X31823052Y-103219355D01*
X31637111Y-103004055D01*
X31637111Y-101706873D01*
X32398615Y-102247101D01*
X33401000Y-102463958D01*
X33675989Y-102491335D01*
X33675989Y-103555228D01*
X33000997Y-103593478D01*
X32727856Y-103785902D01*
X32695445Y-103973632D01*
X32982063Y-104557121D01*
X33253464Y-104730201D01*
X33986964Y-104880080D01*
X34981486Y-104944294D01*
X35004293Y-104944333D01*
X36171246Y-105108661D01*
X37621542Y-105531607D01*
X39069839Y-106108109D01*
X40230792Y-106733108D01*
X40576613Y-106995998D01*
X41100468Y-107378572D01*
X41469098Y-107222411D01*
X41729143Y-106892487D01*
X41985867Y-106431629D01*
X41857843Y-106063747D01*
X41244310Y-105606136D01*
X40903531Y-105395405D01*
X39360592Y-104606477D01*
X37658590Y-104071357D01*
X35559447Y-103720805D01*
X34900306Y-103649471D01*
X33675989Y-103555228D01*
X33675989Y-102491335D01*
X34884246Y-102611626D01*
X36678639Y-102974877D01*
X38521416Y-103482623D01*
X40149816Y-104063775D01*
X41178366Y-104568036D01*
X42123154Y-105127853D01*
X42696478Y-105344149D01*
X43124612Y-105248264D01*
X43595253Y-104902792D01*
X45153292Y-104073151D01*
X47251277Y-103654192D01*
X49850079Y-103653507D01*
X49981556Y-103663706D01*
X50082736Y-103673355D01*
X50082736Y-104582539D01*
X48707545Y-104601633D01*
X47331215Y-104683339D01*
X46128793Y-104824029D01*
X45275326Y-105020077D01*
X45113343Y-105089227D01*
X43610774Y-106201988D01*
X42314713Y-107774201D01*
X41653314Y-109001277D01*
X40852201Y-111437894D01*
X40674813Y-113569754D01*
X41121480Y-115422533D01*
X41749396Y-116493068D01*
X42449314Y-117312666D01*
X43096666Y-117888485D01*
X43204923Y-117954948D01*
X43885933Y-118158922D01*
X45084631Y-118375820D01*
X46613896Y-118586056D01*
X48286612Y-118770042D01*
X49915659Y-118908191D01*
X51313919Y-118980914D01*
X52294272Y-118968625D01*
X52541047Y-118932249D01*
X53460606Y-118701454D01*
X51881005Y-115321200D01*
X50301403Y-111940947D01*
X50863922Y-109941945D01*
X51277474Y-108560731D01*
X51717181Y-107224153D01*
X51938721Y-106612888D01*
X52265202Y-105685426D01*
X52441138Y-105030259D01*
X52451000Y-104937194D01*
X52129511Y-104746693D01*
X51281740Y-104629683D01*
X50082736Y-104582539D01*
X50082736Y-103673355D01*
X51388157Y-103797850D01*
X52605603Y-103950346D01*
X53386072Y-104089819D01*
X53421139Y-104099175D01*
X54008421Y-104155450D01*
X54203699Y-103742469D01*
X54214889Y-103425045D01*
X53912540Y-102355276D01*
X53141922Y-101300387D01*
X52107683Y-100487381D01*
X51283207Y-100173119D01*
X50285085Y-100109974D01*
X48967619Y-100177898D01*
X48180735Y-100276068D01*
X46556763Y-100432339D01*
X45471584Y-100266916D01*
X44817981Y-99741798D01*
X44520438Y-98978697D01*
X44377078Y-97751759D01*
X44666984Y-96984505D01*
X45483917Y-96557078D01*
X46101000Y-96455933D01*
X46101000Y-97183222D01*
X45614717Y-97321340D01*
X45418508Y-97860537D01*
X45395445Y-98417944D01*
X45459537Y-99251273D01*
X45755858Y-99592700D01*
X46315133Y-99652666D01*
X46965815Y-99547787D01*
X47047903Y-99173214D01*
X47020688Y-99094647D01*
X46832684Y-98250954D01*
X46806556Y-97859925D01*
X46543311Y-97291119D01*
X46101000Y-97183222D01*
X46101000Y-96455933D01*
X46551800Y-96382043D01*
X47933530Y-96342043D01*
X48138031Y-96396843D01*
X48138031Y-97329906D01*
X47814154Y-97486436D01*
X47746482Y-97621996D01*
X47550299Y-98345315D01*
X47706121Y-99041687D01*
X47725466Y-99092621D01*
X48048438Y-99482620D01*
X48373791Y-99293436D01*
X48561454Y-98636912D01*
X48570445Y-98417944D01*
X48438270Y-97686914D01*
X48138031Y-97329906D01*
X48138031Y-96396843D01*
X48782912Y-96569652D01*
X48951001Y-96690881D01*
X49701109Y-97051229D01*
X50576981Y-97183222D01*
X51470303Y-97342274D01*
X52674041Y-97753647D01*
X53618684Y-98178256D01*
X55591352Y-99173290D01*
X55696871Y-98277578D01*
X56108936Y-97385949D01*
X56724116Y-96866914D01*
X57463208Y-96553932D01*
X58165209Y-96600946D01*
X58838194Y-96845850D01*
X60719434Y-97984555D01*
X62286036Y-99643873D01*
X63380588Y-101656602D01*
X63389465Y-101680212D01*
X63957740Y-103381262D01*
X64434136Y-105151954D01*
X64798445Y-106864498D01*
X65030459Y-108391105D01*
X65109970Y-109603986D01*
X65016770Y-110375350D01*
X64798223Y-110588777D01*
X64562016Y-110279383D01*
X64447475Y-109521712D01*
X64445445Y-109393519D01*
X64330417Y-108393887D01*
X64024262Y-106942826D01*
X63585372Y-105248869D01*
X63072139Y-103520550D01*
X62542955Y-101966401D01*
X62056211Y-100794956D01*
X62014223Y-100711000D01*
X61284420Y-99671619D01*
X60297181Y-98765226D01*
X59196092Y-98062503D01*
X58124740Y-97634134D01*
X57226710Y-97550802D01*
X56645589Y-97883192D01*
X56569905Y-98030912D01*
X56557418Y-98637355D01*
X56737704Y-99629237D01*
X56903125Y-100235773D01*
X57298695Y-101570998D01*
X57761609Y-103199143D01*
X58254469Y-104980433D01*
X58739881Y-106775098D01*
X59180447Y-108443363D01*
X59538771Y-109845456D01*
X59777457Y-110841604D01*
X59859334Y-111284926D01*
X59610885Y-111588191D01*
X59446933Y-111568440D01*
X59176258Y-111186045D01*
X58807533Y-110283173D01*
X58404869Y-109026013D01*
X58249593Y-108464697D01*
X57853832Y-107114218D01*
X57470492Y-106052956D01*
X57162409Y-105446476D01*
X57074494Y-105368368D01*
X56804825Y-104963063D01*
X56684727Y-104158794D01*
X56684334Y-104107740D01*
X56360318Y-102383282D01*
X55483679Y-100768255D01*
X54197525Y-99489405D01*
X53509334Y-99077210D01*
X52137242Y-98509543D01*
X50889534Y-98166841D01*
X49912734Y-98071155D01*
X49353363Y-98244534D01*
X49276000Y-98440123D01*
X49521885Y-98895564D01*
X49716973Y-98949078D01*
X51402443Y-99257730D01*
X52948870Y-100078381D01*
X54186503Y-101275806D01*
X54945593Y-102714778D01*
X55059901Y-103205375D01*
X55277842Y-104078406D01*
X55550099Y-104559137D01*
X55630169Y-104591555D01*
X55962272Y-104865174D01*
X55978778Y-104984373D01*
X55670339Y-105228471D01*
X54877366Y-105215538D01*
X53775953Y-105053885D01*
X53947364Y-111084526D01*
X54018706Y-113113842D01*
X54108033Y-114925551D01*
X54206915Y-116389575D01*
X54306923Y-117375839D01*
X54377615Y-117723801D01*
X54625153Y-118109621D01*
X55030559Y-118098810D01*
X55273223Y-117985193D01*
X55273223Y-119055444D01*
X54982847Y-119184520D01*
X55038037Y-119290629D01*
X55456702Y-119332850D01*
X55508408Y-119290629D01*
X55459982Y-119080903D01*
X55273223Y-119055444D01*
X55273223Y-117985193D01*
X55640374Y-117813289D01*
X56328451Y-117591917D01*
X56843415Y-117625051D01*
X57003377Y-117850894D01*
X56690088Y-118169943D01*
X56470423Y-118630122D01*
X56343787Y-119523585D01*
X56331556Y-119928609D01*
X56293347Y-120721921D01*
X56106919Y-121347956D01*
X55664567Y-121979787D01*
X54858587Y-122790489D01*
X54141976Y-123447146D01*
X53012959Y-124396650D01*
X51966656Y-125151852D01*
X51190073Y-125580942D01*
X51055171Y-125622877D01*
X50032061Y-125872692D01*
X49550110Y-126118016D01*
X49455541Y-126476327D01*
X49520918Y-126794975D01*
X49670485Y-127293106D01*
X49902047Y-127469051D01*
X50412621Y-127344040D01*
X51288603Y-126985460D01*
X52826836Y-126127628D01*
X54469219Y-124864175D01*
X55967800Y-123400901D01*
X56720987Y-122476639D01*
X57384732Y-121384124D01*
X57684734Y-120294110D01*
X57742667Y-119167831D01*
X57834849Y-117865924D01*
X57974550Y-117570810D01*
X57974550Y-122406833D01*
X55926263Y-124545201D01*
X54478462Y-125899188D01*
X52984335Y-127026698D01*
X51595466Y-127829678D01*
X50463437Y-128210076D01*
X50233366Y-128227666D01*
X49737906Y-128519915D01*
X49455630Y-129156274D01*
X49511314Y-129688201D01*
X49883922Y-129875984D01*
X50763934Y-130162245D01*
X51970753Y-130489061D01*
X52135364Y-130529824D01*
X54851725Y-130970105D01*
X57171757Y-130954780D01*
X59403777Y-130650908D01*
X61043206Y-130099031D01*
X62171718Y-129258933D01*
X62842916Y-128162355D01*
X63313265Y-126663475D01*
X63317746Y-125513570D01*
X62796961Y-124608149D01*
X61691515Y-123842724D01*
X59980354Y-123126530D01*
X57974550Y-122406833D01*
X57974550Y-117570810D01*
X58169972Y-117157985D01*
X58835899Y-116949680D01*
X59683734Y-117083841D01*
X60386511Y-117480260D01*
X60564889Y-118174513D01*
X60564889Y-119044029D01*
X61833089Y-118439267D01*
X62671944Y-118076268D01*
X63133811Y-118041922D01*
X63463620Y-118331679D01*
X63520575Y-118407914D01*
X63911185Y-118784702D01*
X64365636Y-118652582D01*
X64633626Y-118463367D01*
X65724324Y-117728621D01*
X66406290Y-117476207D01*
X66735498Y-117639475D01*
X66577922Y-117981534D01*
G37*
X66577922Y-117981534D02*
X65984353Y-118522577D01*
X65143135Y-119132933D01*
X64242610Y-119682930D01*
X63471122Y-120042899D01*
X63141656Y-120113777D01*
X62734329Y-119829935D01*
X62681556Y-119584611D01*
X62642103Y-119177321D01*
X62404850Y-119109190D01*
X61791451Y-119377657D01*
X61424258Y-119566556D01*
X60513178Y-119908609D01*
X60020180Y-119717484D01*
X59860289Y-118954722D01*
X59859334Y-118858235D01*
X59671587Y-118164525D01*
X59330167Y-117997111D01*
X58903100Y-118301296D01*
X58801000Y-118834958D01*
X58729222Y-119828449D01*
X58595250Y-120701555D01*
X58521416Y-121295208D01*
X58694911Y-121676432D01*
X59260761Y-121983003D01*
X60317992Y-122338209D01*
X62037805Y-122971267D01*
X63163590Y-123650641D01*
X63803833Y-124488074D01*
X64067023Y-125595307D01*
X64091348Y-126224799D01*
X63869182Y-128083847D01*
X63180314Y-129538320D01*
X61986712Y-130614083D01*
X60250339Y-131336999D01*
X57933160Y-131732934D01*
X55848219Y-131830401D01*
X54283564Y-131727435D01*
X52406791Y-131433134D01*
X50482060Y-131004987D01*
X48773531Y-130500487D01*
X47688500Y-130054531D01*
X46750926Y-129655022D01*
X45973222Y-129454196D01*
X45968116Y-129453747D01*
X45133369Y-129070248D01*
X44434386Y-128219984D01*
X43964634Y-127130500D01*
X43817575Y-126029342D01*
X44086674Y-125144054D01*
X44160478Y-125052936D01*
X44474061Y-124595215D01*
X44256686Y-124284799D01*
X43810374Y-124059629D01*
X43160501Y-123646946D01*
X42926000Y-123296341D01*
X43041744Y-122996326D01*
X43468200Y-123014460D01*
X44324206Y-123371943D01*
X44869134Y-123643011D01*
X46243752Y-124138764D01*
X46344977Y-124137407D01*
X46344977Y-125466692D01*
X45338575Y-125502150D01*
X44791885Y-125988108D01*
X44755121Y-126800502D01*
X45278496Y-127815271D01*
X45355011Y-127912559D01*
X45882677Y-128451859D01*
X46301831Y-128462123D01*
X46607748Y-128246272D01*
X47021253Y-127565624D01*
X47101721Y-126688753D01*
X46875756Y-125897064D01*
X46369960Y-125471960D01*
X46344977Y-125466692D01*
X46344977Y-124137407D01*
X47469643Y-124122323D01*
X48049428Y-124082376D01*
X48049428Y-124980179D01*
X47906428Y-125410774D01*
X47875617Y-125993952D01*
X47918420Y-127062235D01*
X48038103Y-127887882D01*
X48079021Y-128022425D01*
X48418011Y-128585015D01*
X48694889Y-128539510D01*
X48834557Y-127983253D01*
X48779072Y-127115049D01*
X48527915Y-125884639D01*
X48270645Y-125155575D01*
X48049428Y-124980179D01*
X48049428Y-124082376D01*
X48427002Y-124056361D01*
X49010150Y-124361294D01*
X49138054Y-124516414D01*
X49748324Y-124939746D01*
X50629746Y-124847091D01*
X51840877Y-124222100D01*
X52911344Y-123462821D01*
X54262232Y-122311507D01*
X54983352Y-121387244D01*
X55098313Y-120650789D01*
X54848273Y-120243193D01*
X54334786Y-120029714D01*
X53345189Y-119850361D01*
X52017863Y-119708844D01*
X50491189Y-119608877D01*
X48903548Y-119554169D01*
X47393323Y-119548434D01*
X46098894Y-119595383D01*
X45158643Y-119698727D01*
X44710952Y-119862179D01*
X44718182Y-119971479D01*
X45318148Y-120400386D01*
X45615029Y-120466555D01*
X46056077Y-120671619D01*
X46101000Y-120819333D01*
X45887092Y-121203105D01*
X45297240Y-121090003D01*
X44409252Y-120523447D01*
X43300935Y-119546855D01*
X42681946Y-118911366D01*
X40575953Y-116650622D01*
X39500609Y-117331482D01*
X38283211Y-117820395D01*
X36376846Y-118180834D01*
X35259754Y-118304437D01*
X33804466Y-118461235D01*
X32602336Y-118632348D01*
X31838248Y-118789692D01*
X31689288Y-118846808D01*
X31449671Y-119321303D01*
X31304385Y-120238523D01*
X31284334Y-120769597D01*
X31199841Y-121853701D01*
X30986181Y-122665171D01*
X30861000Y-122865444D01*
X30133198Y-123210582D01*
X29183540Y-123257829D01*
X28377981Y-123009605D01*
X28193266Y-122847805D01*
X27728453Y-121831849D01*
X27503024Y-120401645D01*
X27506380Y-118793817D01*
X27727924Y-117244992D01*
X28157058Y-115991793D01*
X28523875Y-115465903D01*
X28882604Y-115159961D01*
X29316729Y-114970796D01*
X29970315Y-114884250D01*
X30853088Y-114885909D01*
X30853088Y-115533918D01*
X29922183Y-115756809D01*
X29260217Y-115921334D01*
X28906640Y-116135657D01*
X28709785Y-116603467D01*
X28517985Y-117528451D01*
X28487318Y-117683810D01*
X28332688Y-119984654D01*
X28688611Y-121965861D01*
X29094990Y-122436186D01*
X29736798Y-122571725D01*
X30276840Y-122337433D01*
X30385826Y-122142250D01*
X30466104Y-121606574D01*
X30561639Y-120557419D01*
X30656009Y-119186151D01*
X30688299Y-118617598D01*
X30853088Y-115533918D01*
X30853088Y-114885909D01*
X30987424Y-114886162D01*
X32401463Y-114956841D01*
X32401463Y-115880444D01*
X31842547Y-116185589D01*
X31637846Y-117086428D01*
X31637111Y-117162891D01*
X31773137Y-117751157D01*
X32166278Y-117771907D01*
X32510680Y-117380389D01*
X32686681Y-116729891D01*
X32656066Y-116127754D01*
X32401463Y-115880444D01*
X32401463Y-114956841D01*
X32512119Y-114962373D01*
X33211472Y-115005175D01*
X35608909Y-115100983D01*
X37386458Y-115034262D01*
X38615094Y-114785721D01*
X39365792Y-114336071D01*
X39709526Y-113666020D01*
X39751000Y-113227771D01*
X39853575Y-112245002D01*
X39871861Y-112155649D01*
X39871861Y-115217339D01*
X39322218Y-115394623D01*
X38570692Y-115704055D01*
X37462677Y-116012798D01*
X36067543Y-116203468D01*
X35352609Y-116233222D01*
X34149937Y-116287632D01*
X33537881Y-116468966D01*
X33401000Y-116724645D01*
X33684221Y-117276067D01*
X33900224Y-117407639D01*
X34621723Y-117479076D01*
X35767296Y-117394304D01*
X37083469Y-117193921D01*
X38316766Y-116918528D01*
X39213712Y-116608725D01*
X39348953Y-116534899D01*
X39926883Y-116014674D01*
X40103778Y-115619196D01*
X40074660Y-115295391D01*
X39871861Y-115217339D01*
X39871861Y-112155649D01*
X40114893Y-110968080D01*
X40301616Y-110273825D01*
X40596966Y-109105256D01*
X40583998Y-108303854D01*
X40168051Y-107703844D01*
X39254464Y-107139447D01*
X38240588Y-106664395D01*
X37294572Y-106285105D01*
X36356778Y-106040328D01*
X35231931Y-105902020D01*
X33724755Y-105842138D01*
X32444297Y-105831981D01*
X30442773Y-105805009D01*
X29035873Y-105677853D01*
X28112972Y-105371052D01*
X27563442Y-104805144D01*
X27276658Y-103900667D01*
X27141992Y-102578160D01*
X27110263Y-102000595D01*
X27065775Y-100614854D01*
X27133381Y-99713373D01*
X27357066Y-99078152D01*
X27780814Y-98491190D01*
X27829939Y-98433663D01*
X28544177Y-97769912D01*
X29178475Y-97635897D01*
X29178475Y-98594333D01*
X28439845Y-98870741D01*
X28114295Y-99211694D01*
X27912619Y-99928180D01*
X27848070Y-101032442D01*
X27903521Y-102291526D01*
X28061844Y-103472481D01*
X28305913Y-104342354D01*
X28513253Y-104638050D01*
X29252906Y-104858812D01*
X29696834Y-104858159D01*
X30092233Y-104722869D01*
X30303333Y-104333907D01*
X30382952Y-103522861D01*
X30388989Y-102651277D01*
X30305006Y-100741535D01*
X30070177Y-99467598D01*
X29667513Y-98772532D01*
X29178475Y-98594333D01*
X29178475Y-97635897D01*
X29192023Y-97633034D01*
X29485126Y-97701179D01*
X30158516Y-98211876D01*
X30778538Y-99151532D01*
X31194600Y-100250283D01*
X31284334Y-100925361D01*
X31599877Y-101680459D01*
X31637111Y-101706873D01*
X31637111Y-103004055D01*
X31388508Y-103143313D01*
X31284660Y-103833848D01*
X31284334Y-103886000D01*
X31378272Y-104603098D01*
X31620321Y-104777303D01*
X31637111Y-104767944D01*
X31936550Y-104268898D01*
X31989889Y-103886000D01*
X31823052Y-103219355D01*
X31637111Y-103004055D01*
X31637111Y-101706873D01*
X32398615Y-102247101D01*
X33401000Y-102463958D01*
X33675989Y-102491335D01*
X33675989Y-103555228D01*
X33000997Y-103593478D01*
X32727856Y-103785902D01*
X32695445Y-103973632D01*
X32982063Y-104557121D01*
X33253464Y-104730201D01*
X33986964Y-104880080D01*
X34981486Y-104944294D01*
X35004293Y-104944333D01*
X36171246Y-105108661D01*
X37621542Y-105531607D01*
X39069839Y-106108109D01*
X40230792Y-106733108D01*
X40576613Y-106995998D01*
X41100468Y-107378572D01*
X41469098Y-107222411D01*
X41729143Y-106892487D01*
X41985867Y-106431629D01*
X41857843Y-106063747D01*
X41244310Y-105606136D01*
X40903531Y-105395405D01*
X39360592Y-104606477D01*
X37658590Y-104071357D01*
X35559447Y-103720805D01*
X34900306Y-103649471D01*
X33675989Y-103555228D01*
X33675989Y-102491335D01*
X34884246Y-102611626D01*
X36678639Y-102974877D01*
X38521416Y-103482623D01*
X40149816Y-104063775D01*
X41178366Y-104568036D01*
X42123154Y-105127853D01*
X42696478Y-105344149D01*
X43124612Y-105248264D01*
X43595253Y-104902792D01*
X45153292Y-104073151D01*
X47251277Y-103654192D01*
X49850079Y-103653507D01*
X49981556Y-103663706D01*
X50082736Y-103673355D01*
X50082736Y-104582539D01*
X48707545Y-104601633D01*
X47331215Y-104683339D01*
X46128793Y-104824029D01*
X45275326Y-105020077D01*
X45113343Y-105089227D01*
X43610774Y-106201988D01*
X42314713Y-107774201D01*
X41653314Y-109001277D01*
X40852201Y-111437894D01*
X40674813Y-113569754D01*
X41121480Y-115422533D01*
X41749396Y-116493068D01*
X42449314Y-117312666D01*
X43096666Y-117888485D01*
X43204923Y-117954948D01*
X43885933Y-118158922D01*
X45084631Y-118375820D01*
X46613896Y-118586056D01*
X48286612Y-118770042D01*
X49915659Y-118908191D01*
X51313919Y-118980914D01*
X52294272Y-118968625D01*
X52541047Y-118932249D01*
X53460606Y-118701454D01*
X51881005Y-115321200D01*
X50301403Y-111940947D01*
X50863922Y-109941945D01*
X51277474Y-108560731D01*
X51717181Y-107224153D01*
X51938721Y-106612888D01*
X52265202Y-105685426D01*
X52441138Y-105030259D01*
X52451000Y-104937194D01*
X52129511Y-104746693D01*
X51281740Y-104629683D01*
X50082736Y-104582539D01*
X50082736Y-103673355D01*
X51388157Y-103797850D01*
X52605603Y-103950346D01*
X53386072Y-104089819D01*
X53421139Y-104099175D01*
X54008421Y-104155450D01*
X54203699Y-103742469D01*
X54214889Y-103425045D01*
X53912540Y-102355276D01*
X53141922Y-101300387D01*
X52107683Y-100487381D01*
X51283207Y-100173119D01*
X50285085Y-100109974D01*
X48967619Y-100177898D01*
X48180735Y-100276068D01*
X46556763Y-100432339D01*
X45471584Y-100266916D01*
X44817981Y-99741798D01*
X44520438Y-98978697D01*
X44377078Y-97751759D01*
X44666984Y-96984505D01*
X45483917Y-96557078D01*
X46101000Y-96455933D01*
X46101000Y-97183222D01*
X45614717Y-97321340D01*
X45418508Y-97860537D01*
X45395445Y-98417944D01*
X45459537Y-99251273D01*
X45755858Y-99592700D01*
X46315133Y-99652666D01*
X46965815Y-99547787D01*
X47047903Y-99173214D01*
X47020688Y-99094647D01*
X46832684Y-98250954D01*
X46806556Y-97859925D01*
X46543311Y-97291119D01*
X46101000Y-97183222D01*
X46101000Y-96455933D01*
X46551800Y-96382043D01*
X47933530Y-96342043D01*
X48138031Y-96396843D01*
X48138031Y-97329906D01*
X47814154Y-97486436D01*
X47746482Y-97621996D01*
X47550299Y-98345315D01*
X47706121Y-99041687D01*
X47725466Y-99092621D01*
X48048438Y-99482620D01*
X48373791Y-99293436D01*
X48561454Y-98636912D01*
X48570445Y-98417944D01*
X48438270Y-97686914D01*
X48138031Y-97329906D01*
X48138031Y-96396843D01*
X48782912Y-96569652D01*
X48951001Y-96690881D01*
X49701109Y-97051229D01*
X50576981Y-97183222D01*
X51470303Y-97342274D01*
X52674041Y-97753647D01*
X53618684Y-98178256D01*
X55591352Y-99173290D01*
X55696871Y-98277578D01*
X56108936Y-97385949D01*
X56724116Y-96866914D01*
X57463208Y-96553932D01*
X58165209Y-96600946D01*
X58838194Y-96845850D01*
X60719434Y-97984555D01*
X62286036Y-99643873D01*
X63380588Y-101656602D01*
X63389465Y-101680212D01*
X63957740Y-103381262D01*
X64434136Y-105151954D01*
X64798445Y-106864498D01*
X65030459Y-108391105D01*
X65109970Y-109603986D01*
X65016770Y-110375350D01*
X64798223Y-110588777D01*
X64562016Y-110279383D01*
X64447475Y-109521712D01*
X64445445Y-109393519D01*
X64330417Y-108393887D01*
X64024262Y-106942826D01*
X63585372Y-105248869D01*
X63072139Y-103520550D01*
X62542955Y-101966401D01*
X62056211Y-100794956D01*
X62014223Y-100711000D01*
X61284420Y-99671619D01*
X60297181Y-98765226D01*
X59196092Y-98062503D01*
X58124740Y-97634134D01*
X57226710Y-97550802D01*
X56645589Y-97883192D01*
X56569905Y-98030912D01*
X56557418Y-98637355D01*
X56737704Y-99629237D01*
X56903125Y-100235773D01*
X57298695Y-101570998D01*
X57761609Y-103199143D01*
X58254469Y-104980433D01*
X58739881Y-106775098D01*
X59180447Y-108443363D01*
X59538771Y-109845456D01*
X59777457Y-110841604D01*
X59859334Y-111284926D01*
X59610885Y-111588191D01*
X59446933Y-111568440D01*
X59176258Y-111186045D01*
X58807533Y-110283173D01*
X58404869Y-109026013D01*
X58249593Y-108464697D01*
X57853832Y-107114218D01*
X57470492Y-106052956D01*
X57162409Y-105446476D01*
X57074494Y-105368368D01*
X56804825Y-104963063D01*
X56684727Y-104158794D01*
X56684334Y-104107740D01*
X56360318Y-102383282D01*
X55483679Y-100768255D01*
X54197525Y-99489405D01*
X53509334Y-99077210D01*
X52137242Y-98509543D01*
X50889534Y-98166841D01*
X49912734Y-98071155D01*
X49353363Y-98244534D01*
X49276000Y-98440123D01*
X49521885Y-98895564D01*
X49716973Y-98949078D01*
X51402443Y-99257730D01*
X52948870Y-100078381D01*
X54186503Y-101275806D01*
X54945593Y-102714778D01*
X55059901Y-103205375D01*
X55277842Y-104078406D01*
X55550099Y-104559137D01*
X55630169Y-104591555D01*
X55962272Y-104865174D01*
X55978778Y-104984373D01*
X55670339Y-105228471D01*
X54877366Y-105215538D01*
X53775953Y-105053885D01*
X53947364Y-111084526D01*
X54018706Y-113113842D01*
X54108033Y-114925551D01*
X54206915Y-116389575D01*
X54306923Y-117375839D01*
X54377615Y-117723801D01*
X54625153Y-118109621D01*
X55030559Y-118098810D01*
X55273223Y-117985193D01*
X55273223Y-119055444D01*
X54982847Y-119184520D01*
X55038037Y-119290629D01*
X55456702Y-119332850D01*
X55508408Y-119290629D01*
X55459982Y-119080903D01*
X55273223Y-119055444D01*
X55273223Y-117985193D01*
X55640374Y-117813289D01*
X56328451Y-117591917D01*
X56843415Y-117625051D01*
X57003377Y-117850894D01*
X56690088Y-118169943D01*
X56470423Y-118630122D01*
X56343787Y-119523585D01*
X56331556Y-119928609D01*
X56293347Y-120721921D01*
X56106919Y-121347956D01*
X55664567Y-121979787D01*
X54858587Y-122790489D01*
X54141976Y-123447146D01*
X53012959Y-124396650D01*
X51966656Y-125151852D01*
X51190073Y-125580942D01*
X51055171Y-125622877D01*
X50032061Y-125872692D01*
X49550110Y-126118016D01*
X49455541Y-126476327D01*
X49520918Y-126794975D01*
X49670485Y-127293106D01*
X49902047Y-127469051D01*
X50412621Y-127344040D01*
X51288603Y-126985460D01*
X52826836Y-126127628D01*
X54469219Y-124864175D01*
X55967800Y-123400901D01*
X56720987Y-122476639D01*
X57384732Y-121384124D01*
X57684734Y-120294110D01*
X57742667Y-119167831D01*
X57834849Y-117865924D01*
X57974550Y-117570810D01*
X57974550Y-122406833D01*
X55926263Y-124545201D01*
X54478462Y-125899188D01*
X52984335Y-127026698D01*
X51595466Y-127829678D01*
X50463437Y-128210076D01*
X50233366Y-128227666D01*
X49737906Y-128519915D01*
X49455630Y-129156274D01*
X49511314Y-129688201D01*
X49883922Y-129875984D01*
X50763934Y-130162245D01*
X51970753Y-130489061D01*
X52135364Y-130529824D01*
X54851725Y-130970105D01*
X57171757Y-130954780D01*
X59403777Y-130650908D01*
X61043206Y-130099031D01*
X62171718Y-129258933D01*
X62842916Y-128162355D01*
X63313265Y-126663475D01*
X63317746Y-125513570D01*
X62796961Y-124608149D01*
X61691515Y-123842724D01*
X59980354Y-123126530D01*
X57974550Y-122406833D01*
X57974550Y-117570810D01*
X58169972Y-117157985D01*
X58835899Y-116949680D01*
X59683734Y-117083841D01*
X60386511Y-117480260D01*
X60564889Y-118174513D01*
X60564889Y-119044029D01*
X61833089Y-118439267D01*
X62671944Y-118076268D01*
X63133811Y-118041922D01*
X63463620Y-118331679D01*
X63520575Y-118407914D01*
X63911185Y-118784702D01*
X64365636Y-118652582D01*
X64633626Y-118463367D01*
X65724324Y-117728621D01*
X66406290Y-117476207D01*
X66735498Y-117639475D01*
X66577922Y-117981534D01*
G36*
X46545172Y-123284091D02*
G01*
X45843107Y-123163619D01*
X44822087Y-122694682D01*
X44330101Y-122402407D01*
X43472444Y-121771726D01*
X42965861Y-121224568D01*
X42902526Y-120879771D01*
X43102205Y-120819333D01*
X43557450Y-120985149D01*
X44352954Y-121399488D01*
X45279558Y-121937684D01*
X46128103Y-122475075D01*
X46689431Y-122886996D01*
X46801473Y-123024194D01*
X46545172Y-123284091D01*
G37*
X46545172Y-123284091D02*
X45843107Y-123163619D01*
X44822087Y-122694682D01*
X44330101Y-122402407D01*
X43472444Y-121771726D01*
X42965861Y-121224568D01*
X42902526Y-120879771D01*
X43102205Y-120819333D01*
X43557450Y-120985149D01*
X44352954Y-121399488D01*
X45279558Y-121937684D01*
X46128103Y-122475075D01*
X46689431Y-122886996D01*
X46801473Y-123024194D01*
X46545172Y-123284091D01*
G36*
X67848399Y-107692780D02*
G01*
X67607059Y-107955058D01*
X67088390Y-108362879D01*
X66696107Y-108334173D01*
X66143394Y-107829980D01*
X66061766Y-107745151D01*
X65225865Y-106528060D01*
X64997329Y-105317405D01*
X65356949Y-104303630D01*
X66013464Y-103655465D01*
X66474286Y-103656899D01*
X66474286Y-104399560D01*
X65970843Y-104736350D01*
X65915167Y-104827072D01*
X65756183Y-105635404D01*
X65967358Y-106517158D01*
X66438981Y-107197940D01*
X66949400Y-107413777D01*
X67417119Y-107259218D01*
X67602773Y-106676654D01*
X67620445Y-106191467D01*
X67444592Y-105243537D01*
X67014037Y-104607428D01*
X66474286Y-104399560D01*
X66474286Y-103656899D01*
X66697359Y-103657594D01*
X67523673Y-104312423D01*
X67558951Y-104349709D01*
X68183116Y-105433117D01*
X68280706Y-106630448D01*
X67848399Y-107692780D01*
G37*
X67848399Y-107692780D02*
X67607059Y-107955058D01*
X67088390Y-108362879D01*
X66696107Y-108334173D01*
X66143394Y-107829980D01*
X66061766Y-107745151D01*
X65225865Y-106528060D01*
X64997329Y-105317405D01*
X65356949Y-104303630D01*
X66013464Y-103655465D01*
X66474286Y-103656899D01*
X66474286Y-104399560D01*
X65970843Y-104736350D01*
X65915167Y-104827072D01*
X65756183Y-105635404D01*
X65967358Y-106517158D01*
X66438981Y-107197940D01*
X66949400Y-107413777D01*
X67417119Y-107259218D01*
X67602773Y-106676654D01*
X67620445Y-106191467D01*
X67444592Y-105243537D01*
X67014037Y-104607428D01*
X66474286Y-104399560D01*
X66474286Y-103656899D01*
X66697359Y-103657594D01*
X67523673Y-104312423D01*
X67558951Y-104349709D01*
X68183116Y-105433117D01*
X68280706Y-106630448D01*
X67848399Y-107692780D01*
G36*
X68843712Y-113123735D02*
G01*
X68642433Y-113575026D01*
X67902627Y-114646227D01*
X67127480Y-115100624D01*
X66418133Y-115013645D01*
X65875725Y-114460715D01*
X65601396Y-113517262D01*
X65696286Y-112258710D01*
X65912257Y-111538963D01*
X66323555Y-110823561D01*
X66953744Y-110637884D01*
X67204394Y-110657018D01*
X67262792Y-110683509D01*
X67262792Y-111352911D01*
X66673392Y-111541325D01*
X66456485Y-111891068D01*
X66253480Y-113107629D01*
X66315800Y-114015009D01*
X66626340Y-114452211D01*
X66730368Y-114469333D01*
X67329081Y-114170363D01*
X67892556Y-113458611D01*
X68240673Y-112611818D01*
X68263410Y-112105429D01*
X67894229Y-111552979D01*
X67262792Y-111352911D01*
X67262792Y-110683509D01*
X68136142Y-111079688D01*
X68631305Y-111667289D01*
X68944433Y-112426596D01*
X68843712Y-113123735D01*
G37*
X68843712Y-113123735D02*
X68642433Y-113575026D01*
X67902627Y-114646227D01*
X67127480Y-115100624D01*
X66418133Y-115013645D01*
X65875725Y-114460715D01*
X65601396Y-113517262D01*
X65696286Y-112258710D01*
X65912257Y-111538963D01*
X66323555Y-110823561D01*
X66953744Y-110637884D01*
X67204394Y-110657018D01*
X67262792Y-110683509D01*
X67262792Y-111352911D01*
X66673392Y-111541325D01*
X66456485Y-111891068D01*
X66253480Y-113107629D01*
X66315800Y-114015009D01*
X66626340Y-114452211D01*
X66730368Y-114469333D01*
X67329081Y-114170363D01*
X67892556Y-113458611D01*
X68240673Y-112611818D01*
X68263410Y-112105429D01*
X67894229Y-111552979D01*
X67262792Y-111352911D01*
X67262792Y-110683509D01*
X68136142Y-111079688D01*
X68631305Y-111667289D01*
X68944433Y-112426596D01*
X68843712Y-113123735D01*
G36*
X77791738Y-107635507D02*
G01*
X77629004Y-107988352D01*
X77207104Y-108192971D01*
X76370176Y-108290544D01*
X75199980Y-108320234D01*
X73678297Y-108373921D01*
X72198900Y-108488893D01*
X71236417Y-108615826D01*
X70273778Y-108742196D01*
X69828340Y-108643445D01*
X69737111Y-108375869D01*
X70072215Y-108027559D01*
X71009560Y-107741356D01*
X72447199Y-107535472D01*
X74283187Y-107428118D01*
X75105901Y-107416844D01*
X76123052Y-107368634D01*
X76565287Y-107199547D01*
X76574976Y-106904189D01*
X76159003Y-106373134D01*
X75329212Y-105629179D01*
X74279705Y-104817533D01*
X73204583Y-104083404D01*
X72297950Y-103572001D01*
X71942324Y-103438490D01*
X71191894Y-103378075D01*
X71015607Y-103667514D01*
X71405215Y-104258379D01*
X72205893Y-104986219D01*
X72957069Y-105669643D01*
X73353813Y-106193239D01*
X73359467Y-106374862D01*
X72883681Y-106539156D01*
X71936853Y-106709554D01*
X71060028Y-106814367D01*
X69769412Y-106882613D01*
X69125199Y-106765568D01*
X69089828Y-106451157D01*
X69266741Y-106237851D01*
X69773035Y-106050467D01*
X70304255Y-106002666D01*
X71106950Y-105851819D01*
X71264206Y-105454524D01*
X70754567Y-104893648D01*
X70616027Y-104798400D01*
X69865739Y-104083049D01*
X69725584Y-103420727D01*
X70101066Y-102900629D01*
X70897691Y-102611950D01*
X72020963Y-102643884D01*
X72712121Y-102819877D01*
X73648077Y-103286902D01*
X74738765Y-104062503D01*
X75841584Y-105011491D01*
X76813931Y-105998676D01*
X77513206Y-106888867D01*
X77796809Y-107546873D01*
X77791738Y-107635507D01*
G37*
X77791738Y-107635507D02*
X77629004Y-107988352D01*
X77207104Y-108192971D01*
X76370176Y-108290544D01*
X75199980Y-108320234D01*
X73678297Y-108373921D01*
X72198900Y-108488893D01*
X71236417Y-108615826D01*
X70273778Y-108742196D01*
X69828340Y-108643445D01*
X69737111Y-108375869D01*
X70072215Y-108027559D01*
X71009560Y-107741356D01*
X72447199Y-107535472D01*
X74283187Y-107428118D01*
X75105901Y-107416844D01*
X76123052Y-107368634D01*
X76565287Y-107199547D01*
X76574976Y-106904189D01*
X76159003Y-106373134D01*
X75329212Y-105629179D01*
X74279705Y-104817533D01*
X73204583Y-104083404D01*
X72297950Y-103572001D01*
X71942324Y-103438490D01*
X71191894Y-103378075D01*
X71015607Y-103667514D01*
X71405215Y-104258379D01*
X72205893Y-104986219D01*
X72957069Y-105669643D01*
X73353813Y-106193239D01*
X73359467Y-106374862D01*
X72883681Y-106539156D01*
X71936853Y-106709554D01*
X71060028Y-106814367D01*
X69769412Y-106882613D01*
X69125199Y-106765568D01*
X69089828Y-106451157D01*
X69266741Y-106237851D01*
X69773035Y-106050467D01*
X70304255Y-106002666D01*
X71106950Y-105851819D01*
X71264206Y-105454524D01*
X70754567Y-104893648D01*
X70616027Y-104798400D01*
X69865739Y-104083049D01*
X69725584Y-103420727D01*
X70101066Y-102900629D01*
X70897691Y-102611950D01*
X72020963Y-102643884D01*
X72712121Y-102819877D01*
X73648077Y-103286902D01*
X74738765Y-104062503D01*
X75841584Y-105011491D01*
X76813931Y-105998676D01*
X77513206Y-106888867D01*
X77796809Y-107546873D01*
X77791738Y-107635507D01*
G36*
X71374622Y-113250748D02*
G01*
X70883612Y-113103836D01*
X70768084Y-113043579D01*
X70266146Y-112557238D01*
X70223510Y-112160520D01*
X70193949Y-111598262D01*
X70055860Y-111449691D01*
X69818446Y-110972557D01*
X69847209Y-110821032D01*
X69823918Y-110189263D01*
X69677029Y-109795027D01*
X69545557Y-109297581D01*
X69663205Y-109177666D01*
X70107971Y-109422591D01*
X70723065Y-109990294D01*
X71267677Y-110630165D01*
X71501000Y-111090230D01*
X71239942Y-111230840D01*
X70971834Y-111166759D01*
X70516548Y-111138895D01*
X70442667Y-111262209D01*
X70683549Y-111712118D01*
X70971834Y-111999888D01*
X71420458Y-112607109D01*
X71501000Y-112937441D01*
X71374622Y-113250748D01*
G37*
X71374622Y-113250748D02*
X70883612Y-113103836D01*
X70768084Y-113043579D01*
X70266146Y-112557238D01*
X70223510Y-112160520D01*
X70193949Y-111598262D01*
X70055860Y-111449691D01*
X69818446Y-110972557D01*
X69847209Y-110821032D01*
X69823918Y-110189263D01*
X69677029Y-109795027D01*
X69545557Y-109297581D01*
X69663205Y-109177666D01*
X70107971Y-109422591D01*
X70723065Y-109990294D01*
X71267677Y-110630165D01*
X71501000Y-111090230D01*
X71239942Y-111230840D01*
X70971834Y-111166759D01*
X70516548Y-111138895D01*
X70442667Y-111262209D01*
X70683549Y-111712118D01*
X70971834Y-111999888D01*
X71420458Y-112607109D01*
X71501000Y-112937441D01*
X71374622Y-113250748D01*
G36*
X76919630Y-119470383D02*
G01*
X76782963Y-119590608D01*
X76306887Y-119538430D01*
X75482842Y-119160803D01*
X74896141Y-118804952D01*
X73647556Y-118096724D01*
X72157535Y-117412687D01*
X71378067Y-117117580D01*
X70214826Y-116662792D01*
X69523346Y-116269949D01*
X69368622Y-115991692D01*
X69815649Y-115880665D01*
X69850657Y-115880444D01*
X70630943Y-116019499D01*
X71782275Y-116372816D01*
X73041910Y-116844625D01*
X74147104Y-117339153D01*
X74676000Y-117639305D01*
X75647035Y-118277266D01*
X76153505Y-118511574D01*
X76313001Y-118337198D01*
X76243115Y-117749112D01*
X76210508Y-117573675D01*
X75718307Y-115860136D01*
X74961086Y-114262614D01*
X74065709Y-113028772D01*
X73718737Y-112709225D01*
X72986598Y-112256567D01*
X72668987Y-112362530D01*
X72771602Y-113010700D01*
X73244275Y-114076149D01*
X73680708Y-114970115D01*
X73939659Y-115574895D01*
X73970445Y-115690001D01*
X73696156Y-115872879D01*
X73092236Y-115838823D01*
X72487103Y-115625415D01*
X72321281Y-115501280D01*
X71760209Y-115148048D01*
X70839640Y-114743555D01*
X70575031Y-114647186D01*
X69766099Y-114325161D01*
X69567224Y-114100885D01*
X69847803Y-113921640D01*
X70645902Y-113869189D01*
X71338804Y-114058832D01*
X71856258Y-114262482D01*
X72072704Y-114146405D01*
X72064433Y-113567852D01*
X71973912Y-112870486D01*
X71924071Y-111811692D01*
X72196485Y-111314805D01*
X72867664Y-111339677D01*
X73969779Y-111823155D01*
X74754146Y-112482586D01*
X75513252Y-113550669D01*
X76189663Y-114868819D01*
X76725942Y-116278451D01*
X77064653Y-117620979D01*
X77148361Y-118737818D01*
X76919630Y-119470383D01*
G37*
X76919630Y-119470383D02*
X76782963Y-119590608D01*
X76306887Y-119538430D01*
X75482842Y-119160803D01*
X74896141Y-118804952D01*
X73647556Y-118096724D01*
X72157535Y-117412687D01*
X71378067Y-117117580D01*
X70214826Y-116662792D01*
X69523346Y-116269949D01*
X69368622Y-115991692D01*
X69815649Y-115880665D01*
X69850657Y-115880444D01*
X70630943Y-116019499D01*
X71782275Y-116372816D01*
X73041910Y-116844625D01*
X74147104Y-117339153D01*
X74676000Y-117639305D01*
X75647035Y-118277266D01*
X76153505Y-118511574D01*
X76313001Y-118337198D01*
X76243115Y-117749112D01*
X76210508Y-117573675D01*
X75718307Y-115860136D01*
X74961086Y-114262614D01*
X74065709Y-113028772D01*
X73718737Y-112709225D01*
X72986598Y-112256567D01*
X72668987Y-112362530D01*
X72771602Y-113010700D01*
X73244275Y-114076149D01*
X73680708Y-114970115D01*
X73939659Y-115574895D01*
X73970445Y-115690001D01*
X73696156Y-115872879D01*
X73092236Y-115838823D01*
X72487103Y-115625415D01*
X72321281Y-115501280D01*
X71760209Y-115148048D01*
X70839640Y-114743555D01*
X70575031Y-114647186D01*
X69766099Y-114325161D01*
X69567224Y-114100885D01*
X69847803Y-113921640D01*
X70645902Y-113869189D01*
X71338804Y-114058832D01*
X71856258Y-114262482D01*
X72072704Y-114146405D01*
X72064433Y-113567852D01*
X71973912Y-112870486D01*
X71924071Y-111811692D01*
X72196485Y-111314805D01*
X72867664Y-111339677D01*
X73969779Y-111823155D01*
X74754146Y-112482586D01*
X75513252Y-113550669D01*
X76189663Y-114868819D01*
X76725942Y-116278451D01*
X77064653Y-117620979D01*
X77148361Y-118737818D01*
X76919630Y-119470383D01*
G36*
X66738500Y-105297111D02*
G01*
X66421492Y-105633655D01*
X66364903Y-105649889D01*
X66213378Y-105376947D01*
X66209334Y-105297111D01*
X66480532Y-104957890D01*
X66582931Y-104944333D01*
X66793623Y-105160458D01*
X66738500Y-105297111D01*
G37*
X66738500Y-105297111D02*
X66421492Y-105633655D01*
X66364903Y-105649889D01*
X66213378Y-105376947D01*
X66209334Y-105297111D01*
X66480532Y-104957890D01*
X66582931Y-104944333D01*
X66793623Y-105160458D01*
X66738500Y-105297111D01*
G36*
X67091278Y-113058222D02*
G01*
X66774270Y-113394766D01*
X66717681Y-113411000D01*
X66566156Y-113138058D01*
X66562112Y-113058222D01*
X66833310Y-112719001D01*
X66935709Y-112705444D01*
X67146401Y-112921569D01*
X67091278Y-113058222D01*
G37*
X67091278Y-113058222D02*
X66774270Y-113394766D01*
X66717681Y-113411000D01*
X66566156Y-113138058D01*
X66562112Y-113058222D01*
X66833310Y-112719001D01*
X66935709Y-112705444D01*
X67146401Y-112921569D01*
X67091278Y-113058222D01*
G36*
X47623534Y-49754078D02*
G01*
X48164577Y-50347647D01*
X48774933Y-51188865D01*
X49324930Y-52089390D01*
X49684899Y-52860878D01*
X49755777Y-53190344D01*
X49471935Y-53597671D01*
X49226611Y-53650444D01*
X48819321Y-53689897D01*
X48751190Y-53927150D01*
X49019657Y-54540549D01*
X49208556Y-54907742D01*
X49550609Y-55818822D01*
X49359484Y-56311820D01*
X48596722Y-56471711D01*
X48500235Y-56472666D01*
X47806525Y-56660413D01*
X47639111Y-57001833D01*
X47943296Y-57428900D01*
X48476958Y-57531000D01*
X49470449Y-57602778D01*
X50343555Y-57736750D01*
X50937208Y-57810584D01*
X51318432Y-57637089D01*
X51625003Y-57071239D01*
X51980209Y-56014008D01*
X52613267Y-54294195D01*
X53292641Y-53168410D01*
X54130074Y-52528167D01*
X55237307Y-52264977D01*
X55866799Y-52240652D01*
X57725847Y-52462818D01*
X59180320Y-53151686D01*
X60256083Y-54345288D01*
X60978999Y-56081661D01*
X61374934Y-58398840D01*
X61472401Y-60483781D01*
X61369435Y-62048436D01*
X61075134Y-63925209D01*
X60646987Y-65849940D01*
X60142487Y-67558469D01*
X59696531Y-68643500D01*
X59297022Y-69581074D01*
X59096196Y-70358778D01*
X59095747Y-70363884D01*
X58712248Y-71198631D01*
X57861984Y-71897614D01*
X56772500Y-72367366D01*
X55671342Y-72514425D01*
X54786054Y-72245326D01*
X54694936Y-72171522D01*
X54237215Y-71857939D01*
X53926799Y-72075314D01*
X53701629Y-72521626D01*
X53288946Y-73171499D01*
X52938341Y-73406000D01*
X52638326Y-73290256D01*
X52656460Y-72863800D01*
X53013943Y-72007794D01*
X53285011Y-71462866D01*
X53780764Y-70088248D01*
X53779407Y-69987023D01*
X55108692Y-69987023D01*
X55144150Y-70993425D01*
X55630108Y-71540115D01*
X56442502Y-71576879D01*
X57457271Y-71053504D01*
X57554559Y-70976989D01*
X58093859Y-70449323D01*
X58104123Y-70030169D01*
X57888272Y-69724252D01*
X57207624Y-69310747D01*
X56330753Y-69230279D01*
X55539064Y-69456244D01*
X55113960Y-69962040D01*
X55108692Y-69987023D01*
X53779407Y-69987023D01*
X53764323Y-68862357D01*
X53724376Y-68282572D01*
X54622179Y-68282572D01*
X55052774Y-68425572D01*
X55635952Y-68456383D01*
X56704235Y-68413580D01*
X57529882Y-68293897D01*
X57664425Y-68252979D01*
X58227015Y-67913989D01*
X58181510Y-67637111D01*
X57625253Y-67497443D01*
X56757049Y-67552928D01*
X55526639Y-67804085D01*
X54797575Y-68061355D01*
X54622179Y-68282572D01*
X53724376Y-68282572D01*
X53698361Y-67904998D01*
X54003294Y-67321850D01*
X54158414Y-67193946D01*
X54581746Y-66583676D01*
X54489091Y-65702254D01*
X53864100Y-64491123D01*
X53104821Y-63420656D01*
X51953507Y-62069768D01*
X51029244Y-61348648D01*
X50292789Y-61233687D01*
X49885193Y-61483727D01*
X49671714Y-61997214D01*
X49492361Y-62986811D01*
X49350844Y-64314137D01*
X49250877Y-65840811D01*
X49196169Y-67428452D01*
X49190434Y-68938677D01*
X49237383Y-70233106D01*
X49340727Y-71173357D01*
X49504179Y-71621048D01*
X49613479Y-71613818D01*
X50042386Y-71013852D01*
X50108555Y-70716971D01*
X50313619Y-70275923D01*
X50461333Y-70231000D01*
X50845105Y-70444908D01*
X50732003Y-71034760D01*
X50165447Y-71922748D01*
X49188855Y-73031065D01*
X48553366Y-73650054D01*
X46292622Y-75756047D01*
X46973482Y-76831391D01*
X47462395Y-78048789D01*
X47822834Y-79955154D01*
X47946437Y-81072246D01*
X48103235Y-82527534D01*
X48274348Y-83729664D01*
X48431692Y-84493752D01*
X48488808Y-84642712D01*
X48963303Y-84882329D01*
X49880523Y-85027615D01*
X50411597Y-85047666D01*
X51495701Y-85132159D01*
X52307171Y-85345819D01*
X52507444Y-85471000D01*
X52852582Y-86198802D01*
X52899829Y-87148460D01*
X52651605Y-87954019D01*
X52489805Y-88138734D01*
X51473849Y-88603547D01*
X50043645Y-88828976D01*
X48435817Y-88825620D01*
X46886992Y-88604076D01*
X45633793Y-88174942D01*
X45107903Y-87808125D01*
X44801961Y-87449396D01*
X44612796Y-87015271D01*
X44526250Y-86361685D01*
X44527909Y-85478912D01*
X45175918Y-85478912D01*
X45398809Y-86409817D01*
X45563334Y-87071783D01*
X45777657Y-87425360D01*
X46245467Y-87622215D01*
X47170451Y-87814015D01*
X47325810Y-87844682D01*
X49626654Y-87999312D01*
X51607861Y-87643389D01*
X52078186Y-87237010D01*
X52213725Y-86595202D01*
X51979433Y-86055160D01*
X51784250Y-85946174D01*
X51248574Y-85865896D01*
X50199419Y-85770361D01*
X48828151Y-85675991D01*
X48259598Y-85643701D01*
X45175918Y-85478912D01*
X44527909Y-85478912D01*
X44528162Y-85344576D01*
X44598841Y-83930537D01*
X45522444Y-83930537D01*
X45827589Y-84489453D01*
X46728428Y-84694154D01*
X46804891Y-84694889D01*
X47393157Y-84558863D01*
X47413907Y-84165722D01*
X47022389Y-83821320D01*
X46371891Y-83645319D01*
X45769754Y-83675934D01*
X45522444Y-83930537D01*
X44598841Y-83930537D01*
X44604373Y-83819881D01*
X44647175Y-83120528D01*
X44742983Y-80723091D01*
X44676262Y-78945542D01*
X44427721Y-77716906D01*
X43978071Y-76966208D01*
X43308020Y-76622474D01*
X42869771Y-76581000D01*
X41887002Y-76478425D01*
X41797649Y-76460139D01*
X44859339Y-76460139D01*
X45036623Y-77009782D01*
X45346055Y-77761308D01*
X45654798Y-78869323D01*
X45845468Y-80264457D01*
X45875222Y-80979391D01*
X45929632Y-82182063D01*
X46110966Y-82794119D01*
X46366645Y-82931000D01*
X46918067Y-82647779D01*
X47049639Y-82431776D01*
X47121076Y-81710277D01*
X47036304Y-80564704D01*
X46835921Y-79248531D01*
X46560528Y-78015234D01*
X46250725Y-77118288D01*
X46176899Y-76983047D01*
X45656674Y-76405117D01*
X45261196Y-76228222D01*
X44937391Y-76257340D01*
X44859339Y-76460139D01*
X41797649Y-76460139D01*
X40610080Y-76217107D01*
X39915825Y-76030384D01*
X38747256Y-75735034D01*
X37945854Y-75748002D01*
X37345844Y-76163949D01*
X36781447Y-77077536D01*
X36306395Y-78091412D01*
X35927105Y-79037428D01*
X35682328Y-79975222D01*
X35544020Y-81100069D01*
X35484138Y-82607245D01*
X35473981Y-83887703D01*
X35447009Y-85889227D01*
X35319853Y-87296127D01*
X35013052Y-88219028D01*
X34447144Y-88768558D01*
X33542667Y-89055342D01*
X32220160Y-89190008D01*
X31642595Y-89221737D01*
X30256854Y-89266225D01*
X29355373Y-89198619D01*
X28720152Y-88974934D01*
X28133190Y-88551186D01*
X28075663Y-88502061D01*
X27411912Y-87787823D01*
X27277897Y-87153525D01*
X28236333Y-87153525D01*
X28512741Y-87892155D01*
X28853694Y-88217705D01*
X29570180Y-88419381D01*
X30674442Y-88483930D01*
X31933526Y-88428479D01*
X33114481Y-88270156D01*
X33984354Y-88026087D01*
X34280050Y-87818747D01*
X34500812Y-87079094D01*
X34500159Y-86635166D01*
X34364869Y-86239767D01*
X33975907Y-86028667D01*
X33164861Y-85949048D01*
X32293277Y-85943011D01*
X30383535Y-86026994D01*
X29109598Y-86261823D01*
X28414532Y-86664487D01*
X28236333Y-87153525D01*
X27277897Y-87153525D01*
X27275034Y-87139977D01*
X27343179Y-86846874D01*
X27853876Y-86173484D01*
X28793532Y-85553462D01*
X29892283Y-85137400D01*
X30567361Y-85047666D01*
X31322459Y-84732123D01*
X31348873Y-84694889D01*
X32646055Y-84694889D01*
X32785313Y-84943492D01*
X33475848Y-85047340D01*
X33528000Y-85047666D01*
X34245098Y-84953728D01*
X34419303Y-84711679D01*
X34409944Y-84694889D01*
X33910898Y-84395450D01*
X33528000Y-84342111D01*
X32861355Y-84508948D01*
X32646055Y-84694889D01*
X31348873Y-84694889D01*
X31889101Y-83933385D01*
X32105958Y-82931000D01*
X32133335Y-82656011D01*
X33197228Y-82656011D01*
X33235478Y-83331003D01*
X33427902Y-83604144D01*
X33615632Y-83636555D01*
X34199121Y-83349937D01*
X34372201Y-83078536D01*
X34522080Y-82345036D01*
X34586294Y-81350514D01*
X34586333Y-81327707D01*
X34750661Y-80160754D01*
X35173607Y-78710458D01*
X35750109Y-77262161D01*
X36375108Y-76101208D01*
X36637998Y-75755387D01*
X37020572Y-75231532D01*
X36864411Y-74862902D01*
X36534487Y-74602857D01*
X36073629Y-74346133D01*
X35705747Y-74474157D01*
X35248136Y-75087690D01*
X35037405Y-75428469D01*
X34248477Y-76971408D01*
X33713357Y-78673410D01*
X33362805Y-80772553D01*
X33291471Y-81431694D01*
X33197228Y-82656011D01*
X32133335Y-82656011D01*
X32253626Y-81447754D01*
X32616877Y-79653361D01*
X33124623Y-77810584D01*
X33705775Y-76182184D01*
X34210036Y-75153634D01*
X34769853Y-74208846D01*
X34986149Y-73635522D01*
X34890264Y-73207388D01*
X34544792Y-72736747D01*
X33715151Y-71178708D01*
X33296192Y-69080723D01*
X33295507Y-66481921D01*
X33305706Y-66350444D01*
X33315355Y-66249264D01*
X34224539Y-66249264D01*
X34243633Y-67624455D01*
X34325339Y-69000785D01*
X34466029Y-70203207D01*
X34662077Y-71056674D01*
X34731227Y-71218657D01*
X35843988Y-72721226D01*
X37416201Y-74017287D01*
X38643277Y-74678686D01*
X41079894Y-75479799D01*
X43211754Y-75657187D01*
X45064533Y-75210520D01*
X46135068Y-74582604D01*
X46954666Y-73882686D01*
X47530485Y-73235334D01*
X47596948Y-73127077D01*
X47800922Y-72446067D01*
X48017820Y-71247369D01*
X48228056Y-69718104D01*
X48412042Y-68045388D01*
X48550191Y-66416341D01*
X48622914Y-65018081D01*
X48610625Y-64037728D01*
X48574249Y-63790953D01*
X48343454Y-62871394D01*
X44963200Y-64450995D01*
X41582947Y-66030597D01*
X39583945Y-65468078D01*
X38202731Y-65054526D01*
X36866153Y-64614819D01*
X36254888Y-64393279D01*
X35327426Y-64066798D01*
X34672259Y-63890862D01*
X34579194Y-63881000D01*
X34388693Y-64202489D01*
X34271683Y-65050260D01*
X34224539Y-66249264D01*
X33315355Y-66249264D01*
X33439850Y-64943843D01*
X33592346Y-63726397D01*
X33731819Y-62945928D01*
X33741175Y-62910861D01*
X33797450Y-62323579D01*
X33384469Y-62128301D01*
X33067045Y-62117111D01*
X31997276Y-62419460D01*
X30942387Y-63190078D01*
X30129381Y-64224317D01*
X29815119Y-65048793D01*
X29751974Y-66046915D01*
X29819898Y-67364381D01*
X29918068Y-68151265D01*
X30074339Y-69775237D01*
X29908916Y-70860416D01*
X29383798Y-71514019D01*
X28620697Y-71811562D01*
X27393759Y-71954922D01*
X26626505Y-71665016D01*
X26199078Y-70848083D01*
X26097933Y-70231000D01*
X26825222Y-70231000D01*
X26963340Y-70717283D01*
X27502537Y-70913492D01*
X28059944Y-70936555D01*
X28893273Y-70872463D01*
X29234700Y-70576142D01*
X29294666Y-70016867D01*
X29189787Y-69366185D01*
X28815214Y-69284097D01*
X28736647Y-69311312D01*
X27892954Y-69499316D01*
X27501925Y-69525444D01*
X26933119Y-69788689D01*
X26825222Y-70231000D01*
X26097933Y-70231000D01*
X26024043Y-69780200D01*
X25984043Y-68398470D01*
X26038843Y-68193969D01*
X26971906Y-68193969D01*
X27128436Y-68517846D01*
X27263996Y-68585518D01*
X27987315Y-68781701D01*
X28683687Y-68625879D01*
X28734621Y-68606534D01*
X29124620Y-68283562D01*
X28935436Y-67958209D01*
X28278912Y-67770546D01*
X28059944Y-67761555D01*
X27328914Y-67893730D01*
X26971906Y-68193969D01*
X26038843Y-68193969D01*
X26211652Y-67549088D01*
X26332881Y-67380999D01*
X26693229Y-66630891D01*
X26825222Y-65755019D01*
X26984274Y-64861697D01*
X27395647Y-63657959D01*
X27820256Y-62713316D01*
X28815290Y-60740648D01*
X27919578Y-60635129D01*
X27027949Y-60223064D01*
X26508914Y-59607884D01*
X26195932Y-58868792D01*
X26242946Y-58166791D01*
X26487850Y-57493806D01*
X27626555Y-55612566D01*
X29285873Y-54045964D01*
X31298602Y-52951412D01*
X31322212Y-52942535D01*
X33023262Y-52374260D01*
X34793954Y-51897864D01*
X36506498Y-51533555D01*
X38033105Y-51301541D01*
X39245986Y-51222030D01*
X40017350Y-51315230D01*
X40230777Y-51533777D01*
X39921383Y-51769984D01*
X39163712Y-51884525D01*
X39035519Y-51886555D01*
X38035887Y-52001583D01*
X36584826Y-52307738D01*
X34890869Y-52746628D01*
X33162550Y-53259861D01*
X31608401Y-53789045D01*
X30436956Y-54275789D01*
X30353000Y-54317777D01*
X29313619Y-55047580D01*
X28407226Y-56034819D01*
X27704503Y-57135908D01*
X27276134Y-58207260D01*
X27192802Y-59105290D01*
X27525192Y-59686411D01*
X27672912Y-59762095D01*
X28279355Y-59774582D01*
X29271237Y-59594296D01*
X29877773Y-59428875D01*
X31212998Y-59033305D01*
X32841143Y-58570391D01*
X34622433Y-58077531D01*
X36417098Y-57592119D01*
X38085363Y-57151553D01*
X39487456Y-56793229D01*
X40483604Y-56554543D01*
X40926926Y-56472666D01*
X41230191Y-56721115D01*
X41210440Y-56885067D01*
X40828045Y-57155742D01*
X39925173Y-57524467D01*
X38668013Y-57927131D01*
X38106697Y-58082407D01*
X36756218Y-58478168D01*
X35694956Y-58861508D01*
X35088476Y-59169591D01*
X35010368Y-59257506D01*
X34605063Y-59527175D01*
X33800794Y-59647273D01*
X33749740Y-59647666D01*
X32025282Y-59971682D01*
X30410255Y-60848321D01*
X29131405Y-62134475D01*
X28719210Y-62822666D01*
X28151543Y-64194758D01*
X27808841Y-65442466D01*
X27713155Y-66419266D01*
X27886534Y-66978637D01*
X28082123Y-67056000D01*
X28537564Y-66810115D01*
X28591078Y-66615027D01*
X28899730Y-64929557D01*
X29720381Y-63383130D01*
X30917806Y-62145497D01*
X32356778Y-61386407D01*
X32847375Y-61272099D01*
X33720406Y-61054158D01*
X34201137Y-60781901D01*
X34233555Y-60701831D01*
X34507174Y-60369728D01*
X34626373Y-60353222D01*
X34870471Y-60661661D01*
X34857538Y-61454634D01*
X34695885Y-62556047D01*
X40726526Y-62384636D01*
X42755842Y-62313294D01*
X44567551Y-62223967D01*
X46031575Y-62125085D01*
X47017839Y-62025077D01*
X47365801Y-61954385D01*
X47751621Y-61706847D01*
X47740810Y-61301441D01*
X47627193Y-61058777D01*
X48697444Y-61058777D01*
X48826520Y-61349153D01*
X48932629Y-61293963D01*
X48974850Y-60875298D01*
X48932629Y-60823592D01*
X48722903Y-60872018D01*
X48697444Y-61058777D01*
X47627193Y-61058777D01*
X47455289Y-60691626D01*
X47233917Y-60003549D01*
X47267051Y-59488585D01*
X47492894Y-59328623D01*
X47811943Y-59641912D01*
X48272122Y-59861577D01*
X49165585Y-59988213D01*
X49570609Y-60000444D01*
X50363921Y-60038653D01*
X50989956Y-60225081D01*
X51621787Y-60667433D01*
X52432489Y-61473413D01*
X53089146Y-62190024D01*
X54038650Y-63319041D01*
X54793852Y-64365344D01*
X55222942Y-65141927D01*
X55264877Y-65276829D01*
X55514692Y-66299939D01*
X55760016Y-66781890D01*
X56118327Y-66876459D01*
X56436975Y-66811082D01*
X56935106Y-66661515D01*
X57111051Y-66429953D01*
X56986040Y-65919379D01*
X56627460Y-65043397D01*
X55769628Y-63505164D01*
X54506175Y-61862781D01*
X53042901Y-60364200D01*
X52118639Y-59611013D01*
X51026124Y-58947268D01*
X49936110Y-58647266D01*
X48809831Y-58589333D01*
X47507924Y-58497151D01*
X47212810Y-58357450D01*
X52048833Y-58357450D01*
X54187201Y-60405737D01*
X55541188Y-61853538D01*
X56668698Y-63347665D01*
X57471678Y-64736534D01*
X57852076Y-65868563D01*
X57869666Y-66098634D01*
X58161915Y-66594094D01*
X58798274Y-66876370D01*
X59330201Y-66820686D01*
X59517984Y-66448078D01*
X59804245Y-65568066D01*
X60131061Y-64361247D01*
X60171824Y-64196636D01*
X60612105Y-61480275D01*
X60596780Y-59160243D01*
X60292908Y-56928223D01*
X59741031Y-55288794D01*
X58900933Y-54160282D01*
X57804355Y-53489084D01*
X56305475Y-53018735D01*
X55155570Y-53014254D01*
X54250149Y-53535039D01*
X53484724Y-54640485D01*
X52768530Y-56351646D01*
X52048833Y-58357450D01*
X47212810Y-58357450D01*
X46799985Y-58162028D01*
X46591680Y-57496101D01*
X46725841Y-56648266D01*
X47122260Y-55945489D01*
X47816513Y-55767111D01*
X48686029Y-55767111D01*
X48081267Y-54498911D01*
X47718268Y-53660056D01*
X47683922Y-53198189D01*
X47973679Y-52868380D01*
X48049914Y-52811425D01*
X48426702Y-52420815D01*
X48294582Y-51966364D01*
X48105367Y-51698374D01*
X47370621Y-50607676D01*
X47118207Y-49925710D01*
X47281475Y-49596502D01*
X47623534Y-49754078D01*
G37*
X47623534Y-49754078D02*
X48164577Y-50347647D01*
X48774933Y-51188865D01*
X49324930Y-52089390D01*
X49684899Y-52860878D01*
X49755777Y-53190344D01*
X49471935Y-53597671D01*
X49226611Y-53650444D01*
X48819321Y-53689897D01*
X48751190Y-53927150D01*
X49019657Y-54540549D01*
X49208556Y-54907742D01*
X49550609Y-55818822D01*
X49359484Y-56311820D01*
X48596722Y-56471711D01*
X48500235Y-56472666D01*
X47806525Y-56660413D01*
X47639111Y-57001833D01*
X47943296Y-57428900D01*
X48476958Y-57531000D01*
X49470449Y-57602778D01*
X50343555Y-57736750D01*
X50937208Y-57810584D01*
X51318432Y-57637089D01*
X51625003Y-57071239D01*
X51980209Y-56014008D01*
X52613267Y-54294195D01*
X53292641Y-53168410D01*
X54130074Y-52528167D01*
X55237307Y-52264977D01*
X55866799Y-52240652D01*
X57725847Y-52462818D01*
X59180320Y-53151686D01*
X60256083Y-54345288D01*
X60978999Y-56081661D01*
X61374934Y-58398840D01*
X61472401Y-60483781D01*
X61369435Y-62048436D01*
X61075134Y-63925209D01*
X60646987Y-65849940D01*
X60142487Y-67558469D01*
X59696531Y-68643500D01*
X59297022Y-69581074D01*
X59096196Y-70358778D01*
X59095747Y-70363884D01*
X58712248Y-71198631D01*
X57861984Y-71897614D01*
X56772500Y-72367366D01*
X55671342Y-72514425D01*
X54786054Y-72245326D01*
X54694936Y-72171522D01*
X54237215Y-71857939D01*
X53926799Y-72075314D01*
X53701629Y-72521626D01*
X53288946Y-73171499D01*
X52938341Y-73406000D01*
X52638326Y-73290256D01*
X52656460Y-72863800D01*
X53013943Y-72007794D01*
X53285011Y-71462866D01*
X53780764Y-70088248D01*
X53779407Y-69987023D01*
X55108692Y-69987023D01*
X55144150Y-70993425D01*
X55630108Y-71540115D01*
X56442502Y-71576879D01*
X57457271Y-71053504D01*
X57554559Y-70976989D01*
X58093859Y-70449323D01*
X58104123Y-70030169D01*
X57888272Y-69724252D01*
X57207624Y-69310747D01*
X56330753Y-69230279D01*
X55539064Y-69456244D01*
X55113960Y-69962040D01*
X55108692Y-69987023D01*
X53779407Y-69987023D01*
X53764323Y-68862357D01*
X53724376Y-68282572D01*
X54622179Y-68282572D01*
X55052774Y-68425572D01*
X55635952Y-68456383D01*
X56704235Y-68413580D01*
X57529882Y-68293897D01*
X57664425Y-68252979D01*
X58227015Y-67913989D01*
X58181510Y-67637111D01*
X57625253Y-67497443D01*
X56757049Y-67552928D01*
X55526639Y-67804085D01*
X54797575Y-68061355D01*
X54622179Y-68282572D01*
X53724376Y-68282572D01*
X53698361Y-67904998D01*
X54003294Y-67321850D01*
X54158414Y-67193946D01*
X54581746Y-66583676D01*
X54489091Y-65702254D01*
X53864100Y-64491123D01*
X53104821Y-63420656D01*
X51953507Y-62069768D01*
X51029244Y-61348648D01*
X50292789Y-61233687D01*
X49885193Y-61483727D01*
X49671714Y-61997214D01*
X49492361Y-62986811D01*
X49350844Y-64314137D01*
X49250877Y-65840811D01*
X49196169Y-67428452D01*
X49190434Y-68938677D01*
X49237383Y-70233106D01*
X49340727Y-71173357D01*
X49504179Y-71621048D01*
X49613479Y-71613818D01*
X50042386Y-71013852D01*
X50108555Y-70716971D01*
X50313619Y-70275923D01*
X50461333Y-70231000D01*
X50845105Y-70444908D01*
X50732003Y-71034760D01*
X50165447Y-71922748D01*
X49188855Y-73031065D01*
X48553366Y-73650054D01*
X46292622Y-75756047D01*
X46973482Y-76831391D01*
X47462395Y-78048789D01*
X47822834Y-79955154D01*
X47946437Y-81072246D01*
X48103235Y-82527534D01*
X48274348Y-83729664D01*
X48431692Y-84493752D01*
X48488808Y-84642712D01*
X48963303Y-84882329D01*
X49880523Y-85027615D01*
X50411597Y-85047666D01*
X51495701Y-85132159D01*
X52307171Y-85345819D01*
X52507444Y-85471000D01*
X52852582Y-86198802D01*
X52899829Y-87148460D01*
X52651605Y-87954019D01*
X52489805Y-88138734D01*
X51473849Y-88603547D01*
X50043645Y-88828976D01*
X48435817Y-88825620D01*
X46886992Y-88604076D01*
X45633793Y-88174942D01*
X45107903Y-87808125D01*
X44801961Y-87449396D01*
X44612796Y-87015271D01*
X44526250Y-86361685D01*
X44527909Y-85478912D01*
X45175918Y-85478912D01*
X45398809Y-86409817D01*
X45563334Y-87071783D01*
X45777657Y-87425360D01*
X46245467Y-87622215D01*
X47170451Y-87814015D01*
X47325810Y-87844682D01*
X49626654Y-87999312D01*
X51607861Y-87643389D01*
X52078186Y-87237010D01*
X52213725Y-86595202D01*
X51979433Y-86055160D01*
X51784250Y-85946174D01*
X51248574Y-85865896D01*
X50199419Y-85770361D01*
X48828151Y-85675991D01*
X48259598Y-85643701D01*
X45175918Y-85478912D01*
X44527909Y-85478912D01*
X44528162Y-85344576D01*
X44598841Y-83930537D01*
X45522444Y-83930537D01*
X45827589Y-84489453D01*
X46728428Y-84694154D01*
X46804891Y-84694889D01*
X47393157Y-84558863D01*
X47413907Y-84165722D01*
X47022389Y-83821320D01*
X46371891Y-83645319D01*
X45769754Y-83675934D01*
X45522444Y-83930537D01*
X44598841Y-83930537D01*
X44604373Y-83819881D01*
X44647175Y-83120528D01*
X44742983Y-80723091D01*
X44676262Y-78945542D01*
X44427721Y-77716906D01*
X43978071Y-76966208D01*
X43308020Y-76622474D01*
X42869771Y-76581000D01*
X41887002Y-76478425D01*
X41797649Y-76460139D01*
X44859339Y-76460139D01*
X45036623Y-77009782D01*
X45346055Y-77761308D01*
X45654798Y-78869323D01*
X45845468Y-80264457D01*
X45875222Y-80979391D01*
X45929632Y-82182063D01*
X46110966Y-82794119D01*
X46366645Y-82931000D01*
X46918067Y-82647779D01*
X47049639Y-82431776D01*
X47121076Y-81710277D01*
X47036304Y-80564704D01*
X46835921Y-79248531D01*
X46560528Y-78015234D01*
X46250725Y-77118288D01*
X46176899Y-76983047D01*
X45656674Y-76405117D01*
X45261196Y-76228222D01*
X44937391Y-76257340D01*
X44859339Y-76460139D01*
X41797649Y-76460139D01*
X40610080Y-76217107D01*
X39915825Y-76030384D01*
X38747256Y-75735034D01*
X37945854Y-75748002D01*
X37345844Y-76163949D01*
X36781447Y-77077536D01*
X36306395Y-78091412D01*
X35927105Y-79037428D01*
X35682328Y-79975222D01*
X35544020Y-81100069D01*
X35484138Y-82607245D01*
X35473981Y-83887703D01*
X35447009Y-85889227D01*
X35319853Y-87296127D01*
X35013052Y-88219028D01*
X34447144Y-88768558D01*
X33542667Y-89055342D01*
X32220160Y-89190008D01*
X31642595Y-89221737D01*
X30256854Y-89266225D01*
X29355373Y-89198619D01*
X28720152Y-88974934D01*
X28133190Y-88551186D01*
X28075663Y-88502061D01*
X27411912Y-87787823D01*
X27277897Y-87153525D01*
X28236333Y-87153525D01*
X28512741Y-87892155D01*
X28853694Y-88217705D01*
X29570180Y-88419381D01*
X30674442Y-88483930D01*
X31933526Y-88428479D01*
X33114481Y-88270156D01*
X33984354Y-88026087D01*
X34280050Y-87818747D01*
X34500812Y-87079094D01*
X34500159Y-86635166D01*
X34364869Y-86239767D01*
X33975907Y-86028667D01*
X33164861Y-85949048D01*
X32293277Y-85943011D01*
X30383535Y-86026994D01*
X29109598Y-86261823D01*
X28414532Y-86664487D01*
X28236333Y-87153525D01*
X27277897Y-87153525D01*
X27275034Y-87139977D01*
X27343179Y-86846874D01*
X27853876Y-86173484D01*
X28793532Y-85553462D01*
X29892283Y-85137400D01*
X30567361Y-85047666D01*
X31322459Y-84732123D01*
X31348873Y-84694889D01*
X32646055Y-84694889D01*
X32785313Y-84943492D01*
X33475848Y-85047340D01*
X33528000Y-85047666D01*
X34245098Y-84953728D01*
X34419303Y-84711679D01*
X34409944Y-84694889D01*
X33910898Y-84395450D01*
X33528000Y-84342111D01*
X32861355Y-84508948D01*
X32646055Y-84694889D01*
X31348873Y-84694889D01*
X31889101Y-83933385D01*
X32105958Y-82931000D01*
X32133335Y-82656011D01*
X33197228Y-82656011D01*
X33235478Y-83331003D01*
X33427902Y-83604144D01*
X33615632Y-83636555D01*
X34199121Y-83349937D01*
X34372201Y-83078536D01*
X34522080Y-82345036D01*
X34586294Y-81350514D01*
X34586333Y-81327707D01*
X34750661Y-80160754D01*
X35173607Y-78710458D01*
X35750109Y-77262161D01*
X36375108Y-76101208D01*
X36637998Y-75755387D01*
X37020572Y-75231532D01*
X36864411Y-74862902D01*
X36534487Y-74602857D01*
X36073629Y-74346133D01*
X35705747Y-74474157D01*
X35248136Y-75087690D01*
X35037405Y-75428469D01*
X34248477Y-76971408D01*
X33713357Y-78673410D01*
X33362805Y-80772553D01*
X33291471Y-81431694D01*
X33197228Y-82656011D01*
X32133335Y-82656011D01*
X32253626Y-81447754D01*
X32616877Y-79653361D01*
X33124623Y-77810584D01*
X33705775Y-76182184D01*
X34210036Y-75153634D01*
X34769853Y-74208846D01*
X34986149Y-73635522D01*
X34890264Y-73207388D01*
X34544792Y-72736747D01*
X33715151Y-71178708D01*
X33296192Y-69080723D01*
X33295507Y-66481921D01*
X33305706Y-66350444D01*
X33315355Y-66249264D01*
X34224539Y-66249264D01*
X34243633Y-67624455D01*
X34325339Y-69000785D01*
X34466029Y-70203207D01*
X34662077Y-71056674D01*
X34731227Y-71218657D01*
X35843988Y-72721226D01*
X37416201Y-74017287D01*
X38643277Y-74678686D01*
X41079894Y-75479799D01*
X43211754Y-75657187D01*
X45064533Y-75210520D01*
X46135068Y-74582604D01*
X46954666Y-73882686D01*
X47530485Y-73235334D01*
X47596948Y-73127077D01*
X47800922Y-72446067D01*
X48017820Y-71247369D01*
X48228056Y-69718104D01*
X48412042Y-68045388D01*
X48550191Y-66416341D01*
X48622914Y-65018081D01*
X48610625Y-64037728D01*
X48574249Y-63790953D01*
X48343454Y-62871394D01*
X44963200Y-64450995D01*
X41582947Y-66030597D01*
X39583945Y-65468078D01*
X38202731Y-65054526D01*
X36866153Y-64614819D01*
X36254888Y-64393279D01*
X35327426Y-64066798D01*
X34672259Y-63890862D01*
X34579194Y-63881000D01*
X34388693Y-64202489D01*
X34271683Y-65050260D01*
X34224539Y-66249264D01*
X33315355Y-66249264D01*
X33439850Y-64943843D01*
X33592346Y-63726397D01*
X33731819Y-62945928D01*
X33741175Y-62910861D01*
X33797450Y-62323579D01*
X33384469Y-62128301D01*
X33067045Y-62117111D01*
X31997276Y-62419460D01*
X30942387Y-63190078D01*
X30129381Y-64224317D01*
X29815119Y-65048793D01*
X29751974Y-66046915D01*
X29819898Y-67364381D01*
X29918068Y-68151265D01*
X30074339Y-69775237D01*
X29908916Y-70860416D01*
X29383798Y-71514019D01*
X28620697Y-71811562D01*
X27393759Y-71954922D01*
X26626505Y-71665016D01*
X26199078Y-70848083D01*
X26097933Y-70231000D01*
X26825222Y-70231000D01*
X26963340Y-70717283D01*
X27502537Y-70913492D01*
X28059944Y-70936555D01*
X28893273Y-70872463D01*
X29234700Y-70576142D01*
X29294666Y-70016867D01*
X29189787Y-69366185D01*
X28815214Y-69284097D01*
X28736647Y-69311312D01*
X27892954Y-69499316D01*
X27501925Y-69525444D01*
X26933119Y-69788689D01*
X26825222Y-70231000D01*
X26097933Y-70231000D01*
X26024043Y-69780200D01*
X25984043Y-68398470D01*
X26038843Y-68193969D01*
X26971906Y-68193969D01*
X27128436Y-68517846D01*
X27263996Y-68585518D01*
X27987315Y-68781701D01*
X28683687Y-68625879D01*
X28734621Y-68606534D01*
X29124620Y-68283562D01*
X28935436Y-67958209D01*
X28278912Y-67770546D01*
X28059944Y-67761555D01*
X27328914Y-67893730D01*
X26971906Y-68193969D01*
X26038843Y-68193969D01*
X26211652Y-67549088D01*
X26332881Y-67380999D01*
X26693229Y-66630891D01*
X26825222Y-65755019D01*
X26984274Y-64861697D01*
X27395647Y-63657959D01*
X27820256Y-62713316D01*
X28815290Y-60740648D01*
X27919578Y-60635129D01*
X27027949Y-60223064D01*
X26508914Y-59607884D01*
X26195932Y-58868792D01*
X26242946Y-58166791D01*
X26487850Y-57493806D01*
X27626555Y-55612566D01*
X29285873Y-54045964D01*
X31298602Y-52951412D01*
X31322212Y-52942535D01*
X33023262Y-52374260D01*
X34793954Y-51897864D01*
X36506498Y-51533555D01*
X38033105Y-51301541D01*
X39245986Y-51222030D01*
X40017350Y-51315230D01*
X40230777Y-51533777D01*
X39921383Y-51769984D01*
X39163712Y-51884525D01*
X39035519Y-51886555D01*
X38035887Y-52001583D01*
X36584826Y-52307738D01*
X34890869Y-52746628D01*
X33162550Y-53259861D01*
X31608401Y-53789045D01*
X30436956Y-54275789D01*
X30353000Y-54317777D01*
X29313619Y-55047580D01*
X28407226Y-56034819D01*
X27704503Y-57135908D01*
X27276134Y-58207260D01*
X27192802Y-59105290D01*
X27525192Y-59686411D01*
X27672912Y-59762095D01*
X28279355Y-59774582D01*
X29271237Y-59594296D01*
X29877773Y-59428875D01*
X31212998Y-59033305D01*
X32841143Y-58570391D01*
X34622433Y-58077531D01*
X36417098Y-57592119D01*
X38085363Y-57151553D01*
X39487456Y-56793229D01*
X40483604Y-56554543D01*
X40926926Y-56472666D01*
X41230191Y-56721115D01*
X41210440Y-56885067D01*
X40828045Y-57155742D01*
X39925173Y-57524467D01*
X38668013Y-57927131D01*
X38106697Y-58082407D01*
X36756218Y-58478168D01*
X35694956Y-58861508D01*
X35088476Y-59169591D01*
X35010368Y-59257506D01*
X34605063Y-59527175D01*
X33800794Y-59647273D01*
X33749740Y-59647666D01*
X32025282Y-59971682D01*
X30410255Y-60848321D01*
X29131405Y-62134475D01*
X28719210Y-62822666D01*
X28151543Y-64194758D01*
X27808841Y-65442466D01*
X27713155Y-66419266D01*
X27886534Y-66978637D01*
X28082123Y-67056000D01*
X28537564Y-66810115D01*
X28591078Y-66615027D01*
X28899730Y-64929557D01*
X29720381Y-63383130D01*
X30917806Y-62145497D01*
X32356778Y-61386407D01*
X32847375Y-61272099D01*
X33720406Y-61054158D01*
X34201137Y-60781901D01*
X34233555Y-60701831D01*
X34507174Y-60369728D01*
X34626373Y-60353222D01*
X34870471Y-60661661D01*
X34857538Y-61454634D01*
X34695885Y-62556047D01*
X40726526Y-62384636D01*
X42755842Y-62313294D01*
X44567551Y-62223967D01*
X46031575Y-62125085D01*
X47017839Y-62025077D01*
X47365801Y-61954385D01*
X47751621Y-61706847D01*
X47740810Y-61301441D01*
X47627193Y-61058777D01*
X48697444Y-61058777D01*
X48826520Y-61349153D01*
X48932629Y-61293963D01*
X48974850Y-60875298D01*
X48932629Y-60823592D01*
X48722903Y-60872018D01*
X48697444Y-61058777D01*
X47627193Y-61058777D01*
X47455289Y-60691626D01*
X47233917Y-60003549D01*
X47267051Y-59488585D01*
X47492894Y-59328623D01*
X47811943Y-59641912D01*
X48272122Y-59861577D01*
X49165585Y-59988213D01*
X49570609Y-60000444D01*
X50363921Y-60038653D01*
X50989956Y-60225081D01*
X51621787Y-60667433D01*
X52432489Y-61473413D01*
X53089146Y-62190024D01*
X54038650Y-63319041D01*
X54793852Y-64365344D01*
X55222942Y-65141927D01*
X55264877Y-65276829D01*
X55514692Y-66299939D01*
X55760016Y-66781890D01*
X56118327Y-66876459D01*
X56436975Y-66811082D01*
X56935106Y-66661515D01*
X57111051Y-66429953D01*
X56986040Y-65919379D01*
X56627460Y-65043397D01*
X55769628Y-63505164D01*
X54506175Y-61862781D01*
X53042901Y-60364200D01*
X52118639Y-59611013D01*
X51026124Y-58947268D01*
X49936110Y-58647266D01*
X48809831Y-58589333D01*
X47507924Y-58497151D01*
X47212810Y-58357450D01*
X52048833Y-58357450D01*
X54187201Y-60405737D01*
X55541188Y-61853538D01*
X56668698Y-63347665D01*
X57471678Y-64736534D01*
X57852076Y-65868563D01*
X57869666Y-66098634D01*
X58161915Y-66594094D01*
X58798274Y-66876370D01*
X59330201Y-66820686D01*
X59517984Y-66448078D01*
X59804245Y-65568066D01*
X60131061Y-64361247D01*
X60171824Y-64196636D01*
X60612105Y-61480275D01*
X60596780Y-59160243D01*
X60292908Y-56928223D01*
X59741031Y-55288794D01*
X58900933Y-54160282D01*
X57804355Y-53489084D01*
X56305475Y-53018735D01*
X55155570Y-53014254D01*
X54250149Y-53535039D01*
X53484724Y-54640485D01*
X52768530Y-56351646D01*
X52048833Y-58357450D01*
X47212810Y-58357450D01*
X46799985Y-58162028D01*
X46591680Y-57496101D01*
X46725841Y-56648266D01*
X47122260Y-55945489D01*
X47816513Y-55767111D01*
X48686029Y-55767111D01*
X48081267Y-54498911D01*
X47718268Y-53660056D01*
X47683922Y-53198189D01*
X47973679Y-52868380D01*
X48049914Y-52811425D01*
X48426702Y-52420815D01*
X48294582Y-51966364D01*
X48105367Y-51698374D01*
X47370621Y-50607676D01*
X47118207Y-49925710D01*
X47281475Y-49596502D01*
X47623534Y-49754078D01*
G36*
X52926091Y-69786828D02*
G01*
X52805619Y-70488893D01*
X52336682Y-71509913D01*
X52044407Y-72001899D01*
X51413726Y-72859556D01*
X50866568Y-73366139D01*
X50521771Y-73429474D01*
X50461333Y-73229795D01*
X50627149Y-72774550D01*
X51041488Y-71979046D01*
X51579684Y-71052442D01*
X52117075Y-70203897D01*
X52528996Y-69642569D01*
X52666194Y-69530527D01*
X52926091Y-69786828D01*
G37*
X52926091Y-69786828D02*
X52805619Y-70488893D01*
X52336682Y-71509913D01*
X52044407Y-72001899D01*
X51413726Y-72859556D01*
X50866568Y-73366139D01*
X50521771Y-73429474D01*
X50461333Y-73229795D01*
X50627149Y-72774550D01*
X51041488Y-71979046D01*
X51579684Y-71052442D01*
X52117075Y-70203897D01*
X52528996Y-69642569D01*
X52666194Y-69530527D01*
X52926091Y-69786828D01*
G36*
X37334780Y-48483601D02*
G01*
X37597058Y-48724941D01*
X38004879Y-49243610D01*
X37976173Y-49635893D01*
X37471980Y-50188606D01*
X37387151Y-50270234D01*
X36170060Y-51106135D01*
X34959405Y-51334671D01*
X33945630Y-50975051D01*
X33297465Y-50318536D01*
X33298899Y-49857714D01*
X34041560Y-49857714D01*
X34378350Y-50361157D01*
X34469072Y-50416833D01*
X35277404Y-50575817D01*
X36159158Y-50364642D01*
X36839940Y-49893019D01*
X37055777Y-49382600D01*
X36901218Y-48914881D01*
X36318654Y-48729227D01*
X35833467Y-48711555D01*
X34885537Y-48887408D01*
X34249428Y-49317963D01*
X34041560Y-49857714D01*
X33298899Y-49857714D01*
X33299594Y-49634641D01*
X33954423Y-48808327D01*
X33991709Y-48773049D01*
X35075117Y-48148884D01*
X36272448Y-48051294D01*
X37334780Y-48483601D01*
G37*
X37334780Y-48483601D02*
X37597058Y-48724941D01*
X38004879Y-49243610D01*
X37976173Y-49635893D01*
X37471980Y-50188606D01*
X37387151Y-50270234D01*
X36170060Y-51106135D01*
X34959405Y-51334671D01*
X33945630Y-50975051D01*
X33297465Y-50318536D01*
X33298899Y-49857714D01*
X34041560Y-49857714D01*
X34378350Y-50361157D01*
X34469072Y-50416833D01*
X35277404Y-50575817D01*
X36159158Y-50364642D01*
X36839940Y-49893019D01*
X37055777Y-49382600D01*
X36901218Y-48914881D01*
X36318654Y-48729227D01*
X35833467Y-48711555D01*
X34885537Y-48887408D01*
X34249428Y-49317963D01*
X34041560Y-49857714D01*
X33298899Y-49857714D01*
X33299594Y-49634641D01*
X33954423Y-48808327D01*
X33991709Y-48773049D01*
X35075117Y-48148884D01*
X36272448Y-48051294D01*
X37334780Y-48483601D01*
G36*
X42765735Y-47488288D02*
G01*
X43217026Y-47689567D01*
X44288227Y-48429373D01*
X44742624Y-49204520D01*
X44655645Y-49913867D01*
X44102715Y-50456275D01*
X43159262Y-50730604D01*
X41900710Y-50635714D01*
X41180963Y-50419743D01*
X40465561Y-50008445D01*
X40279884Y-49378256D01*
X40299018Y-49127606D01*
X40325509Y-49069208D01*
X40994911Y-49069208D01*
X41183325Y-49658608D01*
X41533068Y-49875515D01*
X42749629Y-50078520D01*
X43657009Y-50016200D01*
X44094211Y-49705660D01*
X44111333Y-49601632D01*
X43812363Y-49002919D01*
X43100611Y-48439444D01*
X42253818Y-48091327D01*
X41747429Y-48068590D01*
X41194979Y-48437771D01*
X40994911Y-49069208D01*
X40325509Y-49069208D01*
X40721688Y-48195858D01*
X41309289Y-47700695D01*
X42068596Y-47387567D01*
X42765735Y-47488288D01*
G37*
X42765735Y-47488288D02*
X43217026Y-47689567D01*
X44288227Y-48429373D01*
X44742624Y-49204520D01*
X44655645Y-49913867D01*
X44102715Y-50456275D01*
X43159262Y-50730604D01*
X41900710Y-50635714D01*
X41180963Y-50419743D01*
X40465561Y-50008445D01*
X40279884Y-49378256D01*
X40299018Y-49127606D01*
X40325509Y-49069208D01*
X40994911Y-49069208D01*
X41183325Y-49658608D01*
X41533068Y-49875515D01*
X42749629Y-50078520D01*
X43657009Y-50016200D01*
X44094211Y-49705660D01*
X44111333Y-49601632D01*
X43812363Y-49002919D01*
X43100611Y-48439444D01*
X42253818Y-48091327D01*
X41747429Y-48068590D01*
X41194979Y-48437771D01*
X40994911Y-49069208D01*
X40325509Y-49069208D01*
X40721688Y-48195858D01*
X41309289Y-47700695D01*
X42068596Y-47387567D01*
X42765735Y-47488288D01*
G36*
X37277507Y-38540262D02*
G01*
X37630352Y-38702996D01*
X37834971Y-39124896D01*
X37932544Y-39961824D01*
X37962234Y-41132020D01*
X38015921Y-42653703D01*
X38130893Y-44133100D01*
X38257826Y-45095583D01*
X38384196Y-46058222D01*
X38285445Y-46503660D01*
X38017869Y-46594889D01*
X37669559Y-46259785D01*
X37383356Y-45322440D01*
X37177472Y-43884801D01*
X37070118Y-42048813D01*
X37058844Y-41226099D01*
X37010634Y-40208948D01*
X36841547Y-39766713D01*
X36546189Y-39757024D01*
X36015134Y-40172997D01*
X35271179Y-41002788D01*
X34459533Y-42052295D01*
X33725404Y-43127417D01*
X33214001Y-44034050D01*
X33080490Y-44389676D01*
X33020075Y-45140106D01*
X33309514Y-45316393D01*
X33900379Y-44926785D01*
X34628219Y-44126107D01*
X35311643Y-43374931D01*
X35835239Y-42978187D01*
X36016862Y-42972533D01*
X36181156Y-43448319D01*
X36351554Y-44395147D01*
X36456367Y-45271972D01*
X36524613Y-46562588D01*
X36407568Y-47206801D01*
X36093157Y-47242172D01*
X35879851Y-47065259D01*
X35692467Y-46558965D01*
X35644666Y-46027745D01*
X35493819Y-45225050D01*
X35096524Y-45067794D01*
X34535648Y-45577433D01*
X34440400Y-45715973D01*
X33725049Y-46466261D01*
X33062727Y-46606416D01*
X32542629Y-46230934D01*
X32253950Y-45434309D01*
X32285884Y-44311037D01*
X32461877Y-43619879D01*
X32928902Y-42683923D01*
X33704503Y-41593235D01*
X34653491Y-40490416D01*
X35640676Y-39518069D01*
X36530867Y-38818794D01*
X37188873Y-38535191D01*
X37277507Y-38540262D01*
G37*
X37277507Y-38540262D02*
X37630352Y-38702996D01*
X37834971Y-39124896D01*
X37932544Y-39961824D01*
X37962234Y-41132020D01*
X38015921Y-42653703D01*
X38130893Y-44133100D01*
X38257826Y-45095583D01*
X38384196Y-46058222D01*
X38285445Y-46503660D01*
X38017869Y-46594889D01*
X37669559Y-46259785D01*
X37383356Y-45322440D01*
X37177472Y-43884801D01*
X37070118Y-42048813D01*
X37058844Y-41226099D01*
X37010634Y-40208948D01*
X36841547Y-39766713D01*
X36546189Y-39757024D01*
X36015134Y-40172997D01*
X35271179Y-41002788D01*
X34459533Y-42052295D01*
X33725404Y-43127417D01*
X33214001Y-44034050D01*
X33080490Y-44389676D01*
X33020075Y-45140106D01*
X33309514Y-45316393D01*
X33900379Y-44926785D01*
X34628219Y-44126107D01*
X35311643Y-43374931D01*
X35835239Y-42978187D01*
X36016862Y-42972533D01*
X36181156Y-43448319D01*
X36351554Y-44395147D01*
X36456367Y-45271972D01*
X36524613Y-46562588D01*
X36407568Y-47206801D01*
X36093157Y-47242172D01*
X35879851Y-47065259D01*
X35692467Y-46558965D01*
X35644666Y-46027745D01*
X35493819Y-45225050D01*
X35096524Y-45067794D01*
X34535648Y-45577433D01*
X34440400Y-45715973D01*
X33725049Y-46466261D01*
X33062727Y-46606416D01*
X32542629Y-46230934D01*
X32253950Y-45434309D01*
X32285884Y-44311037D01*
X32461877Y-43619879D01*
X32928902Y-42683923D01*
X33704503Y-41593235D01*
X34653491Y-40490416D01*
X35640676Y-39518069D01*
X36530867Y-38818794D01*
X37188873Y-38535191D01*
X37277507Y-38540262D01*
G36*
X42892748Y-44957378D02*
G01*
X42745836Y-45448388D01*
X42685579Y-45563916D01*
X42199238Y-46065854D01*
X41802520Y-46108490D01*
X41240262Y-46138051D01*
X41091691Y-46276140D01*
X40614557Y-46513554D01*
X40463032Y-46484791D01*
X39831263Y-46508082D01*
X39437027Y-46654971D01*
X38939581Y-46786443D01*
X38819666Y-46668795D01*
X39064591Y-46224029D01*
X39632294Y-45608935D01*
X40272165Y-45064323D01*
X40732230Y-44831000D01*
X40872840Y-45092058D01*
X40808759Y-45360166D01*
X40780895Y-45815452D01*
X40904209Y-45889333D01*
X41354118Y-45648451D01*
X41641888Y-45360166D01*
X42249109Y-44911542D01*
X42579441Y-44831000D01*
X42892748Y-44957378D01*
G37*
X42892748Y-44957378D02*
X42745836Y-45448388D01*
X42685579Y-45563916D01*
X42199238Y-46065854D01*
X41802520Y-46108490D01*
X41240262Y-46138051D01*
X41091691Y-46276140D01*
X40614557Y-46513554D01*
X40463032Y-46484791D01*
X39831263Y-46508082D01*
X39437027Y-46654971D01*
X38939581Y-46786443D01*
X38819666Y-46668795D01*
X39064591Y-46224029D01*
X39632294Y-45608935D01*
X40272165Y-45064323D01*
X40732230Y-44831000D01*
X40872840Y-45092058D01*
X40808759Y-45360166D01*
X40780895Y-45815452D01*
X40904209Y-45889333D01*
X41354118Y-45648451D01*
X41641888Y-45360166D01*
X42249109Y-44911542D01*
X42579441Y-44831000D01*
X42892748Y-44957378D01*
G36*
X49112383Y-39412370D02*
G01*
X49232608Y-39549037D01*
X49180430Y-40025113D01*
X48802803Y-40849158D01*
X48446952Y-41435859D01*
X47738724Y-42684444D01*
X47054687Y-44174465D01*
X46759580Y-44953933D01*
X46304792Y-46117174D01*
X45911949Y-46808654D01*
X45633692Y-46963378D01*
X45522665Y-46516351D01*
X45522444Y-46481343D01*
X45661499Y-45701057D01*
X46014816Y-44549725D01*
X46486625Y-43290090D01*
X46981153Y-42184896D01*
X47281305Y-41656000D01*
X47919266Y-40684965D01*
X48153574Y-40178495D01*
X47979198Y-40018999D01*
X47391112Y-40088885D01*
X47215675Y-40121492D01*
X45502136Y-40613693D01*
X43904614Y-41370914D01*
X42670772Y-42266291D01*
X42351225Y-42613263D01*
X41898567Y-43345402D01*
X42004530Y-43663013D01*
X42652700Y-43560398D01*
X43718149Y-43087725D01*
X44612115Y-42651292D01*
X45216895Y-42392341D01*
X45332001Y-42361555D01*
X45514879Y-42635844D01*
X45480823Y-43239764D01*
X45267415Y-43844897D01*
X45143280Y-44010719D01*
X44790048Y-44571791D01*
X44385555Y-45492360D01*
X44289186Y-45756969D01*
X43967161Y-46565901D01*
X43742885Y-46764776D01*
X43563640Y-46484197D01*
X43511189Y-45686098D01*
X43700832Y-44993196D01*
X43904482Y-44475742D01*
X43788405Y-44259296D01*
X43209852Y-44267567D01*
X42512486Y-44358088D01*
X41453692Y-44407929D01*
X40956805Y-44135515D01*
X40981677Y-43464336D01*
X41465155Y-42362221D01*
X42124586Y-41577854D01*
X43192669Y-40818748D01*
X44510819Y-40142337D01*
X45920451Y-39606058D01*
X47262979Y-39267347D01*
X48379818Y-39183639D01*
X49112383Y-39412370D01*
G37*
X49112383Y-39412370D02*
X49232608Y-39549037D01*
X49180430Y-40025113D01*
X48802803Y-40849158D01*
X48446952Y-41435859D01*
X47738724Y-42684444D01*
X47054687Y-44174465D01*
X46759580Y-44953933D01*
X46304792Y-46117174D01*
X45911949Y-46808654D01*
X45633692Y-46963378D01*
X45522665Y-46516351D01*
X45522444Y-46481343D01*
X45661499Y-45701057D01*
X46014816Y-44549725D01*
X46486625Y-43290090D01*
X46981153Y-42184896D01*
X47281305Y-41656000D01*
X47919266Y-40684965D01*
X48153574Y-40178495D01*
X47979198Y-40018999D01*
X47391112Y-40088885D01*
X47215675Y-40121492D01*
X45502136Y-40613693D01*
X43904614Y-41370914D01*
X42670772Y-42266291D01*
X42351225Y-42613263D01*
X41898567Y-43345402D01*
X42004530Y-43663013D01*
X42652700Y-43560398D01*
X43718149Y-43087725D01*
X44612115Y-42651292D01*
X45216895Y-42392341D01*
X45332001Y-42361555D01*
X45514879Y-42635844D01*
X45480823Y-43239764D01*
X45267415Y-43844897D01*
X45143280Y-44010719D01*
X44790048Y-44571791D01*
X44385555Y-45492360D01*
X44289186Y-45756969D01*
X43967161Y-46565901D01*
X43742885Y-46764776D01*
X43563640Y-46484197D01*
X43511189Y-45686098D01*
X43700832Y-44993196D01*
X43904482Y-44475742D01*
X43788405Y-44259296D01*
X43209852Y-44267567D01*
X42512486Y-44358088D01*
X41453692Y-44407929D01*
X40956805Y-44135515D01*
X40981677Y-43464336D01*
X41465155Y-42362221D01*
X42124586Y-41577854D01*
X43192669Y-40818748D01*
X44510819Y-40142337D01*
X45920451Y-39606058D01*
X47262979Y-39267347D01*
X48379818Y-39183639D01*
X49112383Y-39412370D01*
G36*
X34939111Y-49593500D02*
G01*
X35275655Y-49910508D01*
X35291889Y-49967097D01*
X35018947Y-50118622D01*
X34939111Y-50122666D01*
X34599890Y-49851468D01*
X34586333Y-49749069D01*
X34802458Y-49538377D01*
X34939111Y-49593500D01*
G37*
X34939111Y-49593500D02*
X35275655Y-49910508D01*
X35291889Y-49967097D01*
X35018947Y-50118622D01*
X34939111Y-50122666D01*
X34599890Y-49851468D01*
X34586333Y-49749069D01*
X34802458Y-49538377D01*
X34939111Y-49593500D01*
G36*
X42700222Y-49240722D02*
G01*
X43036766Y-49557730D01*
X43053000Y-49614319D01*
X42780058Y-49765844D01*
X42700222Y-49769888D01*
X42361001Y-49498690D01*
X42347444Y-49396291D01*
X42563569Y-49185599D01*
X42700222Y-49240722D01*
G37*
X42700222Y-49240722D02*
X43036766Y-49557730D01*
X43053000Y-49614319D01*
X42780058Y-49765844D01*
X42700222Y-49769888D01*
X42361001Y-49498690D01*
X42347444Y-49396291D01*
X42563569Y-49185599D01*
X42700222Y-49240722D01*
M02*
